<svg width="24" height="25" viewBox="0 0 24 25" fill="none" xmlns="http://www.w3.org/2000/svg">
<path d="M12 23.3533C12.42 23.3437 12.823 23.1858 13.1378 22.9076C13.4525 22.6294 13.6588 22.2489 13.72 21.8333H10.2134C10.2764 22.2602 10.4923 22.6497 10.8209 22.9293C11.1496 23.2089 11.5686 23.3596 12 23.3533Z" fill="#161928"/>
<path d="M21.9001 19.2533L21.6734 19.0533C21.0304 18.4804 20.4676 17.8234 20.0001 17.1C19.4896 16.1017 19.1836 15.0115 19.1001 13.8933V10.6C19.0974 10.2 19.0617 9.80084 18.9934 9.40667C17.8642 9.17456 16.8498 8.55935 16.1221 7.66519C15.3944 6.77103 14.998 5.65286 15.0001 4.5V4.08C14.3041 3.73746 13.5562 3.51221 12.7868 3.41333V2.57333C12.7868 2.33729 12.693 2.11092 12.5261 1.94401C12.3592 1.7771 12.1328 1.68333 11.8968 1.68333C11.6607 1.68333 11.4344 1.7771 11.2675 1.94401C11.1005 2.11092 11.0068 2.33729 11.0068 2.57333V3.44667C9.28392 3.6897 7.70716 4.54783 6.56759 5.86262C5.42803 7.17742 4.8026 8.86009 4.80678 10.6V13.8933C4.72328 15.0115 4.4173 16.1017 3.90678 17.1C3.44737 17.8216 2.89358 18.4785 2.26011 19.0533L2.03345 19.2533V21.1333H21.9001V19.2533Z" fill="#161928"/>
<path d="M20.0001 7.83334C21.841 7.83334 23.3334 6.34095 23.3334 4.50001C23.3334 2.65906 21.841 1.16667 20.0001 1.16667C18.1591 1.16667 16.6667 2.65906 16.6667 4.50001C16.6667 6.34095 18.1591 7.83334 20.0001 7.83334Z" fill="#161928"/>
</svg>
