<svg width="24" height="25" viewBox="0 0 24 25" fill="none" xmlns="http://www.w3.org/2000/svg">
<path d="M12 23.3534C12.4199 23.3437 12.8229 23.1858 13.1377 22.9076C13.4525 22.6295 13.6587 22.249 13.72 21.8334H10.2133C10.2763 22.2602 10.4922 22.6497 10.8209 22.9293C11.1495 23.2089 11.5685 23.3596 12 23.3534Z" fill="#DAE5EB"/>
<path d="M21.9 19.2533L21.6733 19.0534C21.0303 18.4804 20.4674 17.8234 20 17.1C19.4895 16.1017 19.1835 15.0115 19.1 13.8934V10.6C19.0973 10.2 19.0616 9.80085 18.9933 9.40668C17.8641 9.17457 16.8497 8.55936 16.122 7.6652C15.3943 6.77104 14.9979 5.65288 15 4.50002V4.08002C14.3039 3.73748 13.5561 3.51222 12.7867 3.41335V2.57335C12.7867 2.33731 12.6929 2.11093 12.526 1.94402C12.3591 1.77712 12.1327 1.68335 11.8967 1.68335C11.6606 1.68335 11.4342 1.77712 11.2673 1.94402C11.1004 2.11093 11.0067 2.33731 11.0067 2.57335V3.44668C9.2838 3.68972 7.70704 4.54785 6.56747 5.86264C5.4279 7.17743 4.80248 8.86011 4.80666 10.6V13.8934C4.72316 15.0115 4.41718 16.1017 3.90666 17.1C3.44725 17.8216 2.89345 18.4785 2.25999 19.0534L2.03333 19.2533V21.1334H21.9V19.2533Z" fill="#DAE5EB"/>
<path d="M20 7.83329C21.841 7.83329 23.3334 6.34091 23.3334 4.49996C23.3334 2.65901 21.841 1.16663 20 1.16663C18.1591 1.16663 16.6667 2.65901 16.6667 4.49996C16.6667 6.34091 18.1591 7.83329 20 7.83329Z" fill="#DAE5EB"/>
</svg>
