<svg width="24" height="25" viewBox="0 0 24 25" fill="none" xmlns="http://www.w3.org/2000/svg">
<path d="M20.71 19.79L17.31 16.4C18.407 15.0025 19.0022 13.2767 19 11.5C19 9.91775 18.5308 8.37103 17.6518 7.05544C16.7727 5.73985 15.5233 4.71447 14.0615 4.10897C12.5997 3.50347 10.9911 3.34504 9.43928 3.65372C7.88743 3.9624 6.46197 4.72433 5.34315 5.84315C4.22433 6.96197 3.4624 8.38743 3.15372 9.93928C2.84504 11.4911 3.00347 13.0997 3.60897 14.5615C4.21447 16.0233 5.23985 17.2727 6.55544 18.1518C7.87103 19.0308 9.41775 19.5 11 19.5C12.7767 19.5022 14.5025 18.907 15.9 17.81L19.29 21.21C19.383 21.3037 19.4936 21.3781 19.6154 21.4289C19.7373 21.4797 19.868 21.5058 20 21.5058C20.132 21.5058 20.2627 21.4797 20.3846 21.4289C20.5064 21.3781 20.617 21.3037 20.71 21.21C20.8037 21.117 20.8781 21.0064 20.9289 20.8846C20.9797 20.7627 21.0058 20.632 21.0058 20.5C21.0058 20.368 20.9797 20.2373 20.9289 20.1154C20.8781 19.9936 20.8037 19.883 20.71 19.79ZM5 11.5C5 10.3133 5.3519 9.15328 6.01119 8.16658C6.67047 7.17989 7.60755 6.41085 8.7039 5.95673C9.80026 5.5026 11.0067 5.38378 12.1705 5.61529C13.3344 5.8468 14.4035 6.41825 15.2426 7.25736C16.0818 8.09648 16.6532 9.16558 16.8847 10.3295C17.1162 11.4933 16.9974 12.6997 16.5433 13.7961C16.0892 14.8925 15.3201 15.8295 14.3334 16.4888C13.3467 17.1481 12.1867 17.5 11 17.5C9.4087 17.5 7.88258 16.8679 6.75736 15.7426C5.63214 14.6174 5 13.0913 5 11.5Z" fill="#161928"/>
</svg>
