<svg width="124" height="130" viewBox="0 0 124 130" fill="none" xmlns="http://www.w3.org/2000/svg">
<path opacity="0.32" d="M62.6169 22.432C62.7774 22.0515 62.4325 21.561 62.0223 21.5818C62.0431 22.2953 62.0669 23.0117 62.0877 23.7251C62.0996 24.1443 62.0877 24.6199 61.7756 24.8993C61.4248 25.2085 60.8213 25.1431 60.5389 25.5147C60.0395 24.8191 59.8998 23.9184 59.4123 23.2138C58.9248 22.5093 57.7654 22.1169 57.2541 22.8036C56.9568 23.199 57.0341 23.7519 57.1441 24.2335C57.8397 27.2181 59.4182 29.9232 60.2714 32.8662C60.7708 34.5844 61.0205 36.3769 61.0057 38.1665C61.7786 38.333 62.5515 38.4994 63.3244 38.6659C63.4106 34.7122 63.3838 30.7526 63.2441 26.7989C63.2233 26.2222 63.1965 25.6277 62.9557 25.1045" fill="#768AD3"/>
<path opacity="0.32" d="M62.0045 52.3343C61.7161 53.8445 61.1989 55.4111 61.6418 56.8826C62.6912 57.0877 63.7405 57.2928 64.7899 57.4979C64.9861 57.5366 65.1942 57.5752 65.3874 57.5158C65.869 57.3701 65.979 56.7488 65.982 56.2464C65.9968 54.3974 65.7263 52.5662 65.4142 50.7499C65.1734 49.3557 65.0575 47.7237 64.1092 46.5881C63.2233 45.5298 62.2869 45.9103 62.1739 47.2867C62.0342 48.9871 62.3315 50.6161 62.0045 52.3343Z" fill="#768AD3"/>
<path d="M72.1682 30.9577C72.1712 30.8507 72.1801 30.7347 72.2603 30.6634C72.3228 30.6099 72.409 30.598 72.4892 30.5891C74.3531 30.3958 76.22 30.2026 78.0928 30.2324C80.1766 30.2621 82.2427 30.5683 84.3176 30.7734C86.2142 30.9636 88.1167 31.0736 90.0222 31.1004C90.1857 31.1004 90.376 31.1152 90.477 31.246C90.5751 31.3709 90.5484 31.5522 90.5157 31.7098C90.1471 33.4964 89.7279 35.2859 89.6952 37.1112C89.6744 38.2765 89.8111 39.4388 89.7993 40.6071C89.7874 41.7724 89.615 42.9704 89.0293 43.9781C86.8355 43.5857 84.603 43.4133 82.3764 43.4609C81.0863 43.4906 79.7991 43.5917 78.5149 43.6957C77.0761 43.8116 75.6373 43.9395 74.1985 44.0614C73.497 44.1208 72.403 44.2992 71.9541 43.5887C71.425 42.7474 71.856 40.9162 71.8858 39.962C71.9304 38.5262 71.975 37.0933 72.0195 35.6575C72.0671 34.0909 72.1176 32.5273 72.1652 30.9607L72.1682 30.9577Z" fill="#AAA79F"/>
<path d="M52.602 3.94775C53.3601 4.87226 53.1995 6.20998 53.1252 7.40203C52.8666 11.5965 54.2816 15.8713 56.9927 19.0818C56.0266 18.8826 55.2923 18.1037 54.7126 17.3071C54.0289 16.3707 53.4611 15.3481 53.0271 14.2749C52.6347 13.3088 52.1829 12.1435 51.1632 11.9324C50.753 11.6173 50.8689 10.8504 51.3535 10.669C51.5051 10.6125 51.6775 10.6066 51.8143 10.5174C52.0313 10.3777 52.0848 10.0864 52.1086 9.82775C52.2334 8.51679 52.1413 7.18502 51.8351 5.90676" fill="#161928"/>
<path d="M52.9259 19.2571C53.4877 19.3939 53.2588 20.2708 52.8307 20.6573C51.7338 21.6442 50.2029 21.9445 48.77 22.3012C47.2926 22.6668 45.836 23.1306 44.418 23.6894C43.9721 23.8648 43.5202 24.0551 43.1576 24.3672C42.2093 25.1877 42.1052 26.5967 42.126 27.8512C42.2093 33.1396 43.2646 38.4132 45.2266 43.3241C45.5833 44.2129 46.0203 45.1523 46.8526 45.625C47.3699 45.9193 47.9823 45.9936 48.5738 46.0471C51.163 46.279 53.7761 46.2225 56.3534 45.8747C57.706 45.6904 59.1656 45.4466 60.3725 46.0887C59.549 46.7249 58.4521 46.8378 57.4206 46.9716C54.106 47.4027 50.8509 48.2885 47.7712 49.5906C47.5423 49.6887 47.3015 49.7987 47.1677 50.0097C47.0607 50.1792 47.0399 50.3902 47.0221 50.5894C46.6564 54.9414 46.2938 59.2935 45.9281 63.6455C45.9043 63.9219 45.8776 64.2103 45.7379 64.4511C45.3663 65.0902 44.4537 65.0754 43.7224 64.9802C43.9216 61.8084 44.1267 58.6097 44.9561 55.5389C45.5803 53.2292 46.5494 50.7469 45.6219 48.5442C45.3395 47.8753 44.8996 47.2897 44.5012 46.6833C40.9489 41.2967 40.6873 34.4268 41.0083 27.985C41.1153 25.8446 41.4542 23.3892 43.2586 22.2388C44.0613 21.7275 45.0304 21.5699 45.9579 21.3588C47.9436 20.904 49.8461 20.149 51.7398 19.3969" fill="#161928"/>
<path d="M53.2975 68.0748C52.1708 68.4078 50.8361 68.9756 50.7053 70.1438C50.6607 70.5422 50.7766 70.9375 50.8896 71.3181C51.5941 73.7022 52.2987 76.0892 53.1548 78.4228C55.4616 84.6982 58.8564 90.5366 61.0473 96.8506C62.611 101.36 63.5474 106.078 65.328 110.507C66.3625 113.082 67.6735 115.537 68.9815 117.983C69.252 118.489 69.5968 119.048 70.1586 119.14C70.771 119.241 71.7045 118.911 71.8144 119.52C70.997 119.61 70.0992 119.681 69.4125 119.226C68.9547 118.923 68.6664 118.429 68.3958 117.951C62.8339 108.061 59.5104 97.1032 55.1792 86.6185C53.6453 82.9027 51.9806 79.2403 50.3426 75.569C49.1595 72.9174 47.9853 70.2509 47.0786 67.4922C48.0923 67.6765 49.109 67.8638 50.1227 68.0481" fill="#161928"/>
<path d="M40.0125 114.639C39.3348 113.878 38.654 112.924 38.877 111.928C38.9661 111.53 39.195 111.182 39.418 110.84C43.7462 104.25 48.0745 97.6621 52.4057 91.0716C52.6108 90.7595 52.8249 90.4384 53.137 90.2363C53.7226 89.8528 54.5312 89.9866 55.1168 90.373C55.7024 90.7595 56.1097 91.3511 56.5051 91.9307C55.5568 89.3356 54.3945 86.8177 53.033 84.4128C52.162 85.8099 51.8201 87.4628 51.3237 89.0323C50.5983 91.3184 49.5133 93.4884 48.1221 95.4385C47.1173 96.8446 45.9579 98.1377 44.9769 99.5617C44.32 100.519 43.7462 101.53 43.1755 102.54C42.5007 103.735 41.8229 104.93 41.1481 106.122C39.9293 108.281 38.7075 110.436 37.4857 112.594C37.3163 112.891 37.1439 113.239 37.2539 113.563C37.3371 113.81 37.566 113.976 37.78 114.125C38.6302 114.714 39.4804 115.299 40.3336 115.888C40.8746 116.262 41.6327 117.032 42.2896 117.02C41.5494 116.218 40.7884 115.409 40.0185 114.636L40.0125 114.639Z" fill="#161928"/>
<path d="M71.7611 123.37C72.0762 124.416 72.6083 125.397 73.3187 126.23C73.6933 126.667 74.1362 127.077 74.6862 127.246C75.7207 127.562 76.7879 126.961 77.7005 126.384C79.9419 124.969 82.1833 123.551 84.4248 122.136C84.5229 123.1 83.8064 123.941 83.0989 124.604C81.1518 126.432 78.9015 127.936 76.4668 129.036C75.9466 129.271 75.3907 129.494 74.8259 129.431C74.0679 129.351 73.4555 128.786 72.9739 128.195C72.2278 127.273 71.657 126.209 71.3003 125.076" fill="#161928"/>
<path d="M75.3342 48.5025C76.229 48.4134 77.1327 48.3034 77.9681 47.9764C78.8836 47.6167 79.6803 47.0132 80.5275 46.5138C81.5026 45.9401 82.5549 45.4971 83.6489 45.2058C82.4776 44.754 81.2053 44.5667 79.9508 44.6588C79.6328 44.6826 79.3087 44.7272 79.0234 44.8699C78.4912 45.1404 78.191 45.7052 77.8135 46.169C77.323 46.7724 76.6601 47.2362 75.9228 47.4889C75.6137 46.7695 75.3045 46.053 74.9954 45.3337C74.9448 45.2147 74.8854 45.0869 74.7694 45.0275C74.6089 44.9442 74.4216 45.0275 74.2522 45.0839C73.5328 45.3277 72.7212 45.0988 71.9929 45.3277C70.9555 45.6517 69.7753 47.2986 70.6047 48.3272C71.4341 49.3557 74.2016 48.6155 75.3283 48.4996L75.3342 48.5025Z" fill="#161928"/>
<path opacity="0.58" d="M4.22718 121.542C17.5062 122.511 30.8477 122.657 44.1476 121.976C50.8361 121.634 57.5188 121.081 64.2163 121.09C65.7412 121.09 67.3316 121.14 68.6783 121.857C70.0249 122.573 71.0267 124.17 70.5659 125.623C60.8601 125.591 51.1958 124.357 41.49 124.202C31.5552 124.045 21.6353 125.017 11.7005 125.088C7.73794 125.115 3.67128 124.981 0 123.489" fill="#161928"/>
<path d="M123.718 122.781C123.147 122.413 122.422 122.383 121.765 122.422C121.185 122.454 120.62 122.567 120.053 122.668C119.345 122.627 118.635 122.642 117.921 122.698C115.014 122.93 112.115 123.287 109.208 123.519C106.313 123.748 103.399 123.878 100.495 123.718C99.0712 123.641 97.6562 123.545 96.2293 123.525C94.7994 123.504 93.3666 123.525 91.9367 123.566C91.2292 123.587 90.5217 123.611 89.8172 123.641C89.1037 123.67 88.3903 123.664 87.6768 123.688C87.1328 123.706 86.5502 123.718 86.024 123.869C85.6554 123.973 85.26 124.14 84.8706 124.143C84.7993 124.143 84.7517 124.149 84.7279 124.098C84.9479 123.917 85.1679 123.736 85.379 123.545C85.6762 123.278 85.9675 123.001 86.2381 122.707C86.5026 122.422 86.7494 122.121 86.9991 121.824C87.2428 121.536 87.4925 121.233 87.6471 120.885C87.8225 120.486 87.6947 120.088 87.4598 119.746C87.2428 119.428 86.9753 119.128 86.6959 118.86C86.4432 118.617 86.131 118.382 85.7743 118.325C85.26 118.245 84.7606 118.417 84.2909 118.643C83.8034 118.667 83.3218 118.747 82.8462 118.852C82.5252 118.923 82.2041 119.006 81.886 119.086C81.5828 119.164 81.2915 119.268 80.9912 119.36C80.7088 119.449 80.4056 119.526 80.1084 119.458C79.8259 119.396 79.5644 119.256 79.3057 119.131C79.0233 118.994 78.732 118.881 78.4436 118.756C78.1583 118.635 77.855 118.522 77.5934 118.355C77.3824 118.218 77.1951 118.049 76.987 117.906C76.9305 117.868 76.8681 117.829 76.8057 117.793C76.8889 117.746 76.9662 117.686 77.0316 117.603C77.1862 117.404 77.1951 117.163 77.0881 116.94C76.8651 116.476 76.3479 116.206 75.9555 115.906C75.795 115.781 75.6196 115.674 75.5482 115.475C75.4085 115.082 75.3223 114.675 75.1648 114.285C74.8288 113.453 74.4751 112.633 74.1748 111.785C73.5654 110.064 73.072 108.304 72.635 106.533C72.421 105.668 72.2337 104.797 71.9929 103.937C71.7491 103.066 71.4637 102.21 71.1486 101.363C70.5184 99.6746 69.7663 98.0337 68.9399 96.4344C68.7437 96.0539 68.5356 95.6823 68.4108 95.2721C68.3067 94.9302 68.2473 94.5794 68.2027 94.2257C68.1492 93.7946 68.1016 93.3666 68.0095 92.9415C67.9322 92.5907 67.8668 92.2161 67.6052 91.9515C67.513 91.8594 67.409 91.7762 67.3347 91.6662C67.2276 91.5086 67.2395 91.3421 67.2693 91.1608C67.3347 90.7744 67.3822 90.4117 67.3674 90.0163C67.3555 89.6536 67.293 89.2999 67.2693 88.9402C67.2484 88.6221 67.2395 88.3041 67.1949 87.9889C67.183 87.9057 67.1682 87.8254 67.1504 87.7422C67.1563 87.6501 67.1474 87.5549 67.1206 87.4598C67.0463 87.1744 66.9304 86.9128 66.9006 86.6156C66.8679 86.2618 66.8917 85.9081 66.859 85.5543C66.8234 85.1797 66.7015 84.829 66.5974 84.4693C66.3923 83.7558 66.1991 83.0364 65.9821 82.3259C65.8751 81.9722 65.7591 81.6214 65.6313 81.2766C65.5094 80.9496 65.3757 80.6256 65.2686 80.2926C65.0278 79.5494 64.8584 78.7884 64.7098 78.0185C65.1705 77.4656 65.3786 76.7611 65.5451 76.0714C65.7591 75.1796 65.988 74.2907 66.1842 73.393C66.3923 72.4387 66.5409 71.4726 66.749 70.5154C66.8917 69.8674 67.076 69.2342 67.2366 68.5921C67.3109 68.2978 67.3822 68.0005 67.4238 67.7003C67.4417 67.5754 67.4744 67.403 67.4417 67.2662C67.8162 67.3852 68.2532 67.3079 68.6308 67.2514C69.0172 67.1949 69.4007 67.0938 69.7931 67.0582C70.0487 67.0344 70.3222 67.0373 70.566 66.9511C70.8127 66.8649 70.9168 66.7104 70.9435 66.4577C70.9673 66.208 70.9346 65.9612 70.9287 65.7115C70.9197 65.3013 70.9465 64.8881 70.9376 64.4779C70.9316 64.0587 70.896 63.6396 70.8454 63.2234C70.7473 62.397 70.5898 61.5795 70.4292 60.765C70.2657 59.9415 70.1082 59.1181 69.9863 58.2857C69.8674 57.4653 69.7961 56.621 69.5434 55.8303C69.4839 55.6489 69.4274 55.4646 69.3977 55.2774C69.365 55.0693 69.3561 54.8582 69.3442 54.6501C69.3204 54.2399 69.2521 53.8356 69.2223 53.4254C69.1748 52.7714 69.1956 52.1144 69.255 51.4634C69.258 51.4931 69.2818 51.5199 69.3204 51.5199C69.8466 51.5466 70.3638 51.4307 70.8811 51.3385C71.1457 51.291 71.4102 51.2672 71.6778 51.2375C71.9483 51.2077 72.2188 51.1691 72.4923 51.1364C72.7658 51.1037 73.0393 51.0799 73.3128 51.074C73.5773 51.071 73.8389 51.074 74.1035 51.0591C74.6326 51.0323 75.1618 50.9699 75.685 50.8807C76.2736 50.7797 76.8532 50.637 77.424 50.4646C77.5102 50.4378 77.5489 50.3367 77.5013 50.2624C77.8402 50.2951 78.188 50.2475 78.515 50.1584C78.8895 50.0573 79.2165 49.8819 79.4662 49.5817C79.597 49.4241 79.6922 49.2457 79.817 49.0852C79.9181 48.9544 80.04 48.8563 80.1827 48.7761C80.3789 48.6661 80.5899 48.5769 80.795 48.4818C81.0388 48.3688 81.2855 48.2588 81.5323 48.1518C81.9871 47.9556 82.4449 47.7653 82.9146 47.6108C83.2951 47.4859 83.6815 47.3789 84.0442 47.2124C84.2226 47.1292 84.389 47.0311 84.5436 46.9092C84.7071 46.7784 84.8231 46.6119 84.9628 46.4574C85.2571 46.1333 85.6197 45.8985 86.0002 45.6844C86.1905 45.5774 86.3837 45.4704 86.574 45.3634C86.7464 45.2653 86.9248 45.1702 87.0704 45.0305C87.1358 44.968 87.1982 44.8907 87.2309 44.8016C87.3736 44.7897 87.5163 44.7807 87.659 44.7689C87.986 44.7421 88.31 44.7064 88.6341 44.6529C88.9284 44.6024 89.2286 44.5429 89.5021 44.4211C89.6775 44.3438 89.835 44.2219 89.9331 44.0554C90.0283 43.8919 90.058 43.7046 90.0788 43.5203C90.1472 42.9139 90.1828 42.3015 90.2126 41.6921C90.2274 41.4275 90.2512 41.157 90.2512 40.8925C90.2512 40.7617 90.2453 40.5714 90.1709 40.4406C90.1769 39.8639 90.1977 39.2872 90.2155 38.7135C90.2363 38.0387 90.2304 37.3609 90.2571 36.6861C90.2809 36.0529 90.3493 35.4197 90.4979 34.8014C90.5693 34.5071 90.6644 34.2187 90.7239 33.9185C90.7803 33.6242 90.816 33.3269 90.8309 33.0267C90.8606 32.444 90.7982 31.8792 90.6763 31.3085C90.6287 31.0796 90.6079 30.815 90.4682 30.6188C90.3047 30.3899 90.0401 30.3572 89.7845 30.3067C89.1275 30.1699 88.4587 30.1016 87.7958 29.9916C87.118 29.8786 86.4343 29.7983 85.7505 29.724C85.0668 29.6527 84.3831 29.5873 83.7023 29.504C83.0246 29.4208 82.3557 29.296 81.6779 29.2246C81.0091 29.1562 80.3402 29.1235 79.6684 29.0879C78.9876 29.0492 78.3099 29.0106 77.6291 28.9957C76.9484 28.9808 76.2646 28.9808 75.5839 28.9868C74.9091 28.9927 74.2343 29.0165 73.5654 29.1206C73.1166 29.1889 72.6558 29.2781 72.2545 29.5011C72.1088 29.5843 71.9691 29.6884 71.8621 29.8162C71.6807 29.183 71.431 28.5736 71.2081 27.9523C71.0921 27.6223 70.994 27.2864 70.896 26.9505C70.8097 26.6592 70.7027 26.3916 70.4144 26.2519C70.1468 26.1241 70.0963 25.8655 69.9922 25.6158C69.8704 25.3155 69.6563 25.1253 69.3977 24.9409C69.148 24.7596 68.9132 24.5634 68.6367 24.4207C68.3692 24.281 68.0808 24.177 67.7954 24.0848C67.1504 23.8767 66.4696 23.7311 65.8959 23.3506C65.887 23.3446 65.878 23.3416 65.8721 23.3416C65.7948 23.1484 65.6848 22.976 65.5035 22.8363C65.1259 22.5509 64.6503 22.429 64.2282 22.2239C63.6842 21.9593 63.274 21.4896 62.8132 21.1091C62.6972 20.9219 62.5813 20.7316 62.4654 20.5443C62.1503 20.036 61.8381 19.5098 61.6806 18.9272C61.5825 18.5705 61.5557 18.2078 61.5795 17.8392C61.6063 17.4438 61.6776 17.0484 61.6657 16.6501C61.6657 16.6055 61.6449 16.5698 61.6182 16.549C61.6717 16.4777 61.7281 16.4034 61.7817 16.332C62.0492 15.9783 62.2632 15.6126 62.3911 15.1845C62.611 14.4443 62.6021 13.6625 62.6675 12.8985C62.7062 12.9758 62.7567 13.0412 62.8281 13.0858C63.0124 13.1988 63.1967 13.062 63.3096 12.9164C63.4791 12.6994 63.5266 12.4289 63.5593 12.1613C63.5861 11.9384 63.5891 11.7095 63.6247 11.4865C63.6485 11.326 63.6753 11.1625 63.6931 11.002C63.7347 10.6512 63.7704 10.2736 63.6723 9.92882C63.6307 9.77424 63.5474 9.62858 63.4166 9.53345C63.4642 9.41157 63.482 9.27185 63.4969 9.15294C63.5415 8.81108 63.5772 8.46625 63.592 8.12142C63.6277 7.3069 63.5772 6.4894 63.4434 5.68677C63.378 5.29735 63.2918 4.9109 63.1818 4.5304C63.0896 4.21232 63.0064 3.88829 62.9024 3.57319C62.8013 3.27294 62.6675 2.98162 62.4416 2.75569C62.1741 2.48815 61.7965 2.33951 61.4398 2.23547C61.0593 2.12548 60.6609 2.07792 60.2626 2.07494C60.2359 2.01549 60.2091 1.95306 60.1823 1.89361C60.0397 1.55769 59.8762 1.23664 59.674 0.930455C59.4927 0.65994 59.2757 0.404287 58.9933 0.234844C58.6901 0.0535089 58.3393 0.0029727 57.9915 0C57.6169 0 57.2423 0.0445905 56.8678 0.0743175C56.4724 0.104044 56.08 0.121881 55.6876 0.178363C55.2774 0.237817 54.8701 0.321051 54.4688 0.413205C54.0794 0.502386 53.7108 0.653995 53.36 0.841275C53.0092 1.02558 52.6763 1.24556 52.3433 1.4596C52.0966 1.62012 51.8528 1.78362 51.621 1.96198C51.1097 2.34843 50.5835 2.78839 50.2416 3.34132C50.093 3.5821 49.9919 3.86451 49.9741 4.14989C49.9622 4.34014 50.0127 4.54823 50.1911 4.6493C50.2833 4.69984 50.3873 4.7147 50.4913 4.70876C50.42 4.74443 50.3487 4.78307 50.2892 4.83956C49.989 5.11899 49.9711 5.59759 50.0068 5.9781C50.0276 6.19511 50.0692 6.41211 50.096 6.62912C50.1257 6.85802 50.1465 7.08692 50.1822 7.31284C50.2535 7.77956 50.3516 8.2433 50.4349 8.70704C50.4824 8.96863 50.524 9.23321 50.5478 9.49778C50.5597 9.6256 50.5686 9.75045 50.5746 9.87828C50.5805 9.99124 50.5686 10.1072 50.5865 10.2201C50.3932 10.9366 50.6905 11.7065 50.9937 12.3575C51.0889 12.5597 51.187 12.7588 51.2791 12.961C51.3237 13.0561 51.3653 13.1542 51.404 13.2523C51.4218 13.2969 51.4337 13.3593 51.4604 13.4009C51.4991 13.4604 51.5645 13.4693 51.6329 13.4782C51.728 13.4931 51.8201 13.4931 51.9153 13.4931C51.9955 13.4931 52.0877 13.4931 52.1561 13.5406C52.266 13.6209 52.2809 13.8201 52.3017 13.942C52.376 14.3314 52.4712 14.7149 52.602 15.0924C52.712 15.4105 52.8606 15.7107 53.0241 16.005C53.0538 16.3053 53.1014 16.6025 53.1311 16.9057C53.1519 17.1079 53.1638 17.3041 53.137 17.5062C53.1311 17.5508 53.1281 17.5954 53.1311 17.637C53.1252 17.643 53.1162 17.6459 53.1103 17.6519C53.1073 17.6549 53.1043 17.6578 53.1014 17.6638C53.0865 17.6727 53.0746 17.6846 53.0598 17.6965C53.036 17.7173 53.0241 17.7411 53.0181 17.7678C53.0181 17.7678 53.0181 17.7708 53.0152 17.7738C52.9973 17.7262 52.9438 17.6905 52.8903 17.7084C52.5009 17.8303 52.1888 18.1127 51.9331 18.4218C51.9242 18.4307 51.9182 18.4426 51.9093 18.4515C51.8736 18.4159 51.8083 18.4099 51.7726 18.4605C51.0056 19.5366 49.8225 20.0746 48.6126 20.4968C47.917 20.7405 47.2184 20.9754 46.496 21.121C46.1393 21.1954 45.7737 21.2459 45.408 21.2548C45.2356 21.2578 45.0691 21.2162 44.8997 21.1864C44.6113 21.1389 44.0228 21.0467 43.9187 21.4034C43.3896 21.4034 42.8634 21.3202 42.3699 21.5759C41.9151 21.8107 41.5108 22.1823 41.3087 22.6579C41.0709 23.2108 40.9371 23.8292 40.836 24.4207C40.732 25.0331 40.6814 25.6485 40.6458 26.2697C40.5714 27.4975 40.3366 28.7074 40.2682 29.9351C40.2563 30.1699 40.2415 30.4048 40.1999 30.6337C40.1672 30.815 40.1285 31.0231 40.0126 31.1717C39.8996 31.3144 39.7242 31.3977 39.6291 31.5552C39.5191 31.7365 39.5429 31.9744 39.641 32.1527C39.7242 32.3043 39.971 32.4292 39.9799 32.6075C39.9858 32.7086 39.9264 32.8127 39.8848 32.8989C39.8283 33.0148 39.7658 33.1278 39.7153 33.2467C39.6023 33.5083 39.6083 33.7847 39.6202 34.0642C39.6321 34.3793 39.6321 34.6973 39.6559 35.0125C39.751 36.3383 40.1999 37.5868 40.5744 38.8532C40.7647 39.5042 40.9341 40.1612 41.1214 40.8152C41.3057 41.4662 41.493 42.1142 41.6684 42.7682C41.8378 43.3895 42.0132 44.0108 42.2391 44.6172C42.4442 45.1731 42.7029 45.6963 42.9823 46.2195C43.2023 46.6298 43.4193 47.0489 43.7403 47.3878C44.0346 47.6999 44.4181 47.9229 44.8373 48.015C44.8373 48.024 44.8373 48.0329 44.8432 48.0448C45.1553 48.8504 44.9502 49.7065 44.7659 50.5151C44.6767 50.9015 44.5905 51.288 44.543 51.6834C44.4835 52.1679 44.5043 52.6554 44.5162 53.14C44.543 54.1299 44.433 55.1079 44.32 56.0889C44.21 57.061 43.99 58.0152 43.8801 58.9873C43.773 59.9237 43.7076 60.872 43.4966 61.7935C43.3479 62.4416 43.0745 63.0539 42.908 63.699C42.7534 64.3084 42.6672 64.9921 42.9793 65.5688C43.1428 65.875 43.4223 66.1455 43.7374 66.2912C44.1327 66.4696 44.5727 66.4725 44.9889 66.5796C45.1553 66.6241 45.3218 66.6777 45.4853 66.7341C45.4021 67.0463 45.5775 67.3792 45.8123 67.6527C46.2017 68.1046 46.4871 68.5861 46.7457 69.1212C47.373 70.4173 48.1072 71.6569 48.7612 72.9352C50.0871 75.5303 51.2583 78.1969 52.5693 80.8009C52.6228 80.905 52.6733 81.009 52.7268 81.1131C52.712 81.3895 52.706 81.663 52.6822 81.9395C52.6674 82.0971 52.6555 82.2724 52.5871 82.4181C52.5366 82.5251 52.4652 82.6202 52.3939 82.7124C52.1144 83.087 51.7072 83.5775 52.0074 84.0442C51.841 84.4663 51.722 84.9003 51.6775 85.3551C51.6269 85.8635 51.6656 86.3777 51.5496 86.8772C51.3029 87.9414 50.7292 88.9135 50.2357 89.8766C49.989 90.3612 49.7987 90.8606 49.5966 91.363C49.3885 91.8921 49.1477 92.4064 48.8653 92.9028C48.3332 93.8422 47.6435 94.6954 47.0044 95.5634C45.7261 97.2994 44.4389 99.0325 43.3212 100.876C42.7623 101.794 42.2481 102.742 41.8021 103.723C41.5732 104.226 41.38 104.74 41.1482 105.24C40.9103 105.754 40.6487 106.256 40.3961 106.765C40.1969 107.163 40.0037 107.564 39.6796 107.876C39.4626 108.087 39.1178 108.331 39.0316 108.637C39.0108 108.706 39.0138 108.774 39.0286 108.842C38.8651 109.155 38.6808 109.458 38.5054 109.764C38.3092 110.106 38.1101 110.445 37.9198 110.79C37.6017 111.36 37.2539 111.919 36.9923 112.523C36.8645 112.817 36.7515 113.123 36.6891 113.438C36.6386 113.694 36.6148 113.955 36.6832 114.208C36.7991 114.648 37.132 114.999 37.4798 115.275C37.8871 115.596 38.3419 115.852 38.8057 116.087C39.204 116.289 39.6142 116.47 40.0037 116.69C40.5477 117 41.0263 117.398 41.4365 117.871C41.8438 118.343 42.1856 118.866 42.5126 119.393C42.685 119.669 42.8604 119.945 43.0774 120.186C43.2647 120.391 43.4877 120.519 43.7433 120.62C43.773 120.632 43.8028 120.641 43.8295 120.653C43.5144 120.659 43.1815 120.599 42.8931 120.594C42.1975 120.579 41.5078 120.534 40.8152 120.489C39.424 120.4 38.0298 120.457 36.6386 120.525C33.8472 120.662 31.0588 120.65 28.2645 120.626C25.4434 120.605 22.6193 120.611 19.7982 120.611C18.9005 120.611 17.9997 120.611 17.102 120.611C17.105 120.564 17.0782 120.516 17.0158 120.513C16.014 120.489 15.0152 120.531 14.0134 120.531C12.9967 120.531 11.98 120.543 10.9663 120.582C10.7077 120.591 10.4461 120.602 10.1875 120.617C9.15596 120.629 8.12443 120.656 7.08993 120.686C6.39135 120.706 5.68979 120.692 4.99121 120.73C4.32235 120.766 3.65944 120.861 2.99355 120.938C2.66061 120.977 2.32767 121.01 1.99473 121.031C1.82826 121.039 1.78664 121.277 1.95608 121.328C2.79141 121.572 3.68619 121.462 4.53639 121.372C5.52035 121.268 6.50431 121.185 7.48828 121.09C8.18389 121.022 8.8795 120.965 9.57808 120.921C9.83374 120.918 10.0924 120.912 10.348 120.912C13.1899 120.912 16.0318 120.912 18.8737 120.912C21.7126 120.912 24.5486 120.897 27.3875 120.912C30.2265 120.929 33.0654 120.977 35.9013 120.843C37.2926 120.778 38.6838 120.683 40.075 120.718C40.7676 120.736 41.4573 120.79 42.147 120.811C42.4591 120.819 42.7712 120.811 43.0834 120.825C43.3509 120.837 43.6185 120.864 43.883 120.849C44.0138 120.84 44.1446 120.819 44.2695 120.781C44.6649 120.882 45.0721 120.938 45.4734 120.995C47.0192 121.206 48.5799 121.417 50.1435 121.274C50.744 121.218 51.3296 121.063 51.9123 120.915C52.0788 120.873 52.2631 120.825 52.4206 120.745C52.4266 120.754 52.4325 120.76 52.4444 120.766C52.7922 120.941 53.2114 120.968 53.5948 120.974C54.0199 120.98 54.445 120.95 54.8672 120.935C55.9135 120.9 56.9718 120.974 58.0152 121.031C59.1122 121.09 60.2061 121.105 61.306 121.096C62.4029 121.087 63.4999 121.069 64.5968 121.108C65.1973 121.129 65.7948 121.155 66.3953 121.158C66.7015 121.158 67.0077 121.155 67.3139 121.146C67.6141 121.14 67.9292 121.152 68.2235 121.108C68.2354 121.108 68.2473 121.102 68.2592 121.096C68.3305 121.295 68.4256 121.485 68.5208 121.664C68.7021 122.009 68.928 122.33 69.1718 122.633C69.3977 122.915 69.6474 123.257 70.0041 123.382C70.1439 123.432 70.2836 123.429 70.4144 123.391C70.4144 123.394 70.4144 123.4 70.4144 123.403C70.3728 123.566 70.3847 123.742 70.4055 123.905C70.4322 124.143 70.4857 124.378 70.5481 124.61C70.6908 125.115 70.887 125.605 71.1011 126.087C71.3092 126.548 71.5767 126.988 71.7045 127.478C71.7818 127.776 71.8234 128.079 71.8859 128.379C71.9364 128.62 71.9959 128.819 72.1534 129.009C72.2961 129.182 72.5042 129.336 72.7182 129.414C72.7777 129.434 72.852 129.446 72.9174 129.44C72.9025 129.535 72.9114 129.633 72.962 129.717C73.069 129.898 73.3038 129.934 73.4971 129.94C74.0143 129.949 74.5494 129.773 75.0399 129.636C76.6065 129.199 78.1315 128.608 79.5643 127.841C80.2748 127.46 80.9615 127.035 81.6125 126.56C81.9395 126.322 82.2487 126.066 82.5638 125.814C82.8759 125.564 83.191 125.32 83.5061 125.079C83.8718 124.8 84.2374 124.517 84.5971 124.226C84.6358 124.271 84.6923 124.306 84.7517 124.321C85.1025 124.405 85.5514 124.22 85.8843 124.122C87.118 123.765 88.4587 123.923 89.725 123.884C92.7096 123.789 95.6942 123.724 98.6788 123.89C100.186 123.973 101.687 124.089 103.2 124.095C104.728 124.101 106.256 124.039 107.781 123.941C110.822 123.742 113.848 123.394 116.881 123.111C117.811 123.025 118.756 122.936 119.699 122.96C119.731 122.998 119.779 123.025 119.841 123.013C119.916 123.001 119.99 122.987 120.067 122.975C120.347 122.99 120.623 123.016 120.9 123.058C121.325 123.12 121.747 123.195 122.172 123.242C122.57 123.287 123.001 123.328 123.397 123.233C123.537 123.201 123.673 123.141 123.771 123.034C123.84 122.96 123.825 122.847 123.742 122.793L123.718 122.781ZM4.91986 121.048C4.43234 121.093 3.93293 121.158 3.43649 121.176C3.62674 121.152 3.81699 121.129 4.00724 121.108C4.38775 121.066 4.76528 121.042 5.14281 121.028C5.0685 121.033 4.99418 121.042 4.91986 121.048ZM69.1658 49.7779C69.044 50.5656 68.9399 51.3593 68.9042 52.156C68.8894 52.5454 68.8894 52.9349 68.9132 53.3243C68.9369 53.7167 69.0083 54.1031 69.0321 54.4955C69.0588 54.8968 69.0707 55.2952 69.1837 55.6846C69.2907 56.0503 69.3977 56.404 69.4631 56.7815C69.6028 57.602 69.7009 58.4314 69.8466 59.2518C70.126 60.8512 70.5481 62.4326 70.6462 64.0587C70.67 64.4808 70.6611 64.903 70.6552 65.3251C70.6522 65.6045 70.6641 65.881 70.673 66.1604C70.673 66.2734 70.6789 66.3952 70.6581 66.5082C70.6373 66.6093 70.5898 66.645 70.4976 66.6806C70.2598 66.7668 69.9982 66.7549 69.7485 66.7817C69.1004 66.856 68.4464 67.079 67.7865 67.0403C67.5636 67.0284 67.3584 66.9571 67.2068 66.7847C66.9958 66.5469 66.9185 66.1961 66.8323 65.8988C66.3804 64.3768 66.0832 62.8102 65.9286 61.2317C65.8334 60.2537 65.777 59.2697 65.7116 58.2887C65.768 58.253 65.8097 58.2025 65.8334 58.1252C65.9018 57.9082 65.8959 57.6525 65.9167 57.4296C65.9761 56.7756 66.0326 56.1275 66.0326 55.4706C66.0326 54.8374 65.994 54.2042 65.9286 53.574C65.7948 52.2957 65.551 51.0323 65.3013 49.7719C65.23 49.4122 65.1497 49.0525 65.1051 48.6898C65.1051 48.6661 65.1022 48.6453 65.0992 48.6215C65.0843 48.345 65.0754 48.0715 65.0576 47.7951C65.0368 47.48 64.9981 47.1649 64.9565 46.8497C64.9297 46.5614 64.903 46.2701 64.8881 45.9817C64.897 45.7974 64.903 45.6101 64.9238 45.4258C64.9773 44.9472 65.0873 44.4746 65.1586 43.9989C65.1705 43.9157 65.1378 43.8325 65.0516 43.8087C65.0724 43.773 65.0932 43.7344 65.1111 43.6957C65.1468 43.8235 65.2032 43.9484 65.3073 44.0346C65.5986 44.2784 66.0683 44.2486 66.4191 44.2189C66.5945 44.204 66.7699 44.1773 66.9423 44.1565C67.2247 44.1238 67.5071 44.1327 67.7895 44.1119C68.0689 44.0911 68.3632 44.0435 68.604 43.8889C68.714 43.8206 68.8091 43.7314 68.9102 43.6511C69.0172 43.5649 69.1302 43.5025 69.255 43.446C69.805 43.1933 70.4619 43.2468 71.0386 43.3747C71.0654 43.3806 71.0922 43.3866 71.1219 43.3955C70.9257 43.7641 71.0297 44.2367 70.9911 44.6351C70.9732 44.8313 70.9049 45.0602 70.7265 45.1731C70.6076 45.2504 70.453 45.2088 70.3282 45.1731C70.1974 45.1375 70.0725 45.1018 69.9387 45.078C69.9328 45.0721 69.9239 45.0721 69.915 45.0691C69.915 45.084 69.915 45.0959 69.909 45.1107C69.8823 45.2504 69.8109 45.3901 69.7098 45.5031C69.7098 45.5685 69.7039 45.6369 69.7009 45.7023C69.692 45.8806 69.6801 46.059 69.6682 46.2403C69.6385 46.6298 69.5939 47.0192 69.5434 47.4056C69.4364 48.2023 69.2937 48.9931 69.1718 49.7868L69.1658 49.7779ZM63.155 60.8095C63.1402 60.976 63.1134 61.1603 63.0391 61.3149C62.9826 61.2079 62.9529 61.086 62.938 60.9671C62.9053 60.7293 62.9172 60.4825 62.9321 60.2447C62.944 60.0277 62.9678 59.8137 62.9737 59.5967C62.9797 59.3856 62.9678 59.1716 62.9915 58.9605C63.0094 58.8178 63.0451 58.6841 63.1342 58.5949C63.2026 58.5265 63.3007 58.4819 63.4047 58.4522C63.4047 58.476 63.4048 58.4998 63.4018 58.5265C63.3899 58.6246 63.3691 58.7197 63.3453 58.8178C63.2948 59.0348 63.2264 59.2489 63.1907 59.4689C63.1194 59.9088 63.1996 60.3666 63.161 60.8125L63.155 60.8095ZM62.7597 61.4041C62.7656 61.4219 62.7775 61.4368 62.7864 61.4516C62.7537 61.4427 62.721 61.4368 62.6883 61.4279C62.1205 61.2882 61.5468 61.1514 60.985 60.9909C60.762 60.9255 60.5183 60.8601 60.331 60.7174C60.2329 60.6431 60.1764 60.545 60.1318 60.432C60.1051 60.3636 60.0813 60.3072 60.0753 60.2328C60.0694 60.1585 60.0753 60.0812 60.0842 60.0069C60.0842 59.9921 60.0872 59.9802 60.0902 59.9653C60.2061 59.5194 60.3131 59.0705 60.4112 58.6187C60.4618 58.3868 60.5093 58.152 60.5599 57.9171C61.0652 57.929 61.5676 57.9885 62.067 58.0598C62.4654 58.1193 62.8637 58.1668 63.2621 58.2174C63.0718 58.2827 62.9053 58.3898 62.8132 58.586C62.727 58.7732 62.7091 58.9813 62.7032 59.1835C62.6943 59.4183 62.6973 59.6502 62.6794 59.8821C62.6408 60.3726 62.5575 60.9344 62.7597 61.4011V61.4041ZM61.7906 51.502C61.9035 51.0353 62.0016 50.5686 62.0551 50.09C62.1622 49.1328 62.1354 48.1667 62.0997 47.2035C62.0849 46.7516 62.0908 46.2909 62.0314 45.842C62.0254 45.7885 61.9957 45.7528 61.96 45.729C62.0581 45.7082 62.1562 45.6844 62.2543 45.6636C62.5159 45.6101 62.7805 45.5774 63.0391 45.5209C63.1134 45.5061 63.1877 45.4853 63.2621 45.4585C63.2621 45.4942 63.2858 45.5328 63.3364 45.5358C63.3394 45.5418 63.3453 45.5477 63.3512 45.5507C63.3572 45.5566 63.3691 45.5626 63.381 45.5655C63.4137 45.5923 63.4672 45.5953 63.5058 45.5923C63.5504 45.5923 63.6039 45.5685 63.6396 45.5418C63.7169 45.4883 63.7674 45.4169 63.8031 45.3337C63.8625 45.185 63.8625 45.0096 63.8239 44.8551C63.812 44.8105 63.7971 44.7629 63.7763 44.7183C63.7823 44.6232 63.7882 44.5251 63.7882 44.43C63.9458 44.43 64.1004 44.4121 64.2579 44.3735C64.463 44.323 64.6711 44.2486 64.8227 44.097C64.8257 44.0941 64.8287 44.0881 64.8316 44.0851C64.7662 44.5043 64.683 44.9205 64.6384 45.3426C64.6236 45.4704 64.6236 45.5982 64.6265 45.7261C64.6146 45.7261 64.5998 45.7261 64.5879 45.729C64.5909 45.9728 64.6117 46.2136 64.6384 46.4544C64.6444 46.5257 64.6503 46.6 64.6592 46.6714C64.6592 46.6803 64.6592 46.6892 64.6563 46.6981C64.6533 46.7189 64.6563 46.7368 64.6652 46.7487C64.683 46.9419 64.7008 47.1322 64.7098 47.3254C64.7365 47.8575 64.7692 48.3926 64.8465 48.9217C64.8525 48.996 64.8584 49.0674 64.8643 49.1417C64.903 49.5579 64.9535 49.9711 64.9862 50.3873C65.0576 51.2375 65.0308 52.0936 65.0605 52.9468C65.0903 53.8059 65.1438 54.662 65.2181 55.5181C65.2894 56.3416 65.3638 57.162 65.4113 57.9855C65.4113 58.0063 65.4113 58.0301 65.4143 58.0509C65.4083 58.0509 65.4024 58.0509 65.3965 58.0509C65.2657 58.0657 65.1349 58.0717 65.0041 58.0717C64.7276 58.0717 64.4511 58.042 64.1777 58.0122C63.5207 57.9409 62.8667 57.8606 62.2127 57.7714C61.6806 57.7001 61.1455 57.6347 60.6074 57.6228C60.7293 57.0283 60.8512 56.4308 60.9671 55.8362C61.1544 54.8731 61.3001 53.904 61.4755 52.9408C61.5646 52.4533 61.6627 51.9687 61.7787 51.4901L61.7906 51.502ZM61.7014 50.414C61.743 50.0097 61.7757 49.6025 61.8084 49.1952C61.7965 49.4776 61.7817 49.757 61.7519 50.0395C61.7371 50.1643 61.7222 50.2892 61.7014 50.414ZM53.3422 17.0425C53.3124 16.8136 53.2678 16.5906 53.2233 16.3647C53.4373 16.7304 53.6811 17.0871 53.9724 17.3933C54.2399 17.6757 54.5461 17.9284 54.8374 18.184C55.1466 18.4575 55.4647 18.728 55.8184 18.948C55.973 19.0431 56.1335 19.1293 56.303 19.1917C56.4903 19.2631 56.6864 19.2899 56.8856 19.3017C57.2929 19.3285 57.7031 19.2899 58.1133 19.3107C58.5236 19.3344 58.9487 19.3731 59.35 19.2661C59.7335 19.165 60.0099 18.8915 60.2329 18.5764C60.4618 18.2524 60.6431 17.8957 60.869 17.5687C61.0325 17.3308 61.202 17.096 61.3744 16.8641C61.3625 17.1376 61.3239 17.4081 61.2912 17.6786C61.2525 18.0116 61.2495 18.3386 61.3031 18.6715C61.306 18.6983 61.3149 18.725 61.3179 18.7518C61.3179 18.7756 61.3179 18.7994 61.3179 18.8261C61.3179 19.1947 61.3179 19.5663 61.3328 19.9349C61.3476 20.3035 61.3893 20.6662 61.4071 21.0348C61.4428 21.7334 61.4339 22.435 61.4606 23.1336C61.4725 23.4457 61.4814 23.7608 61.4547 24.0729C61.4338 24.3286 61.413 24.6318 61.2555 24.8429C61.1633 24.9647 61.0415 25.0717 60.9196 25.1639C60.8096 25.2471 60.6847 25.3452 60.5539 25.3958C60.325 25.4879 60.2596 25.1877 60.2299 25.0004C60.221 24.5664 60.1675 24.1353 60.0694 23.7103C60.0159 23.4843 59.9564 23.2614 59.9148 23.0325C59.8791 22.8422 59.894 22.646 59.8494 22.4558C59.7662 22.105 59.4481 21.8523 59.1716 21.6531C58.8535 21.4242 58.5176 21.2221 58.2144 20.9694C57.8726 20.684 57.5456 20.3719 57.1799 20.1192C56.8083 19.8636 56.4159 19.6406 56.0443 19.385C55.6579 19.1204 55.2714 18.8499 54.8672 18.6121C54.6739 18.4991 54.4718 18.398 54.2756 18.288C54.0883 18.184 53.9159 18.0681 53.7405 17.9462C53.6632 17.8927 53.58 17.8481 53.5027 17.7946C53.4492 17.7589 53.3808 17.7203 53.3659 17.6549C53.3481 17.5687 53.3719 17.4646 53.3749 17.3784C53.3778 17.2654 53.363 17.1525 53.3481 17.0425H53.3422ZM53.6573 18.1989C53.8416 18.3326 54.0348 18.4486 54.234 18.5586C54.6323 18.7756 55.0128 19.0074 55.3904 19.2571C55.7768 19.5158 56.1514 19.7922 56.5467 20.039C56.731 20.1549 56.9183 20.2679 57.0937 20.3957C57.2721 20.5265 57.4385 20.6751 57.605 20.8238C57.935 21.1121 58.265 21.3975 58.6336 21.6383C58.916 21.8256 59.2311 22.0099 59.4421 22.2804C59.4778 22.325 59.5046 22.3725 59.5254 22.4201C59.5016 22.3844 59.4748 22.3488 59.4481 22.3161C59.344 22.1942 59.1835 22.1199 59.023 22.1526C58.8803 22.1793 58.7822 22.2952 58.7257 22.4231C58.5979 22.7114 58.6009 23.0444 58.589 23.3535C58.5711 23.7786 58.4968 24.281 58.2114 24.6169C58.0331 24.4623 57.8369 24.3286 57.6556 24.174C57.4534 24.0016 57.3077 23.7875 57.1502 23.5765C56.9748 23.3416 56.7964 23.1098 56.6359 22.863C56.4784 22.6222 56.3297 22.3785 56.1781 22.1377C56.1781 22.1347 56.1722 22.1288 56.1692 22.1258C56.1008 22.0158 56.0295 21.9088 55.9581 21.8018C55.6995 21.4183 55.4231 21.0437 55.1615 20.6603C54.998 20.4195 54.8434 20.1727 54.668 19.9409C54.4867 19.7001 54.2964 19.4682 54.1091 19.2334C54.0467 19.1531 53.9843 19.0758 53.9218 18.9956C53.8327 18.8231 53.7464 18.6507 53.6543 18.4813C53.5651 18.3207 53.473 18.1632 53.3719 18.0086C53.467 18.074 53.5651 18.1305 53.6573 18.1959V18.1989ZM57.3672 24.2751C57.602 24.504 57.8904 24.6704 58.1252 24.9053C58.1787 24.9588 58.262 24.9558 58.3185 24.9053C58.6811 24.5813 58.7881 24.0818 58.8417 23.6211C58.8744 23.3446 58.8535 23.0681 58.8952 22.7917C58.913 22.6787 58.9457 22.5301 59.0052 22.4587C59.0557 22.3993 59.136 22.3874 59.2103 22.4498C59.3262 22.545 59.3886 22.7174 59.4421 22.8571C59.5075 23.0354 59.5581 23.2198 59.6086 23.4011C59.7424 23.8946 59.897 24.3761 59.9386 24.8815C59.9416 24.9499 59.9445 25.0153 59.9475 25.0836C59.9475 25.3096 60.0575 25.5563 60.2537 25.6663C60.5272 25.8209 60.8096 25.6276 61.0296 25.4701C61.2733 25.2947 61.5319 25.0747 61.633 24.7834C61.7252 24.5159 61.749 24.2186 61.7519 23.9362C61.7757 23.8054 61.7935 23.6746 61.7995 23.5438C61.8114 23.2852 61.7876 23.0265 61.7757 22.7709C61.7638 22.5568 61.7549 22.3339 61.8025 22.1228C61.8203 22.0485 61.8887 21.7988 62.0076 21.882C62.0581 21.9177 62.0938 21.995 62.1205 22.0485C62.1562 22.1199 62.1859 22.1942 62.2186 22.2685C62.4059 22.6995 62.4565 23.1633 62.5159 23.627C62.5843 24.177 62.5278 24.7566 62.6764 25.2977C62.6913 25.3482 62.7359 25.3839 62.7835 25.3958C63.0688 26.9921 63.1015 28.6182 63.161 30.2353C63.2323 32.1408 63.3512 34.0463 63.3721 35.9548C63.378 36.4929 63.3721 37.0309 63.3542 37.569C63.3334 38.116 63.3126 38.6629 63.3304 39.2129C63.3304 39.2456 63.3453 39.2783 63.3691 39.305C63.2353 39.3169 63.1015 39.3318 62.9707 39.3496C62.8964 39.1594 62.8102 38.9721 62.6497 38.8383C62.3554 38.5946 61.9541 38.6332 61.6122 38.7432C61.3833 38.8145 61.1663 38.9126 60.9523 39.0167C60.9136 37.572 60.4648 36.1748 60.0694 34.7955C59.6473 33.3091 59.4243 31.7663 58.9189 30.3037C58.8 29.9589 58.6633 29.62 58.5503 29.2722C58.4374 28.9273 58.3363 28.5825 58.2412 28.2317C58.0539 27.548 57.8963 26.8583 57.718 26.1746C57.5129 25.3898 57.2869 24.605 56.9956 23.847C57.1086 24.0016 57.2245 24.1532 57.3613 24.284L57.3672 24.2751ZM63.7466 39.5102C64.029 39.5042 64.3114 39.4715 64.5938 39.4537C64.6414 39.4507 64.686 39.4507 64.7335 39.4477C64.6979 40.5922 65.0873 41.701 65.0546 42.8455C65.0516 42.9912 65.0487 43.1368 65.0546 43.2825C64.9922 43.4757 64.903 43.66 64.7781 43.8265C64.5492 44.1327 64.1539 44.204 63.7853 44.2575C63.7853 44.1446 63.7793 44.0346 63.7793 43.9246C63.7734 43.2914 63.6901 42.679 63.598 42.0518C63.5088 41.4424 63.4137 40.833 63.2621 40.2355C63.1996 39.9888 63.1253 39.745 63.0391 39.5072C63.274 39.528 63.5118 39.5161 63.7466 39.5072V39.5102ZM71.4727 41.1124C71.4637 41.4989 71.4459 41.8853 71.4281 42.2718C71.4192 42.4947 71.4519 42.7207 71.437 42.9436C71.437 42.9823 71.431 43.0209 71.4221 43.0596C71.4132 43.0923 71.3894 43.125 71.3835 43.1547C71.3775 43.1547 71.3656 43.1547 71.3627 43.1547C71.3329 43.1517 71.2765 43.1339 71.2348 43.125C70.9614 43.0566 70.6819 43.012 70.3995 42.9942C70.1171 42.9763 69.8169 42.9733 69.5374 43.0387C69.2788 43.1012 69.0083 43.2141 68.7943 43.3747C68.7051 43.443 68.6218 43.5173 68.5327 43.5857C68.4197 43.669 68.3008 43.7254 68.164 43.7611C67.9024 43.8325 67.629 43.8354 67.3584 43.8443C67.1414 43.8503 66.9304 43.8741 66.7163 43.9008C66.3715 43.9454 65.9821 44.0019 65.6432 43.9008C65.5005 43.8592 65.4232 43.7819 65.3786 43.6363C65.3221 43.452 65.3132 43.2528 65.3132 43.0596C65.3192 43.0328 65.3251 43.0031 65.3311 42.9763C65.4797 42.1172 65.3608 41.2373 65.2954 40.3752C65.2716 40.066 65.2389 39.6588 65.0011 39.4299C65.4351 39.415 65.8632 39.421 66.2972 39.4626C67.4238 39.5726 68.5505 39.7063 69.6623 39.9263C70.1795 40.0274 70.6879 40.2593 71.223 40.2444C71.2467 40.2444 71.2675 40.2355 71.2884 40.2266C71.3092 40.2295 71.3329 40.2325 71.3538 40.2385C71.3716 40.2444 71.3775 40.2444 71.3894 40.2533C71.3954 40.2593 71.4073 40.2801 71.4162 40.2979C71.4548 40.3841 71.4578 40.4525 71.4548 40.5476C71.4548 40.6606 71.44 40.7706 71.437 40.8806C71.437 40.9311 71.434 41.0441 71.4727 41.1065V41.1124ZM65.0635 40.3544C65.0843 40.6249 65.1051 40.8925 65.1259 41.163C65.0457 40.7022 64.9654 40.2414 64.9535 39.7777C64.9654 39.8104 64.9773 39.8401 64.9862 39.8728C65.0308 40.0304 65.0516 40.1939 65.0635 40.3544ZM63.5772 45.1761C63.5772 45.185 63.5742 45.1969 63.5712 45.2058C63.5683 45.2237 63.5623 45.2445 63.5564 45.2623C63.5564 45.2623 63.5564 45.2653 63.5534 45.2683C63.5564 45.2296 63.5683 45.191 63.5801 45.1523C63.5801 45.1583 63.5801 45.1672 63.5801 45.1731L63.5772 45.1761ZM60.9463 54.2815C60.7888 55.2149 60.6045 56.1394 60.4202 57.0669C60.3815 57.2572 60.3429 57.4474 60.3042 57.6377C60.2953 57.6377 60.2834 57.6377 60.2745 57.6377C60.2002 56.9807 60.4261 56.3029 60.5926 55.6787C60.7323 55.1644 60.8512 54.6471 60.9731 54.1269C60.9642 54.1775 60.9552 54.228 60.9463 54.2815ZM63.4553 60.2537C63.4523 60.0307 63.4285 59.7988 63.4553 59.5788C63.485 59.347 63.5623 59.121 63.6158 58.8981C63.6545 58.7405 63.6961 58.5681 63.6872 58.4017C63.8685 58.3779 64.0558 58.363 64.2401 58.3541C64.2847 58.3541 64.3293 58.3511 64.3709 58.3481C64.5522 58.366 64.7365 58.3808 64.9179 58.3838C64.9327 58.3838 64.9476 58.3868 64.9595 58.3898C65.1735 58.4403 65.3102 58.5533 65.3667 58.7703C65.4292 59.0081 65.4084 59.2637 65.3994 59.5075C65.3757 60.1645 65.5808 60.8185 65.4975 61.4754C65.4856 61.5616 65.4708 61.6568 65.4321 61.7341C65.4054 61.7846 65.3727 61.8113 65.3281 61.8292C65.1497 61.8886 64.9208 61.8322 64.7365 61.8113C64.2282 61.7519 63.7258 61.6627 63.2294 61.5527C63.4701 61.1782 63.4642 60.6787 63.4553 60.2477V60.2537ZM65.3013 51.4545C65.3013 51.4128 65.3013 51.3742 65.3013 51.3326C65.3965 51.8409 65.4856 52.3492 65.554 52.8635C65.7175 54.0912 65.7889 55.3338 65.6937 56.5734C65.6789 56.7845 65.6581 56.9985 65.6372 57.2096C65.6194 56.9629 65.5986 56.7161 65.5778 56.4724C65.4292 54.8017 65.3073 53.134 65.3043 51.4545H65.3013ZM74.267 50.7737C73.7379 50.8094 73.2057 50.7915 72.6796 50.851C72.4091 50.8807 72.1385 50.9223 71.868 50.958C71.6005 50.9937 71.3329 51.0145 71.0654 51.0591C70.4827 51.1572 69.915 51.3445 69.3234 51.3861C69.2907 51.3861 69.2699 51.4069 69.261 51.4307C69.2729 51.285 69.2877 51.1394 69.3056 50.9937C69.4899 49.3706 69.8644 47.7713 69.9744 46.1393C69.9922 45.8777 70.0279 45.6012 70.0041 45.3337C70.2271 45.3931 70.456 45.4734 70.676 45.4288C70.9108 45.3812 71.0713 45.1523 71.1427 44.9383C71.2229 44.6856 71.2111 44.4121 71.2111 44.1505C71.2111 43.9811 71.2111 43.7968 71.2586 43.6303C71.3329 43.8295 71.3121 44.0584 71.2794 44.2665C71.2319 44.54 71.1516 44.8164 71.1635 45.0959C71.1635 45.1434 71.1992 45.1999 71.2497 45.2088C71.5945 45.2712 71.9453 45.1642 72.2812 45.0899C72.6736 45.0037 73.0839 44.9769 73.4852 44.9294C74.1213 44.8551 74.7605 44.8224 75.3996 44.7956C75.4085 44.8313 75.4353 44.864 75.4709 44.8759C75.5393 44.8967 75.6255 44.8848 75.685 44.9264C75.7296 44.9561 75.7533 45.0096 75.7652 45.0602C75.8039 45.2029 75.7831 45.3396 75.7652 45.4823C75.7652 45.4912 75.7652 45.5001 75.7652 45.5091C75.7296 45.5477 75.6998 45.5863 75.676 45.6309C75.5601 45.839 75.5482 46.0947 75.5631 46.3265C75.5661 46.386 75.572 46.4455 75.578 46.5019C75.3461 46.9776 75.5155 47.584 75.6553 48.0626C75.7415 48.3658 75.8187 48.672 75.9287 48.9693C76.0506 49.2963 76.2171 49.5965 76.4341 49.87C76.5441 50.0068 76.6719 50.1435 76.8324 50.2238C76.9008 50.2565 76.9781 50.2802 77.0494 50.307C76.1428 50.5597 75.2064 50.7202 74.267 50.7826V50.7737ZM75.9376 46.1987C75.9347 46.0352 75.9377 45.8717 75.9436 45.7082C75.9941 45.6399 76.0625 45.5863 76.1517 45.5626C76.336 45.5091 76.5054 45.6161 76.6273 45.7469C76.7789 45.9074 76.883 46.1304 76.88 46.3533C76.8622 46.3711 76.8473 46.389 76.8265 46.4038C76.7403 46.4663 76.6362 46.499 76.5441 46.5406C76.4311 46.5911 76.3271 46.6595 76.2379 46.7457C76.1279 46.8527 76.0417 46.9805 75.9763 47.1173C75.9644 47.0459 75.9525 46.9746 75.9406 46.9003C75.9377 46.8825 75.9317 46.8616 75.9287 46.8438C75.9466 46.6298 75.9436 46.4157 75.9376 46.1987ZM76.2825 45.2802C76.1725 45.2712 76.0625 45.298 75.9614 45.3485C75.9763 45.188 75.9912 45.0186 75.9198 44.8699C75.902 44.8313 75.8752 44.7986 75.8485 44.7689C75.9495 44.7629 76.0476 44.7599 76.1487 44.754C76.4549 44.7391 76.7611 44.7272 77.0673 44.7213C77.0732 44.7213 77.0762 44.7243 77.0821 44.7243C77.3318 44.7391 77.5816 44.7302 77.8313 44.7094C77.8045 44.7302 77.7807 44.754 77.754 44.7718C77.647 44.8491 77.5399 44.9234 77.4359 45.0037C77.3378 45.078 77.2456 45.1583 77.1713 45.2564C77.0851 45.3753 77.0524 45.521 77.0376 45.6666C77.0286 45.7498 77.0286 45.842 77.0227 45.9312C76.9186 45.5953 76.6273 45.301 76.2855 45.2772L76.2825 45.2802ZM75.8544 47.807C75.8098 47.6583 75.7682 47.5067 75.7385 47.3551C75.7296 47.3046 75.7206 47.2511 75.7117 47.1976C75.7236 47.2065 75.7415 47.2124 75.7593 47.2154C75.7623 47.2154 75.7682 47.2154 75.7742 47.2154C75.8039 47.4116 75.8306 47.6108 75.8574 47.8099L75.8544 47.807ZM86.7553 44.9056C86.5888 45.0245 86.4016 45.1196 86.2232 45.2207C85.8546 45.4258 85.486 45.6309 85.1501 45.8925C84.9866 46.0204 84.832 46.1631 84.6982 46.3206C84.5704 46.4692 84.4604 46.6208 84.2969 46.7368C83.9937 46.9538 83.6399 47.0786 83.2891 47.1916C82.8789 47.3224 82.4746 47.4592 82.0733 47.6197C81.6036 47.807 81.1399 48.0121 80.6821 48.2291C80.3432 48.3896 79.9686 48.5382 79.707 48.8177C79.4514 49.0912 79.3146 49.4509 78.9995 49.6738C78.7171 49.873 78.3455 49.9651 78.0037 50.0068C77.6678 50.0484 77.3021 50.0395 76.9959 49.8819C76.6868 49.7243 76.5025 49.4211 76.3806 49.106C76.1814 48.6007 76.1071 48.0567 76.0328 47.5186C76.0714 47.4294 76.0982 47.3343 76.1457 47.2451C76.2111 47.1203 76.2944 47.0043 76.3954 46.9092C76.5619 46.7576 76.7878 46.7308 76.9662 46.606C77.1951 46.4455 77.2635 46.1779 77.2754 45.9133C77.2813 45.7825 77.2724 45.6309 77.3348 45.5091C77.3883 45.408 77.4894 45.3337 77.5786 45.2623C77.6856 45.1791 77.7986 45.1018 77.9115 45.0215C78.0096 44.9502 78.1583 44.8699 78.1523 44.7302C78.1523 44.7124 78.1464 44.6945 78.1375 44.6767C78.2861 44.6589 78.4347 44.6381 78.5863 44.6202C79.0768 44.5548 79.5644 44.5191 80.0578 44.5013C80.5602 44.4835 81.0626 44.4775 81.565 44.4835C82.0674 44.4894 82.5757 44.4954 83.0751 44.54C83.5686 44.5816 84.0561 44.6856 84.5466 44.757C84.8587 44.8016 85.1768 44.8461 85.4919 44.8432C85.5068 44.9026 85.5543 44.9561 85.6287 44.9532C85.7981 44.9532 85.9705 44.9234 86.137 44.9056C86.3064 44.8878 86.4788 44.8729 86.6483 44.858C86.7077 44.8521 86.7702 44.8491 86.8296 44.8432C86.8058 44.864 86.7791 44.8848 86.7553 44.9026V44.9056ZM87.7452 44.4656C87.552 44.4835 87.3588 44.4983 87.1685 44.5132C87.115 44.4597 87.0437 44.424 86.9664 44.4062C86.7494 44.3586 86.5205 44.3943 86.3064 44.4419C86.0656 44.4954 85.8397 44.5459 85.59 44.5429C85.2481 44.5429 84.9122 44.5013 84.5793 44.4508C84.5258 44.4329 84.4336 44.3973 84.3772 44.4211C84.2731 44.4032 84.1691 44.3884 84.065 44.3705C83.5537 44.2843 83.0454 44.2249 82.5281 44.2011C81.996 44.1803 81.4639 44.1713 80.9318 44.1743C80.4145 44.1773 79.8973 44.1892 79.383 44.2249C78.8717 44.2576 78.3663 44.3557 77.855 44.4032C77.5994 44.427 77.3408 44.4359 77.0821 44.4211C77.0494 44.4211 77.0257 44.427 77.0048 44.4389C76.3419 44.4537 75.6761 44.4954 75.0131 44.54C74.5732 44.5697 74.1332 44.6024 73.6933 44.6559C73.2771 44.7064 72.8579 44.7451 72.4447 44.8134C72.2515 44.8432 72.0642 44.8967 71.871 44.9353C71.767 44.9561 71.657 44.9769 71.547 44.9859C71.5708 44.9651 71.5856 44.9324 71.5826 44.8937C71.5708 44.7956 71.5618 44.6708 71.6213 44.5875C71.6659 44.5251 71.7461 44.5013 71.8175 44.4865C72.0196 44.4419 72.2337 44.4656 72.4418 44.4389C73.2206 44.3378 73.9876 44.1565 74.7724 44.0703C76.3509 43.8949 77.9472 43.9306 79.5316 43.9365C81.1369 43.9424 82.7422 43.9692 84.3474 44.0584C85.0876 44.1 85.8308 44.1416 86.5651 44.2249C86.9307 44.2665 87.2934 44.32 87.662 44.3497C87.9563 44.3735 88.2506 44.3854 88.5449 44.3705C88.2803 44.4151 88.0157 44.4478 87.7482 44.4716L87.7452 44.4656ZM71.7788 36.7574C71.7937 36.4215 71.7997 36.0826 71.7967 35.7437C71.7967 35.0689 71.7759 34.3941 71.7967 33.7164C71.8175 33.0475 71.8324 32.3786 71.8324 31.7068C71.8324 31.4304 71.8115 31.1539 71.8145 30.8774C71.8205 30.6188 71.8442 30.3423 71.978 30.1164C72.195 29.7478 72.6677 29.5992 73.0601 29.504C74.2462 29.2187 75.4947 29.2722 76.7046 29.2811C78.0364 29.293 79.3652 29.3703 80.691 29.4565C81.3539 29.5011 82.0109 29.5724 82.6678 29.6765C83.3278 29.7805 83.9937 29.8578 84.6566 29.9262C85.3254 29.9975 85.9973 30.0629 86.6661 30.1461C87.3231 30.2294 87.9741 30.3423 88.6281 30.4345C88.9551 30.4791 89.2821 30.5267 89.6061 30.5921C89.8083 30.6337 90.1204 30.6337 90.2274 30.8418C90.3315 31.0409 90.3463 31.2996 90.3939 31.5166C90.4563 31.7841 90.489 32.0576 90.5069 32.3341C90.5425 32.9108 90.5009 33.4994 90.3642 34.0642C90.2928 34.3614 90.2007 34.6557 90.1353 34.956C90.0728 35.2562 90.0253 35.5624 89.9926 35.8656C89.9242 36.5047 89.9302 37.1439 89.9242 37.786C89.9183 38.4519 89.8915 39.1178 89.8856 39.7836C89.8826 40.1136 89.8975 40.4406 89.8975 40.7706C89.8975 40.836 89.9391 40.8746 89.9866 40.8895C89.9866 40.8984 89.9866 40.9073 89.9866 40.9133C89.9688 41.1184 89.942 41.3235 89.9302 41.5286C89.8915 42.138 89.832 42.7474 89.7785 43.3568C89.7756 43.3895 89.7726 43.4222 89.7696 43.4549C89.7548 43.4668 89.7429 43.4846 89.7399 43.5084C89.728 43.5738 89.6775 43.6422 89.6388 43.6987C89.6121 43.7403 89.5496 43.8057 89.511 43.8354C89.3713 43.9395 89.2137 43.99 89.0443 44.0257C88.6251 44.1178 88.1822 44.103 87.7571 44.0732C87.3736 44.0465 86.9902 43.993 86.6067 43.9484C85.9051 43.8681 85.1946 43.8295 84.4901 43.7908C82.8819 43.7017 81.2677 43.6838 79.6565 43.6779C78.0572 43.6719 76.446 43.6363 74.8556 43.8057C74.0738 43.8889 73.3068 44.0554 72.5309 44.1832C72.2961 44.2219 72.0612 44.2219 71.8264 44.2575C71.6867 44.2784 71.5499 44.3319 71.4637 44.4359C71.5262 44.0881 71.5826 43.7462 71.4102 43.4311C71.4697 43.4252 71.5262 43.4014 71.5737 43.3479C71.7224 43.1814 71.7105 42.899 71.7016 42.6939C71.6778 42.141 71.7313 41.594 71.7491 41.0411C71.7699 40.4466 71.7788 39.8371 71.6897 39.2486C71.6837 39.201 71.6718 39.1594 71.6599 39.1148C71.6748 38.657 71.6748 38.1962 71.7016 37.7384C71.7194 37.4085 71.758 37.0815 71.7729 36.7515L71.7788 36.7574ZM67.3792 24.2364C67.6676 24.3256 67.956 24.4118 68.2324 24.5307C68.5148 24.6496 68.7675 24.8042 69.0083 24.9945C69.2283 25.1669 69.5077 25.3155 69.6593 25.5593C69.8079 25.8001 69.8317 26.0884 70.022 26.3084C70.1171 26.4184 70.2271 26.4689 70.352 26.5403C70.4709 26.6086 70.5273 26.7454 70.5719 26.8673C70.6819 27.1794 70.7622 27.5004 70.8573 27.8185C70.9703 28.199 71.1249 28.5647 71.2527 28.9422C71.3746 29.296 71.4816 29.6556 71.5916 30.0124C71.6064 30.0659 71.6421 30.0956 71.6807 30.1075C71.5945 30.3037 71.5618 30.5267 71.547 30.7377C71.5291 31.0201 71.5529 31.3025 71.5589 31.5849C71.5648 31.9208 71.5589 32.2568 71.5589 32.5927C71.5529 33.2794 71.5143 33.9661 71.5202 34.6557C71.5262 35.3365 71.544 36.0202 71.5202 36.7009C71.5083 37.0428 71.4756 37.3847 71.4578 37.7265C71.4429 38.0595 71.4429 38.3984 71.4489 38.7313C71.4489 38.7462 71.4489 38.764 71.4489 38.7789C71.4102 38.7878 71.3775 38.8205 71.3775 38.874C71.3864 39.1564 71.4221 39.4329 71.4429 39.7123C71.4518 39.8371 71.4578 39.962 71.4637 40.0869C71.434 40.072 71.4013 40.0631 71.3686 40.0571C71.3597 40.0571 71.3508 40.0571 71.3448 40.0571C71.33 40.0185 71.2973 39.9917 71.2497 39.9828C71.2527 39.9709 71.2586 39.959 71.2586 39.9442C71.2586 39.9382 71.2586 39.9323 71.2586 39.9293C71.2943 39.7985 71.3002 39.6588 71.3092 39.531C71.3211 39.2664 71.3092 39.0018 71.2973 38.7402C71.2616 38.0387 71.2497 37.3341 71.1962 36.6355C71.0773 35.1076 70.7443 33.6093 70.4649 32.1052C70.3252 31.359 70.2182 30.5742 69.8496 29.8964C69.799 29.8043 69.6474 29.8459 69.6534 29.9499C69.7039 31.2431 69.9031 32.5273 70.1706 33.7936C70.3074 34.4417 70.456 35.0838 70.5541 35.7378C70.6552 36.3977 70.7265 37.0606 70.8068 37.7236C70.8514 38.0892 70.9049 38.4548 70.9257 38.8235C70.9495 39.198 70.9495 39.5726 70.9495 39.9471C70.9495 39.9501 70.9495 39.9561 70.9495 39.959C70.5719 39.9085 70.2063 39.7658 69.8377 39.6855C69.2877 39.5637 68.7229 39.4953 68.164 39.4239C67.6052 39.3526 67.0433 39.2961 66.4845 39.2426C66.208 39.2159 65.9345 39.1832 65.6581 39.1772C65.3697 39.1683 65.0843 39.1772 64.796 39.195C64.7276 39.198 64.6622 39.204 64.5938 39.2099C64.6206 39.198 64.6473 39.1891 64.6711 39.1742C65.013 38.9721 65.0635 38.4697 65.12 38.1189C65.1527 37.9227 65.1854 37.7325 65.2419 37.5452C65.3221 37.2717 65.4024 37.0012 65.4797 36.7277C65.6372 36.1659 65.7859 35.5981 65.8959 35.0243C66.1248 33.8293 66.1902 32.5986 66.2377 31.3858C66.2615 30.7615 66.2794 30.1372 66.3002 29.51C66.321 28.9036 66.321 28.2882 66.3893 27.6847C66.425 27.3637 66.4815 27.0456 66.5023 26.7246C66.5201 26.4541 66.5231 26.1598 66.4042 25.9071C66.2794 25.6425 66.0267 25.5295 65.7621 25.4433C65.7978 25.4344 65.8334 25.4255 65.8721 25.4196C65.9969 25.3958 66.1307 25.366 66.208 25.2531C66.2972 25.1193 66.2615 24.941 66.2229 24.7953C66.1634 24.5694 66.0861 24.3553 66.0475 24.1235C66.0207 23.9659 65.994 23.8024 65.9553 23.6478C66.3864 23.9421 66.8828 24.0937 67.3822 24.2483L67.3792 24.2364ZM71.003 37.0161C70.9584 36.6772 70.9138 36.3383 70.8603 35.9994C70.6611 34.6973 70.2895 33.431 70.0666 32.1319C69.9744 31.5968 69.909 31.0588 69.8793 30.5177C70.0339 30.9696 70.126 31.4422 70.2122 31.9179C70.3401 32.6373 70.4887 33.3567 70.6165 34.0761C70.7503 34.8192 70.8692 35.5654 70.9465 36.3175C70.9703 36.5523 70.9881 36.7842 71.003 37.019V37.0161ZM63.8061 22.3577C64.1836 22.6044 64.6265 22.7203 65.0249 22.9225C65.1943 23.0087 65.3756 23.1098 65.4856 23.2703C65.6105 23.4516 65.6581 23.6805 65.6967 23.8946C65.7383 24.1145 65.7621 24.3375 65.8245 24.5515C65.8572 24.6615 65.8988 24.7685 65.9286 24.8785C65.9375 24.9172 65.9494 24.9588 65.9553 25.0004C65.9553 24.9915 65.9553 25.045 65.9553 25.0569C65.9553 25.0599 65.9553 25.0628 65.9553 25.0688C65.9494 25.0718 65.9464 25.0747 65.9405 25.0777C65.9405 25.0777 65.9345 25.0777 65.9315 25.0777C65.9167 25.0807 65.9048 25.0866 65.8899 25.0896C65.8602 25.0985 65.8275 25.1045 65.7948 25.1104C65.6045 25.149 65.4262 25.2115 65.2597 25.3125C65.1438 25.3839 65.1765 25.5414 65.2954 25.586C65.4678 25.6514 65.6491 25.696 65.8216 25.7614C65.9524 25.809 66.0713 25.8803 66.1426 26.0022C66.2467 26.1895 66.2348 26.4362 66.2258 26.6443C66.214 26.9208 66.1694 27.1943 66.1337 27.4707C66.0594 28.0415 66.0505 28.6241 66.0296 29.1979C66.0088 29.7924 65.994 30.384 65.9732 30.9785C65.9345 32.1557 65.884 33.3418 65.7056 34.5071C65.6224 35.0541 65.5005 35.5981 65.3638 36.1332C65.2954 36.4037 65.2211 36.6742 65.1468 36.9447C65.0814 37.1766 65.0011 37.4055 64.9476 37.6403C64.9 37.8484 64.8792 38.0595 64.8376 38.2676C64.7989 38.4608 64.7603 38.6927 64.6354 38.8532C64.5225 38.9959 64.2995 39.0167 64.1331 39.0345C63.9606 39.0524 63.7853 39.0524 63.6099 39.0642C63.5891 38.1427 63.6663 37.2212 63.6604 36.2996C63.6545 35.3305 63.6218 34.3644 63.5801 33.3983C63.5385 32.4381 63.491 31.4749 63.4464 30.5148C63.4077 29.62 63.3839 28.7252 63.3215 27.8334C63.2621 26.9802 63.1699 26.1211 62.9678 25.2888C63.2561 24.9201 63.3364 24.4088 63.3929 23.957C63.4226 23.7221 63.4434 23.4843 63.4672 23.2495C63.5029 22.9255 63.5237 22.5866 63.4137 22.2715C63.375 22.1585 63.3245 22.0485 63.274 21.9385C63.4434 22.0872 63.6188 22.2298 63.809 22.3517L63.8061 22.3577ZM61.9749 20.3422C62.1354 20.6097 62.3078 20.8684 62.4773 21.1329C62.4624 21.1864 62.4683 21.2489 62.5129 21.2845C62.5546 21.3172 62.5962 21.3499 62.6348 21.3856C62.7478 21.5669 62.8607 21.7512 62.9618 21.9385C63.1223 22.2328 63.2353 22.5241 63.2294 22.866C63.2264 23.1306 63.1877 23.3951 63.161 23.6567C63.1313 23.9362 63.0986 24.2156 63.0332 24.4861C63.0005 24.6258 62.9588 24.7685 62.8934 24.8993C62.8756 24.7388 62.8667 24.5753 62.8607 24.4118C62.8489 24.1353 62.831 23.8648 62.7894 23.5913C62.7508 23.3297 62.7181 23.0681 62.6527 22.8095C62.5932 22.5777 62.504 22.3577 62.397 22.1436C62.3257 22.001 62.2424 21.8256 62.1057 21.7334C61.966 21.6413 61.8144 21.7126 61.7311 21.8434C61.7044 21.888 61.6836 21.9326 61.6657 21.9831C61.6628 21.882 61.6598 21.7839 61.6568 21.6829C61.633 20.9367 61.5468 20.1965 61.5201 19.4504C61.6449 19.7595 61.8025 20.0568 61.9749 20.3422ZM61.4457 2.56544C61.7757 2.66948 62.1146 2.81217 62.3316 3.09458C62.5129 3.33537 62.6081 3.62669 62.6913 3.91207C62.7924 4.25691 62.9024 4.59877 62.9915 4.94955C63.1877 5.72839 63.2888 6.53102 63.3096 7.33365C63.3185 7.73497 63.3096 8.13628 63.274 8.53462C63.2591 8.71596 63.2353 8.89729 63.2115 9.07565C63.2056 9.12024 63.2056 9.13213 63.1967 9.18564C63.1877 9.23915 63.1788 9.29266 63.164 9.34617C63.155 9.38184 63.1432 9.41454 63.1313 9.44427C63.0629 9.44129 62.9945 9.44427 62.9261 9.45913C62.9232 9.45319 62.9172 9.45021 62.9143 9.44724C62.8578 9.35211 62.8459 9.22429 62.837 9.1143C62.8251 8.99242 62.8251 8.86756 62.8162 8.74568C62.8013 8.56435 62.7686 8.38004 62.7418 8.20168C62.7091 7.97873 62.6735 7.75577 62.6408 7.53579C62.5724 7.10773 62.507 6.67668 62.4238 6.25159C62.3465 5.85325 62.2008 5.47274 62.076 5.08926C62.0165 4.90495 61.96 4.71767 61.9184 4.52445C61.8768 4.34014 61.8619 4.14989 61.8114 3.96855C61.6419 3.34429 61.1604 2.85974 60.6342 2.50599C60.5747 2.46734 60.5242 2.43464 60.4766 2.39897C60.8066 2.4168 61.1336 2.47031 61.4487 2.56841L61.4457 2.56544ZM50.4527 7.57147C50.3724 7.13448 50.3249 6.69155 50.2506 6.25159C50.1852 5.86811 50.0989 5.36275 50.3605 5.02683C50.4557 4.90495 50.6013 4.8455 50.7351 4.7801C50.854 4.72362 50.9551 4.6493 51.0383 4.5512C51.1275 4.50959 51.2167 4.46499 51.3029 4.41743C51.5169 4.29852 51.731 4.17962 51.945 4.06665C51.9093 4.78902 51.8499 5.51138 51.8142 6.23672C51.7756 7.01557 51.832 7.78847 51.8677 8.56732C51.8826 8.90621 51.8915 9.24212 51.8796 9.58101C51.7874 9.44427 51.6864 9.3105 51.5229 9.29266C51.3594 9.27482 51.1988 9.37292 51.074 9.46508C50.967 9.54237 50.8748 9.63749 50.7975 9.74154C50.7975 9.69695 50.7946 9.65236 50.7916 9.60777C50.7738 9.37887 50.744 9.15294 50.7084 8.92702C50.637 8.47219 50.5389 8.02332 50.4557 7.57147H50.4527ZM53.0806 15.6245C53.0746 15.5799 53.0657 15.5353 53.0598 15.4907C53.0568 15.461 53.0271 15.458 53.0033 15.4699C52.8576 15.1548 52.7506 14.8249 52.6614 14.4919C52.593 14.2392 52.5544 13.9836 52.4949 13.7309C52.4682 13.6209 52.4355 13.505 52.3641 13.4158C52.2779 13.3088 52.1531 13.2582 52.0223 13.2464C51.9004 13.2345 51.7785 13.2404 51.6566 13.2226C51.401 12.5418 50.9937 11.9146 50.8362 11.1982C50.7619 10.8652 50.7529 10.5115 50.854 10.1815C50.9016 10.0299 50.9789 9.8872 51.0889 9.77126C51.184 9.67316 51.3296 9.54237 51.4723 9.5275C51.5556 9.51858 51.6031 9.5929 51.6477 9.6583C51.728 9.77424 51.7964 9.89612 51.9004 9.99125C51.9777 10.0656 52.0966 10.0091 52.1025 9.90801C52.159 9.12321 52.0907 8.33842 52.049 7.5566C52.0074 6.78073 52.0371 6.00783 52.0758 5.23195C52.0966 4.81577 52.1174 4.40257 52.1055 3.98639C52.1709 3.95072 52.2363 3.91505 52.3047 3.88235C52.6882 3.69804 53.0776 3.52562 53.4611 3.34132C54.0794 3.04404 54.6888 2.73191 55.322 2.46734C56.5289 1.96198 57.9023 1.56959 59.1687 2.09873C59.4867 2.2325 59.784 2.42275 60.0486 2.64273C60.0991 2.68435 60.1705 2.61895 60.1229 2.56841C59.6443 2.08089 59.0349 1.76876 58.3571 1.67066C57.7031 1.5785 57.0313 1.66174 56.3981 1.83416C55.7322 2.01549 55.0901 2.28303 54.4629 2.56841C53.7762 2.88352 53.0954 3.21349 52.4117 3.53157C52.0223 3.7129 51.6418 3.90315 51.2732 4.12016C51.1007 4.22123 50.9224 4.31636 50.7292 4.37879C50.6459 4.40554 50.5359 4.43527 50.4705 4.43824C50.4349 4.43824 50.3992 4.44121 50.3665 4.43824C50.3605 4.43824 50.3397 4.4323 50.3368 4.4323C50.3278 4.4323 50.3189 4.42635 50.31 4.42338C50.31 4.42338 50.31 4.42338 50.3041 4.4204C50.2743 4.40554 50.2654 4.39662 50.2565 4.38176C50.2327 4.35203 50.2297 4.33122 50.2208 4.28663C50.203 4.18259 50.2208 4.05773 50.2476 3.95369C50.3903 3.34726 50.8808 2.88946 51.3386 2.50004C51.838 2.07792 52.3909 1.72119 52.9498 1.38231C53.2946 1.17124 53.6483 0.972073 54.0259 0.829383C54.4034 0.686694 54.8047 0.612377 55.2001 0.538059C55.6133 0.460769 56.0295 0.398342 56.4516 0.371587C56.8232 0.350779 57.1918 0.318079 57.5604 0.294298C57.9112 0.270516 58.2828 0.258625 58.6187 0.377533C58.916 0.48455 59.1508 0.713448 59.3322 0.966127C59.5373 1.25448 59.7186 1.57256 59.8524 1.90253C59.9713 2.19385 60.0842 2.49112 60.3518 2.6784C60.8393 3.02026 61.3328 3.40077 61.5141 3.99234C61.5676 4.1707 61.5855 4.35203 61.6241 4.53337C61.6627 4.72362 61.7163 4.91387 61.7757 5.09818C61.9006 5.4876 62.0492 5.87405 62.1324 6.27537C62.2216 6.70344 62.284 7.14042 62.3524 7.57444C62.3851 7.7855 62.4178 7.99359 62.4505 8.20465C62.4773 8.38599 62.5129 8.57029 62.5278 8.7546C62.5456 9.00728 62.5337 9.28077 62.6289 9.51858C62.6437 9.55723 62.6705 9.59587 62.6973 9.63155C62.6973 9.71775 62.7626 9.79802 62.8637 9.77424C62.9797 9.83666 63.1194 9.85153 63.2383 9.77424C63.2383 9.77424 63.2383 9.77424 63.2442 9.77126C63.2442 9.77126 63.2502 9.77424 63.2531 9.77721C63.2561 9.77721 63.2591 9.78018 63.2591 9.78018C63.2591 9.78018 63.2591 9.78018 63.265 9.78613C63.2739 9.79505 63.2829 9.80396 63.2918 9.81288C63.2977 9.81883 63.3007 9.8218 63.3037 9.82775C63.3037 9.82775 63.3037 9.82775 63.3037 9.83072C63.3423 9.88423 63.3602 9.92287 63.375 9.97341C63.4672 10.2499 63.4464 10.5679 63.4166 10.8622C63.3899 11.1565 63.3304 11.4449 63.3067 11.7481C63.2888 11.98 63.2829 12.2178 63.2234 12.4437C63.1967 12.5478 63.161 12.6488 63.0986 12.735C63.0748 12.7677 63.0451 12.8034 63.0153 12.8302C63.0034 12.8391 62.9975 12.845 62.9826 12.854C62.9737 12.8599 62.9707 12.8599 62.9648 12.8599H62.9618C62.9559 12.854 62.9499 12.848 62.947 12.845C62.9291 12.8242 62.941 12.845 62.9261 12.8183C62.8875 12.7529 62.8637 12.6875 62.8429 12.6102C62.7983 12.4437 62.7745 12.2743 62.7656 12.1019C62.7597 11.9503 62.5219 11.9027 62.4892 12.0632C62.3613 12.6756 62.3494 13.2999 62.3019 13.9212C62.2543 14.5246 62.1681 15.1429 61.8798 15.6869C61.7133 15.9991 61.4784 16.2726 61.2674 16.555C61.0385 16.8582 60.8155 17.1644 60.6015 17.4795C60.435 17.7232 60.2894 17.9789 60.1318 18.2286C59.9861 18.4605 59.8226 18.6983 59.5908 18.8558C59.1033 19.1858 58.4374 19.0431 57.8844 19.0312C57.2988 19.0193 56.6954 19.1234 56.1543 18.8439C55.6252 18.5675 55.1763 18.1513 54.7364 17.7559C54.5164 17.5597 54.2875 17.3725 54.0883 17.1525C53.8624 16.9057 53.6781 16.6293 53.4967 16.3498C53.3481 16.118 53.2024 15.8802 53.0746 15.6364L53.0806 15.6245ZM52.0015 18.6983C52.2185 18.3921 52.4949 18.0859 52.8487 17.9373C52.8665 17.9789 52.8873 18.0235 52.9111 18.0621C52.9111 18.1364 52.9349 18.2137 52.9854 18.291C53.0627 18.4129 53.1668 18.5199 53.2589 18.6329C53.36 18.7548 53.4581 18.8766 53.5562 19.0015C53.58 19.0312 53.6038 19.061 53.6275 19.0877C53.8119 19.4385 53.9991 19.7922 54.234 20.1133C54.6799 20.7257 55.2179 21.2637 55.652 21.888C56.4605 23.0533 56.9302 24.3969 57.3018 25.7555C57.6764 27.1229 57.9796 28.5112 58.4701 29.8429C58.7346 30.5623 58.9576 31.2877 59.136 32.0338C59.3143 32.777 59.4689 33.5291 59.6562 34.2693C60.0426 35.7972 60.6164 37.2895 60.6877 38.8799C60.6907 38.9661 60.6936 39.0524 60.6936 39.1356C60.6223 39.1683 60.5539 39.201 60.4826 39.2337C60.4588 39.2456 60.435 39.2515 60.4112 39.2634C60.3785 39.2367 60.3488 39.201 60.325 39.1564C60.2329 38.984 60.2121 38.7729 60.1883 38.5827C60.1586 38.324 60.1259 38.0743 60.0456 37.8246C59.9326 37.4679 59.7662 37.132 59.6027 36.799C59.2786 36.1302 58.9784 35.4554 58.6276 34.7984C58.2739 34.1385 57.8963 33.4934 57.5099 32.8513C56.7429 31.579 55.9403 30.3275 55.2269 29.0254C54.8493 28.3387 54.5015 27.6372 54.1359 26.9445C53.7613 26.2311 53.3838 25.5206 53.03 24.7953C52.8636 24.4505 52.6911 24.1116 52.5009 23.7786C52.3106 23.4487 52.1085 23.1217 51.9569 22.7709C51.9093 22.6609 51.8499 22.5331 51.8588 22.4112C51.8618 22.3458 51.8826 22.3101 51.9272 22.2744C52.0758 22.1555 52.2839 22.1139 52.4474 22.0188C52.5485 21.9593 52.6436 21.888 52.7238 21.8018C52.81 21.7126 52.7476 21.564 52.6228 21.561C52.0996 21.5402 51.5526 21.7096 51.071 21.4302C50.9521 21.3618 50.8391 21.2667 50.8243 21.121C50.8124 20.9754 50.8837 20.8238 50.9432 20.6959C51.2642 20.0152 51.5585 19.3077 51.9985 18.6894L52.0015 18.6983ZM44.971 47.7505C44.5073 47.6702 44.1119 47.4086 43.8147 47.0489C43.5263 46.6981 43.3301 46.276 43.1161 45.8806C42.8248 45.3426 42.584 44.7867 42.3848 44.207C42.1856 43.6244 42.0251 43.0269 41.8616 42.4353C41.6862 41.7932 41.5019 41.1511 41.3206 40.512C41.1452 39.8877 40.9846 39.2604 40.7974 38.6391C40.616 38.0297 40.4169 37.4233 40.2504 36.808C40.0869 36.1896 39.962 35.5654 39.9234 34.9262C39.9056 34.6201 39.9026 34.3139 39.8937 34.0077C39.8877 33.862 39.8818 33.7134 39.9026 33.5707C39.9204 33.4458 39.9769 33.3299 40.0334 33.2169C40.1285 33.0297 40.2623 32.8216 40.2563 32.6046C40.2534 32.3905 40.1077 32.2568 39.968 32.1141C39.8461 31.9892 39.7688 31.799 39.8996 31.6533C40.0215 31.5166 40.179 31.4274 40.2801 31.2698C40.5001 30.922 40.515 30.4434 40.5387 30.0451C40.5714 29.5367 40.616 29.0344 40.6785 28.529C40.7587 27.8869 40.8509 27.2448 40.9014 26.5997C40.952 25.9844 40.9698 25.369 41.0619 24.7566C41.1511 24.1651 41.2789 23.5824 41.4573 23.0117C41.6238 22.4855 41.9389 22.105 42.4234 21.8404C42.9258 21.564 43.4758 21.6888 44.0228 21.6769C44.0971 21.6769 44.1654 21.6145 44.1625 21.5372C44.1535 21.2816 44.8908 21.4599 45.0335 21.4837C45.5923 21.5729 46.1839 21.448 46.7279 21.3202C47.4265 21.1567 48.1043 20.9189 48.7791 20.6781C49.3558 20.473 49.9265 20.25 50.4497 19.926C50.8035 19.709 51.1275 19.4504 51.4099 19.1531C51.3356 19.2809 51.2642 19.4117 51.1988 19.5425C51.0205 19.8933 50.851 20.253 50.6875 20.6127C50.5359 20.9456 50.4676 21.3113 50.7827 21.5729C51.0145 21.7631 51.3148 21.8583 51.6121 21.8791C51.7845 21.891 51.9569 21.8791 52.1293 21.8672C52.0728 21.8939 52.0163 21.9177 51.9599 21.9445C51.7934 22.0218 51.6329 22.1318 51.5942 22.325C51.5377 22.6163 51.725 22.9255 51.8499 23.1752C52.0282 23.5289 52.2393 23.8678 52.4325 24.2156C52.6257 24.5694 52.7892 24.938 52.9676 25.2977C53.1519 25.6693 53.3392 26.0379 53.5324 26.4035C53.9159 27.1378 54.3023 27.872 54.6858 28.6093C55.3963 29.9737 56.2257 31.2698 57.0283 32.5778C57.4326 33.2378 57.8309 33.9007 58.2055 34.5784C58.5801 35.2532 58.916 35.9429 59.237 36.6445C59.3946 36.9923 59.5789 37.3282 59.7156 37.6849C59.8226 37.9614 59.8851 38.2378 59.9178 38.5321C59.9475 38.7967 59.9802 39.1326 60.1378 39.3615C59.787 39.4596 59.4154 39.4864 59.0527 39.4983C58.4285 39.5191 57.8072 39.4745 57.1859 39.4507C56.5467 39.4239 55.9076 39.4329 55.2685 39.4269C54.5848 39.418 53.904 39.4091 53.2203 39.4091C52.2512 39.4091 51.2821 39.4418 50.3189 39.531C50.4051 39.4923 50.4824 39.4388 50.533 39.3556C50.6013 39.2367 50.6103 39.091 50.6162 38.9572C50.6281 38.7016 50.6251 38.4459 50.6251 38.1873C50.6192 37.2004 50.6667 36.2134 50.5775 35.2295C50.5567 35.0154 50.533 34.8014 50.5003 34.5874C50.5389 34.299 50.637 34.0285 50.7084 33.7431C50.8718 33.104 50.9373 32.444 50.9105 31.7841C50.8927 31.3055 50.8243 30.8299 50.7529 30.3572C50.6935 29.9499 50.6251 29.5457 50.5122 29.1503C50.4408 28.8946 50.3338 28.4904 50.0781 28.3298C50.0633 28.1634 49.7957 28.1693 49.7868 28.3477C49.766 28.8174 49.8433 29.2841 49.9325 29.7419C50.0187 30.1878 50.1079 30.6307 50.1822 31.0796C50.2506 31.4958 50.3516 31.909 50.3992 32.3281C50.4349 32.6462 50.4527 32.9821 50.3814 33.2972C50.2803 33.0594 50.2208 32.8067 50.1673 32.554C50.1108 32.2895 50.0454 32.0338 49.9741 31.7752C49.8879 31.3798 49.7838 30.9874 49.6649 30.601C49.549 30.1491 49.4212 29.7032 49.1893 29.296C49.115 29.1652 48.8772 29.2543 48.9396 29.403C49.1893 30.0035 49.3974 30.6277 49.5639 31.2579C49.5639 31.2639 49.5639 31.2669 49.5668 31.2728C49.6203 31.4809 49.6709 31.689 49.7184 31.9C49.9057 32.7651 50.0722 33.645 50.206 34.519C50.2 34.5606 50.1941 34.6052 50.1881 34.6468C50.1495 35.0214 50.1822 35.3989 50.2565 35.7645C50.2654 35.8032 50.2981 35.821 50.3338 35.821C50.3576 36.3502 50.3576 36.8793 50.3605 37.4114C50.3635 37.8871 50.3873 38.3627 50.3724 38.8383C50.3695 38.9543 50.3873 39.1445 50.307 39.2426C50.2595 39.3021 50.1673 39.3139 50.0989 39.3348C49.8374 39.4121 49.5847 39.528 49.332 39.6439C49.2755 39.6528 49.219 39.6588 49.1625 39.6677C48.6096 39.7539 48.0448 39.8312 47.5365 40.075C47.4235 40.1285 47.4443 40.3366 47.5722 40.3574C48.1964 40.4466 48.7285 40.2177 49.2636 39.962C49.2963 39.9561 49.326 39.9531 49.3587 39.9471C50.0098 39.849 50.6667 39.7926 51.3237 39.7569C52.6376 39.6855 53.9545 39.7123 55.2714 39.7272C55.8927 39.7361 56.517 39.7272 57.1383 39.7509C57.7269 39.7747 58.3125 39.8163 58.9011 39.8044C59.3975 39.7955 59.9386 39.7717 60.4083 39.5964C60.4202 39.5934 60.4291 39.5874 60.441 39.5845C60.4529 39.5874 60.4647 39.5934 60.4766 39.5964C60.6045 39.632 60.7353 39.6201 60.8631 39.6023C60.9225 39.5934 60.9582 39.528 60.9612 39.4745C60.9612 39.4329 60.9612 39.3942 60.9612 39.3526C61.1306 39.2694 61.3001 39.1891 61.4755 39.1178C61.7549 39.0078 62.1592 38.8532 62.4357 39.0524C62.614 39.1802 62.6824 39.415 62.7537 39.6112C62.8518 39.8847 62.9321 40.1641 63.0005 40.4466C63.1402 41.0203 63.2294 41.6029 63.3185 42.1856C63.4107 42.8069 63.488 43.4133 63.488 44.0405C63.488 44.1922 63.488 44.3438 63.488 44.4983C63.488 44.6262 63.4969 44.7599 63.4672 44.8878C63.4285 45.0364 63.3334 45.1286 63.1937 45.1821C63.0034 45.2534 62.7953 45.2742 62.5962 45.3069C62.284 45.3604 61.9719 45.4258 61.6628 45.5001C60.4439 45.7944 59.2786 46.2998 58.039 46.5049C57.4326 46.606 56.8202 46.6565 56.2078 46.716C55.5806 46.7754 54.9563 46.8527 54.3291 46.9241C54.008 46.9597 53.69 47.0014 53.3659 47.0162C53.0538 47.0311 52.7417 47.0251 52.4295 47.043C51.7815 47.0786 51.1305 47.2154 50.4913 47.3165C49.8403 47.4175 49.1893 47.5246 48.5413 47.6464C47.92 47.7624 47.3135 47.7861 46.6833 47.7594C46.3979 47.7475 46.1155 47.7534 45.8302 47.7683C45.5477 47.7802 45.2564 47.798 44.977 47.7475L44.971 47.7505ZM50.2416 29.8221C50.1614 29.4119 50.0871 28.9957 50.0781 28.5795C50.0989 28.6152 50.1168 28.6479 50.1316 28.6806C50.2089 28.8382 50.2595 29.0076 50.3041 29.177C50.4022 29.5605 50.4586 29.9559 50.5062 30.3483C50.5567 30.7882 50.6162 31.2282 50.637 31.6682C50.643 31.7782 50.643 31.8911 50.643 32.0011C50.5984 31.7187 50.5389 31.4422 50.4884 31.1747C50.4081 30.7229 50.3308 30.274 50.2446 29.8251L50.2416 29.8221ZM44.971 66.2763C44.5727 66.1812 44.1268 66.1901 43.7612 65.988C43.1577 65.655 42.9853 64.9802 43.0626 64.3381C43.1428 63.6782 43.4044 63.048 43.6066 62.4178C43.8563 61.6419 43.9544 60.8274 44.0465 60.0218C44.1 59.5491 44.1357 59.0765 44.2041 58.6068C44.2754 58.1341 44.3676 57.6644 44.4419 57.1918C44.5935 56.2494 44.6886 55.2863 44.7481 54.335C44.7778 53.8534 44.7719 53.3778 44.754 52.8962C44.7392 52.4325 44.7303 51.9658 44.8016 51.508C44.9235 50.7113 45.1672 49.9324 45.1821 49.1209C45.188 48.7552 45.1435 48.3896 45.0127 48.0477C45.298 48.0834 45.5864 48.0715 45.8747 48.0596C46.172 48.0448 46.4633 48.0448 46.7606 48.0567C47.3997 48.0804 48.0121 48.0418 48.6423 47.9259C49.3112 47.804 49.98 47.694 50.6519 47.5899C51.3326 47.4859 52.0134 47.3492 52.703 47.3313C53.0241 47.3224 53.3451 47.3254 53.6632 47.2957C53.9991 47.2659 54.335 47.2243 54.668 47.1857C55.3131 47.1084 55.9552 47.043 56.6002 46.9805C57.2305 46.9211 57.8577 46.8557 58.479 46.7308C59.1151 46.603 59.7216 46.383 60.3399 46.1898C60.8066 46.0441 61.2763 45.9074 61.7519 45.7915C61.743 45.8093 61.74 45.8301 61.74 45.8569C61.7579 46.7041 61.7103 47.5424 61.636 48.3837C61.5647 49.2012 61.5052 50.0216 61.4101 50.8361C61.3149 51.6566 61.1277 52.4622 60.9315 53.2619C60.7472 54.011 60.5807 54.769 60.3756 55.5122C60.1675 56.2583 59.894 57.0402 60.0159 57.825C60.0248 57.8844 60.0961 57.929 60.1496 57.929C60.1823 57.929 60.215 57.929 60.2448 57.929C60.114 58.5592 59.9743 59.1894 59.8137 59.8137C59.7008 60.2566 59.5729 60.6966 59.4332 61.1306C59.2935 61.5646 59.13 61.9897 58.9903 62.4237C58.7168 63.2769 58.4909 64.1479 58.1401 64.9743C57.9677 65.3816 57.7715 65.7799 57.602 66.1901C57.5188 66.3923 57.4356 66.5974 57.3375 66.7936C57.2572 66.9571 57.174 67.1265 57.0134 67.2246C56.8826 67.3019 56.7281 67.3316 56.5824 67.3584C56.3743 67.397 56.1662 67.4297 55.9552 67.4565C55.4885 67.513 55.0188 67.5397 54.5491 67.5427C53.6067 67.5516 52.6674 67.4714 51.731 67.3852C51.2583 67.3406 50.7856 67.296 50.313 67.2573C49.8463 67.2187 49.3796 67.2038 48.9099 67.1741C48.4788 67.1444 48.0627 67.0314 47.6465 66.9244C47.1917 66.8055 46.7309 66.7668 46.2731 66.6717C46.1036 66.636 45.9372 66.5855 45.7707 66.532C45.7796 66.5231 45.7826 66.5171 45.7915 66.5082C45.8658 66.4369 45.7529 66.3239 45.6785 66.3952C45.6488 66.422 45.625 66.4488 45.6013 66.4755C45.3932 66.4042 45.1851 66.3328 44.9681 66.2823L44.971 66.2763ZM39.3318 108.664C39.5042 108.361 39.8372 108.165 40.0542 107.897C40.3871 107.487 40.5982 106.999 40.833 106.53C41.1006 105.998 41.3681 105.465 41.603 104.915C42.0429 103.875 42.5126 102.858 43.0685 101.871C43.6214 100.893 44.2308 99.9451 44.867 99.0177C45.5061 98.0872 46.172 97.1746 46.8409 96.2649C47.1768 95.8101 47.5097 95.3553 47.8427 94.9005C48.1786 94.4427 48.5234 93.9908 48.8296 93.5122C49.1417 93.0217 49.4123 92.5045 49.6441 91.9694C49.876 91.4402 50.0544 90.8903 50.3011 90.3701C50.7916 89.3445 51.3861 88.3694 51.725 87.2785C51.8082 87.0079 51.8707 86.7315 51.8885 86.4491C51.9063 86.1815 51.8855 85.911 51.8885 85.6435C51.9004 85.15 52.0074 84.6833 52.1709 84.2166C52.2066 84.1125 52.2571 84.0382 52.1977 83.9372C52.1471 83.8539 52.1055 83.7826 52.1025 83.6845C52.0996 83.5002 52.2036 83.3277 52.2987 83.1791C52.486 82.8908 52.7536 82.6351 52.816 82.2843C52.8636 82.0138 52.8725 81.7433 52.8725 81.4728C53.4076 82.543 53.9218 83.625 54.335 84.7487C54.5818 85.4176 54.7958 86.0983 55.0247 86.7731C55.1377 87.112 55.2536 87.4479 55.3785 87.7838C55.4914 88.093 55.5984 88.4051 55.7709 88.6846C55.8511 88.8154 55.9403 88.9462 55.9998 89.0888C56.0592 89.2404 56.0414 89.3594 56.0117 89.511C55.9671 89.7399 56.0146 89.9628 56.2168 90.1025C56.2703 90.1382 56.3297 90.165 56.3892 90.1858C56.4754 90.3998 56.6448 90.5841 56.7251 90.7981C56.8381 91.1073 56.9124 91.4313 56.9926 91.7524C57.171 92.448 57.4118 93.1317 57.6288 93.8154C57.6318 93.8273 57.6377 93.8392 57.6407 93.8511C57.608 93.9046 57.602 93.976 57.6526 94.0384C57.7328 94.1365 57.5158 94.4456 57.4653 94.5259C57.3404 94.7281 57.2096 94.9242 57.0551 95.1026C56.7073 95.5099 56.2881 95.8458 55.8987 96.2144C55.0842 96.9873 54.5848 97.9713 53.9694 98.8958C53.6483 99.3774 53.36 99.8708 53.0865 100.379C52.816 100.885 52.5395 101.39 52.2096 101.86C51.8766 102.335 51.511 102.784 51.1602 103.245C50.8064 103.712 50.4973 104.202 50.1733 104.69C49.8374 105.195 49.4777 105.682 49.1061 106.161C48.7523 106.613 48.3956 107.068 47.9913 107.475C47.6257 107.847 47.2273 108.185 46.8141 108.507C46.499 108.75 46.0858 109.024 45.958 109.425C45.848 109.776 45.9253 110.168 45.958 110.525C45.9877 110.819 46.0561 111.262 45.8093 111.488C45.5923 111.687 45.197 111.613 44.9354 111.577C44.5489 111.524 44.1654 111.432 43.7849 111.345C42.8545 111.137 41.8854 111.137 41.0619 110.587C40.5239 110.228 40.0096 109.752 39.5934 109.256C39.4715 109.113 39.2159 108.831 39.3199 108.655L39.3318 108.664ZM56.6359 89.9569C56.6359 89.9361 56.6448 89.9153 56.6537 89.8974C56.7102 89.7963 56.8529 89.7666 56.957 89.7755C57.0134 89.7785 57.067 89.7934 57.1205 89.8142C57.1383 89.8201 57.1651 89.8409 57.1888 89.8528C57.1591 89.8707 57.1264 89.8915 57.1086 89.8974C57.0016 89.9361 56.8083 89.9717 56.6359 89.9569ZM52.376 120.371C52.376 120.371 52.3731 120.382 52.3641 120.4C52.3582 120.406 52.3523 120.412 52.3463 120.418C52.3374 120.424 52.3285 120.43 52.3196 120.436C52.3017 120.445 52.2869 120.454 52.269 120.463C52.2244 120.486 52.1828 120.501 52.1352 120.519C52.0193 120.561 51.9034 120.591 51.7845 120.623C51.5912 120.671 51.395 120.709 51.2018 120.763C50.4646 120.977 49.6917 121.019 48.9307 121.016C48.1637 121.013 47.3968 120.938 46.6358 120.843C45.9788 120.763 45.3099 120.695 44.6589 120.561C44.5965 120.549 44.5311 120.534 44.4687 120.519C44.4597 120.516 44.4508 120.513 44.4419 120.513C44.2308 120.463 44.0228 120.403 43.8206 120.326C43.5828 120.234 43.3985 120.106 43.232 119.913C43.0269 119.675 42.8634 119.401 42.6969 119.134C42.5364 118.875 42.3699 118.623 42.1945 118.373C41.8467 117.879 41.4633 117.407 40.9995 117.017C40.5893 116.673 40.1345 116.402 39.6529 116.167C39.2189 115.953 38.7819 115.748 38.3627 115.504C37.9555 115.269 37.5452 115.002 37.239 114.636C37.1172 114.491 37.0161 114.321 36.9626 114.143C36.9002 113.926 36.921 113.691 36.9685 113.462C37.0993 112.826 37.4144 112.237 37.7266 111.672C38.0655 111.063 38.4014 110.457 38.7313 109.841C38.8651 109.592 38.984 109.336 39.1 109.08C39.1475 109.166 39.207 109.247 39.2575 109.315C39.4686 109.595 39.7153 109.847 39.971 110.085C40.509 110.587 41.0738 111.045 41.7843 111.277C42.2689 111.435 42.7742 111.497 43.2766 111.568C43.5887 111.613 43.8919 111.696 44.2011 111.762C44.5638 111.839 44.9324 111.916 45.304 111.928C45.4199 111.931 45.5359 111.928 45.6458 111.907C45.6458 111.916 45.6399 111.922 45.6399 111.931C45.5686 112.627 45.8391 113.281 45.9461 113.955C46.0472 114.586 46.062 115.252 46.3682 115.828C46.6268 116.316 47.0371 116.693 47.5127 116.967C47.9794 117.237 48.4907 117.419 48.9842 117.633C49.2369 117.743 49.4895 117.859 49.7274 117.998C50.0009 118.156 50.2714 118.316 50.5538 118.459C50.8481 118.608 51.1513 118.756 51.4099 118.959C51.5823 119.092 51.7339 119.256 51.8796 119.419C52.0431 119.601 52.1977 119.797 52.3077 120.017C52.3493 120.097 52.385 120.198 52.3909 120.275C52.3909 120.326 52.3909 120.335 52.379 120.374L52.376 120.371ZM68.1284 120.668C68.1313 120.701 68.1373 120.73 68.1432 120.763C68.1403 120.763 68.1373 120.76 68.1343 120.757C68.06 120.715 67.9857 120.757 67.9589 120.819C67.8905 120.822 67.8222 120.828 67.7538 120.831C67.6171 120.837 67.4803 120.84 67.3436 120.843C67.082 120.849 66.8204 120.855 66.5558 120.855C66.0267 120.855 65.4975 120.849 64.9684 120.828C63.8804 120.784 62.7894 120.796 61.7014 120.811C60.6164 120.825 59.5313 120.84 58.4463 120.796C57.3613 120.751 56.2732 120.695 55.1852 120.701C54.3023 120.701 53.4046 120.849 52.5306 120.659C52.6941 120.525 52.7179 120.305 52.6644 120.106C52.602 119.862 52.4504 119.645 52.2987 119.449C52.1531 119.262 51.9955 119.089 51.8261 118.923C51.3564 118.462 50.744 118.239 50.1852 117.918C49.9325 117.772 49.6887 117.621 49.4241 117.496C49.1655 117.374 48.901 117.267 48.6394 117.16C48.1548 116.961 47.6494 116.753 47.2392 116.417C47.0281 116.244 46.8468 116.045 46.7041 115.813C46.5406 115.549 46.4485 115.263 46.392 114.957C46.3296 114.624 46.2969 114.282 46.2463 113.947C46.1958 113.611 46.1007 113.29 46.0293 112.96C45.955 112.621 45.9045 112.276 45.9401 111.928C45.9431 111.884 45.9223 111.845 45.8896 111.818C45.9639 111.776 46.0353 111.723 46.0947 111.649C46.5466 111.093 46.1363 110.278 46.2315 109.645C46.2879 109.262 46.6833 109.009 46.9657 108.789C47.3581 108.483 47.7446 108.165 48.1013 107.814C48.4877 107.436 48.8296 107.014 49.1655 106.592C49.5163 106.149 49.8582 105.697 50.1822 105.234C50.5032 104.776 50.7886 104.294 51.1126 103.839C51.4396 103.382 51.7934 102.948 52.1293 102.499C52.4622 102.059 52.7684 101.607 53.036 101.128C53.3035 100.65 53.5503 100.159 53.8297 99.6865C54.1032 99.2258 54.4153 98.7888 54.6947 98.328C54.9771 97.8672 55.2566 97.4035 55.6014 96.9843C55.9344 96.583 56.3297 96.2441 56.7132 95.8933C57.0699 95.5634 57.388 95.2126 57.6526 94.8053C57.712 94.7132 57.7864 94.6002 57.8488 94.4843C58.0182 94.9688 58.1936 95.4534 58.3571 95.9409C58.4701 96.2768 58.5711 96.6187 58.6871 96.9546C58.7941 97.2638 58.9279 97.5581 59.0646 97.8524C59.1924 98.1288 59.3143 98.432 59.3381 98.7353C59.347 98.8334 59.4451 98.8631 59.5075 98.8215C59.7245 99.3744 59.8851 99.9511 60.0575 100.519C60.3013 101.319 60.6312 102.077 60.9434 102.852C61.6003 104.487 62.1473 106.158 62.6943 107.832C62.9707 108.682 63.2561 109.529 63.5534 110.373C63.8388 111.182 64.1301 111.988 64.4987 112.76C64.8554 113.516 65.2686 114.244 65.6908 114.963C65.9078 115.332 66.1307 115.7 66.3507 116.069C66.5528 116.408 66.7936 116.75 66.9541 117.11C67.1295 117.508 67.1533 117.96 67.2425 118.382C67.3257 118.786 67.4952 119.167 67.6735 119.538C67.7835 119.77 67.956 120.085 68.2057 120.219C68.1343 120.338 68.0986 120.484 68.1195 120.665L68.1284 120.668ZM69.8436 122.969C69.5315 122.713 69.2788 122.35 69.0499 122.02C68.8329 121.705 68.6426 121.366 68.5089 121.007C68.4346 120.811 68.3275 120.525 68.4613 120.329C68.4762 120.308 68.491 120.29 68.5089 120.272C68.7229 120.237 68.928 120.055 69.1064 119.966C69.2461 119.898 69.148 119.654 68.9994 119.711C68.7972 119.785 68.5862 119.871 68.4227 119.993C68.3959 119.99 68.3692 119.981 68.3365 119.96C68.0511 119.782 67.9143 119.384 67.7865 119.092C67.6319 118.739 67.5309 118.394 67.4655 118.013C67.406 117.659 67.3555 117.3 67.2039 116.97C67.0404 116.607 66.8055 116.268 66.6034 115.926C66.3953 115.576 66.1842 115.228 65.9761 114.874C65.5689 114.181 65.1735 113.483 64.8227 112.757C64.0796 111.221 63.5742 109.565 63.0451 107.948C62.51 106.316 61.9808 104.687 61.3447 103.09C61.0088 102.249 60.6253 101.431 60.3488 100.566C60.111 99.8233 59.9059 99.0623 59.5492 98.3666C59.4748 97.9356 59.2192 97.5491 59.0616 97.133C58.8209 96.4998 58.6395 95.8428 58.4047 95.2067C58.1728 94.5735 57.9677 93.9314 57.7685 93.2893C57.5693 92.6531 57.3613 92.0199 57.1978 91.3748C57.1264 91.0924 57.0521 90.8041 56.9302 90.5365C56.8945 90.4593 56.8083 90.3522 56.737 90.2393C56.9035 90.2393 57.0699 90.2095 57.2096 90.159C57.3286 90.1144 57.4712 90.0461 57.5099 89.9123C57.5515 89.7696 57.4475 89.6537 57.3315 89.5883C57.1324 89.4783 56.8856 89.4456 56.6746 89.5318C56.523 89.5912 56.41 89.7131 56.3684 89.8588C56.3268 89.8231 56.297 89.7755 56.2851 89.7161C56.2673 89.615 56.3178 89.4991 56.3327 89.398C56.3505 89.2642 56.3327 89.1364 56.2851 89.0116C56.187 88.7529 56.0027 88.5389 55.8898 88.2862C55.6163 87.6828 55.4231 87.0317 55.215 86.4045C55.0069 85.7773 54.8047 85.147 54.5729 84.5257C54.1091 83.2772 53.5205 82.0822 52.926 80.8931C52.9141 80.8693 52.9022 80.8485 52.8933 80.8247C52.8933 80.8128 52.8933 80.8039 52.8933 80.792C52.8933 80.7474 52.8695 80.7237 52.8398 80.7177C51.6715 78.3752 50.5894 75.9881 49.4182 73.6486C48.8207 72.4566 48.1667 71.3002 47.5246 70.1319C47.2243 69.5879 46.9598 69.0231 46.6566 68.4821C46.5317 68.2621 46.395 68.051 46.2404 67.8519C46.0769 67.6438 45.8747 67.4595 45.738 67.2306C45.6458 67.076 45.6042 66.9244 45.634 66.7817C45.8539 66.856 46.0739 66.9244 46.2998 66.966C46.5347 67.0106 46.7695 67.0344 47.0044 67.073C47.2273 67.1117 47.4473 67.1711 47.6643 67.2276C48.0924 67.3406 48.5234 67.4446 48.9663 67.4714C49.442 67.4981 49.9176 67.5219 50.3932 67.5605C52.2958 67.7211 54.2161 67.9975 56.1246 67.733C56.4665 67.6854 56.8856 67.6616 57.1859 67.4743C57.5158 67.2663 57.6585 66.8501 57.8012 66.5082C58.155 65.6699 58.5474 64.8494 58.8298 63.9814C58.9695 63.5504 59.0943 63.1164 59.2311 62.6853C59.3678 62.2424 59.5313 61.8113 59.677 61.3714C59.7662 61.1068 59.8464 60.8422 59.9237 60.5747C59.9951 60.7947 60.2002 60.9641 60.3964 61.0652C60.6431 61.193 60.9107 61.2703 61.1782 61.3387C61.4755 61.416 61.7727 61.4933 62.07 61.5706C62.8102 61.7608 63.5593 61.9392 64.3174 62.0432C64.6087 62.0819 64.9149 62.1205 65.2092 62.1056C65.3935 62.0967 65.5659 62.0343 65.6551 61.8619C65.6699 61.8351 65.6818 61.8084 65.6908 61.7786C65.7324 62.1532 65.7799 62.5278 65.8394 62.8994C65.9672 63.696 66.1575 64.4779 66.3537 65.2597C66.4488 65.6402 66.5499 66.0207 66.6807 66.3923C66.7788 66.6658 66.9007 66.9333 67.1385 67.1146C67.1474 67.1206 67.1563 67.1265 67.1622 67.1325C67.1533 67.1414 67.1444 67.1473 67.1414 67.1563C67.1087 67.2127 67.1206 67.2722 67.1533 67.3168C67.1533 67.3138 67.1533 67.3108 67.1533 67.3049C67.1533 67.3049 67.1533 67.3138 67.1533 67.3168C67.1652 67.3316 67.1771 67.3435 67.192 67.3554C67.1771 67.3435 67.1593 67.3316 67.1533 67.3198C67.1533 67.3287 67.1593 67.3376 67.1593 67.3435C67.1593 67.3316 67.1593 67.3316 67.1593 67.3584C67.1593 67.3822 67.1593 67.403 67.1593 67.4238C67.1593 67.5189 67.1444 67.6111 67.1295 67.7032C67.0879 67.9648 67.0255 68.2235 66.9631 68.4821C66.8144 69.0826 66.6509 69.6801 66.5172 70.2865C66.315 71.1932 66.1694 72.1118 65.9821 73.0244C65.7978 73.9192 65.5689 74.805 65.3608 75.6938C65.2003 76.3776 65.0457 77.1059 64.6473 77.6915C64.5552 77.198 64.469 76.7046 64.3768 76.2111C64.3114 75.8544 64.2401 75.5006 64.145 75.1528C64.0528 74.8169 63.9279 74.4959 63.7734 74.1837C63.6247 73.8805 63.4553 73.5862 63.3067 73.283C63.2591 73.1849 63.2145 73.0868 63.1729 72.9857C63.1372 72.7955 63.1045 72.6052 63.0659 72.4179C63.0124 72.1415 62.9797 71.862 62.9053 71.5886C62.7626 71.0624 62.5011 70.5719 62.3792 70.0398C62.6616 70.0665 62.944 70.0814 63.2234 70.0279C63.5682 69.9625 63.8774 69.7871 64.1539 69.579C64.249 69.5077 64.2371 69.3085 64.0855 69.3234C63.7347 69.359 63.3988 69.472 63.051 69.5404C62.7567 69.5968 62.4327 69.6295 62.1592 69.4869C61.6836 69.2401 61.3893 68.7021 61.2258 68.2145C61.1782 68.0718 60.9255 68.0837 60.9463 68.2532C60.9463 68.2651 60.9493 68.277 60.9523 68.2918C60.9523 68.2918 60.9523 68.2918 60.9523 68.2948C61.0325 68.8983 61.3179 69.4244 61.6211 69.9446C61.7787 70.2122 61.9362 70.4827 62.0641 70.7681C62.2097 71.0891 62.3167 71.428 62.4297 71.7639C62.5873 72.2396 62.7448 72.7063 62.941 73.1611C63.0391 73.7051 63.0986 74.261 63.2502 74.7961C63.3245 75.0607 63.4137 75.3193 63.5177 75.572C63.6218 75.8276 63.7466 76.0714 63.8536 76.327C64.1004 76.9067 64.145 77.5488 64.3649 78.1374C64.3828 78.188 64.4274 78.2207 64.4749 78.2266C64.573 78.7379 64.683 79.2492 64.8198 79.7516C64.9089 80.0816 65.01 80.4056 65.1259 80.7266C65.2508 81.0655 65.3875 81.4014 65.5064 81.7433C65.7443 82.4389 65.9434 83.1494 66.1426 83.8569C66.2437 84.2136 66.3477 84.5674 66.4577 84.9211C66.5142 85.1024 66.5707 85.2778 66.5945 85.4651C66.6182 85.6405 66.6242 85.8159 66.6301 85.9913C66.642 86.3391 66.642 86.6928 66.7372 87.0317C66.758 87.1031 66.7817 87.1744 66.8085 87.2458C66.7282 87.2844 66.6718 87.4033 66.7461 87.4985C66.859 87.6441 66.8977 87.8611 66.9185 88.0603C66.9066 88.096 66.8917 88.1287 66.8798 88.1614C66.859 88.2089 66.8947 88.2476 66.9363 88.2595C66.9363 88.2624 66.9363 88.2654 66.9363 88.2684C66.9601 88.5448 66.9631 88.8243 66.9898 89.1037C67.0285 89.5021 67.082 89.8915 67.082 90.2928C67.082 90.4682 67.076 90.6406 67.0433 90.81C67.0106 90.9765 66.972 91.14 66.9601 91.3094C66.9363 91.6245 67.0701 91.8624 67.296 92.0734C67.3793 92.1537 67.4655 92.228 67.5219 92.3291C67.623 92.5074 67.6587 92.7334 67.7033 92.9296C67.8757 93.6817 67.8816 94.4635 68.0808 95.2067C68.2859 95.9677 68.7229 96.6514 69.0707 97.353C69.4542 98.1229 69.8169 98.9047 70.1558 99.6954C70.8365 101.283 71.4251 102.918 71.8591 104.591C72.2961 106.265 72.6647 107.954 73.1582 109.612C73.4049 110.445 73.6754 111.271 73.9697 112.086C74.264 112.897 74.6178 113.682 74.9269 114.488C75.0637 114.844 75.138 115.216 75.2658 115.576C75.3372 115.778 75.4561 115.897 75.6196 116.024C75.9971 116.319 76.4787 116.577 76.7551 116.979C76.8859 117.166 76.9008 117.374 76.6927 117.517C76.4519 117.683 76.1041 117.671 75.8425 117.793C75.4769 117.963 75.1469 118.206 74.8259 118.45C74.4899 118.706 74.1629 118.973 73.8419 119.253C73.2057 119.806 72.5726 120.368 72.0494 121.031C71.8115 121.331 71.5916 121.643 71.3686 121.955C71.1278 122.291 70.893 122.668 70.5838 122.945C70.3401 123.162 70.1022 123.174 69.8466 122.966L69.8436 122.969ZM64.1212 76.3568C64.035 76.1368 63.925 75.9228 63.8298 75.7057C63.7169 75.4471 63.6158 75.1825 63.5326 74.912C63.4553 74.6564 63.3869 74.3978 63.3483 74.1332C63.3394 74.0678 63.3304 74.0024 63.3215 73.934C63.4434 74.1629 63.5653 74.3918 63.6663 74.6296C63.8061 74.9507 63.8923 75.2896 63.9696 75.6314C64.0231 75.8722 64.0736 76.113 64.1212 76.3568ZM62.0938 69.9238C62.1176 70.0754 62.1532 70.2241 62.1978 70.3697C62.1889 70.3519 62.18 70.3341 62.1711 70.3192C62.0254 70.0427 61.856 69.7722 61.7044 69.4987C61.7965 69.579 61.8916 69.6533 61.9987 69.7128C62.0462 69.7395 62.0968 69.7603 62.1473 69.7812C62.1057 69.8139 62.0849 69.8763 62.0938 69.9268V69.9238ZM70.6284 123.275C70.6581 123.257 70.6849 123.236 70.7116 123.215C71.0268 122.966 71.2556 122.603 71.4905 122.279C71.7432 121.928 71.9899 121.575 72.2545 121.236C72.7806 120.567 73.4228 119.999 74.0678 119.449C73.6338 119.859 73.2176 120.293 72.8669 120.781C72.5042 121.283 72.192 121.827 71.7699 122.285C71.6124 122.454 71.4667 122.636 71.3092 122.805C71.1546 122.978 70.9851 123.153 70.7741 123.254C70.7325 123.275 70.6908 123.287 70.6462 123.299C70.6403 123.29 70.6314 123.284 70.6254 123.278L70.6284 123.275ZM73.0541 129.084C73.0214 129.122 72.9947 129.17 72.9679 129.217C72.8758 129.241 72.7925 129.211 72.6974 129.155C72.5428 129.063 72.4091 128.926 72.302 128.78C72.1712 128.602 72.1475 128.373 72.1058 128.153C72.0553 127.88 72.0137 127.603 71.9394 127.336C71.8145 126.878 71.5678 126.462 71.3775 126.028C71.1843 125.594 71.0089 125.148 70.8692 124.693C70.7979 124.455 70.7325 124.211 70.6968 123.965C70.673 123.813 70.6789 123.667 70.6819 123.516C71.0624 123.444 71.3775 123.076 71.6153 122.802C71.7788 122.615 71.9483 122.437 72.1058 122.246C72.302 122.009 72.4774 121.759 72.6498 121.503C72.8252 121.242 73.0006 120.977 73.1909 120.727C73.3811 120.478 73.5922 120.243 73.8092 120.02C74.2224 119.598 74.6742 119.214 75.1112 118.813C75.4234 118.525 75.7444 118.203 76.1279 118.007C76.1725 117.992 76.2141 117.981 76.2587 117.969C76.3003 117.96 76.3449 117.948 76.3895 117.939C76.4698 117.939 76.55 117.963 76.6362 118.007C76.8592 118.123 77.0494 118.293 77.2486 118.447C77.4716 118.62 77.7094 118.736 77.965 118.854C78.2742 118.997 78.5893 119.128 78.9014 119.262C79.4365 119.491 79.9389 119.841 80.5513 119.764C80.8634 119.725 81.1577 119.618 81.455 119.517C81.7582 119.416 82.0703 119.345 82.3795 119.268C82.7808 119.167 83.1881 119.071 83.5983 119.006C83.5983 119.006 83.5983 119.006 83.5953 119.006C83.2089 119.211 82.8224 119.422 82.4598 119.669C82.1328 119.895 81.8503 120.171 81.5769 120.46C81.4996 120.54 81.4223 120.62 81.345 120.701C81.128 120.873 80.9199 121.054 80.7356 121.256C80.6256 121.378 80.7891 121.533 80.911 121.432C81.0893 121.289 81.2499 121.132 81.4104 120.968C81.7136 120.721 82.0436 120.501 82.3706 120.29C82.6203 120.127 82.867 119.963 83.1316 119.827C83.414 119.681 83.7083 119.553 83.9966 119.419C84.3118 119.274 84.6239 119.122 84.9004 118.911C84.9806 118.852 84.9865 118.747 84.933 118.685C85.2036 118.602 85.4979 118.548 85.7684 118.608C86.1043 118.685 86.3778 118.941 86.6096 119.179C86.791 119.366 86.9783 119.565 87.1358 119.782C87.1269 119.782 87.1209 119.779 87.112 119.779C86.4016 119.797 85.7951 120.207 85.2571 120.629C84.9687 120.855 84.6923 121.093 84.4039 121.322C84.0947 121.566 83.7648 121.771 83.4348 121.979C83.0394 122.226 82.6441 122.469 82.2517 122.713C81.8801 122.945 81.5025 123.168 81.1607 123.441C80.5513 123.929 80.0578 124.538 79.5019 125.082C79.2255 125.353 78.9312 125.605 78.6517 125.873C78.3723 126.141 78.0958 126.408 77.8134 126.673C77.2516 127.193 76.663 127.689 75.9852 128.055C75.7236 128.198 75.5274 128.287 75.2391 128.352C74.9804 128.412 74.7188 128.453 74.4573 128.504C74.1838 128.557 73.9073 128.617 73.6427 128.712C73.4287 128.789 73.2028 128.893 73.0601 129.078L73.0541 129.084ZM84.0085 124.303C83.3932 124.785 82.7659 125.249 82.1625 125.745C81.565 126.233 80.9407 126.679 80.2808 127.08C78.9371 127.897 77.4924 128.537 76.0001 129.027C75.358 129.238 74.704 129.437 74.044 129.574C73.8478 129.616 73.6635 129.645 73.4584 129.639C73.4079 129.639 73.3722 129.636 73.3425 129.628C73.3247 129.625 73.3038 129.619 73.286 129.616C73.2771 129.616 73.2682 129.61 73.2593 129.607C73.2563 129.607 73.2533 129.607 73.2503 129.607C73.2503 129.607 73.2503 129.607 73.2444 129.607C73.2325 129.601 73.2206 129.595 73.2087 129.586C73.2057 129.583 73.1998 129.577 73.1939 129.571C73.1939 129.568 73.1909 129.565 73.1879 129.559C73.1879 129.559 73.182 129.544 73.182 129.538C73.182 129.538 73.182 129.535 73.182 129.532C73.1671 129.372 73.3128 129.211 73.4495 129.128C73.6516 129.006 73.8865 128.941 74.1124 128.887C74.597 128.768 75.1112 128.73 75.5839 128.569C75.899 128.462 76.1963 128.287 76.4757 128.108C76.7878 127.912 77.0851 127.689 77.3675 127.454C77.9412 126.979 78.4644 126.45 79.0055 125.938C79.279 125.68 79.5643 125.433 79.8319 125.166C80.0935 124.901 80.3462 124.624 80.6048 124.357C80.8634 124.092 81.131 123.831 81.4282 123.608C81.7671 123.352 82.1447 123.144 82.5073 122.921C82.8938 122.686 83.2773 122.448 83.6607 122.208C83.9818 122.009 84.2909 121.806 84.5882 121.572C85.1322 121.146 85.6405 120.653 86.2618 120.335C86.5234 120.201 86.8088 120.109 87.1031 120.103C87.1863 120.103 87.2339 120.044 87.2458 119.978C87.2666 120.011 87.2874 120.044 87.3082 120.076C87.3944 120.234 87.4598 120.415 87.4301 120.596C87.4034 120.763 87.3053 120.918 87.2161 121.054C87.011 121.372 86.7553 121.658 86.5086 121.943C86.2618 122.231 86.0211 122.517 85.7535 122.784C85.2095 123.334 84.609 123.828 84.0026 124.303H84.0085ZM122.612 122.963C122.175 122.942 121.744 122.877 121.313 122.808C121.253 122.799 121.197 122.793 121.138 122.784C121.328 122.758 121.518 122.734 121.708 122.716C122.252 122.671 122.85 122.674 123.346 122.921C123.12 123.001 122.808 122.972 122.609 122.963H122.612Z" fill="#161928"/>
<path d="M82.528 36.2818C82.528 36.2818 82.528 36.2758 82.5221 36.2729C82.5221 36.2729 82.5221 36.2728 82.5191 36.2699C82.5102 36.258 82.5042 36.2491 82.4953 36.2402C82.3675 36.0677 82.201 35.934 81.9959 35.8626C81.7908 35.7913 81.547 35.8151 81.3627 35.931C81.2022 36.0321 81.0833 36.1837 81.003 36.3531C80.7592 36.6623 80.679 37.0933 80.7979 37.4708C80.9138 37.8335 81.2319 38.0951 81.6213 38.0802C81.8472 38.0713 82.0494 37.9881 82.2188 37.8573C82.4358 37.7027 82.5993 37.459 82.6796 37.2182C82.7837 36.909 82.7212 36.5463 82.528 36.2847V36.2818Z" fill="white"/>
</svg>
