<svg width="124" height="130" viewBox="0 0 124 130" fill="none" xmlns="http://www.w3.org/2000/svg">
<path opacity="0.32" d="M62.6169 22.432C62.7775 22.0515 62.4326 21.561 62.0224 21.5818C62.0432 22.2953 62.067 23.0117 62.0878 23.7251C62.0997 24.1443 62.0878 24.6199 61.7757 24.8993C61.4249 25.2085 60.8214 25.1431 60.539 25.5147C60.0396 24.8191 59.8999 23.9184 59.4124 23.2138C58.9248 22.5093 57.7655 22.1169 57.2542 22.8036C56.9569 23.199 57.0342 23.7519 57.1442 24.2335C57.8398 27.2181 59.4183 29.9232 60.2715 32.8662C60.7709 34.5844 61.0206 36.3769 61.0057 38.1665C61.7786 38.333 62.5515 38.4994 63.3244 38.6659C63.4106 34.7122 63.3839 30.7526 63.2442 26.7989C63.2234 26.2222 63.1966 25.6277 62.9558 25.1045" fill="#768AD3"/>
<path opacity="0.32" d="M62.0046 52.3343C61.7162 53.8445 61.199 55.4111 61.6419 56.8826C62.6913 57.0877 63.7406 57.2928 64.79 57.4979C64.9862 57.5366 65.1943 57.5752 65.3875 57.5158C65.8691 57.3701 65.9791 56.7488 65.982 56.2464C65.9969 54.3974 65.7264 52.5662 65.4143 50.7499C65.1735 49.3557 65.0575 47.7237 64.1092 46.5881C63.2234 45.5298 62.287 45.9103 62.174 47.2867C62.0343 48.9871 62.3316 50.6161 62.0046 52.3343Z" fill="#768AD3"/>
<path d="M72.1682 30.9577C72.1712 30.8507 72.1801 30.7347 72.2604 30.6634C72.3228 30.6099 72.409 30.598 72.4893 30.5891C74.3531 30.3958 76.22 30.2026 78.0928 30.2324C80.1767 30.2621 82.2427 30.5683 84.3176 30.7734C86.2142 30.9636 88.1167 31.0736 90.0222 31.1004C90.1857 31.1004 90.376 31.1152 90.4771 31.246C90.5752 31.3709 90.5484 31.5522 90.5157 31.7098C90.1471 33.4964 89.7279 35.2859 89.6952 37.1112C89.6744 38.2765 89.8112 39.4388 89.7993 40.6071C89.7874 41.7724 89.615 42.9704 89.0294 43.9781C86.8355 43.5857 84.603 43.4133 82.3765 43.4609C81.0863 43.4906 79.7991 43.5917 78.5149 43.6957C77.0761 43.8116 75.6374 43.9395 74.1986 44.0614C73.497 44.1208 72.4031 44.2992 71.9542 43.5887C71.425 42.7474 71.8561 40.9162 71.8858 39.962C71.9304 38.5262 71.975 37.0933 72.0196 35.6575C72.0671 34.0909 72.1177 32.5273 72.1652 30.9607L72.1682 30.9577Z" fill="#AAA79F"/>
<path d="M52.6019 3.94775C53.36 4.87226 53.1994 6.20998 53.1251 7.40203C52.8665 11.5965 54.2815 15.8713 56.9926 19.0818C56.0265 18.8826 55.2922 18.1037 54.7125 17.3071C54.0288 16.3707 53.461 15.3481 53.027 14.2749C52.6346 13.3088 52.1828 12.1435 51.1631 11.9324C50.7529 11.6173 50.8688 10.8504 51.3534 10.669C51.505 10.6125 51.6774 10.6066 51.8142 10.5174C52.0312 10.3777 52.0847 10.0864 52.1085 9.82775C52.2333 8.51679 52.1412 7.18502 51.835 5.90676" fill="#AAB0BC"/>
<path d="M52.9259 19.2571C53.4878 19.3939 53.2589 20.2708 52.8308 20.6573C51.7339 21.6442 50.2029 21.9445 48.7701 22.3012C47.2927 22.6668 45.836 23.1306 44.4181 23.6894C43.9722 23.8648 43.5203 24.0551 43.1576 24.3672C42.2094 25.1877 42.1053 26.5967 42.1261 27.8512C42.2094 33.1396 43.2647 38.4132 45.2266 43.3241C45.5834 44.2129 46.0204 45.1523 46.8527 45.625C47.37 45.9193 47.9823 45.9936 48.5739 46.0471C51.1631 46.279 53.7761 46.2225 56.3535 45.8747C57.706 45.6904 59.1656 45.4466 60.3725 46.0887C59.5491 46.7249 58.4522 46.8378 57.4207 46.9716C54.1061 47.4027 50.851 48.2885 47.7713 49.5906C47.5424 49.6887 47.3016 49.7987 47.1678 50.0097C47.0608 50.1792 47.04 50.3902 47.0222 50.5894C46.6565 54.9414 46.2938 59.2935 45.9282 63.6455C45.9044 63.9219 45.8777 64.2103 45.7379 64.4511C45.3664 65.0902 44.4537 65.0754 43.7225 64.9802C43.9216 61.8084 44.1267 58.6097 44.9561 55.5389C45.5804 53.2292 46.5495 50.7469 45.622 48.5442C45.3396 47.8753 44.8996 47.2897 44.5013 46.6833C40.9489 41.2967 40.6873 34.4268 41.0084 27.985C41.1154 25.8446 41.4543 23.3892 43.2587 22.2388C44.0613 21.7275 45.0304 21.5699 45.9579 21.3588C47.9437 20.904 49.8462 20.149 51.7398 19.3969" fill="#AAB0BC"/>
<path d="M53.2975 68.0748C52.1709 68.4078 50.8361 68.9756 50.7053 70.1438C50.6607 70.5422 50.7767 70.9375 50.8896 71.3181C51.5942 73.7022 52.2987 76.0892 53.1548 78.4228C55.4617 84.6982 58.8565 90.5366 61.0474 96.8506C62.611 101.36 63.5474 106.078 65.328 110.507C66.3625 113.082 67.6735 115.537 68.9815 117.983C69.252 118.489 69.5968 119.048 70.1587 119.14C70.771 119.241 71.7045 118.911 71.8145 119.52C70.997 119.61 70.0992 119.681 69.4125 119.226C68.9547 118.923 68.6664 118.429 68.3959 117.951C62.8339 108.061 59.5105 97.1032 55.1792 86.6185C53.6453 82.9027 51.9806 79.2403 50.3427 75.569C49.1595 72.9174 47.9853 70.2509 47.0786 67.4922C48.0923 67.6765 49.109 67.8638 50.1227 68.0481" fill="#AAB0BC"/>
<path d="M40.0125 114.639C39.3348 113.878 38.654 112.924 38.877 111.928C38.9661 111.53 39.195 111.182 39.418 110.84C43.7462 104.25 48.0745 97.6621 52.4057 91.0716C52.6108 90.7595 52.8249 90.4384 53.137 90.2363C53.7226 89.8528 54.5312 89.9866 55.1168 90.373C55.7024 90.7595 56.1097 91.3511 56.5051 91.9307C55.5568 89.3356 54.3944 86.8177 53.033 84.4128C52.162 85.8099 51.8201 87.4628 51.3236 89.0323C50.5983 91.3184 49.5133 93.4884 48.1221 95.4385C47.1173 96.8446 45.9579 98.1377 44.9769 99.5617C44.32 100.519 43.7462 101.53 43.1755 102.54C42.5007 103.735 41.8229 104.93 41.1481 106.122C39.9293 108.281 38.7075 110.436 37.4857 112.594C37.3163 112.891 37.1439 113.239 37.2539 113.563C37.3371 113.81 37.566 113.976 37.78 114.125C38.6302 114.714 39.4804 115.299 40.3336 115.888C40.8746 116.262 41.6326 117.032 42.2896 117.02C41.5494 116.218 40.7884 115.409 40.0185 114.636L40.0125 114.639Z" fill="#AAB0BC"/>
<path d="M71.761 123.37C72.0761 124.416 72.6082 125.397 73.3186 126.23C73.6932 126.667 74.1361 127.077 74.6861 127.246C75.7206 127.562 76.7878 126.961 77.7004 126.384C79.9418 124.969 82.1832 123.551 84.4247 122.136C84.5228 123.1 83.8063 123.941 83.0988 124.604C81.1517 126.432 78.9014 127.936 76.4667 129.036C75.9465 129.271 75.3906 129.494 74.8258 129.431C74.0678 129.351 73.4554 128.786 72.9738 128.195C72.2277 127.273 71.6569 126.209 71.3002 125.076" fill="#AAB0BC"/>
<path d="M75.3341 48.5025C76.2289 48.4134 77.1326 48.3034 77.9679 47.9764C78.8835 47.6167 79.6802 47.0132 80.5274 46.5138C81.5025 45.9401 82.5548 45.4971 83.6488 45.2058C82.4775 44.754 81.2052 44.5667 79.9507 44.6588C79.6327 44.6826 79.3086 44.7272 79.0233 44.8699C78.4911 45.1404 78.1909 45.7052 77.8134 46.169C77.3229 46.7724 76.66 47.2362 75.9227 47.4889C75.6136 46.7695 75.3044 46.053 74.9952 45.3337C74.9447 45.2147 74.8853 45.0869 74.7693 45.0275C74.6088 44.9442 74.4215 45.0275 74.2521 45.0839C73.5327 45.3277 72.7211 45.0988 71.9928 45.3277C70.9553 45.6517 69.7752 47.2986 70.6046 48.3272C71.4339 49.3557 74.2015 48.6155 75.3282 48.4996L75.3341 48.5025Z" fill="#AAB0BC"/>
<path opacity="0.58" d="M4.22718 121.542C17.5062 122.511 30.8477 122.657 44.1476 121.976C50.8361 121.634 57.5188 121.081 64.2163 121.09C65.7412 121.09 67.3316 121.14 68.6783 121.857C70.0249 122.573 71.0267 124.17 70.5659 125.623C60.8601 125.591 51.1958 124.357 41.49 124.202C31.5552 124.045 21.6353 125.017 11.7005 125.088C7.73794 125.115 3.67128 124.981 0 123.489" fill="#D6D0BF"/>
<path d="M123.718 122.781C123.147 122.413 122.422 122.383 121.765 122.422C121.185 122.454 120.62 122.567 120.052 122.668C119.345 122.627 118.634 122.642 117.921 122.698C115.014 122.93 112.115 123.287 109.208 123.519C106.313 123.748 103.399 123.878 100.495 123.718C99.0711 123.641 97.6561 123.545 96.2292 123.525C94.7994 123.504 93.3665 123.525 91.9367 123.566C91.2292 123.587 90.5217 123.611 89.8171 123.641C89.1037 123.67 88.3902 123.664 87.6768 123.688C87.1328 123.706 86.5501 123.718 86.024 123.869C85.6553 123.973 85.26 124.14 84.8706 124.143C84.7992 124.143 84.7516 124.149 84.7279 124.098C84.9478 123.917 85.1678 123.736 85.3789 123.545C85.6762 123.278 85.9675 123.001 86.238 122.707C86.5026 122.422 86.7493 122.121 86.999 121.824C87.2428 121.536 87.4925 121.233 87.6471 120.885C87.8224 120.486 87.6946 120.088 87.4598 119.746C87.2428 119.428 86.9752 119.128 86.6958 118.86C86.4431 118.617 86.131 118.382 85.7743 118.325C85.26 118.245 84.7606 118.417 84.2909 118.643C83.8034 118.667 83.3218 118.747 82.8462 118.852C82.5251 118.923 82.204 119.006 81.886 119.086C81.5827 119.164 81.2914 119.268 80.9912 119.36C80.7088 119.449 80.4056 119.526 80.1083 119.458C79.8259 119.396 79.5643 119.256 79.3057 119.131C79.0233 118.994 78.7319 118.881 78.4436 118.756C78.1582 118.635 77.855 118.522 77.5934 118.355C77.3823 118.218 77.195 118.049 76.9869 117.906C76.9305 117.868 76.868 117.829 76.8056 117.793C76.8889 117.746 76.9661 117.686 77.0315 117.603C77.1861 117.404 77.195 117.163 77.088 116.94C76.8651 116.476 76.3478 116.206 75.9554 115.906C75.7949 115.781 75.6195 115.674 75.5482 115.475C75.4084 115.082 75.3222 114.675 75.1647 114.285C74.8288 113.453 74.475 112.633 74.1748 111.785C73.5654 110.064 73.0719 108.304 72.6349 106.533C72.4209 105.668 72.2336 104.797 71.9928 103.937C71.7491 103.066 71.4637 102.21 71.1486 101.363C70.5184 99.6746 69.7663 98.0337 68.9399 96.4344C68.7437 96.0539 68.5356 95.6823 68.4107 95.2721C68.3067 94.9302 68.2472 94.5794 68.2026 94.2257C68.1491 93.7946 68.1016 93.3666 68.0094 92.9415C67.9321 92.5907 67.8667 92.2161 67.6051 91.9515C67.513 91.8594 67.4089 91.7762 67.3346 91.6662C67.2276 91.5086 67.2395 91.3421 67.2692 91.1608C67.3346 90.7744 67.3822 90.4117 67.3673 90.0163C67.3554 89.6536 67.293 89.2999 67.2692 88.9402C67.2484 88.6221 67.2395 88.3041 67.1949 87.9889C67.183 87.9057 67.1681 87.8254 67.1503 87.7422C67.1562 87.6501 67.1473 87.5549 67.1206 87.4598C67.0462 87.1744 66.9303 86.9128 66.9006 86.6156C66.8679 86.2618 66.8917 85.9081 66.859 85.5543C66.8233 85.1797 66.7014 84.829 66.5974 84.4693C66.3923 83.7558 66.199 83.0364 65.982 82.3259C65.875 81.9722 65.7591 81.6214 65.6312 81.2766C65.5094 80.9496 65.3756 80.6256 65.2686 80.2926C65.0278 79.5494 64.8583 78.7884 64.7097 78.0185C65.1705 77.4656 65.3786 76.7611 65.545 76.0714C65.7591 75.1796 65.988 74.2907 66.1842 73.393C66.3923 72.4387 66.5409 71.4726 66.749 70.5154C66.8917 69.8674 67.076 69.2342 67.2365 68.5921C67.3108 68.2978 67.3822 68.0005 67.4238 67.7003C67.4416 67.5754 67.4743 67.403 67.4416 67.2662C67.8162 67.3852 68.2532 67.3079 68.6307 67.2514C69.0172 67.1949 69.4006 67.0938 69.793 67.0582C70.0487 67.0344 70.3222 67.0373 70.5659 66.9511C70.8127 66.8649 70.9167 66.7104 70.9435 66.4577C70.9672 66.208 70.9345 65.9612 70.9286 65.7115C70.9197 65.3013 70.9464 64.8881 70.9375 64.4779C70.9316 64.0587 70.8959 63.6396 70.8454 63.2234C70.7473 62.397 70.5897 61.5795 70.4292 60.765C70.2657 59.9415 70.1081 59.1181 69.9862 58.2857C69.8673 57.4653 69.796 56.621 69.5433 55.8303C69.4839 55.6489 69.4274 55.4646 69.3977 55.2774C69.365 55.0693 69.356 54.8582 69.3441 54.6501C69.3204 54.2399 69.252 53.8356 69.2223 53.4254C69.1747 52.7714 69.1955 52.1144 69.255 51.4634C69.2579 51.4931 69.2817 51.5199 69.3204 51.5199C69.8465 51.5466 70.3638 51.4307 70.881 51.3385C71.1456 51.291 71.4102 51.2672 71.6777 51.2375C71.9482 51.2077 72.2187 51.1691 72.4922 51.1364C72.7657 51.1037 73.0392 51.0799 73.3127 51.074C73.5773 51.071 73.8389 51.074 74.1034 51.0591C74.6326 51.0323 75.1617 50.9699 75.6849 50.8807C76.2735 50.7797 76.8532 50.637 77.4239 50.4646C77.5101 50.4378 77.5488 50.3367 77.5012 50.2624C77.8401 50.2951 78.1879 50.2475 78.5149 50.1584C78.8895 50.0573 79.2165 49.8819 79.4662 49.5817C79.597 49.4241 79.6921 49.2457 79.817 49.0852C79.918 48.9544 80.0399 48.8563 80.1826 48.7761C80.3788 48.6661 80.5899 48.5769 80.795 48.4818C81.0387 48.3688 81.2855 48.2588 81.5322 48.1518C81.987 47.9556 82.4448 47.7653 82.9145 47.6108C83.295 47.4859 83.6815 47.3789 84.0442 47.2124C84.2225 47.1292 84.389 47.0311 84.5436 46.9092C84.7071 46.7784 84.823 46.6119 84.9627 46.4574C85.257 46.1333 85.6197 45.8985 86.0002 45.6844C86.1904 45.5774 86.3837 45.4704 86.5739 45.3634C86.7463 45.2653 86.9247 45.1702 87.0704 45.0305C87.1358 44.968 87.1982 44.8907 87.2309 44.8016C87.3736 44.7897 87.5163 44.7807 87.659 44.7689C87.9859 44.7421 88.31 44.7064 88.634 44.6529C88.9283 44.6024 89.2285 44.5429 89.502 44.4211C89.6774 44.3438 89.835 44.2219 89.9331 44.0554C90.0282 43.8919 90.0579 43.7046 90.0787 43.5203C90.1471 42.9139 90.1828 42.3015 90.2125 41.6921C90.2274 41.4275 90.2511 41.157 90.2511 40.8925C90.2511 40.7617 90.2452 40.5714 90.1709 40.4406C90.1768 39.8639 90.1976 39.2872 90.2155 38.7135C90.2363 38.0387 90.2303 37.3609 90.2571 36.6861C90.2809 36.0529 90.3492 35.4197 90.4979 34.8014C90.5692 34.5071 90.6644 34.2187 90.7238 33.9185C90.7803 33.6242 90.816 33.3269 90.8308 33.0267C90.8605 32.444 90.7981 31.8792 90.6762 31.3085C90.6287 31.0796 90.6079 30.815 90.4681 30.6188C90.3046 30.3899 90.0401 30.3572 89.7844 30.3067C89.1275 30.1699 88.4586 30.1016 87.7957 29.9916C87.1179 29.8786 86.4342 29.7983 85.7505 29.724C85.0668 29.6527 84.383 29.5873 83.7023 29.504C83.0245 29.4208 82.3557 29.296 81.6779 29.2246C81.009 29.1562 80.3402 29.1235 79.6683 29.0879C78.9876 29.0492 78.3098 29.0106 77.6291 28.9957C76.9483 28.9808 76.2646 28.9808 75.5838 28.9868C74.909 28.9927 74.2342 29.0165 73.5654 29.1206C73.1165 29.1889 72.6557 29.2781 72.2544 29.5011C72.1088 29.5843 71.969 29.6884 71.862 29.8162C71.6807 29.183 71.431 28.5736 71.208 27.9523C71.0921 27.6223 70.994 27.2864 70.8959 26.9505C70.8097 26.6592 70.7027 26.3916 70.4143 26.2519C70.1468 26.1241 70.0962 25.8655 69.9922 25.6158C69.8703 25.3155 69.6563 25.1253 69.3977 24.9409C69.1479 24.7596 68.9131 24.5634 68.6366 24.4207C68.3691 24.281 68.0807 24.177 67.7954 24.0848C67.1503 23.8767 66.4695 23.7311 65.8958 23.3506C65.8869 23.3446 65.878 23.3416 65.872 23.3416C65.7947 23.1484 65.6848 22.976 65.5034 22.8363C65.1259 22.5509 64.6503 22.429 64.2281 22.2239C63.6841 21.9593 63.2739 21.4896 62.8131 21.1091C62.6972 20.9219 62.5813 20.7316 62.4653 20.5443C62.1502 20.036 61.8381 19.5098 61.6805 18.9272C61.5824 18.5705 61.5557 18.2078 61.5795 17.8392C61.6062 17.4438 61.6776 17.0484 61.6657 16.6501C61.6657 16.6055 61.6449 16.5698 61.6181 16.549C61.6716 16.4777 61.7281 16.4034 61.7816 16.332C62.0491 15.9783 62.2632 15.6126 62.391 15.1845C62.611 14.4443 62.6021 13.6625 62.6675 12.8985C62.7061 12.9758 62.7566 13.0412 62.828 13.0858C63.0123 13.1988 63.1966 13.062 63.3096 12.9164C63.479 12.6994 63.5266 12.4289 63.5593 12.1613C63.586 11.9384 63.589 11.7095 63.6247 11.4865C63.6485 11.326 63.6752 11.1625 63.693 11.002C63.7347 10.6512 63.7703 10.2736 63.6722 9.92882C63.6306 9.77424 63.5474 9.62858 63.4166 9.53345C63.4641 9.41157 63.482 9.27185 63.4968 9.15294C63.5414 8.81108 63.5771 8.46625 63.592 8.12142C63.6276 7.3069 63.5771 6.4894 63.4433 5.68677C63.3779 5.29735 63.2917 4.9109 63.1817 4.5304C63.0896 4.21232 63.0064 3.88829 62.9023 3.57319C62.8012 3.27294 62.6675 2.98162 62.4415 2.75569C62.174 2.48815 61.7965 2.33951 61.4397 2.23547C61.0592 2.12548 60.6609 2.07792 60.2625 2.07494C60.2358 2.01549 60.209 1.95306 60.1823 1.89361C60.0396 1.55769 59.8761 1.23664 59.674 0.930455C59.4926 0.65994 59.2756 0.404287 58.9932 0.234844C58.69 0.0535089 58.3392 0.0029727 57.9914 0C57.6168 0 57.2423 0.0445905 56.8677 0.0743175C56.4724 0.104044 56.08 0.121881 55.6876 0.178363C55.2773 0.237817 54.8701 0.321051 54.4688 0.413205C54.0793 0.502386 53.7107 0.653995 53.3599 0.841275C53.0092 1.02558 52.6762 1.24556 52.3433 1.4596C52.0965 1.62012 51.8528 1.78362 51.6209 1.96198C51.1096 2.34843 50.5834 2.78839 50.2416 3.34132C50.0929 3.5821 49.9919 3.86451 49.974 4.14989C49.9621 4.34014 50.0127 4.54823 50.191 4.6493C50.2832 4.69984 50.3872 4.7147 50.4913 4.70876C50.4199 4.74443 50.3486 4.78307 50.2891 4.83956C49.9889 5.11899 49.9711 5.59759 50.0067 5.9781C50.0275 6.19511 50.0692 6.41211 50.0959 6.62912C50.1256 6.85802 50.1465 7.08692 50.1821 7.31284C50.2535 7.77956 50.3516 8.2433 50.4348 8.70704C50.4824 8.96863 50.524 9.23321 50.5478 9.49778C50.5597 9.6256 50.5686 9.75045 50.5745 9.87828C50.5805 9.99124 50.5686 10.1072 50.5864 10.2201C50.3932 10.9366 50.6905 11.7065 50.9937 12.3575C51.0888 12.5597 51.1869 12.7588 51.279 12.961C51.3236 13.0561 51.3653 13.1542 51.4039 13.2523C51.4217 13.2969 51.4336 13.3593 51.4604 13.4009C51.499 13.4604 51.5644 13.4693 51.6328 13.4782C51.7279 13.4931 51.8201 13.4931 51.9152 13.4931C51.9955 13.4931 52.0876 13.4931 52.156 13.5406C52.266 13.6209 52.2808 13.8201 52.3017 13.942C52.376 14.3314 52.4711 14.7149 52.6019 15.0924C52.7119 15.4105 52.8605 15.7107 53.024 16.005C53.0538 16.3053 53.1013 16.6025 53.131 16.9057C53.1519 17.1079 53.1637 17.3041 53.137 17.5062C53.131 17.5508 53.1281 17.5954 53.131 17.637C53.1251 17.643 53.1162 17.6459 53.1102 17.6519C53.1073 17.6549 53.1043 17.6578 53.1013 17.6638C53.0864 17.6727 53.0746 17.6846 53.0597 17.6965C53.0359 17.7173 53.024 17.7411 53.0181 17.7678C53.0181 17.7678 53.0181 17.7708 53.0151 17.7738C52.9973 17.7262 52.9438 17.6905 52.8903 17.7084C52.5008 17.8303 52.1887 18.1127 51.933 18.4218C51.9241 18.4307 51.9182 18.4426 51.9093 18.4515C51.8736 18.4159 51.8082 18.4099 51.7725 18.4605C51.0056 19.5366 49.8224 20.0746 48.6125 20.4968C47.9169 20.7405 47.2183 20.9754 46.496 21.121C46.1393 21.1954 45.7736 21.2459 45.408 21.2548C45.2355 21.2578 45.0691 21.2162 44.8996 21.1864C44.6113 21.1389 44.0227 21.0467 43.9186 21.4034C43.3895 21.4034 42.8633 21.3202 42.3699 21.5759C41.915 21.8107 41.5108 22.1823 41.3086 22.6579C41.0708 23.2108 40.937 23.8292 40.836 24.4207C40.7319 25.0331 40.6814 25.6485 40.6457 26.2697C40.5714 27.4975 40.3365 28.7074 40.2682 29.9351C40.2563 30.1699 40.2414 30.4048 40.1998 30.6337C40.1671 30.815 40.1285 31.0231 40.0125 31.1717C39.8996 31.3144 39.7242 31.3977 39.629 31.5552C39.5191 31.7365 39.5428 31.9744 39.6409 32.1527C39.7242 32.3043 39.9709 32.4292 39.9798 32.6075C39.9858 32.7086 39.9263 32.8127 39.8847 32.8989C39.8282 33.0148 39.7658 33.1278 39.7152 33.2467C39.6023 33.5083 39.6082 33.7847 39.6201 34.0642C39.632 34.3793 39.632 34.6973 39.6558 35.0125C39.7509 36.3383 40.1998 37.5868 40.5744 38.8532C40.7646 39.5042 40.9341 40.1612 41.1213 40.8152C41.3056 41.4662 41.4929 42.1142 41.6683 42.7682C41.8378 43.3895 42.0131 44.0108 42.2391 44.6172C42.4442 45.1731 42.7028 45.6963 42.9822 46.2195C43.2022 46.6298 43.4192 47.0489 43.7403 47.3878C44.0346 47.6999 44.4181 47.9229 44.8372 48.015C44.8372 48.024 44.8372 48.0329 44.8432 48.0448C45.1553 48.8504 44.9502 49.7065 44.7659 50.5151C44.6767 50.9015 44.5905 51.288 44.5429 51.6834C44.4835 52.1679 44.5043 52.6554 44.5162 53.14C44.5429 54.1299 44.4329 55.1079 44.32 56.0889C44.21 57.061 43.99 58.0152 43.88 58.9873C43.773 59.9237 43.7076 60.872 43.4965 61.7935C43.3479 62.4416 43.0744 63.0539 42.9079 63.699C42.7533 64.3084 42.6671 64.9921 42.9793 65.5688C43.1428 65.875 43.4222 66.1455 43.7373 66.2912C44.1327 66.4696 44.5726 66.4725 44.9888 66.5796C45.1553 66.6241 45.3218 66.6777 45.4853 66.7341C45.402 67.0463 45.5774 67.3792 45.8123 67.6527C46.2017 68.1046 46.4871 68.5861 46.7457 69.1212C47.3729 70.4173 48.1072 71.6569 48.7612 72.9352C50.087 75.5303 51.2582 78.1969 52.5692 80.8009C52.6227 80.905 52.6732 81.009 52.7268 81.1131C52.7119 81.3895 52.7059 81.663 52.6822 81.9395C52.6673 82.0971 52.6554 82.2724 52.587 82.4181C52.5365 82.5251 52.4652 82.6202 52.3938 82.7124C52.1144 83.087 51.7071 83.5775 52.0074 84.0442C51.8409 84.4663 51.722 84.9003 51.6774 85.3551C51.6269 85.8635 51.6655 86.3777 51.5496 86.8772C51.3028 87.9414 50.7291 88.9135 50.2356 89.8766C49.9889 90.3612 49.7986 90.8606 49.5965 91.363C49.3884 91.8921 49.1476 92.4064 48.8652 92.9028C48.3331 93.8422 47.6434 94.6954 47.0043 95.5634C45.726 97.2994 44.4389 99.0325 43.3211 100.876C42.7623 101.794 42.248 102.742 41.8021 103.723C41.5732 104.226 41.38 104.74 41.1481 105.24C40.9103 105.754 40.6487 106.256 40.396 106.765C40.1968 107.163 40.0036 107.564 39.6796 107.876C39.4626 108.087 39.1177 108.331 39.0315 108.637C39.0107 108.706 39.0137 108.774 39.0286 108.842C38.8651 109.155 38.6808 109.458 38.5054 109.764C38.3092 110.106 38.11 110.445 37.9197 110.79C37.6017 111.36 37.2539 111.919 36.9923 112.523C36.8644 112.817 36.7515 113.123 36.689 113.438C36.6385 113.694 36.6147 113.955 36.6831 114.208C36.799 114.648 37.132 114.999 37.4798 115.275C37.887 115.596 38.3419 115.852 38.8056 116.087C39.2039 116.289 39.6142 116.47 40.0036 116.69C40.5476 117 41.0262 117.398 41.4364 117.871C41.8437 118.343 42.1856 118.866 42.5126 119.393C42.685 119.669 42.8604 119.945 43.0774 120.186C43.2646 120.391 43.4876 120.519 43.7433 120.62C43.773 120.632 43.8027 120.641 43.8295 120.653C43.5144 120.659 43.1814 120.599 42.8931 120.594C42.1975 120.579 41.5078 120.534 40.8151 120.489C39.4239 120.4 38.0297 120.457 36.6385 120.525C33.8471 120.662 31.0587 120.65 28.2644 120.626C25.4433 120.605 22.6193 120.611 19.7982 120.611C18.9004 120.611 17.9997 120.611 17.1019 120.611C17.1049 120.564 17.0781 120.516 17.0157 120.513C16.0139 120.489 15.0151 120.531 14.0133 120.531C12.9966 120.531 11.98 120.543 10.9663 120.582C10.7076 120.591 10.446 120.602 10.1874 120.617C9.1559 120.629 8.12437 120.656 7.08987 120.686C6.39129 120.706 5.68973 120.692 4.99115 120.73C4.32229 120.766 3.65938 120.861 2.99349 120.938C2.66055 120.977 2.32761 121.01 1.99467 121.031C1.82819 121.039 1.78658 121.277 1.95602 121.328C2.79135 121.572 3.68613 121.462 4.53632 121.372C5.52029 121.268 6.50425 121.185 7.48822 121.09C8.18383 121.022 8.87944 120.965 9.57802 120.921C9.83367 120.918 10.0923 120.912 10.348 120.912C13.1899 120.912 16.0318 120.912 18.8737 120.912C21.7126 120.912 24.5485 120.897 27.3875 120.912C30.2264 120.929 33.0653 120.977 35.9013 120.843C37.2925 120.778 38.6837 120.683 40.0749 120.718C40.7676 120.736 41.4573 120.79 42.1469 120.811C42.4591 120.819 42.7712 120.811 43.0833 120.825C43.3509 120.837 43.6184 120.864 43.883 120.849C44.0138 120.84 44.1446 120.819 44.2694 120.781C44.6648 120.882 45.0721 120.938 45.4734 120.995C47.0192 121.206 48.5798 121.417 50.1435 121.274C50.744 121.218 51.3296 121.063 51.9122 120.915C52.0787 120.873 52.263 120.825 52.4206 120.745C52.4265 120.754 52.4325 120.76 52.4443 120.766C52.7922 120.941 53.2113 120.968 53.5948 120.974C54.0199 120.98 54.445 120.95 54.8671 120.935C55.9135 120.9 56.9718 120.974 58.0152 121.031C59.1121 121.09 60.2061 121.105 61.306 121.096C62.4029 121.087 63.4998 121.069 64.5967 121.108C65.1972 121.129 65.7947 121.155 66.3952 121.158C66.7014 121.158 67.0076 121.155 67.3138 121.146C67.614 121.14 67.9291 121.152 68.2234 121.108C68.2353 121.108 68.2472 121.102 68.2591 121.096C68.3305 121.295 68.4256 121.485 68.5207 121.664C68.702 122.009 68.928 122.33 69.1717 122.633C69.3977 122.915 69.6474 123.257 70.0041 123.382C70.1438 123.432 70.2835 123.429 70.4143 123.391C70.4143 123.394 70.4143 123.4 70.4143 123.403C70.3727 123.566 70.3846 123.742 70.4054 123.905C70.4322 124.143 70.4857 124.378 70.5481 124.61C70.6908 125.115 70.887 125.605 71.101 126.087C71.3091 126.548 71.5766 126.988 71.7045 127.478C71.7818 127.776 71.8234 128.079 71.8858 128.379C71.9363 128.62 71.9958 128.819 72.1533 129.009C72.296 129.182 72.5041 129.336 72.7182 129.414C72.7776 129.434 72.8519 129.446 72.9173 129.44C72.9025 129.535 72.9114 129.633 72.9619 129.717C73.0689 129.898 73.3038 129.934 73.497 129.94C74.0143 129.949 74.5493 129.773 75.0398 129.636C76.6064 129.199 78.1314 128.608 79.5643 127.841C80.2748 127.46 80.9615 127.035 81.6125 126.56C81.9395 126.322 82.2486 126.066 82.5637 125.814C82.8759 125.564 83.191 125.32 83.5061 125.079C83.8717 124.8 84.2374 124.517 84.5971 124.226C84.6357 124.271 84.6922 124.306 84.7517 124.321C85.1024 124.405 85.5513 124.22 85.8842 124.122C87.1179 123.765 88.4586 123.923 89.725 123.884C92.7096 123.789 95.6942 123.724 98.6787 123.89C100.186 123.973 101.687 124.089 103.2 124.095C104.728 124.101 106.256 124.039 107.781 123.941C110.822 123.742 113.848 123.394 116.881 123.111C117.811 123.025 118.756 122.936 119.699 122.96C119.731 122.998 119.779 123.025 119.841 123.013C119.916 123.001 119.99 122.987 120.067 122.975C120.347 122.99 120.623 123.016 120.9 123.058C121.325 123.12 121.747 123.195 122.172 123.242C122.57 123.287 123.001 123.328 123.397 123.233C123.536 123.201 123.673 123.141 123.771 123.034C123.84 122.96 123.825 122.847 123.742 122.793L123.718 122.781ZM4.9198 121.048C4.43228 121.093 3.93287 121.158 3.43642 121.176C3.62668 121.152 3.81693 121.129 4.00718 121.108C4.38769 121.066 4.76522 121.042 5.14275 121.028C5.06844 121.033 4.99412 121.042 4.9198 121.048ZM69.1658 49.7779C69.0439 50.5656 68.9398 51.3593 68.9042 52.156C68.8893 52.5454 68.8893 52.9349 68.9131 53.3243C68.9369 53.7167 69.0082 54.1031 69.032 54.4955C69.0588 54.8968 69.0706 55.2952 69.1836 55.6846C69.2906 56.0503 69.3977 56.404 69.4631 56.7815C69.6028 57.602 69.7009 58.4314 69.8465 59.2518C70.126 60.8512 70.5481 62.4326 70.6462 64.0587C70.67 64.4808 70.661 64.903 70.6551 65.3251C70.6521 65.6045 70.664 65.881 70.6729 66.1604C70.6729 66.2734 70.6789 66.3952 70.6581 66.5082C70.6373 66.6093 70.5897 66.645 70.4976 66.6806C70.2597 66.7668 69.9981 66.7549 69.7484 66.7817C69.1004 66.856 68.4464 67.079 67.7865 67.0403C67.5635 67.0284 67.3584 66.9571 67.2068 66.7847C66.9957 66.5469 66.9184 66.1961 66.8322 65.8988C66.3804 64.3768 66.0831 62.8102 65.9285 61.2317C65.8334 60.2537 65.7769 59.2697 65.7115 58.2887C65.768 58.253 65.8096 58.2025 65.8334 58.1252C65.9018 57.9082 65.8958 57.6525 65.9166 57.4296C65.9761 56.7756 66.0326 56.1275 66.0326 55.4706C66.0326 54.8374 65.9939 54.2042 65.9285 53.574C65.7947 52.2957 65.551 51.0323 65.3013 49.7719C65.2299 49.4122 65.1497 49.0525 65.1051 48.6898C65.1051 48.6661 65.1021 48.6453 65.0991 48.6215C65.0843 48.345 65.0754 48.0715 65.0575 47.7951C65.0367 47.48 64.9981 47.1649 64.9564 46.8497C64.9297 46.5614 64.9029 46.2701 64.8881 45.9817C64.897 45.7974 64.9029 45.6101 64.9237 45.4258C64.9772 44.9472 65.0872 44.4746 65.1586 43.9989C65.1705 43.9157 65.1378 43.8325 65.0516 43.8087C65.0724 43.773 65.0932 43.7344 65.111 43.6957C65.1467 43.8235 65.2032 43.9484 65.3072 44.0346C65.5985 44.2784 66.0682 44.2486 66.419 44.2189C66.5944 44.204 66.7698 44.1773 66.9422 44.1565C67.2246 44.1238 67.507 44.1327 67.7894 44.1119C68.0688 44.0911 68.3632 44.0435 68.6039 43.8889C68.7139 43.8206 68.8091 43.7314 68.9101 43.6511C69.0172 43.5649 69.1301 43.5025 69.255 43.446C69.8049 43.1933 70.4619 43.2468 71.0386 43.3747C71.0653 43.3806 71.0921 43.3866 71.1218 43.3955C70.9256 43.7641 71.0297 44.2367 70.991 44.6351C70.9732 44.8313 70.9048 45.0602 70.7264 45.1731C70.6075 45.2504 70.453 45.2088 70.3281 45.1731C70.1973 45.1375 70.0725 45.1018 69.9387 45.078C69.9327 45.0721 69.9238 45.0721 69.9149 45.0691C69.9149 45.084 69.9149 45.0959 69.909 45.1107C69.8822 45.2504 69.8109 45.3901 69.7098 45.5031C69.7098 45.5685 69.7038 45.6369 69.7009 45.7023C69.6919 45.8806 69.6801 46.059 69.6682 46.2403C69.6384 46.6298 69.5938 47.0192 69.5433 47.4056C69.4363 48.2023 69.2936 48.9931 69.1717 49.7868L69.1658 49.7779ZM63.155 60.8095C63.1401 60.976 63.1134 61.1603 63.0391 61.3149C62.9826 61.2079 62.9528 61.086 62.938 60.9671C62.9053 60.7293 62.9172 60.4825 62.932 60.2447C62.9439 60.0277 62.9677 59.8137 62.9736 59.5967C62.9796 59.3856 62.9677 59.1716 62.9915 58.9605C63.0093 58.8178 63.045 58.6841 63.1342 58.5949C63.2025 58.5265 63.3006 58.4819 63.4047 58.4522C63.4047 58.476 63.4047 58.4998 63.4017 58.5265C63.3898 58.6246 63.369 58.7197 63.3452 58.8178C63.2947 59.0348 63.2263 59.2489 63.1907 59.4689C63.1193 59.9088 63.1996 60.3666 63.1609 60.8125L63.155 60.8095ZM62.7596 61.4041C62.7656 61.4219 62.7775 61.4368 62.7864 61.4516C62.7537 61.4427 62.721 61.4368 62.6883 61.4279C62.1205 61.2882 61.5468 61.1514 60.9849 60.9909C60.762 60.9255 60.5182 60.8601 60.3309 60.7174C60.2328 60.6431 60.1763 60.545 60.1317 60.432C60.105 60.3636 60.0812 60.3072 60.0753 60.2328C60.0693 60.1585 60.0753 60.0812 60.0842 60.0069C60.0842 59.9921 60.0872 59.9802 60.0901 59.9653C60.2061 59.5194 60.3131 59.0705 60.4112 58.6187C60.4617 58.3868 60.5093 58.152 60.5598 57.9171C61.0652 57.929 61.5676 57.9885 62.067 58.0598C62.4653 58.1193 62.8637 58.1668 63.262 58.2174C63.0718 58.2827 62.9053 58.3898 62.8131 58.586C62.7269 58.7732 62.7091 58.9813 62.7031 59.1835C62.6942 59.4183 62.6972 59.6502 62.6794 59.8821C62.6407 60.3726 62.5575 60.9344 62.7596 61.4011V61.4041ZM61.7905 51.502C61.9035 51.0353 62.0016 50.5686 62.0551 50.09C62.1621 49.1328 62.1353 48.1667 62.0997 47.2035C62.0848 46.7516 62.0908 46.2909 62.0313 45.842C62.0254 45.7885 61.9956 45.7528 61.96 45.729C62.0581 45.7082 62.1562 45.6844 62.2543 45.6636C62.5159 45.6101 62.7804 45.5774 63.0391 45.5209C63.1134 45.5061 63.1877 45.4853 63.262 45.4585C63.262 45.4942 63.2858 45.5328 63.3363 45.5358C63.3393 45.5418 63.3452 45.5477 63.3512 45.5507C63.3571 45.5566 63.369 45.5626 63.3809 45.5655C63.4136 45.5923 63.4671 45.5953 63.5058 45.5923C63.5504 45.5923 63.6039 45.5685 63.6395 45.5418C63.7168 45.4883 63.7674 45.4169 63.803 45.3337C63.8625 45.185 63.8625 45.0096 63.8238 44.8551C63.8119 44.8105 63.7971 44.7629 63.7763 44.7183C63.7822 44.6232 63.7882 44.5251 63.7882 44.43C63.9457 44.43 64.1003 44.4121 64.2579 44.3735C64.463 44.323 64.6711 44.2486 64.8227 44.097C64.8256 44.0941 64.8286 44.0881 64.8316 44.0851C64.7662 44.5043 64.683 44.9205 64.6384 45.3426C64.6235 45.4704 64.6235 45.5982 64.6265 45.7261C64.6146 45.7261 64.5997 45.7261 64.5878 45.729C64.5908 45.9728 64.6116 46.2136 64.6384 46.4544C64.6443 46.5257 64.6502 46.6 64.6592 46.6714C64.6592 46.6803 64.6592 46.6892 64.6562 46.6981C64.6532 46.7189 64.6562 46.7368 64.6651 46.7487C64.683 46.9419 64.7008 47.1322 64.7097 47.3254C64.7365 47.8575 64.7692 48.3926 64.8464 48.9217C64.8524 48.996 64.8583 49.0674 64.8643 49.1417C64.9029 49.5579 64.9535 49.9711 64.9862 50.3873C65.0575 51.2375 65.0308 52.0936 65.0605 52.9468C65.0902 53.8059 65.1437 54.662 65.218 55.5181C65.2894 56.3416 65.3637 57.162 65.4113 57.9855C65.4113 58.0063 65.4113 58.0301 65.4142 58.0509C65.4083 58.0509 65.4023 58.0509 65.3964 58.0509C65.2656 58.0657 65.1348 58.0717 65.004 58.0717C64.7275 58.0717 64.4511 58.042 64.1776 58.0122C63.5206 57.9409 62.8666 57.8606 62.2126 57.7714C61.6805 57.7001 61.1454 57.6347 60.6074 57.6228C60.7293 57.0283 60.8511 56.4308 60.9671 55.8362C61.1544 54.8731 61.3 53.904 61.4754 52.9408C61.5646 52.4533 61.6627 51.9687 61.7786 51.4901L61.7905 51.502ZM61.7013 50.414C61.743 50.0097 61.7756 49.6025 61.8083 49.1952C61.7965 49.4776 61.7816 49.757 61.7519 50.0395C61.737 50.1643 61.7221 50.2892 61.7013 50.414ZM53.3421 17.0425C53.3124 16.8136 53.2678 16.5906 53.2232 16.3647C53.4372 16.7304 53.681 17.0871 53.9723 17.3933C54.2399 17.6757 54.546 17.9284 54.8374 18.184C55.1465 18.4575 55.4646 18.728 55.8184 18.948C55.9729 19.0431 56.1335 19.1293 56.3029 19.1917C56.4902 19.2631 56.6864 19.2899 56.8856 19.3017C57.2928 19.3285 57.7031 19.2899 58.1133 19.3107C58.5235 19.3344 58.9486 19.3731 59.3499 19.2661C59.7334 19.165 60.0099 18.8915 60.2328 18.5764C60.4617 18.2524 60.643 17.8957 60.869 17.5687C61.0325 17.3308 61.2019 17.096 61.3743 16.8641C61.3624 17.1376 61.3238 17.4081 61.2911 17.6786C61.2525 18.0116 61.2495 18.3386 61.303 18.6715C61.306 18.6983 61.3149 18.725 61.3179 18.7518C61.3179 18.7756 61.3179 18.7994 61.3179 18.8261C61.3179 19.1947 61.3179 19.5663 61.3327 19.9349C61.3476 20.3035 61.3892 20.6662 61.407 21.0348C61.4427 21.7334 61.4338 22.435 61.4605 23.1336C61.4724 23.4457 61.4813 23.7608 61.4546 24.0729C61.4338 24.3286 61.413 24.6318 61.2554 24.8429C61.1633 24.9647 61.0414 25.0717 60.9195 25.1639C60.8095 25.2471 60.6847 25.3452 60.5539 25.3958C60.325 25.4879 60.2596 25.1877 60.2298 25.0004C60.2209 24.5664 60.1674 24.1353 60.0693 23.7103C60.0158 23.4843 59.9564 23.2614 59.9147 23.0325C59.8791 22.8422 59.8939 22.646 59.8493 22.4558C59.7661 22.105 59.448 21.8523 59.1716 21.6531C58.8535 21.4242 58.5176 21.2221 58.2144 20.9694C57.8725 20.684 57.5455 20.3719 57.1799 20.1192C56.8083 19.8636 56.4159 19.6406 56.0443 19.385C55.6578 19.1204 55.2714 18.8499 54.8671 18.6121C54.6739 18.4991 54.4717 18.398 54.2755 18.288C54.0882 18.184 53.9158 18.0681 53.7404 17.9462C53.6632 17.8927 53.5799 17.8481 53.5026 17.7946C53.4491 17.7589 53.3807 17.7203 53.3659 17.6549C53.348 17.5687 53.3718 17.4646 53.3748 17.3784C53.3778 17.2654 53.3629 17.1525 53.348 17.0425H53.3421ZM53.6572 18.1989C53.8415 18.3326 54.0347 18.4486 54.2339 18.5586C54.6323 18.7756 55.0128 19.0074 55.3903 19.2571C55.7767 19.5158 56.1513 19.7922 56.5467 20.039C56.731 20.1549 56.9183 20.2679 57.0937 20.3957C57.272 20.5265 57.4385 20.6751 57.605 20.8238C57.9349 21.1121 58.2649 21.3975 58.6335 21.6383C58.9159 21.8256 59.231 22.0099 59.4421 22.2804C59.4778 22.325 59.5045 22.3725 59.5253 22.4201C59.5015 22.3844 59.4748 22.3488 59.448 22.3161C59.344 22.1942 59.1835 22.1199 59.0229 22.1526C58.8802 22.1793 58.7821 22.2952 58.7257 22.4231C58.5978 22.7114 58.6008 23.0444 58.5889 23.3535C58.5711 23.7786 58.4968 24.281 58.2114 24.6169C58.033 24.4623 57.8368 24.3286 57.6555 24.174C57.4533 24.0016 57.3077 23.7875 57.1501 23.5765C56.9747 23.3416 56.7964 23.1098 56.6359 22.863C56.4783 22.6222 56.3297 22.3785 56.1781 22.1377C56.1781 22.1347 56.1721 22.1288 56.1691 22.1258C56.1008 22.0158 56.0294 21.9088 55.9581 21.8018C55.6995 21.4183 55.423 21.0437 55.1614 20.6603C54.9979 20.4195 54.8433 20.1727 54.6679 19.9409C54.4866 19.7001 54.2963 19.4682 54.1091 19.2334C54.0466 19.1531 53.9842 19.0758 53.9218 18.9956C53.8326 18.8231 53.7464 18.6507 53.6542 18.4813C53.5651 18.3207 53.4729 18.1632 53.3718 18.0086C53.467 18.074 53.5651 18.1305 53.6572 18.1959V18.1989ZM57.3671 24.2751C57.602 24.504 57.8903 24.6704 58.1252 24.9053C58.1787 24.9588 58.2619 24.9558 58.3184 24.9053C58.6811 24.5813 58.7881 24.0818 58.8416 23.6211C58.8743 23.3446 58.8535 23.0681 58.8951 22.7917C58.9129 22.6787 58.9456 22.5301 59.0051 22.4587C59.0556 22.3993 59.1359 22.3874 59.2102 22.4498C59.3261 22.545 59.3886 22.7174 59.4421 22.8571C59.5075 23.0354 59.558 23.2198 59.6086 23.4011C59.7423 23.8946 59.8969 24.3761 59.9385 24.8815C59.9415 24.9499 59.9445 25.0153 59.9474 25.0836C59.9474 25.3096 60.0574 25.5563 60.2536 25.6663C60.5271 25.8209 60.8095 25.6276 61.0295 25.4701C61.2733 25.2947 61.5319 25.0747 61.633 24.7834C61.7251 24.5159 61.7489 24.2186 61.7519 23.9362C61.7756 23.8054 61.7935 23.6746 61.7994 23.5438C61.8113 23.2852 61.7875 23.0265 61.7757 22.7709C61.7638 22.5568 61.7548 22.3339 61.8024 22.1228C61.8202 22.0485 61.8886 21.7988 62.0075 21.882C62.0581 21.9177 62.0937 21.995 62.1205 22.0485C62.1562 22.1199 62.1859 22.1942 62.2186 22.2685C62.4059 22.6995 62.4564 23.1633 62.5159 23.627C62.5842 24.177 62.5277 24.7566 62.6764 25.2977C62.6912 25.3482 62.7358 25.3839 62.7834 25.3958C63.0688 26.9921 63.1015 28.6182 63.1609 30.2353C63.2323 32.1408 63.3512 34.0463 63.372 35.9548C63.3779 36.4929 63.372 37.0309 63.3542 37.569C63.3333 38.116 63.3125 38.6629 63.3304 39.2129C63.3304 39.2456 63.3452 39.2783 63.369 39.305C63.2352 39.3169 63.1015 39.3318 62.9707 39.3496C62.8964 39.1594 62.8102 38.9721 62.6496 38.8383C62.3553 38.5946 61.954 38.6332 61.6121 38.7432C61.3833 38.8145 61.1662 38.9126 60.9522 39.0167C60.9136 37.572 60.4647 36.1748 60.0693 34.7955C59.6472 33.3091 59.4242 31.7663 58.9189 30.3037C58.8 29.9589 58.6632 29.62 58.5503 29.2722C58.4373 28.9273 58.3362 28.5825 58.2411 28.2317C58.0538 27.548 57.8963 26.8583 57.7179 26.1746C57.5128 25.3898 57.2869 24.605 56.9956 23.847C57.1085 24.0016 57.2244 24.1532 57.3612 24.284L57.3671 24.2751ZM63.7466 39.5102C64.029 39.5042 64.3114 39.4715 64.5938 39.4537C64.6413 39.4507 64.6859 39.4507 64.7335 39.4477C64.6978 40.5922 65.0872 41.701 65.0545 42.8455C65.0516 42.9912 65.0486 43.1368 65.0545 43.2825C64.9921 43.4757 64.9029 43.66 64.7781 43.8265C64.5492 44.1327 64.1538 44.204 63.7852 44.2575C63.7852 44.1446 63.7792 44.0346 63.7792 43.9246C63.7733 43.2914 63.6901 42.679 63.5979 42.0518C63.5087 41.4424 63.4136 40.833 63.262 40.2355C63.1996 39.9888 63.1253 39.745 63.0391 39.5072C63.2739 39.528 63.5117 39.5161 63.7466 39.5072V39.5102ZM71.4726 41.1124C71.4637 41.4989 71.4458 41.8853 71.428 42.2718C71.4191 42.4947 71.4518 42.7207 71.4369 42.9436C71.4369 42.9823 71.431 43.0209 71.4221 43.0596C71.4131 43.0923 71.3894 43.125 71.3834 43.1547C71.3775 43.1547 71.3656 43.1547 71.3626 43.1547C71.3329 43.1517 71.2764 43.1339 71.2348 43.125C70.9613 43.0566 70.6819 43.012 70.3994 42.9942C70.117 42.9763 69.8168 42.9733 69.5374 43.0387C69.2787 43.1012 69.0082 43.2141 68.7942 43.3747C68.705 43.443 68.6218 43.5173 68.5326 43.5857C68.4196 43.669 68.3007 43.7254 68.164 43.7611C67.9024 43.8325 67.6289 43.8354 67.3584 43.8443C67.1414 43.8503 66.9303 43.8741 66.7163 43.9008C66.3714 43.9454 65.982 44.0019 65.6431 43.9008C65.5004 43.8592 65.4232 43.7819 65.3786 43.6363C65.3221 43.452 65.3132 43.2528 65.3132 43.0596C65.3191 43.0328 65.3251 43.0031 65.331 42.9763C65.4796 42.1172 65.3607 41.2373 65.2953 40.3752C65.2715 40.066 65.2388 39.6588 65.001 39.4299C65.435 39.415 65.8631 39.421 66.2971 39.4626C67.4238 39.5726 68.5504 39.7063 69.6622 39.9263C70.1795 40.0274 70.6878 40.2593 71.2229 40.2444C71.2467 40.2444 71.2675 40.2355 71.2883 40.2266C71.3091 40.2295 71.3329 40.2325 71.3537 40.2385C71.3715 40.2444 71.3775 40.2444 71.3894 40.2533C71.3953 40.2593 71.4072 40.2801 71.4161 40.2979C71.4548 40.3841 71.4577 40.4525 71.4548 40.5476C71.4548 40.6606 71.4399 40.7706 71.4369 40.8806C71.4369 40.9311 71.434 41.0441 71.4726 41.1065V41.1124ZM65.0635 40.3544C65.0843 40.6249 65.1051 40.8925 65.1259 41.163C65.0456 40.7022 64.9654 40.2414 64.9535 39.7777C64.9654 39.8104 64.9772 39.8401 64.9862 39.8728C65.0308 40.0304 65.0516 40.1939 65.0635 40.3544ZM63.5771 45.1761C63.5771 45.185 63.5741 45.1969 63.5712 45.2058C63.5682 45.2237 63.5622 45.2445 63.5563 45.2623C63.5563 45.2623 63.5563 45.2653 63.5533 45.2683C63.5563 45.2296 63.5682 45.191 63.5801 45.1523C63.5801 45.1583 63.5801 45.1672 63.5801 45.1731L63.5771 45.1761ZM60.9463 54.2815C60.7887 55.2149 60.6044 56.1394 60.4201 57.0669C60.3815 57.2572 60.3428 57.4474 60.3042 57.6377C60.2952 57.6377 60.2834 57.6377 60.2744 57.6377C60.2001 56.9807 60.426 56.3029 60.5925 55.6787C60.7322 55.1644 60.8511 54.6471 60.973 54.1269C60.9641 54.1775 60.9552 54.228 60.9463 54.2815ZM63.4552 60.2537C63.4523 60.0307 63.4285 59.7988 63.4552 59.5788C63.485 59.347 63.5622 59.121 63.6158 58.8981C63.6544 58.7405 63.696 58.5681 63.6871 58.4017C63.8684 58.3779 64.0557 58.363 64.24 58.3541C64.2846 58.3541 64.3292 58.3511 64.3708 58.3481C64.5521 58.366 64.7365 58.3808 64.9178 58.3838C64.9327 58.3838 64.9475 58.3868 64.9594 58.3898C65.1734 58.4403 65.3102 58.5533 65.3667 58.7703C65.4291 59.0081 65.4083 59.2637 65.3994 59.5075C65.3756 60.1645 65.5807 60.8185 65.4975 61.4754C65.4856 61.5616 65.4707 61.6568 65.4321 61.7341C65.4053 61.7846 65.3726 61.8113 65.328 61.8292C65.1497 61.8886 64.9208 61.8322 64.7365 61.8113C64.2281 61.7519 63.7257 61.6627 63.2293 61.5527C63.4701 61.1782 63.4641 60.6787 63.4552 60.2477V60.2537ZM65.3013 51.4545C65.3013 51.4128 65.3013 51.3742 65.3013 51.3326C65.3964 51.8409 65.4856 52.3492 65.554 52.8635C65.7174 54.0912 65.7888 55.3338 65.6937 56.5734C65.6788 56.7845 65.658 56.9985 65.6372 57.2096C65.6194 56.9629 65.5985 56.7161 65.5777 56.4724C65.4291 54.8017 65.3072 53.134 65.3042 51.4545H65.3013ZM74.2669 50.7737C73.7378 50.8094 73.2057 50.7915 72.6795 50.851C72.409 50.8807 72.1385 50.9223 71.868 50.958C71.6004 50.9937 71.3329 51.0145 71.0653 51.0591C70.4827 51.1572 69.9149 51.3445 69.3233 51.3861C69.2906 51.3861 69.2698 51.4069 69.2609 51.4307C69.2728 51.285 69.2877 51.1394 69.3055 50.9937C69.4898 49.3706 69.8644 47.7713 69.9743 46.1393C69.9922 45.8777 70.0279 45.6012 70.0041 45.3337C70.227 45.3931 70.4559 45.4734 70.6759 45.4288C70.9108 45.3812 71.0713 45.1523 71.1426 44.9383C71.2229 44.6856 71.211 44.4121 71.211 44.1505C71.211 43.9811 71.211 43.7968 71.2586 43.6303C71.3329 43.8295 71.3121 44.0584 71.2794 44.2665C71.2318 44.54 71.1515 44.8164 71.1634 45.0959C71.1634 45.1434 71.1991 45.1999 71.2496 45.2088C71.5945 45.2712 71.9453 45.1642 72.2812 45.0899C72.6736 45.0037 73.0838 44.9769 73.4851 44.9294C74.1213 44.8551 74.7604 44.8224 75.3995 44.7956C75.4084 44.8313 75.4352 44.864 75.4709 44.8759C75.5393 44.8967 75.6255 44.8848 75.6849 44.9264C75.7295 44.9561 75.7533 45.0096 75.7652 45.0602C75.8038 45.2029 75.783 45.3396 75.7652 45.4823C75.7652 45.4912 75.7652 45.5001 75.7652 45.5091C75.7295 45.5477 75.6998 45.5863 75.676 45.6309C75.5601 45.839 75.5482 46.0947 75.563 46.3265C75.566 46.386 75.5719 46.4455 75.5779 46.5019C75.346 46.9776 75.5155 47.584 75.6552 48.0626C75.7414 48.3658 75.8187 48.672 75.9287 48.9693C76.0506 49.2963 76.217 49.5965 76.434 49.87C76.544 50.0068 76.6718 50.1435 76.8324 50.2238C76.9007 50.2565 76.978 50.2802 77.0494 50.307C76.1427 50.5597 75.2063 50.7202 74.2669 50.7826V50.7737ZM75.9376 46.1987C75.9346 46.0352 75.9376 45.8717 75.9435 45.7082C75.9941 45.6399 76.0624 45.5863 76.1516 45.5626C76.3359 45.5091 76.5054 45.6161 76.6273 45.7469C76.7789 45.9074 76.8829 46.1304 76.8799 46.3533C76.8621 46.3711 76.8472 46.389 76.8264 46.4038C76.7402 46.4663 76.6362 46.499 76.544 46.5406C76.4311 46.5911 76.327 46.6595 76.2378 46.7457C76.1278 46.8527 76.0416 46.9805 75.9762 47.1173C75.9643 47.0459 75.9525 46.9746 75.9406 46.9003C75.9376 46.8825 75.9316 46.8616 75.9287 46.8438C75.9465 46.6298 75.9435 46.4157 75.9376 46.1987ZM76.2824 45.2802C76.1724 45.2712 76.0624 45.298 75.9614 45.3485C75.9762 45.188 75.9911 45.0186 75.9198 44.8699C75.9019 44.8313 75.8752 44.7986 75.8484 44.7689C75.9495 44.7629 76.0476 44.7599 76.1487 44.754C76.4548 44.7391 76.761 44.7272 77.0672 44.7213C77.0732 44.7213 77.0761 44.7243 77.0821 44.7243C77.3318 44.7391 77.5815 44.7302 77.8312 44.7094C77.8044 44.7302 77.7807 44.754 77.7539 44.7718C77.6469 44.8491 77.5399 44.9234 77.4358 45.0037C77.3377 45.078 77.2456 45.1583 77.1713 45.2564C77.0851 45.3753 77.0524 45.521 77.0375 45.6666C77.0286 45.7498 77.0286 45.842 77.0226 45.9312C76.9186 45.5953 76.6273 45.301 76.2854 45.2772L76.2824 45.2802ZM75.8544 47.807C75.8098 47.6583 75.7682 47.5067 75.7384 47.3551C75.7295 47.3046 75.7206 47.2511 75.7117 47.1976C75.7236 47.2065 75.7414 47.2124 75.7592 47.2154C75.7622 47.2154 75.7682 47.2154 75.7741 47.2154C75.8038 47.4116 75.8306 47.6108 75.8573 47.8099L75.8544 47.807ZM86.7552 44.9056C86.5888 45.0245 86.4015 45.1196 86.2231 45.2207C85.8545 45.4258 85.4859 45.6309 85.15 45.8925C84.9865 46.0204 84.8319 46.1631 84.6981 46.3206C84.5703 46.4692 84.4603 46.6208 84.2968 46.7368C83.9936 46.9538 83.6399 47.0786 83.2891 47.1916C82.8788 47.3224 82.4746 47.4592 82.0732 47.6197C81.6036 47.807 81.1398 48.0121 80.682 48.2291C80.3431 48.3896 79.9686 48.5382 79.707 48.8177C79.4513 49.0912 79.3146 49.4509 78.9995 49.6738C78.7171 49.873 78.3455 49.9651 78.0036 50.0068C77.6677 50.0484 77.3021 50.0395 76.9959 49.8819C76.6867 49.7243 76.5024 49.4211 76.3805 49.106C76.1814 48.6007 76.107 48.0567 76.0327 47.5186C76.0714 47.4294 76.0981 47.3343 76.1457 47.2451C76.2111 47.1203 76.2943 47.0043 76.3954 46.9092C76.5619 46.7576 76.7878 46.7308 76.9661 46.606C77.195 46.4455 77.2634 46.1779 77.2753 45.9133C77.2812 45.7825 77.2723 45.6309 77.3348 45.5091C77.3883 45.408 77.4893 45.3337 77.5785 45.2623C77.6855 45.1791 77.7985 45.1018 77.9115 45.0215C78.0096 44.9502 78.1582 44.8699 78.1523 44.7302C78.1523 44.7124 78.1463 44.6945 78.1374 44.6767C78.286 44.6589 78.4347 44.6381 78.5863 44.6202C79.0768 44.5548 79.5643 44.5191 80.0578 44.5013C80.5601 44.4835 81.0625 44.4775 81.5649 44.4835C82.0673 44.4894 82.5756 44.4954 83.075 44.54C83.5685 44.5816 84.056 44.6856 84.5465 44.757C84.8587 44.8016 85.1767 44.8461 85.4919 44.8432C85.5067 44.9026 85.5543 44.9561 85.6286 44.9532C85.798 44.9532 85.9705 44.9234 86.1369 44.9056C86.3064 44.8878 86.4788 44.8729 86.6482 44.858C86.7077 44.8521 86.7701 44.8491 86.8296 44.8432C86.8058 44.864 86.779 44.8848 86.7552 44.9026V44.9056ZM87.7452 44.4656C87.5519 44.4835 87.3587 44.4983 87.1684 44.5132C87.1149 44.4597 87.0436 44.424 86.9663 44.4062C86.7493 44.3586 86.5204 44.3943 86.3064 44.4419C86.0656 44.4954 85.8397 44.5459 85.59 44.5429C85.2481 44.5429 84.9122 44.5013 84.5792 44.4508C84.5257 44.4329 84.4336 44.3973 84.3771 44.4211C84.273 44.4032 84.169 44.3884 84.0649 44.3705C83.5536 44.2843 83.0453 44.2249 82.5281 44.2011C81.996 44.1803 81.4638 44.1713 80.9317 44.1743C80.4145 44.1773 79.8972 44.1892 79.3829 44.2249C78.8716 44.2576 78.3663 44.3557 77.855 44.4032C77.5993 44.427 77.3407 44.4359 77.0821 44.4211C77.0494 44.4211 77.0256 44.427 77.0048 44.4389C76.3419 44.4537 75.676 44.4954 75.0131 44.54C74.5731 44.5697 74.1332 44.6024 73.6932 44.6559C73.277 44.7064 72.8579 44.7451 72.4447 44.8134C72.2514 44.8432 72.0642 44.8967 71.8709 44.9353C71.7669 44.9561 71.6569 44.9769 71.5469 44.9859C71.5707 44.9651 71.5856 44.9324 71.5826 44.8937C71.5707 44.7956 71.5618 44.6708 71.6212 44.5875C71.6658 44.5251 71.7461 44.5013 71.8174 44.4865C72.0196 44.4419 72.2336 44.4656 72.4417 44.4389C73.2205 44.3378 73.9875 44.1565 74.7723 44.0703C76.3508 43.8949 77.9471 43.9306 79.5316 43.9365C81.1368 43.9424 82.7421 43.9692 84.3474 44.0584C85.0876 44.1 85.8307 44.1416 86.565 44.2249C86.9306 44.2665 87.2933 44.32 87.6619 44.3497C87.9562 44.3735 88.2505 44.3854 88.5448 44.3705C88.2802 44.4151 88.0157 44.4478 87.7481 44.4716L87.7452 44.4656ZM71.7788 36.7574C71.7936 36.4215 71.7996 36.0826 71.7966 35.7437C71.7966 35.0689 71.7758 34.3941 71.7966 33.7164C71.8174 33.0475 71.8323 32.3786 71.8323 31.7068C71.8323 31.4304 71.8115 31.1539 71.8145 30.8774C71.8204 30.6188 71.8442 30.3423 71.978 30.1164C72.195 29.7478 72.6676 29.5992 73.06 29.504C74.2461 29.2187 75.4947 29.2722 76.7046 29.2811C78.0363 29.293 79.3651 29.3703 80.6909 29.4565C81.3539 29.5011 82.0108 29.5724 82.6678 29.6765C83.3277 29.7805 83.9936 29.8578 84.6565 29.9262C85.3254 29.9975 85.9972 30.0629 86.6661 30.1461C87.323 30.2294 87.9741 30.3423 88.628 30.4345C88.955 30.4791 89.282 30.5267 89.6061 30.5921C89.8082 30.6337 90.1203 30.6337 90.2274 30.8418C90.3314 31.0409 90.3463 31.2996 90.3938 31.5166C90.4563 31.7841 90.489 32.0576 90.5068 32.3341C90.5425 32.9108 90.5008 33.4994 90.3641 34.0642C90.2928 34.3614 90.2006 34.6557 90.1352 34.956C90.0728 35.2562 90.0252 35.5624 89.9925 35.8656C89.9241 36.5047 89.9301 37.1439 89.9241 37.786C89.9182 38.4519 89.8914 39.1178 89.8855 39.7836C89.8825 40.1136 89.8974 40.4406 89.8974 40.7706C89.8974 40.836 89.939 40.8746 89.9866 40.8895C89.9866 40.8984 89.9866 40.9073 89.9866 40.9133C89.9687 41.1184 89.942 41.3235 89.9301 41.5286C89.8914 42.138 89.832 42.7474 89.7785 43.3568C89.7755 43.3895 89.7725 43.4222 89.7696 43.4549C89.7547 43.4668 89.7428 43.4846 89.7398 43.5084C89.728 43.5738 89.6774 43.6422 89.6388 43.6987C89.612 43.7403 89.5496 43.8057 89.5109 43.8354C89.3712 43.9395 89.2137 43.99 89.0442 44.0257C88.6251 44.1178 88.1821 44.103 87.757 44.0732C87.3736 44.0465 86.9901 43.993 86.6066 43.9484C85.9051 43.8681 85.1946 43.8295 84.4901 43.7908C82.8818 43.7017 81.2676 43.6838 79.6564 43.6779C78.0571 43.6719 76.4459 43.6363 74.8555 43.8057C74.0737 43.8889 73.3067 44.0554 72.5309 44.1832C72.296 44.2219 72.0612 44.2219 71.8263 44.2575C71.6866 44.2784 71.5499 44.3319 71.4637 44.4359C71.5261 44.0881 71.5826 43.7462 71.4102 43.4311C71.4696 43.4252 71.5261 43.4014 71.5737 43.3479C71.7223 43.1814 71.7104 42.899 71.7015 42.6939C71.6777 42.141 71.7312 41.594 71.7491 41.0411C71.7699 40.4466 71.7788 39.8371 71.6896 39.2486C71.6837 39.201 71.6718 39.1594 71.6599 39.1148C71.6747 38.657 71.6747 38.1962 71.7015 37.7384C71.7193 37.4085 71.758 37.0815 71.7728 36.7515L71.7788 36.7574ZM67.3792 24.2364C67.6675 24.3256 67.9559 24.4118 68.2324 24.5307C68.5148 24.6496 68.7674 24.8042 69.0082 24.9945C69.2282 25.1669 69.5076 25.3155 69.6592 25.5593C69.8079 25.8001 69.8317 26.0884 70.0219 26.3084C70.117 26.4184 70.227 26.4689 70.3519 26.5403C70.4708 26.6086 70.5273 26.7454 70.5719 26.8673C70.6819 27.1794 70.7621 27.5004 70.8572 27.8185C70.9702 28.199 71.1248 28.5647 71.2526 28.9422C71.3745 29.296 71.4815 29.6556 71.5915 30.0124C71.6064 30.0659 71.642 30.0956 71.6807 30.1075C71.5945 30.3037 71.5618 30.5267 71.5469 30.7377C71.5291 31.0201 71.5529 31.3025 71.5588 31.5849C71.5648 31.9208 71.5588 32.2568 71.5588 32.5927C71.5529 33.2794 71.5142 33.9661 71.5202 34.6557C71.5261 35.3365 71.5439 36.0202 71.5202 36.7009C71.5083 37.0428 71.4756 37.3847 71.4577 37.7265C71.4429 38.0595 71.4429 38.3984 71.4488 38.7313C71.4488 38.7462 71.4488 38.764 71.4488 38.7789C71.4102 38.7878 71.3775 38.8205 71.3775 38.874C71.3864 39.1564 71.4221 39.4329 71.4429 39.7123C71.4518 39.8371 71.4577 39.962 71.4637 40.0869C71.434 40.072 71.4013 40.0631 71.3686 40.0571C71.3596 40.0571 71.3507 40.0571 71.3448 40.0571C71.3299 40.0185 71.2972 39.9917 71.2496 39.9828C71.2526 39.9709 71.2586 39.959 71.2586 39.9442C71.2586 39.9382 71.2586 39.9323 71.2586 39.9293C71.2942 39.7985 71.3002 39.6588 71.3091 39.531C71.321 39.2664 71.3091 39.0018 71.2972 38.7402C71.2615 38.0387 71.2496 37.3341 71.1961 36.6355C71.0772 35.1076 70.7443 33.6093 70.4648 32.1052C70.3251 31.359 70.2181 30.5742 69.8495 29.8964C69.799 29.8043 69.6474 29.8459 69.6533 29.9499C69.7038 31.2431 69.903 32.5273 70.1706 33.7936C70.3073 34.4417 70.4559 35.0838 70.554 35.7378C70.6551 36.3977 70.7264 37.0606 70.8067 37.7236C70.8513 38.0892 70.9048 38.4548 70.9256 38.8235C70.9494 39.198 70.9494 39.5726 70.9494 39.9471C70.9494 39.9501 70.9494 39.9561 70.9494 39.959C70.5719 39.9085 70.2062 39.7658 69.8376 39.6855C69.2877 39.5637 68.7228 39.4953 68.164 39.4239C67.6051 39.3526 67.0433 39.2961 66.4844 39.2426C66.2079 39.2159 65.9345 39.1832 65.658 39.1772C65.3696 39.1683 65.0843 39.1772 64.7959 39.195C64.7275 39.198 64.6621 39.204 64.5938 39.2099C64.6205 39.198 64.6473 39.1891 64.6711 39.1742C65.0129 38.9721 65.0635 38.4697 65.1199 38.1189C65.1526 37.9227 65.1853 37.7325 65.2418 37.5452C65.3221 37.2717 65.4023 37.0012 65.4796 36.7277C65.6372 36.1659 65.7858 35.5981 65.8958 35.0243C66.1247 33.8293 66.1901 32.5986 66.2377 31.3858C66.2615 30.7615 66.2793 30.1372 66.3001 29.51C66.3209 28.9036 66.3209 28.2882 66.3893 27.6847C66.4249 27.3637 66.4814 27.0456 66.5022 26.7246C66.5201 26.4541 66.5231 26.1598 66.4041 25.9071C66.2793 25.6425 66.0266 25.5295 65.762 25.4433C65.7977 25.4344 65.8334 25.4255 65.872 25.4196C65.9969 25.3958 66.1307 25.366 66.2079 25.2531C66.2971 25.1193 66.2615 24.941 66.2228 24.7953C66.1634 24.5694 66.0861 24.3553 66.0474 24.1235C66.0207 23.9659 65.9939 23.8024 65.9553 23.6478C66.3863 23.9421 66.8827 24.0937 67.3822 24.2483L67.3792 24.2364ZM71.0029 37.0161C70.9583 36.6772 70.9137 36.3383 70.8602 35.9994C70.661 34.6973 70.2895 33.431 70.0665 32.1319C69.9743 31.5968 69.909 31.0588 69.8792 30.5177C70.0338 30.9696 70.126 31.4422 70.2122 31.9179C70.34 32.6373 70.4886 33.3567 70.6165 34.0761C70.7502 34.8192 70.8691 35.5654 70.9464 36.3175C70.9702 36.5523 70.9881 36.7842 71.0029 37.019V37.0161ZM63.806 22.3577C64.1835 22.6044 64.6265 22.7203 65.0248 22.9225C65.1943 23.0087 65.3756 23.1098 65.4856 23.2703C65.6104 23.4516 65.658 23.6805 65.6966 23.8946C65.7383 24.1145 65.762 24.3375 65.8245 24.5515C65.8572 24.6615 65.8988 24.7685 65.9285 24.8785C65.9374 24.9172 65.9493 24.9588 65.9553 25.0004C65.9553 24.9915 65.9553 25.045 65.9553 25.0569C65.9553 25.0599 65.9553 25.0628 65.9553 25.0688C65.9493 25.0718 65.9463 25.0747 65.9404 25.0777C65.9404 25.0777 65.9345 25.0777 65.9315 25.0777C65.9166 25.0807 65.9047 25.0866 65.8899 25.0896C65.8601 25.0985 65.8274 25.1045 65.7947 25.1104C65.6045 25.149 65.4261 25.2115 65.2597 25.3125C65.1437 25.3839 65.1764 25.5414 65.2953 25.586C65.4677 25.6514 65.6491 25.696 65.8215 25.7614C65.9523 25.809 66.0712 25.8803 66.1425 26.0022C66.2466 26.1895 66.2347 26.4362 66.2258 26.6443C66.2139 26.9208 66.1693 27.1943 66.1336 27.4707C66.0593 28.0415 66.0504 28.6241 66.0296 29.1979C66.0088 29.7924 65.9939 30.384 65.9731 30.9785C65.9345 32.1557 65.8839 33.3418 65.7056 34.5071C65.6223 35.0541 65.5004 35.5981 65.3637 36.1332C65.2953 36.4037 65.221 36.6742 65.1467 36.9447C65.0813 37.1766 65.001 37.4055 64.9475 37.6403C64.9 37.8484 64.8791 38.0595 64.8375 38.2676C64.7989 38.4608 64.7602 38.6927 64.6354 38.8532C64.5224 38.9959 64.2995 39.0167 64.133 39.0345C63.9606 39.0524 63.7852 39.0524 63.6098 39.0642C63.589 38.1427 63.6663 37.2212 63.6603 36.2996C63.6544 35.3305 63.6217 34.3644 63.5801 33.3983C63.5385 32.4381 63.4909 31.4749 63.4463 30.5148C63.4077 29.62 63.3839 28.7252 63.3214 27.8334C63.262 26.9802 63.1698 26.1211 62.9677 25.2888C63.2561 24.9201 63.3363 24.4088 63.3928 23.957C63.4225 23.7221 63.4433 23.4843 63.4671 23.2495C63.5028 22.9255 63.5236 22.5866 63.4136 22.2715C63.375 22.1585 63.3244 22.0485 63.2739 21.9385C63.4433 22.0872 63.6187 22.2298 63.809 22.3517L63.806 22.3577ZM61.9748 20.3422C62.1353 20.6097 62.3078 20.8684 62.4772 21.1329C62.4623 21.1864 62.4683 21.2489 62.5129 21.2845C62.5545 21.3172 62.5961 21.3499 62.6348 21.3856C62.7477 21.5669 62.8607 21.7512 62.9618 21.9385C63.1223 22.2328 63.2352 22.5241 63.2293 22.866C63.2263 23.1306 63.1877 23.3951 63.1609 23.6567C63.1312 23.9362 63.0985 24.2156 63.0331 24.4861C63.0004 24.6258 62.9588 24.7685 62.8934 24.8993C62.8755 24.7388 62.8666 24.5753 62.8607 24.4118C62.8488 24.1353 62.831 23.8648 62.7893 23.5913C62.7507 23.3297 62.718 23.0681 62.6526 22.8095C62.5931 22.5777 62.504 22.3577 62.3969 22.1436C62.3256 22.001 62.2424 21.8256 62.1056 21.7334C61.9659 21.6413 61.8143 21.7126 61.7311 21.8434C61.7043 21.888 61.6835 21.9326 61.6657 21.9831C61.6627 21.882 61.6597 21.7839 61.6567 21.6829C61.633 20.9367 61.5467 20.1965 61.52 19.4504C61.6448 19.7595 61.8024 20.0568 61.9748 20.3422ZM61.4457 2.56544C61.7756 2.66948 62.1145 2.81217 62.3315 3.09458C62.5129 3.33537 62.608 3.62669 62.6912 3.91207C62.7923 4.25691 62.9023 4.59877 62.9915 4.94955C63.1877 5.72839 63.2888 6.53102 63.3096 7.33365C63.3185 7.73497 63.3096 8.13628 63.2739 8.53462C63.259 8.71596 63.2352 8.89729 63.2115 9.07565C63.2055 9.12024 63.2055 9.13213 63.1966 9.18564C63.1877 9.23915 63.1788 9.29266 63.1639 9.34617C63.155 9.38184 63.1431 9.41454 63.1312 9.44427C63.0628 9.44129 62.9945 9.44427 62.9261 9.45913C62.9231 9.45319 62.9172 9.45021 62.9142 9.44724C62.8577 9.35211 62.8458 9.22429 62.8369 9.1143C62.825 8.99242 62.825 8.86756 62.8161 8.74568C62.8012 8.56435 62.7685 8.38004 62.7418 8.20168C62.7091 7.97873 62.6734 7.75577 62.6407 7.53579C62.5723 7.10773 62.5069 6.67668 62.4237 6.25159C62.3464 5.85325 62.2007 5.47274 62.0759 5.08926C62.0164 4.90495 61.96 4.71767 61.9183 4.52445C61.8767 4.34014 61.8619 4.14989 61.8113 3.96855C61.6419 3.34429 61.1603 2.85974 60.6341 2.50599C60.5747 2.46734 60.5241 2.43464 60.4766 2.39897C60.8065 2.4168 61.1335 2.47031 61.4487 2.56841L61.4457 2.56544ZM50.4526 7.57147C50.3724 7.13448 50.3248 6.69155 50.2505 6.25159C50.1851 5.86811 50.0989 5.36275 50.3605 5.02683C50.4556 4.90495 50.6013 4.8455 50.735 4.7801C50.854 4.72362 50.955 4.6493 51.0383 4.5512C51.1274 4.50959 51.2166 4.46499 51.3028 4.41743C51.5169 4.29852 51.7309 4.17962 51.9449 4.06665C51.9093 4.78902 51.8498 5.51138 51.8141 6.23672C51.7755 7.01557 51.832 7.78847 51.8676 8.56732C51.8825 8.90621 51.8914 9.24212 51.8795 9.58101C51.7874 9.44427 51.6863 9.3105 51.5228 9.29266C51.3593 9.27482 51.1988 9.37292 51.0739 9.46508C50.9669 9.54237 50.8748 9.63749 50.7975 9.74154C50.7975 9.69695 50.7945 9.65236 50.7915 9.60777C50.7737 9.37887 50.744 9.15294 50.7083 8.92702C50.6369 8.47219 50.5388 8.02332 50.4556 7.57147H50.4526ZM53.0805 15.6245C53.0746 15.5799 53.0656 15.5353 53.0597 15.4907C53.0567 15.461 53.027 15.458 53.0032 15.4699C52.8576 15.1548 52.7505 14.8249 52.6614 14.4919C52.593 14.2392 52.5543 13.9836 52.4949 13.7309C52.4681 13.6209 52.4354 13.505 52.3641 13.4158C52.2779 13.3088 52.153 13.2582 52.0222 13.2464C51.9003 13.2345 51.7785 13.2404 51.6566 13.2226C51.4009 12.5418 50.9937 11.9146 50.8361 11.1982C50.7618 10.8652 50.7529 10.5115 50.854 10.1815C50.9015 10.0299 50.9788 9.8872 51.0888 9.77126C51.1839 9.67316 51.3296 9.54237 51.4723 9.5275C51.5555 9.51858 51.6031 9.5929 51.6477 9.6583C51.7279 9.77424 51.7963 9.89612 51.9003 9.99125C51.9776 10.0656 52.0965 10.0091 52.1025 9.90801C52.159 9.12321 52.0906 8.33842 52.049 7.5566C52.0074 6.78073 52.0371 6.00783 52.0757 5.23195C52.0965 4.81577 52.1174 4.40257 52.1055 3.98639C52.1709 3.95072 52.2363 3.91505 52.3046 3.88235C52.6881 3.69804 53.0775 3.52562 53.461 3.34132C54.0793 3.04404 54.6887 2.73191 55.3219 2.46734C56.5288 1.96198 57.9022 1.56959 59.1686 2.09873C59.4867 2.2325 59.7839 2.42275 60.0485 2.64273C60.099 2.68435 60.1704 2.61895 60.1228 2.56841C59.6442 2.08089 59.0348 1.76876 58.357 1.67066C57.7031 1.5785 57.0312 1.66174 56.398 1.83416C55.7322 2.01549 55.09 2.28303 54.4628 2.56841C53.7761 2.88352 53.0954 3.21349 52.4116 3.53157C52.0222 3.7129 51.6417 3.90315 51.2731 4.12016C51.1007 4.22123 50.9223 4.31636 50.7291 4.37879C50.6459 4.40554 50.5359 4.43527 50.4705 4.43824C50.4348 4.43824 50.3991 4.44121 50.3664 4.43824C50.3605 4.43824 50.3397 4.4323 50.3367 4.4323C50.3278 4.4323 50.3189 4.42635 50.3099 4.42338C50.3099 4.42338 50.3099 4.42338 50.304 4.4204C50.2743 4.40554 50.2654 4.39662 50.2564 4.38176C50.2327 4.35203 50.2297 4.33122 50.2208 4.28663C50.2029 4.18259 50.2208 4.05773 50.2475 3.95369C50.3902 3.34726 50.8807 2.88946 51.3385 2.50004C51.8379 2.07792 52.3908 1.72119 52.9497 1.38231C53.2945 1.17124 53.6483 0.972073 54.0258 0.829383C54.4034 0.686694 54.8047 0.612377 55.2 0.538059C55.6132 0.460769 56.0294 0.398342 56.4515 0.371587C56.8231 0.350779 57.1917 0.318079 57.5604 0.294298C57.9111 0.270516 58.2827 0.258625 58.6186 0.377533C58.9159 0.48455 59.1508 0.713448 59.3321 0.966127C59.5372 1.25448 59.7185 1.57256 59.8523 1.90253C59.9712 2.19385 60.0842 2.49112 60.3517 2.6784C60.8392 3.02026 61.3327 3.40077 61.5141 3.99234C61.5676 4.1707 61.5854 4.35203 61.624 4.53337C61.6627 4.72362 61.7162 4.91387 61.7757 5.09818C61.9005 5.4876 62.0491 5.87405 62.1324 6.27537C62.2215 6.70344 62.284 7.14042 62.3524 7.57444C62.3851 7.7855 62.4178 7.99359 62.4505 8.20465C62.4772 8.38599 62.5129 8.57029 62.5277 8.7546C62.5456 9.00728 62.5337 9.28077 62.6288 9.51858C62.6437 9.55723 62.6704 9.59587 62.6972 9.63155C62.6972 9.71775 62.7626 9.79802 62.8637 9.77424C62.9796 9.83666 63.1193 9.85153 63.2382 9.77424C63.2382 9.77424 63.2382 9.77424 63.2442 9.77126C63.2442 9.77126 63.2501 9.77424 63.2531 9.77721C63.2561 9.77721 63.259 9.78018 63.259 9.78018C63.259 9.78018 63.259 9.78018 63.265 9.78613C63.2739 9.79505 63.2828 9.80396 63.2917 9.81288C63.2977 9.81883 63.3006 9.8218 63.3036 9.82775C63.3036 9.82775 63.3036 9.82775 63.3036 9.83072C63.3423 9.88423 63.3601 9.92287 63.375 9.97341C63.4671 10.2499 63.4463 10.5679 63.4166 10.8622C63.3898 11.1565 63.3304 11.4449 63.3066 11.7481C63.2888 11.98 63.2828 12.2178 63.2234 12.4437C63.1966 12.5478 63.1609 12.6488 63.0985 12.735C63.0747 12.7677 63.045 12.8034 63.0153 12.8302C63.0034 12.8391 62.9974 12.845 62.9826 12.854C62.9736 12.8599 62.9707 12.8599 62.9647 12.8599H62.9618C62.9558 12.854 62.9499 12.848 62.9469 12.845C62.9291 12.8242 62.9409 12.845 62.9261 12.8183C62.8874 12.7529 62.8637 12.6875 62.8428 12.6102C62.7983 12.4437 62.7745 12.2743 62.7656 12.1019C62.7596 11.9503 62.5218 11.9027 62.4891 12.0632C62.3613 12.6756 62.3494 13.2999 62.3018 13.9212C62.2543 14.5246 62.168 15.1429 61.8797 15.6869C61.7132 15.9991 61.4784 16.2726 61.2673 16.555C61.0384 16.8582 60.8155 17.1644 60.6014 17.4795C60.435 17.7232 60.2893 17.9789 60.1317 18.2286C59.9861 18.4605 59.8226 18.6983 59.5907 18.8558C59.1032 19.1858 58.4373 19.0431 57.8844 19.0312C57.2988 19.0193 56.6953 19.1234 56.1543 18.8439C55.6251 18.5675 55.1763 18.1513 54.7363 17.7559C54.5163 17.5597 54.2874 17.3725 54.0883 17.1525C53.8623 16.9057 53.678 16.6293 53.4967 16.3498C53.348 16.118 53.2024 15.8802 53.0746 15.6364L53.0805 15.6245ZM52.0014 18.6983C52.2184 18.3921 52.4949 18.0859 52.8486 17.9373C52.8665 17.9789 52.8873 18.0235 52.9111 18.0621C52.9111 18.1364 52.9348 18.2137 52.9854 18.291C53.0627 18.4129 53.1667 18.5199 53.2589 18.6329C53.3599 18.7548 53.458 18.8766 53.5561 19.0015C53.5799 19.0312 53.6037 19.061 53.6275 19.0877C53.8118 19.4385 53.9991 19.7922 54.2339 20.1133C54.6798 20.7257 55.2179 21.2637 55.6519 21.888C56.4605 23.0533 56.9302 24.3969 57.3017 25.7555C57.6763 27.1229 57.9795 28.5112 58.47 29.8429C58.7346 30.5623 58.9575 31.2877 59.1359 32.0338C59.3143 32.777 59.4688 33.5291 59.6561 34.2693C60.0426 35.7972 60.6163 37.2895 60.6876 38.8799C60.6906 38.9661 60.6936 39.0524 60.6936 39.1356C60.6222 39.1683 60.5539 39.201 60.4825 39.2337C60.4587 39.2456 60.435 39.2515 60.4112 39.2634C60.3785 39.2367 60.3488 39.201 60.325 39.1564C60.2328 38.984 60.212 38.7729 60.1882 38.5827C60.1585 38.324 60.1258 38.0743 60.0455 37.8246C59.9326 37.4679 59.7661 37.132 59.6026 36.799C59.2786 36.1302 58.9783 35.4554 58.6276 34.7984C58.2738 34.1385 57.8963 33.4934 57.5098 32.8513C56.7429 31.579 55.9402 30.3275 55.2268 29.0254C54.8493 28.3387 54.5015 27.6372 54.1358 26.9445C53.7612 26.2311 53.3837 25.5206 53.03 24.7953C52.8635 24.4505 52.6911 24.1116 52.5008 23.7786C52.3106 23.4487 52.1084 23.1217 51.9568 22.7709C51.9093 22.6609 51.8498 22.5331 51.8587 22.4112C51.8617 22.3458 51.8825 22.3101 51.9271 22.2744C52.0757 22.1555 52.2838 22.1139 52.4473 22.0188C52.5484 21.9593 52.6435 21.888 52.7238 21.8018C52.81 21.7126 52.7476 21.564 52.6227 21.561C52.0995 21.5402 51.5525 21.7096 51.071 21.4302C50.952 21.3618 50.8391 21.2667 50.8242 21.121C50.8123 20.9754 50.8837 20.8238 50.9431 20.6959C51.2642 20.0152 51.5585 19.3077 51.9984 18.6894L52.0014 18.6983ZM44.971 47.7505C44.5072 47.6702 44.1119 47.4086 43.8146 47.0489C43.5262 46.6981 43.3301 46.276 43.116 45.8806C42.8247 45.3426 42.5839 44.7867 42.3847 44.207C42.1856 43.6244 42.025 43.0269 41.8615 42.4353C41.6861 41.7932 41.5018 41.1511 41.3205 40.512C41.1451 39.8877 40.9846 39.2604 40.7973 38.6391C40.616 38.0297 40.4168 37.4233 40.2503 36.808C40.0868 36.1896 39.962 35.5654 39.9233 34.9262C39.9055 34.6201 39.9025 34.3139 39.8936 34.0077C39.8877 33.862 39.8817 33.7134 39.9025 33.5707C39.9204 33.4458 39.9768 33.3299 40.0333 33.2169C40.1285 33.0297 40.2622 32.8216 40.2563 32.6046C40.2533 32.3905 40.1076 32.2568 39.9679 32.1141C39.8461 31.9892 39.7688 31.799 39.8996 31.6533C40.0214 31.5166 40.179 31.4274 40.2801 31.2698C40.5 30.922 40.5149 30.4434 40.5387 30.0451C40.5714 29.5367 40.616 29.0344 40.6784 28.529C40.7587 27.8869 40.8508 27.2448 40.9014 26.5997C40.9519 25.9844 40.9697 25.369 41.0619 24.7566C41.1511 24.1651 41.2789 23.5824 41.4572 23.0117C41.6237 22.4855 41.9388 22.105 42.4234 21.8404C42.9258 21.564 43.4757 21.6888 44.0227 21.6769C44.097 21.6769 44.1654 21.6145 44.1624 21.5372C44.1535 21.2816 44.8907 21.4599 45.0334 21.4837C45.5923 21.5729 46.1838 21.448 46.7278 21.3202C47.4264 21.1567 48.1042 20.9189 48.779 20.6781C49.3557 20.473 49.9265 20.25 50.4497 19.926C50.8034 19.709 51.1274 19.4504 51.4098 19.1531C51.3355 19.2809 51.2642 19.4117 51.1988 19.5425C51.0204 19.8933 50.851 20.253 50.6875 20.6127C50.5359 20.9456 50.4675 21.3113 50.7826 21.5729C51.0145 21.7631 51.3147 21.8583 51.612 21.8791C51.7844 21.891 51.9568 21.8791 52.1292 21.8672C52.0728 21.8939 52.0163 21.9177 51.9598 21.9445C51.7933 22.0218 51.6328 22.1318 51.5942 22.325C51.5377 22.6163 51.725 22.9255 51.8498 23.1752C52.0282 23.5289 52.2392 23.8678 52.4325 24.2156C52.6257 24.5694 52.7892 24.938 52.9675 25.2977C53.1518 25.6693 53.3391 26.0379 53.5324 26.4035C53.9158 27.1378 54.3023 27.872 54.6858 28.6093C55.3962 29.9737 56.2256 31.2698 57.0283 32.5778C57.4325 33.2378 57.8309 33.9007 58.2054 34.5784C58.58 35.2532 58.9159 35.9429 59.237 36.6445C59.3945 36.9923 59.5788 37.3282 59.7156 37.6849C59.8226 37.9614 59.885 38.2378 59.9177 38.5321C59.9474 38.7967 59.9801 39.1326 60.1377 39.3615C59.7869 39.4596 59.4153 39.4864 59.0527 39.4983C58.4284 39.5191 57.8071 39.4745 57.1858 39.4507C56.5467 39.4239 55.9075 39.4329 55.2684 39.4269C54.5847 39.418 53.9039 39.4091 53.2202 39.4091C52.2511 39.4091 51.282 39.4418 50.3189 39.531C50.4051 39.4923 50.4824 39.4388 50.5329 39.3556C50.6013 39.2367 50.6102 39.091 50.6161 38.9572C50.628 38.7016 50.6251 38.4459 50.6251 38.1873C50.6191 37.2004 50.6667 36.2134 50.5775 35.2295C50.5567 35.0154 50.5329 34.8014 50.5002 34.5874C50.5388 34.299 50.6369 34.0285 50.7083 33.7431C50.8718 33.104 50.9372 32.444 50.9104 31.7841C50.8926 31.3055 50.8242 30.8299 50.7529 30.3572C50.6934 29.9499 50.6251 29.5457 50.5121 29.1503C50.4408 28.8946 50.3337 28.4904 50.0781 28.3298C50.0632 28.1634 49.7957 28.1693 49.7868 28.3477C49.7659 28.8174 49.8432 29.2841 49.9324 29.7419C50.0186 30.1878 50.1078 30.6307 50.1821 31.0796C50.2505 31.4958 50.3516 31.909 50.3991 32.3281C50.4348 32.6462 50.4526 32.9821 50.3813 33.2972C50.2802 33.0594 50.2208 32.8067 50.1673 32.554C50.1108 32.2895 50.0454 32.0338 49.974 31.7752C49.8878 31.3798 49.7838 30.9874 49.6649 30.601C49.5489 30.1491 49.4211 29.7032 49.1892 29.296C49.1149 29.1652 48.8771 29.2543 48.9395 29.403C49.1892 30.0035 49.3973 30.6277 49.5638 31.2579C49.5638 31.2639 49.5638 31.2669 49.5668 31.2728C49.6203 31.4809 49.6708 31.689 49.7184 31.9C49.9057 32.7651 50.0721 33.645 50.2059 34.519C50.2 34.5606 50.194 34.6052 50.1881 34.6468C50.1494 35.0214 50.1821 35.3989 50.2564 35.7645C50.2654 35.8032 50.2981 35.821 50.3337 35.821C50.3575 36.3502 50.3575 36.8793 50.3605 37.4114C50.3635 37.8871 50.3872 38.3627 50.3724 38.8383C50.3694 38.9543 50.3872 39.1445 50.307 39.2426C50.2594 39.3021 50.1673 39.3139 50.0989 39.3348C49.8373 39.4121 49.5846 39.528 49.3319 39.6439C49.2755 39.6528 49.219 39.6588 49.1625 39.6677C48.6096 39.7539 48.0448 39.8312 47.5364 40.075C47.4235 40.1285 47.4443 40.3366 47.5721 40.3574C48.1964 40.4466 48.7285 40.2177 49.2636 39.962C49.2963 39.9561 49.326 39.9531 49.3587 39.9471C50.0097 39.849 50.6667 39.7926 51.3236 39.7569C52.6376 39.6855 53.9545 39.7123 55.2714 39.7272C55.8927 39.7361 56.5169 39.7272 57.1382 39.7509C57.7268 39.7747 58.3125 39.8163 58.901 39.8044C59.3975 39.7955 59.9385 39.7717 60.4082 39.5964C60.4201 39.5934 60.429 39.5874 60.4409 39.5845C60.4528 39.5874 60.4647 39.5934 60.4766 39.5964C60.6044 39.632 60.7352 39.6201 60.863 39.6023C60.9225 39.5934 60.9582 39.528 60.9611 39.4745C60.9611 39.4329 60.9611 39.3942 60.9611 39.3526C61.1306 39.2694 61.3 39.1891 61.4754 39.1178C61.7548 39.0078 62.1591 38.8532 62.4356 39.0524C62.614 39.1802 62.6823 39.415 62.7537 39.6112C62.8518 39.8847 62.932 40.1641 63.0004 40.4466C63.1401 41.0203 63.2293 41.6029 63.3185 42.1856C63.4106 42.8069 63.4879 43.4133 63.4879 44.0405C63.4879 44.1922 63.4879 44.3438 63.4879 44.4983C63.4879 44.6262 63.4968 44.7599 63.4671 44.8878C63.4285 45.0364 63.3333 45.1286 63.1936 45.1821C63.0034 45.2534 62.7953 45.2742 62.5961 45.3069C62.284 45.3604 61.9718 45.4258 61.6627 45.5001C60.4439 45.7944 59.2786 46.2998 58.039 46.5049C57.4325 46.606 56.8202 46.6565 56.2078 46.716C55.5805 46.7754 54.9563 46.8527 54.329 46.9241C54.008 46.9597 53.6899 47.0014 53.3659 47.0162C53.0537 47.0311 52.7416 47.0251 52.4295 47.043C51.7814 47.0786 51.1304 47.2154 50.4913 47.3165C49.8403 47.4175 49.1892 47.5246 48.5412 47.6464C47.9199 47.7624 47.3135 47.7861 46.6833 47.7594C46.3979 47.7475 46.1155 47.7534 45.8301 47.7683C45.5477 47.7802 45.2564 47.798 44.9769 47.7475L44.971 47.7505ZM50.2416 29.8221C50.1613 29.4119 50.087 28.9957 50.0781 28.5795C50.0989 28.6152 50.1167 28.6479 50.1316 28.6806C50.2089 28.8382 50.2594 29.0076 50.304 29.177C50.4021 29.5605 50.4586 29.9559 50.5061 30.3483C50.5567 30.7882 50.6161 31.2282 50.6369 31.6682C50.6429 31.7782 50.6429 31.8911 50.6429 32.0011C50.5983 31.7187 50.5388 31.4422 50.4883 31.1747C50.4081 30.7229 50.3308 30.274 50.2445 29.8251L50.2416 29.8221ZM44.971 66.2763C44.5726 66.1812 44.1267 66.1901 43.7611 65.988C43.1576 65.655 42.9852 64.9802 43.0625 64.3381C43.1428 63.6782 43.4044 63.048 43.6065 62.4178C43.8562 61.6419 43.9543 60.8274 44.0465 60.0218C44.1 59.5491 44.1357 59.0765 44.204 58.6068C44.2754 58.1341 44.3675 57.6644 44.4418 57.1918C44.5934 56.2494 44.6886 55.2863 44.748 54.335C44.7778 53.8534 44.7718 53.3778 44.754 52.8962C44.7391 52.4325 44.7302 51.9658 44.8015 51.508C44.9234 50.7113 45.1672 49.9324 45.182 49.1209C45.188 48.7552 45.1434 48.3896 45.0126 48.0477C45.298 48.0834 45.5863 48.0715 45.8747 48.0596C46.172 48.0448 46.4633 48.0448 46.7605 48.0567C47.3997 48.0804 48.0121 48.0418 48.6423 47.9259C49.3111 47.804 49.98 47.694 50.6518 47.5899C51.3326 47.4859 52.0133 47.3492 52.703 47.3313C53.024 47.3224 53.3451 47.3254 53.6632 47.2957C53.9991 47.2659 54.335 47.2243 54.6679 47.1857C55.313 47.1084 55.9551 47.043 56.6002 46.9805C57.2304 46.9211 57.8576 46.8557 58.4789 46.7308C59.1151 46.603 59.7215 46.383 60.3398 46.1898C60.8066 46.0441 61.2762 45.9074 61.7519 45.7915C61.7429 45.8093 61.74 45.8301 61.74 45.8569C61.7578 46.7041 61.7103 47.5424 61.6359 48.3837C61.5646 49.2012 61.5051 50.0216 61.41 50.8361C61.3149 51.6566 61.1276 52.4622 60.9314 53.2619C60.7471 54.011 60.5806 54.769 60.3755 55.5122C60.1674 56.2583 59.8939 57.0402 60.0158 57.825C60.0247 57.8844 60.0961 57.929 60.1496 57.929C60.1823 57.929 60.215 57.929 60.2447 57.929C60.1139 58.5592 59.9742 59.1894 59.8137 59.8137C59.7007 60.2566 59.5729 60.6966 59.4332 61.1306C59.2934 61.5646 59.1299 61.9897 58.9902 62.4237C58.7167 63.2769 58.4908 64.1479 58.14 64.9743C57.9676 65.3816 57.7714 65.7799 57.602 66.1901C57.5187 66.3923 57.4355 66.5974 57.3374 66.7936C57.2571 66.9571 57.1739 67.1265 57.0134 67.2246C56.8826 67.3019 56.728 67.3316 56.5823 67.3584C56.3743 67.397 56.1662 67.4297 55.9551 67.4565C55.4884 67.513 55.0187 67.5397 54.549 67.5427C53.6067 67.5516 52.6673 67.4714 51.7309 67.3852C51.2582 67.3406 50.7856 67.296 50.3129 67.2573C49.8462 67.2187 49.3795 67.2038 48.9098 67.1741C48.4788 67.1444 48.0626 67.0314 47.6464 66.9244C47.1916 66.8055 46.7308 66.7668 46.273 66.6717C46.1036 66.636 45.9371 66.5855 45.7706 66.532C45.7796 66.5231 45.7825 66.5171 45.7914 66.5082C45.8658 66.4369 45.7528 66.3239 45.6785 66.3952C45.6488 66.422 45.625 66.4488 45.6012 66.4755C45.3931 66.4042 45.185 66.3328 44.968 66.2823L44.971 66.2763ZM39.3318 108.664C39.5042 108.361 39.8371 108.165 40.0541 107.897C40.3871 107.487 40.5981 106.999 40.833 106.53C41.1005 105.998 41.3681 105.465 41.6029 104.915C42.0429 103.875 42.5126 102.858 43.0685 101.871C43.6214 100.893 44.2308 99.9451 44.8669 99.0177C45.5061 98.0872 46.172 97.1746 46.8408 96.2649C47.1767 95.8101 47.5097 95.3553 47.8426 94.9005C48.1785 94.4427 48.5234 93.9908 48.8295 93.5122C49.1417 93.0217 49.4122 92.5045 49.6441 91.9694C49.8759 91.4402 50.0543 90.8903 50.301 90.3701C50.7915 89.3445 51.3861 88.3694 51.725 87.2785C51.8082 87.0079 51.8706 86.7315 51.8885 86.4491C51.9063 86.1815 51.8855 85.911 51.8885 85.6435C51.9003 85.15 52.0074 84.6833 52.1709 84.2166C52.2065 84.1125 52.2571 84.0382 52.1976 83.9372C52.1471 83.8539 52.1055 83.7826 52.1025 83.6845C52.0995 83.5002 52.2036 83.3277 52.2987 83.1791C52.486 82.8908 52.7535 82.6351 52.8159 82.2843C52.8635 82.0138 52.8724 81.7433 52.8724 81.4728C53.4075 82.543 53.9218 83.625 54.335 84.7487C54.5817 85.4176 54.7958 86.0983 55.0247 86.7731C55.1376 87.112 55.2535 87.4479 55.3784 87.7838C55.4914 88.093 55.5984 88.4051 55.7708 88.6846C55.8511 88.8154 55.9402 88.9462 55.9997 89.0888C56.0591 89.2404 56.0413 89.3594 56.0116 89.511C55.967 89.7399 56.0146 89.9628 56.2167 90.1025C56.2702 90.1382 56.3297 90.165 56.3891 90.1858C56.4753 90.3998 56.6448 90.5841 56.725 90.7981C56.838 91.1073 56.9123 91.4313 56.9926 91.7524C57.1709 92.448 57.4117 93.1317 57.6287 93.8154C57.6317 93.8273 57.6377 93.8392 57.6406 93.8511C57.6079 93.9046 57.602 93.976 57.6525 94.0384C57.7328 94.1365 57.5158 94.4456 57.4652 94.5259C57.3404 94.7281 57.2096 94.9242 57.055 95.1026C56.7072 95.5099 56.288 95.8458 55.8986 96.2144C55.0841 96.9873 54.5847 97.9713 53.9693 98.8958C53.6483 99.3774 53.3599 99.8708 53.0864 100.379C52.8159 100.885 52.5395 101.39 52.2095 101.86C51.8766 102.335 51.5109 102.784 51.1601 103.245C50.8064 103.712 50.4972 104.202 50.1732 104.69C49.8373 105.195 49.4776 105.682 49.106 106.161C48.7523 106.613 48.3955 107.068 47.9912 107.475C47.6256 107.847 47.2273 108.185 46.8141 108.507C46.499 108.75 46.0857 109.024 45.9579 109.425C45.8479 109.776 45.9252 110.168 45.9579 110.525C45.9876 110.819 46.056 111.262 45.8093 111.488C45.5923 111.687 45.1969 111.613 44.9353 111.577C44.5489 111.524 44.1654 111.432 43.7849 111.345C42.8544 111.137 41.8853 111.137 41.0619 110.587C40.5238 110.228 40.0095 109.752 39.5934 109.256C39.4715 109.113 39.2158 108.831 39.3199 108.655L39.3318 108.664ZM56.6359 89.9569C56.6359 89.9361 56.6448 89.9153 56.6537 89.8974C56.7102 89.7963 56.8529 89.7666 56.9569 89.7755C57.0134 89.7785 57.0669 89.7934 57.1204 89.8142C57.1382 89.8201 57.165 89.8409 57.1888 89.8528C57.159 89.8707 57.1263 89.8915 57.1085 89.8974C57.0015 89.9361 56.8083 89.9717 56.6359 89.9569ZM52.376 120.371C52.376 120.371 52.373 120.382 52.3641 120.4C52.3581 120.406 52.3522 120.412 52.3462 120.418C52.3373 120.424 52.3284 120.43 52.3195 120.436C52.3017 120.445 52.2868 120.454 52.269 120.463C52.2244 120.486 52.1827 120.501 52.1352 120.519C52.0192 120.561 51.9033 120.591 51.7844 120.623C51.5912 120.671 51.395 120.709 51.2018 120.763C50.4645 120.977 49.6916 121.019 48.9306 121.016C48.1637 121.013 47.3967 120.938 46.6357 120.843C45.9787 120.763 45.3099 120.695 44.6588 120.561C44.5964 120.549 44.531 120.534 44.4686 120.519C44.4597 120.516 44.4508 120.513 44.4418 120.513C44.2308 120.463 44.0227 120.403 43.8205 120.326C43.5827 120.234 43.3984 120.106 43.232 119.913C43.0268 119.675 42.8633 119.401 42.6969 119.134C42.5363 118.875 42.3699 118.623 42.1945 118.373C41.8467 117.879 41.4632 117.407 40.9995 117.017C40.5892 116.673 40.1344 116.402 39.6528 116.167C39.2188 115.953 38.7818 115.748 38.3627 115.504C37.9554 115.269 37.5452 115.002 37.239 114.636C37.1171 114.491 37.016 114.321 36.9625 114.143C36.9001 113.926 36.9209 113.691 36.9685 113.462C37.0993 112.826 37.4144 112.237 37.7265 111.672C38.0654 111.063 38.4013 110.457 38.7313 109.841C38.8651 109.592 38.984 109.336 39.0999 109.08C39.1475 109.166 39.2069 109.247 39.2575 109.315C39.4685 109.595 39.7152 109.847 39.9709 110.085C40.509 110.587 41.0738 111.045 41.7842 111.277C42.2688 111.435 42.7742 111.497 43.2765 111.568C43.5887 111.613 43.8919 111.696 44.201 111.762C44.5637 111.839 44.9323 111.916 45.3039 111.928C45.4199 111.931 45.5358 111.928 45.6458 111.907C45.6458 111.916 45.6398 111.922 45.6398 111.931C45.5685 112.627 45.839 113.281 45.946 113.955C46.0471 114.586 46.062 115.252 46.3681 115.828C46.6268 116.316 47.037 116.693 47.5126 116.967C47.9794 117.237 48.4907 117.419 48.9841 117.633C49.2368 117.743 49.4895 117.859 49.7273 117.998C50.0008 118.156 50.2713 118.316 50.5537 118.459C50.848 118.608 51.1512 118.756 51.4098 118.959C51.5823 119.092 51.7339 119.256 51.8795 119.419C52.043 119.601 52.1976 119.797 52.3076 120.017C52.3492 120.097 52.3849 120.198 52.3908 120.275C52.3908 120.326 52.3908 120.335 52.3789 120.374L52.376 120.371ZM68.1283 120.668C68.1313 120.701 68.1372 120.73 68.1432 120.763C68.1402 120.763 68.1372 120.76 68.1343 120.757C68.0599 120.715 67.9856 120.757 67.9589 120.819C67.8905 120.822 67.8221 120.828 67.7537 120.831C67.617 120.837 67.4803 120.84 67.3435 120.843C67.0819 120.849 66.8203 120.855 66.5557 120.855C66.0266 120.855 65.4975 120.849 64.9683 120.828C63.8803 120.784 62.7893 120.796 61.7013 120.811C60.6163 120.825 59.5313 120.84 58.4462 120.796C57.3612 120.751 56.2732 120.695 55.1852 120.701C54.3023 120.701 53.4045 120.849 52.5306 120.659C52.6941 120.525 52.7178 120.305 52.6643 120.106C52.6019 119.862 52.4503 119.645 52.2987 119.449C52.153 119.262 51.9955 119.089 51.826 118.923C51.3563 118.462 50.744 118.239 50.1851 117.918C49.9324 117.772 49.6887 117.621 49.4241 117.496C49.1655 117.374 48.9009 117.267 48.6393 117.16C48.1547 116.961 47.6494 116.753 47.2392 116.417C47.0281 116.244 46.8468 116.045 46.7041 115.813C46.5406 115.549 46.4484 115.263 46.3919 114.957C46.3295 114.624 46.2968 114.282 46.2463 113.947C46.1957 113.611 46.1006 113.29 46.0293 112.96C45.9549 112.621 45.9044 112.276 45.9401 111.928C45.9431 111.884 45.9222 111.845 45.8895 111.818C45.9639 111.776 46.0352 111.723 46.0947 111.649C46.5465 111.093 46.1363 110.278 46.2314 109.645C46.2879 109.262 46.6833 109.009 46.9657 108.789C47.3581 108.483 47.7445 108.165 48.1012 107.814C48.4877 107.436 48.8295 107.014 49.1655 106.592C49.5162 106.149 49.8581 105.697 50.1821 105.234C50.5032 104.776 50.7886 104.294 51.1126 103.839C51.4396 103.382 51.7933 102.948 52.1292 102.499C52.4622 102.059 52.7684 101.607 53.0359 101.128C53.3035 100.65 53.5502 100.159 53.8296 99.6865C54.1031 99.2258 54.4152 98.7888 54.6947 98.328C54.9771 97.8672 55.2565 97.4035 55.6014 96.9843C55.9343 96.583 56.3297 96.2441 56.7131 95.8933C57.0699 95.5634 57.3879 95.2126 57.6525 94.8053C57.712 94.7132 57.7863 94.6002 57.8487 94.4843C58.0182 94.9688 58.1936 95.4534 58.357 95.9409C58.47 96.2768 58.5711 96.6187 58.687 96.9546C58.794 97.2638 58.9278 97.5581 59.0645 97.8524C59.1924 98.1288 59.3143 98.432 59.338 98.7353C59.347 98.8334 59.4451 98.8631 59.5075 98.8215C59.7245 99.3744 59.885 99.9511 60.0574 100.519C60.3012 101.319 60.6312 102.077 60.9433 102.852C61.6003 104.487 62.1472 106.158 62.6942 107.832C62.9707 108.682 63.2561 109.529 63.5533 110.373C63.8387 111.182 64.13 111.988 64.4986 112.76C64.8554 113.516 65.2686 114.244 65.6907 114.963C65.9077 115.332 66.1307 115.7 66.3506 116.069C66.5528 116.408 66.7936 116.75 66.9541 117.11C67.1295 117.508 67.1533 117.96 67.2424 118.382C67.3257 118.786 67.4951 119.167 67.6735 119.538C67.7835 119.77 67.9559 120.085 68.2056 120.219C68.1343 120.338 68.0986 120.484 68.1194 120.665L68.1283 120.668ZM69.8436 122.969C69.5314 122.713 69.2787 122.35 69.0499 122.02C68.8328 121.705 68.6426 121.366 68.5088 121.007C68.4345 120.811 68.3275 120.525 68.4613 120.329C68.4761 120.308 68.491 120.29 68.5088 120.272C68.7228 120.237 68.928 120.055 69.1063 119.966C69.246 119.898 69.1479 119.654 68.9993 119.711C68.7972 119.785 68.5861 119.871 68.4226 119.993C68.3959 119.99 68.3691 119.981 68.3364 119.96C68.051 119.782 67.9143 119.384 67.7865 119.092C67.6319 118.739 67.5308 118.394 67.4654 118.013C67.4059 117.659 67.3554 117.3 67.2038 116.97C67.0403 116.607 66.8055 116.268 66.6033 115.926C66.3952 115.576 66.1842 115.228 65.9761 114.874C65.5688 114.181 65.1734 113.483 64.8227 112.757C64.0795 111.221 63.5741 109.565 63.045 107.948C62.5099 106.316 61.9808 104.687 61.3446 103.09C61.0087 102.249 60.6252 101.431 60.3488 100.566C60.1109 99.8233 59.9058 99.0623 59.5491 98.3666C59.4748 97.9356 59.2191 97.5491 59.0616 97.133C58.8208 96.4998 58.6395 95.8428 58.4046 95.2067C58.1727 94.5735 57.9676 93.9314 57.7685 93.2893C57.5693 92.6531 57.3612 92.0199 57.1977 91.3748C57.1263 91.0924 57.052 90.8041 56.9302 90.5365C56.8945 90.4593 56.8083 90.3522 56.7369 90.2393C56.9034 90.2393 57.0699 90.2095 57.2096 90.159C57.3285 90.1144 57.4712 90.0461 57.5098 89.9123C57.5514 89.7696 57.4474 89.6537 57.3315 89.5883C57.1323 89.4783 56.8856 89.4456 56.6745 89.5318C56.5229 89.5912 56.4099 89.7131 56.3683 89.8588C56.3267 89.8231 56.297 89.7755 56.2851 89.7161C56.2672 89.615 56.3178 89.4991 56.3326 89.398C56.3505 89.2642 56.3326 89.1364 56.2851 89.0116C56.187 88.7529 56.0027 88.5389 55.8897 88.2862C55.6162 87.6828 55.423 87.0317 55.2149 86.4045C55.0068 85.7773 54.8047 85.147 54.5728 84.5257C54.1091 83.2772 53.5205 82.0822 52.9259 80.8931C52.914 80.8693 52.9021 80.8485 52.8932 80.8247C52.8932 80.8128 52.8932 80.8039 52.8932 80.792C52.8932 80.7474 52.8694 80.7237 52.8397 80.7177C51.6714 78.3752 50.5894 75.9881 49.4181 73.6486C48.8206 72.4566 48.1666 71.3002 47.5245 70.1319C47.2243 69.5879 46.9597 69.0231 46.6565 68.4821C46.5317 68.2621 46.3949 68.051 46.2403 67.8519C46.0768 67.6438 45.8747 67.4595 45.7379 67.2306C45.6458 67.076 45.6042 66.9244 45.6339 66.7817C45.8539 66.856 46.0738 66.9244 46.2998 66.966C46.5346 67.0106 46.7695 67.0344 47.0043 67.073C47.2273 67.1117 47.4472 67.1711 47.6642 67.2276C48.0923 67.3406 48.5234 67.4446 48.9663 67.4714C49.4419 67.4981 49.9176 67.5219 50.3932 67.5605C52.2957 67.7211 54.2161 67.9975 56.1245 67.733C56.4664 67.6854 56.8856 67.6616 57.1858 67.4743C57.5158 67.2663 57.6585 66.8501 57.8012 66.5082C58.1549 65.6699 58.5473 64.8494 58.8297 63.9814C58.9694 63.5504 59.0943 63.1164 59.231 62.6853C59.3678 62.2424 59.5313 61.8113 59.6769 61.3714C59.7661 61.1068 59.8464 60.8422 59.9237 60.5747C59.995 60.7947 60.2001 60.9641 60.3963 61.0652C60.6431 61.193 60.9106 61.2703 61.1781 61.3387C61.4754 61.416 61.7727 61.4933 62.0699 61.5706C62.8102 61.7608 63.5593 61.9392 64.3173 62.0432C64.6086 62.0819 64.9148 62.1205 65.2091 62.1056C65.3934 62.0967 65.5658 62.0343 65.655 61.8619C65.6699 61.8351 65.6818 61.8084 65.6907 61.7786C65.7323 62.1532 65.7799 62.5278 65.8393 62.8994C65.9672 63.696 66.1574 64.4779 66.3536 65.2597C66.4487 65.6402 66.5498 66.0207 66.6806 66.3923C66.7787 66.6658 66.9006 66.9333 67.1384 67.1146C67.1473 67.1206 67.1562 67.1265 67.1622 67.1325C67.1533 67.1414 67.1443 67.1473 67.1414 67.1563C67.1087 67.2127 67.1206 67.2722 67.1533 67.3168C67.1533 67.3138 67.1533 67.3108 67.1533 67.3049C67.1533 67.3049 67.1533 67.3138 67.1533 67.3168C67.1652 67.3316 67.177 67.3435 67.1919 67.3554C67.177 67.3435 67.1592 67.3316 67.1533 67.3198C67.1533 67.3287 67.1592 67.3376 67.1592 67.3435C67.1592 67.3316 67.1592 67.3316 67.1592 67.3584C67.1592 67.3822 67.1592 67.403 67.1592 67.4238C67.1592 67.5189 67.1443 67.6111 67.1295 67.7032C67.0879 67.9648 67.0254 68.2235 66.963 68.4821C66.8144 69.0826 66.6509 69.6801 66.5171 70.2865C66.315 71.1932 66.1693 72.1118 65.982 73.0244C65.7977 73.9192 65.5688 74.805 65.3607 75.6938C65.2002 76.3776 65.0456 77.1059 64.6473 77.6915C64.5551 77.198 64.4689 76.7046 64.3768 76.2111C64.3114 75.8544 64.24 75.5006 64.1449 75.1528C64.0527 74.8169 63.9279 74.4959 63.7733 74.1837C63.6247 73.8805 63.4552 73.5862 63.3066 73.283C63.259 73.1849 63.2144 73.0868 63.1728 72.9857C63.1371 72.7955 63.1044 72.6052 63.0658 72.4179C63.0123 72.1415 62.9796 71.862 62.9053 71.5886C62.7626 71.0624 62.501 70.5719 62.3791 70.0398C62.6615 70.0665 62.9439 70.0814 63.2234 70.0279C63.5682 69.9625 63.8773 69.7871 64.1538 69.579C64.2489 69.5077 64.237 69.3085 64.0854 69.3234C63.7347 69.359 63.3988 69.472 63.0509 69.5404C62.7566 69.5968 62.4326 69.6295 62.1591 69.4869C61.6835 69.2401 61.3892 68.7021 61.2257 68.2145C61.1781 68.0718 60.9255 68.0837 60.9463 68.2532C60.9463 68.2651 60.9492 68.277 60.9522 68.2918C60.9522 68.2918 60.9522 68.2918 60.9522 68.2948C61.0325 68.8983 61.3179 69.4244 61.6211 69.9446C61.7786 70.2122 61.9362 70.4827 62.064 70.7681C62.2097 71.0891 62.3167 71.428 62.4296 71.7639C62.5872 72.2396 62.7447 72.7063 62.9409 73.1611C63.039 73.7051 63.0985 74.261 63.2501 74.7961C63.3244 75.0607 63.4136 75.3193 63.5177 75.572C63.6217 75.8276 63.7465 76.0714 63.8536 76.327C64.1003 76.9067 64.1449 77.5488 64.3649 78.1374C64.3827 78.188 64.4273 78.2207 64.4749 78.2266C64.573 78.7379 64.6829 79.2492 64.8197 79.7516C64.9089 80.0816 65.0099 80.4056 65.1259 80.7266C65.2507 81.0655 65.3875 81.4014 65.5064 81.7433C65.7442 82.4389 65.9434 83.1494 66.1425 83.8569C66.2436 84.2136 66.3477 84.5674 66.4577 84.9211C66.5141 85.1024 66.5706 85.2778 66.5944 85.4651C66.6182 85.6405 66.6241 85.8159 66.6301 85.9913C66.642 86.3391 66.642 86.6928 66.7371 87.0317C66.7579 87.1031 66.7817 87.1744 66.8084 87.2458C66.7282 87.2844 66.6717 87.4033 66.746 87.4985C66.859 87.6441 66.8976 87.8611 66.9184 88.0603C66.9065 88.096 66.8917 88.1287 66.8798 88.1614C66.859 88.2089 66.8946 88.2476 66.9363 88.2595C66.9363 88.2624 66.9363 88.2654 66.9363 88.2684C66.96 88.5448 66.963 88.8243 66.9898 89.1037C67.0284 89.5021 67.0819 89.8915 67.0819 90.2928C67.0819 90.4682 67.076 90.6406 67.0433 90.81C67.0106 90.9765 66.9719 91.14 66.96 91.3094C66.9363 91.6245 67.07 91.8624 67.296 92.0734C67.3792 92.1537 67.4654 92.228 67.5219 92.3291C67.6229 92.5074 67.6586 92.7334 67.7032 92.9296C67.8756 93.6817 67.8816 94.4635 68.0807 95.2067C68.2859 95.9677 68.7229 96.6514 69.0707 97.353C69.4541 98.1229 69.8168 98.9047 70.1557 99.6954C70.8364 101.283 71.425 102.918 71.859 104.591C72.296 106.265 72.6646 107.954 73.1581 109.612C73.4049 110.445 73.6754 111.271 73.9697 112.086C74.264 112.897 74.6177 113.682 74.9269 114.488C75.0636 114.844 75.1379 115.216 75.2658 115.576C75.3371 115.778 75.456 115.897 75.6195 116.024C75.997 116.319 76.4786 116.577 76.7551 116.979C76.8859 117.166 76.9007 117.374 76.6927 117.517C76.4519 117.683 76.1041 117.671 75.8425 117.793C75.4768 117.963 75.1469 118.206 74.8258 118.45C74.4899 118.706 74.1629 118.973 73.8418 119.253C73.2057 119.806 72.5725 120.368 72.0493 121.031C71.8115 121.331 71.5915 121.643 71.3686 121.955C71.1278 122.291 70.8929 122.668 70.5838 122.945C70.34 123.162 70.1022 123.174 69.8465 122.966L69.8436 122.969ZM64.1211 76.3568C64.0349 76.1368 63.9249 75.9228 63.8298 75.7057C63.7168 75.4471 63.6158 75.1825 63.5325 74.912C63.4552 74.6564 63.3869 74.3978 63.3482 74.1332C63.3393 74.0678 63.3304 74.0024 63.3214 73.934C63.4433 74.1629 63.5652 74.3918 63.6663 74.6296C63.806 74.9507 63.8922 75.2896 63.9695 75.6314C64.023 75.8722 64.0735 76.113 64.1211 76.3568ZM62.0937 69.9238C62.1175 70.0754 62.1532 70.2241 62.1978 70.3697C62.1889 70.3519 62.1799 70.3341 62.171 70.3192C62.0254 70.0427 61.8559 69.7722 61.7043 69.4987C61.7965 69.579 61.8916 69.6533 61.9986 69.7128C62.0462 69.7395 62.0967 69.7603 62.1472 69.7812C62.1056 69.8139 62.0848 69.8763 62.0937 69.9268V69.9238ZM70.6283 123.275C70.6581 123.257 70.6848 123.236 70.7116 123.215C71.0267 122.966 71.2556 122.603 71.4904 122.279C71.7431 121.928 71.9898 121.575 72.2544 121.236C72.7806 120.567 73.4227 119.999 74.0678 119.449C73.6338 119.859 73.2176 120.293 72.8668 120.781C72.5041 121.283 72.192 121.827 71.7699 122.285C71.6123 122.454 71.4667 122.636 71.3091 122.805C71.1545 122.978 70.9851 123.153 70.774 123.254C70.7324 123.275 70.6908 123.287 70.6462 123.299C70.6402 123.29 70.6313 123.284 70.6254 123.278L70.6283 123.275ZM73.0541 129.084C73.0214 129.122 72.9946 129.17 72.9679 129.217C72.8757 129.241 72.7925 129.211 72.6973 129.155C72.5428 129.063 72.409 128.926 72.302 128.78C72.1712 128.602 72.1474 128.373 72.1058 128.153C72.0552 127.88 72.0136 127.603 71.9393 127.336C71.8145 126.878 71.5677 126.462 71.3775 126.028C71.1842 125.594 71.0089 125.148 70.8691 124.693C70.7978 124.455 70.7324 124.211 70.6967 123.965C70.6729 123.813 70.6789 123.667 70.6819 123.516C71.0624 123.444 71.3775 123.076 71.6153 122.802C71.7788 122.615 71.9482 122.437 72.1058 122.246C72.302 122.009 72.4774 121.759 72.6498 121.503C72.8252 121.242 73.0006 120.977 73.1908 120.727C73.3811 120.478 73.5921 120.243 73.8091 120.02C74.2223 119.598 74.6742 119.214 75.1112 118.813C75.4233 118.525 75.7444 118.203 76.1278 118.007C76.1724 117.992 76.2141 117.981 76.2586 117.969C76.3003 117.96 76.3449 117.948 76.3894 117.939C76.4697 117.939 76.55 117.963 76.6362 118.007C76.8591 118.123 77.0494 118.293 77.2486 118.447C77.4715 118.62 77.7093 118.736 77.965 118.854C78.2741 118.997 78.5892 119.128 78.9014 119.262C79.4365 119.491 79.9389 119.841 80.5512 119.764C80.8634 119.725 81.1577 119.618 81.4549 119.517C81.7581 119.416 82.0703 119.345 82.3794 119.268C82.7807 119.167 83.188 119.071 83.5982 119.006C83.5982 119.006 83.5982 119.006 83.5953 119.006C83.2088 119.211 82.8224 119.422 82.4597 119.669C82.1327 119.895 81.8503 120.171 81.5768 120.46C81.4995 120.54 81.4222 120.62 81.3449 120.701C81.1279 120.873 80.9198 121.054 80.7355 121.256C80.6255 121.378 80.789 121.533 80.9109 121.432C81.0893 121.289 81.2498 121.132 81.4103 120.968C81.7135 120.721 82.0435 120.501 82.3705 120.29C82.6202 120.127 82.867 119.963 83.1315 119.827C83.4139 119.681 83.7082 119.553 83.9966 119.419C84.3117 119.274 84.6238 119.122 84.9003 118.911C84.9806 118.852 84.9865 118.747 84.933 118.685C85.2035 118.602 85.4978 118.548 85.7683 118.608C86.1042 118.685 86.3777 118.941 86.6096 119.179C86.7909 119.366 86.9782 119.565 87.1358 119.782C87.1268 119.782 87.1209 119.779 87.112 119.779C86.4015 119.797 85.7951 120.207 85.257 120.629C84.9687 120.855 84.6922 121.093 84.4038 121.322C84.0947 121.566 83.7647 121.771 83.4347 121.979C83.0394 122.226 82.644 122.469 82.2516 122.713C81.88 122.945 81.5025 123.168 81.1606 123.441C80.5512 123.929 80.0578 124.538 79.5019 125.082C79.2254 125.353 78.9311 125.605 78.6517 125.873C78.3722 126.141 78.0958 126.408 77.8134 126.673C77.2515 127.193 76.6629 127.689 75.9852 128.055C75.7236 128.198 75.5274 128.287 75.239 128.352C74.9804 128.412 74.7188 128.453 74.4572 128.504C74.1837 128.557 73.9072 128.617 73.6427 128.712C73.4286 128.789 73.2027 128.893 73.06 129.078L73.0541 129.084ZM84.0085 124.303C83.3931 124.785 82.7659 125.249 82.1624 125.745C81.5649 126.233 80.9407 126.679 80.2807 127.08C78.937 127.897 77.4923 128.537 76 129.027C75.3579 129.238 74.7039 129.437 74.044 129.574C73.8478 129.616 73.6635 129.645 73.4584 129.639C73.4078 129.639 73.3722 129.636 73.3424 129.628C73.3246 129.625 73.3038 129.619 73.2859 129.616C73.277 129.616 73.2681 129.61 73.2592 129.607C73.2562 129.607 73.2533 129.607 73.2503 129.607C73.2503 129.607 73.2503 129.607 73.2443 129.607C73.2324 129.601 73.2205 129.595 73.2086 129.586C73.2057 129.583 73.1997 129.577 73.1938 129.571C73.1938 129.568 73.1908 129.565 73.1878 129.559C73.1878 129.559 73.1819 129.544 73.1819 129.538C73.1819 129.538 73.1819 129.535 73.1819 129.532C73.167 129.372 73.3127 129.211 73.4494 129.128C73.6516 129.006 73.8864 128.941 74.1124 128.887C74.5969 128.768 75.1112 128.73 75.5838 128.569C75.8989 128.462 76.1962 128.287 76.4756 128.108C76.7878 127.912 77.085 127.689 77.3675 127.454C77.9412 126.979 78.4644 126.45 79.0054 125.938C79.2789 125.68 79.5643 125.433 79.8318 125.166C80.0934 124.901 80.3461 124.624 80.6047 124.357C80.8634 124.092 81.1309 123.831 81.4282 123.608C81.7671 123.352 82.1446 123.144 82.5073 122.921C82.8937 122.686 83.2772 122.448 83.6607 122.208C83.9817 122.009 84.2909 121.806 84.5882 121.572C85.1322 121.146 85.6405 120.653 86.2618 120.335C86.5234 120.201 86.8088 120.109 87.1031 120.103C87.1863 120.103 87.2338 120.044 87.2457 119.978C87.2665 120.011 87.2874 120.044 87.3082 120.076C87.3944 120.234 87.4598 120.415 87.43 120.596C87.4033 120.763 87.3052 120.918 87.216 121.054C87.0109 121.372 86.7552 121.658 86.5085 121.943C86.2618 122.231 86.021 122.517 85.7534 122.784C85.2094 123.334 84.609 123.828 84.0025 124.303H84.0085ZM122.612 122.963C122.175 122.942 121.744 122.877 121.313 122.808C121.253 122.799 121.197 122.793 121.137 122.784C121.328 122.758 121.518 122.734 121.708 122.716C122.252 122.671 122.85 122.674 123.346 122.921C123.12 123.001 122.808 122.972 122.609 122.963H122.612Z" fill="#DAE5EB"/>
<path d="M82.5281 36.2818C82.5281 36.2818 82.5281 36.2758 82.5221 36.2729C82.5221 36.2729 82.5221 36.2728 82.5192 36.2699C82.5102 36.258 82.5043 36.2491 82.4954 36.2402C82.3676 36.0677 82.2011 35.934 81.996 35.8626C81.7908 35.7913 81.5471 35.8151 81.3628 35.931C81.2023 36.0321 81.0833 36.1837 81.0031 36.3531C80.7593 36.6623 80.6791 37.0933 80.798 37.4708C80.9139 37.8335 81.232 38.0951 81.6214 38.0802C81.8473 38.0713 82.0495 37.9881 82.2189 37.8573C82.4359 37.7027 82.5994 37.459 82.6797 37.2182C82.7837 36.909 82.7213 36.5463 82.5281 36.2847V36.2818Z" fill="white"/>
</svg>
