<svg width="235" height="266" viewBox="0 0 235 266" fill="none" xmlns="http://www.w3.org/2000/svg">
<path opacity="0.53" d="M110.948 42.9508C110.405 43.8868 109.44 44.5744 108.377 44.7882C107.724 44.9153 106.852 45.0482 106.771 45.7068C106.719 46.146 107.112 46.5215 107.522 46.6833C108.753 47.1629 110.226 46.3193 110.723 45.0944C111.214 43.8695 110.885 42.4366 110.18 41.3157C108.689 41.8703 107.383 42.9104 106.499 44.2277C107.083 44.5917 107.834 44.2277 108.418 43.8579C109.342 43.2744 110.267 42.685 111.179 42.0899C111.561 43.7077 111.393 45.4468 110.706 46.9606C110.631 47.1282 110.544 47.3015 110.394 47.4113C110.093 47.6367 109.671 47.5384 109.29 47.5153C107.69 47.4402 106.557 48.9945 105.742 50.3754C105.274 51.1669 104.795 52.1376 105.222 52.9523C106.846 51.8487 108.47 50.7451 110.093 49.6416C110.619 50.1038 110.475 51.0051 109.995 51.5136C109.515 52.022 108.822 52.2474 108.169 52.4901C107.285 52.8252 106.43 53.2296 105.621 53.7092C105.338 53.8767 105.038 54.0732 104.934 54.3852C104.697 55.067 105.598 55.6737 106.297 55.5119C106.996 55.3501 107.505 54.7608 108.048 54.2927C108.591 53.8247 109.365 53.4318 110.012 53.7496C110.093 55.0265 108.805 55.9337 107.62 56.419C106.436 56.9043 105.061 57.3666 104.552 58.5395C104.795 59.2444 105.777 59.3657 106.482 59.123C107.187 58.8804 107.834 58.4066 108.579 58.3604C108.712 58.3546 108.863 58.3661 108.949 58.4644C109.076 58.603 109.007 58.8284 108.909 58.9902C108.1 60.3248 106.049 60.3711 105.113 61.6191C104.552 62.3644 104.523 63.364 104.512 64.2942C104.5 65.1956 104.494 66.1027 104.483 67.004C104.483 67.3392 104.57 67.7783 104.899 67.8072C105.061 67.8187 105.205 67.7205 105.332 67.6165C107.782 65.6462 108.863 62.4106 109.227 59.2848C109.591 56.159 109.377 52.9812 109.839 49.8727C109.995 48.8211 110.232 47.7753 110.278 46.718" fill="#768AD3"/>
<path d="M136.03 163.078C134.424 163.8 132.875 164.921 132.228 166.562C131.841 167.55 131.818 168.637 131.783 169.694C131.5 178.719 130.252 187.715 128.068 196.474C127.843 197.376 127.623 198.398 128.114 199.184C128.363 199.583 128.762 199.86 129.183 200.057C132.032 201.362 135.198 199.063 138.33 198.878C138.977 198.837 139.63 198.895 140.277 198.826C142.444 198.601 144.212 197.081 145.997 195.827C148.736 193.897 151.821 192.464 155.062 191.621C155.582 191.482 156.143 191.344 156.501 190.945C156.957 190.436 156.958 189.674 156.929 188.992C156.617 182.313 155.779 175.668 154.531 169.105C153.664 164.552 151.937 162.5 147.193 161.888C143.455 161.403 139.514 161.501 136.03 163.072V163.078Z" fill="#161928"/>
<path d="M71.289 77.6122C74.4091 76.9304 77.5176 76.2081 80.6203 75.4339C80.8976 75.3646 81.1981 75.2837 81.383 75.0641C81.7643 74.6192 81.5216 73.7988 82.007 73.4694C82.371 73.2268 82.8679 73.4637 83.1741 73.7699C83.4803 74.0761 83.7345 74.4806 84.139 74.6366C84.4799 74.7695 84.8612 74.7001 85.2252 74.6366C88.4262 74.0414 91.656 73.5908 94.8974 73.2845C95.3481 73.2441 95.8623 73.2268 96.1743 73.5503C96.417 73.8045 96.4574 74.1801 96.4805 74.5326C96.5441 75.4339 96.625 76.3988 97.197 77.0922C97.6245 77.6064 98.2716 77.9011 98.705 78.4095C99.1383 78.918 99.2423 79.8482 98.6414 80.1486C98.3121 80.3162 97.9076 80.2064 97.5667 80.062C95.6138 79.2126 94.3716 77.1615 92.4013 76.3584C89.9689 75.3646 87.2475 76.5317 84.8843 77.6815C84.5897 77.8259 84.2777 77.982 84.0928 78.2535C83.879 78.5597 83.8674 78.9642 83.7403 79.3166C83.359 80.374 82.0994 80.7727 81.0074 81.0269C79.6207 81.3504 78.234 81.674 76.8531 81.9976C74.3397 82.5869 71.8264 83.1705 69.2783 83.5749C66.4067 84.0256 63.3849 84.2278 60.6693 83.1936C59.3809 82.7025 57.1102 81.4602 56.7346 79.9869C56.3417 78.4268 57.844 77.7277 59.1035 77.9415C61.224 78.2997 62.9631 78.7966 65.1761 78.6291C67.233 78.4731 69.261 78.0513 71.2717 77.6122H71.289Z" fill="#161928"/>
<path d="M105.904 4.69552C104.651 4.77641 103.599 5.76442 103.079 6.90844C102.553 8.05245 102.455 9.33514 102.368 10.5889C102.01 15.5926 101.652 20.5904 101.294 25.594C101.19 27.0674 101.086 28.5696 101.398 30.0141C101.71 31.4586 102.507 32.8684 103.807 33.579C105.685 34.6075 107.996 33.9373 110.024 33.2497C111.925 32.6026 113.832 31.9612 115.738 31.3141C115.969 32.0132 115.472 32.7875 114.825 33.1399C114.178 33.4924 113.41 33.5386 112.676 33.6253C110.787 33.8391 108.932 34.3475 107.199 35.1217C106.921 35.2431 106.627 35.3933 106.494 35.6649C106.303 36.052 106.517 36.5142 106.725 36.8898C107.32 37.9818 107.921 39.0738 108.516 40.1658C108.366 40.7551 107.47 40.5876 106.967 40.2351C106.465 39.8827 105.696 39.5245 105.344 40.0214C105.228 40.1831 105.211 40.3854 105.194 40.5818C105.147 41.0787 105.107 41.5814 105.061 42.0783C104.286 41.6796 103.489 41.2694 102.617 41.2C101.75 41.1307 100.785 41.4947 100.41 42.2863C100.242 42.6387 100.167 43.0952 99.8144 43.2685C99.2598 43.5401 98.7224 42.8467 98.1215 42.6907C97.6824 42.5752 97.226 42.7658 96.8157 42.9565C93.9557 44.245 91.0956 45.5277 88.2356 46.8161C86.4156 47.6366 84.5955 48.457 82.9026 49.5028C77.7026 52.7269 74.0221 57.9096 71.0696 63.2715C72.4389 57.5572 75.7959 52.3455 80.4297 48.7344C85.2716 44.9614 91.2459 43.0201 97.0584 41.044C99.7104 40.1427 102.692 38.8947 103.547 36.2253C102.016 34.6075 100.427 32.8915 99.8491 30.7363C99.5255 29.523 99.5429 28.2519 99.5833 26.9981C99.8087 20.0184 100.618 13.0619 101.998 6.22087C101.554 6.41154 101.114 6.59643 100.67 6.7871C100.017 4.73596 102.033 2.68482 104.136 2.21104C106.239 1.73725 108.429 2.2457 110.579 2.17059C108.863 3.71906 106.759 4.82841 104.518 5.37153" fill="#161928"/>
<path d="M96.261 80.5819C96.5788 80.605 96.9255 80.657 97.1277 80.8997C97.4397 81.2752 97.1797 81.8934 96.7521 82.1246C96.3246 82.3615 95.8046 82.3326 95.3192 82.3268C94.129 82.3152 92.9388 82.4712 91.7947 82.7832C91.1245 82.9681 90.4138 83.2455 90.044 83.8348C89.7147 84.3548 89.7147 85.0135 89.7147 85.6259C89.7494 93.9692 88.5418 102.312 86.1382 110.303C84.9942 114.117 83.5786 117.843 82.5906 121.697C81.851 124.586 81.3484 127.533 80.9844 130.491C80.8573 131.543 80.499 132.86 79.4475 132.999C78.7888 133.085 78.1648 132.583 77.9048 131.976C77.6448 131.363 77.6794 130.67 77.7661 130.017C77.9105 128.919 78.1994 127.845 78.4883 126.776C80.2737 120.102 82.0648 113.429 83.8502 106.756C85.1906 101.746 86.5369 96.7079 86.9876 91.5483C87.1898 89.2313 87.2533 86.8797 86.9876 84.5686C86.8373 83.2224 86.2364 81.3388 86.716 80.0099C87.2707 78.4556 88.8134 78.7734 90.0614 79.357C92.2223 80.3623 93.9152 80.4143 96.2668 80.5819H96.261Z" fill="#161928"/>
<path d="M101.109 131.046C100.924 132.161 100.704 133.328 99.9877 134.206C99.4388 134.882 98.653 135.31 97.9077 135.755C96.7001 136.471 95.5445 137.263 94.3947 138.077C93.0947 138.996 91.76 139.996 91.0609 141.423C90.4831 142.601 90.3965 143.948 90.3387 145.259C89.9689 153.678 90.4022 162.125 91.6329 170.457C90.3444 166.002 89.4893 161.42 89.0849 156.803C88.6689 152.106 88.7151 147.339 87.6578 142.746C87.392 141.596 87.0569 140.446 87.0684 139.268C87.0684 139.06 87.0915 138.834 87.2302 138.684C87.3689 138.54 87.5826 138.505 87.7791 138.47C89.3449 138.181 90.7316 137.303 92.072 136.442C94.4583 134.911 96.8503 133.386 99.2366 131.855C99.5659 131.647 99.9068 131.421 100.115 131.092C100.305 130.791 100.375 130.433 100.438 130.081L101.473 124.407C101.692 123.194 101.652 120.738 102.651 119.906C102.79 123.402 101.785 127.585 101.103 131.046H101.109Z" fill="#161928"/>
<path d="M113.878 145.017C114.75 144.907 115.952 145.097 116.027 145.976C116.108 146.889 114.906 147.235 114.086 147.651C111.832 148.79 111.699 151.898 111.85 154.423C112.693 168.81 112.318 183.237 111.936 197.641C111.873 200.143 111.803 202.651 111.595 205.141C110.573 217.286 106.135 229.223 107.32 241.351C107.539 243.61 108.643 246.441 110.908 246.331C109.406 247.718 109.29 250.047 109.585 252.069C109.879 254.091 110.48 256.148 110.03 258.141C109.579 260.135 107.528 261.972 105.61 261.267C106.083 255.928 106.551 250.59 107.025 245.251C107.083 244.621 107.118 243.928 106.725 243.431C106.257 242.842 105.384 242.795 104.749 242.385C103.691 241.698 103.558 240.23 103.558 238.97C103.524 219.158 108.077 199.525 107.661 179.718C107.487 171.566 106.476 163.46 105.465 155.365C105.067 152.198 104.593 148.836 102.53 146.403C103.934 148.062 112.139 145.23 113.878 145.017Z" fill="#161928"/>
<path d="M132.465 144.67C132.136 147.414 134.291 149.893 134.418 152.649C134.562 155.844 131.985 159.063 133.234 162.004C135.03 158.15 136.122 153.967 136.44 149.726C136.718 151.135 136.683 152.603 136.336 154.001C140.086 150.927 142.519 146.305 142.935 141.475C142.992 140.787 143.015 140.094 142.888 139.418C142.715 138.476 142.264 137.615 141.854 136.754C133.99 120.247 138.746 100.336 133.32 82.8757C130.506 90.4447 131.379 98.8457 132.783 106.796C133.996 113.683 138.873 127.787 133.297 133.53C132.523 134.328 129.056 136.044 129.605 137.199C130.252 138.574 133.65 136.818 134.349 138.8C134.892 140.337 132.661 143.087 132.471 144.67H132.465Z" fill="#161928"/>
<path d="M82.2266 67.3855C82.2266 67.3855 82.2381 67.4202 82.2439 67.4375C82.2439 67.4375 82.2439 67.4491 82.2497 67.4606C82.267 67.4722 82.2843 67.4779 82.2959 67.4953C82.3537 67.4837 82.4288 67.3913 82.2266 67.3855Z" fill="#161928"/>
<path d="M234.647 234.481C230.521 235.481 226.199 235.406 221.982 235.59C218.763 235.729 215.591 236.359 212.379 236.469C211.674 236.492 210.934 236.498 210.206 236.428C210.374 236.278 210.512 236.105 210.616 235.908C210.715 235.712 210.755 235.504 210.738 235.284C210.726 235.128 210.645 235.036 210.501 234.978C209.305 234.475 208.063 234.828 207.184 235.752C207.051 235.891 207.075 236.128 207.248 236.226C207.531 236.388 207.826 236.515 208.132 236.625C207.912 236.677 207.716 236.717 207.583 236.752C205.711 237.174 203.775 237.312 201.863 237.41C198.362 237.595 194.854 237.52 191.347 237.514C183.437 237.503 175.528 237.393 167.618 237.341C159.754 237.289 151.885 237.347 144.015 237.237C140.127 237.185 136.232 236.914 132.338 236.994C130.426 237.035 128.502 237.116 126.595 236.954C124.821 236.804 123.065 236.457 121.285 236.422C120.615 236.411 119.939 236.446 119.274 236.532C119.54 236.006 119.771 235.463 120.014 234.926C120.308 234.262 120.667 233.632 120.99 232.979C121.747 231.465 122.469 229.934 123.059 228.339C123.359 227.53 123.631 226.704 123.816 225.861C123.995 225.023 124.105 224.168 124.18 223.312C124.341 221.573 124.376 219.828 124.538 218.089C124.705 216.258 124.96 214.432 125.266 212.618C125.572 210.803 125.982 209.007 126.335 207.198C126.52 206.262 126.687 205.326 126.814 204.378C126.855 204.049 126.895 203.714 126.901 203.379C126.901 203.234 126.901 203.073 126.866 202.928C126.97 202.969 127.074 202.998 127.178 203.026C128.432 203.35 129.732 203.107 131.003 203.2C132.09 203.281 133.164 203.31 134.25 203.217C135.279 203.125 136.267 202.917 137.261 202.645C137.295 202.634 137.336 202.628 137.371 202.616C137.711 202.628 138.052 202.639 138.393 202.639C139.243 202.639 140.109 202.616 140.935 202.385C141.71 202.166 142.443 201.755 143.131 201.339C143.876 200.894 144.604 200.421 145.367 199.999C146.892 199.149 148.476 198.416 150.053 197.676C151.624 196.937 153.167 196.157 154.675 195.296C155.865 194.62 157.154 194.013 158.009 192.898C159.043 191.546 159.037 189.859 158.939 188.235C158.835 186.438 158.91 184.641 158.899 182.844C158.887 181.019 158.801 179.187 158.489 177.384C158.35 176.593 158.148 175.818 158.044 175.021C157.94 174.253 157.882 173.478 157.818 172.71C157.691 171.162 157.558 169.578 157.033 168.105C157.033 168.093 157.021 168.082 157.021 168.07C157.027 168.053 157.038 168.041 157.044 168.018C157.131 167.527 157.015 167.036 156.9 166.562C156.807 166.181 156.721 165.8 156.64 165.413C156.489 164.685 156.322 163.962 156.027 163.281C155.744 162.628 155.299 162.009 154.641 161.703C154.225 161.507 153.785 161.443 153.335 161.512C153.156 161.541 152.977 161.582 152.803 161.634C152.925 161.484 153.023 161.304 153.081 161.085C153.248 160.432 153.121 159.71 152.971 159.063C152.809 158.364 152.572 157.682 152.318 157.012C152.035 156.266 151.752 155.527 151.434 154.799C151.151 154.163 150.85 153.516 150.452 152.944C150.278 152.69 150.088 152.447 149.926 152.187C149.776 151.95 149.596 151.713 149.539 151.436C149.539 151.424 149.527 151.413 149.527 151.401C150.33 150.107 151.029 148.738 151.775 147.415C152.092 146.854 152.353 146.288 152.358 145.629C152.358 145.051 152.179 144.497 152.006 143.948C151.798 143.289 151.636 142.625 151.52 141.943C151.393 141.209 151.301 140.464 151.133 139.742C150.96 138.985 150.775 138.245 150.642 137.482C150.515 136.754 150.4 136.021 150.168 135.321C150.157 135.293 150.14 135.275 150.128 135.252C150.556 134.986 150.983 134.692 151.318 134.316C151.671 133.917 151.838 133.478 151.856 132.953C151.879 132.248 151.694 131.543 151.503 130.867C151.307 130.179 151.128 129.492 150.977 128.798C150.654 127.331 150.4 125.852 150.226 124.355C150.047 122.847 150.001 121.339 149.868 119.831C149.735 118.294 149.452 116.78 149.336 115.243C149.279 114.492 149.238 113.735 149.152 112.984C149.065 112.25 148.92 111.528 148.764 110.806C148.452 109.356 148.117 107.911 147.84 106.455C147.568 105.005 147.366 103.549 147.308 102.07C147.245 100.475 147.28 98.8805 147.274 97.2858C147.274 95.7258 147.228 94.1715 147.072 92.6231C146.996 91.8835 146.904 91.1439 146.794 90.4101C146.713 89.8786 146.54 89.4163 146.355 88.9079C146.263 88.6594 146.199 88.411 146.13 88.1568C146.13 88.151 146.13 88.1394 146.13 88.1337C146.234 88.0354 146.28 87.8679 146.153 87.735C146.13 87.7119 146.112 87.683 146.089 87.6541C146.095 87.6194 146.101 87.579 146.118 87.5385C146.17 87.3941 145.997 87.2959 145.881 87.3537C145.558 86.7701 145.558 86.0652 145.639 85.4007C145.685 84.9847 145.754 84.5745 145.8 84.1585C145.847 83.702 145.829 83.2571 145.783 82.8065C145.679 81.7087 145.46 80.6282 145.269 79.542C145.072 78.4557 144.94 77.3695 144.911 76.2659C144.847 74.0761 145.038 71.8748 144.824 69.6965C144.778 69.2401 144.72 68.8356 144.541 68.4138C144.396 68.0729 144.188 67.7089 144.154 67.3334C144.119 66.9867 144.46 66.8365 144.691 66.64C145.009 66.3742 145.13 65.9929 145.194 65.5942C145.517 63.5604 145.015 61.5902 144.61 59.6084C144.391 58.5221 144.269 57.4359 144.24 56.3265C144.212 55.2692 144.235 54.2118 144.235 53.1545C144.235 52.2243 144.229 51.2594 143.969 50.358C143.853 49.9651 143.668 49.526 143.299 49.3122C142.871 49.0638 142.38 49.2544 142.016 49.5202C141.363 49.994 141.12 50.7451 140.803 51.4558C140.612 51.8891 140.381 52.3051 140.196 52.7385C139.994 53.2007 139.791 53.6629 139.549 54.1021C139.277 54.599 138.959 55.0727 138.63 55.5407C138.642 55.5061 138.659 55.4656 138.671 55.431C138.948 54.6394 139.208 53.8421 139.462 53.0447C139.687 52.334 139.913 51.6349 140.242 50.9647C140.392 50.6642 140.566 50.3407 140.693 50.0056C141.028 49.8149 141.236 49.4047 141.38 49.0811C141.461 48.9078 141.363 48.746 141.172 48.7229C140.918 48.694 140.675 48.7402 140.433 48.7633C140.415 48.7633 140.392 48.7633 140.375 48.7633C140.3 48.7691 140.219 48.7749 140.138 48.7749C139.711 48.7749 139.312 48.5322 138.942 48.3358C138.139 47.8966 137.342 47.4517 136.55 47.0068C134.88 46.0708 133.141 45.2735 131.431 44.4126C130.489 43.9388 129.553 43.4419 128.629 42.9277C128.45 42.6215 128.207 42.3499 127.97 42.1072C127.565 41.6912 127.103 41.333 126.693 40.9228C125.503 39.7267 124.457 38.4094 123.059 37.4445C122.666 37.1729 122.175 36.8551 121.672 36.9418C121.539 36.9649 121.424 37.0227 121.32 37.092C121.1 36.7049 120.817 36.3814 120.563 36.0174C120.291 35.6302 120.02 35.2431 119.69 34.9022C119.419 34.6191 119.072 34.3187 118.662 34.2956C118.61 34.2956 118.564 34.2956 118.517 34.3013C119.072 31.6493 120.204 29.0377 119.956 26.2874C119.904 25.7328 119.788 25.1896 119.609 24.6639C119.939 24.7679 120.28 24.8256 120.621 24.8025C121.158 24.7679 121.666 24.5656 122.1 24.2536C123.053 23.5603 123.677 22.4972 124.128 21.4283C124.538 20.446 124.809 19.3887 124.925 18.3313C124.983 17.7998 124.989 17.222 124.757 16.7251C124.521 16.2166 123.995 15.9393 123.44 15.9566C123.105 15.9682 122.799 16.0722 122.527 16.2397C123.007 15.6966 123.538 15.1997 123.821 14.5122C124.203 13.5877 124.133 12.5015 123.96 11.5366C123.775 10.4966 123.405 9.50276 123.221 8.46274C123.03 7.37651 122.88 6.23827 122.267 5.2907C122.163 5.12892 121.955 5.1347 121.84 5.27914C121.73 4.86892 121.574 4.47602 121.349 4.10624C120.62 2.91022 119.401 2.13021 118.205 1.47153C117.5 1.08442 116.784 0.6973 116.021 0.448852C115.184 0.171514 114.3 0.0501792 113.421 0.0155121C112.526 -0.0249329 111.63 0.02129 110.735 0.0675129C109.874 0.113736 109.007 0.136848 108.146 0.177293C106.627 0.246627 105.084 0.408407 103.662 0.991971C102.42 1.50042 101.334 2.27466 100.363 3.19911C99.4331 4.0889 98.5722 5.09425 97.9309 6.20938C97.3762 7.18006 96.9139 8.38763 97.2375 9.50854C97.3126 9.76276 97.4282 10.0054 97.5784 10.2308C97.6477 10.3348 97.7517 10.3752 97.8731 10.3521C99.0229 10.121 99.7393 9.03475 100.34 8.12763C100.467 7.93696 100.589 7.74051 100.722 7.54984C100.369 8.4743 100.028 9.39876 99.7393 10.3463C99.4851 11.1957 99.2887 12.0566 99.1846 12.9406C99.0691 13.8824 99.0922 14.8357 99.098 15.7833C99.1038 16.7366 99.0691 17.6784 98.942 18.626C98.8091 19.5736 98.6473 20.5211 98.5433 21.4687C98.3353 23.3927 98.5722 25.311 98.6589 27.235C98.6762 27.6857 98.6993 28.1479 98.6762 28.5986C98.6531 29.0377 98.5838 29.4768 98.5549 29.9159C98.5029 30.6671 98.6126 31.3662 99.1153 31.9497C99.5486 32.4582 100.15 32.7991 100.652 33.2324C101.132 33.6484 101.658 34.0182 102.201 34.3418C102.108 34.3591 102.027 34.4573 102.085 34.5671C102.362 35.0698 102.495 35.6245 102.651 36.1676C102.42 35.9538 102.172 35.7574 101.889 35.6129C101.721 35.5262 101.53 35.6014 101.473 35.7805C101.386 36.0636 101.334 36.3525 101.317 36.6356C101.282 36.6356 101.253 36.6356 101.218 36.6414C100.681 36.7454 100.213 37.1036 99.8029 37.4503C99.3233 37.8605 98.8958 38.3227 98.4566 38.7734C98.0753 39.1663 97.6824 39.5187 97.226 39.825C96.7117 40.1659 96.1686 40.4779 95.6717 40.8476C95.3193 41.1077 94.9668 41.4023 94.6895 41.749C94.6432 41.7317 94.5855 41.7432 94.545 41.7952C94.2792 42.0957 93.817 42.1708 93.4415 42.2343C93.0081 42.3094 92.569 42.3441 92.1357 42.4019C91.5694 42.4828 91.009 42.6446 90.4601 42.7948C89.7956 42.9739 89.1369 43.1703 88.4783 43.3841C87.2707 43.7828 86.0689 44.2277 84.8787 44.6668C84.2778 44.8864 83.6826 45.1175 83.1106 45.4006C82.764 45.5682 82.4288 45.7877 82.244 46.1286C82.1111 45.7819 81.8915 45.3659 81.4928 45.3428C80.9266 45.3082 80.5222 46.0651 80.3719 46.5099C80.1986 47.0242 80.1639 47.5846 79.9328 48.0815C79.6555 48.6766 79.2799 49.2255 78.9044 49.7629C78.2572 50.6873 77.4483 51.6002 76.4199 52.1087C76.0096 52.3109 75.5705 52.4958 75.247 52.8309C74.9118 53.1718 74.779 53.6398 74.7096 54.1078C74.6865 54.2812 74.6634 54.4603 74.5941 54.6221C74.4901 54.8705 74.2878 55.0612 74.0856 55.2287C73.6407 55.5985 73.1323 55.8932 72.6527 56.2168C72.1443 56.5634 71.4971 56.9852 71.266 57.5803C71.0869 58.0426 71.3469 58.4297 71.7109 58.707C72.1443 59.0364 72.6354 59.3021 73.1034 59.5852C73.4443 59.7933 73.8776 60.0301 74.1434 60.3653C73.2247 60.3364 72.3927 59.9377 71.526 59.6141C71.1158 59.4581 70.6709 59.3715 70.2318 59.4235C69.7927 59.4755 69.3824 59.643 68.9838 59.8337C68.1171 60.2497 67.2735 60.7524 66.5513 61.3879C66.2451 61.6537 65.9793 61.9599 65.6788 62.2315C65.3899 62.4915 65.0837 62.7342 64.7833 62.9884C64.1708 63.5026 63.4255 64.092 63.1886 64.8835C63.1481 65.0107 63.2348 65.2013 63.3792 65.2187C64.2748 65.3458 65.153 64.8835 65.9793 64.6062C66.4011 64.4618 66.846 64.3289 67.2966 64.3346C67.5971 64.3346 67.8571 64.4329 68.0824 64.5947C67.0077 65.0049 65.8522 65.1782 64.7197 65.3573C63.5352 65.5422 62.3797 65.7676 61.253 66.1836C59.7219 66.7498 58.0289 67.4258 56.9485 68.7027C56.3245 69.4307 56.0298 70.309 56.1627 71.2623C56.18 71.3721 56.2667 71.4299 56.3707 71.4472C56.1627 71.6321 55.9662 71.8343 55.816 72.0654C55.5214 72.5161 55.4116 73.0361 55.3422 73.5619C55.2613 74.2148 55.2094 74.8735 55.1573 75.5264C55.0476 76.9477 54.984 78.3749 55.1458 79.7962C55.244 80.686 55.4982 81.5816 56.3534 82.0207C56.8791 82.2865 57.4743 82.3616 58.0636 82.402C58.8032 83.3843 60.213 83.6847 61.3512 83.8985C61.9694 84.014 62.5992 84.1007 63.2175 84.2394C64.1708 84.4647 65.1299 84.6612 66.0948 84.8345C68.0766 85.187 70.1567 85.8341 72.1731 85.3718C73.1092 85.1581 73.9874 84.7536 74.8656 84.3723C75.7381 83.9909 76.6279 83.6674 77.5408 83.3958C79.3377 82.8585 81.1808 82.4425 82.9258 81.7376C83.544 81.4891 84.1333 81.1945 84.7169 80.8767C84.7689 83.5287 85.1964 86.175 84.948 88.827C84.8151 90.2599 84.5378 91.6697 84.5378 93.1142C84.5378 94.5702 84.5378 96.032 84.4511 97.488C84.3644 99.0596 84.0929 100.602 83.6422 102.11C83.5729 101.868 83.1453 101.833 83.0933 102.122C82.9489 102.96 82.6484 103.751 82.3422 104.543C82.0244 105.352 81.7586 106.149 81.5911 107.004C81.2386 108.772 80.6377 110.477 80.2564 112.239C79.8808 113.978 79.2973 115.665 78.7195 117.347C78.1417 119.016 77.483 120.721 77.2346 122.477C77.1074 123.361 77.0728 124.251 76.9803 125.135C76.8879 126.065 76.6799 126.972 76.443 127.874C76.2177 128.723 75.975 129.572 75.8132 130.439C75.7034 131.04 75.6514 131.67 75.8768 132.248C76.2928 133.322 77.4137 133.819 78.4132 134.218C80.0137 134.853 81.7124 135.16 83.3822 135.57C83.9484 135.709 84.5147 135.83 85.0867 135.934C85 136.061 84.9364 136.194 84.8902 136.338C84.7573 136.754 84.7284 137.211 84.7284 137.644C84.7169 138.834 84.9133 140.036 85.1156 141.209C85.312 142.336 85.5547 143.457 85.7973 144.578C86.0631 145.82 86.196 147.062 86.3 148.327C86.4791 150.546 86.5831 152.771 86.9067 154.972C87.2303 157.156 87.8254 159.294 88.4494 161.408C89.0676 163.494 89.7378 165.563 90.3099 167.66C90.5987 168.723 90.8067 169.769 90.9223 170.861C90.9801 171.393 91.0263 171.93 91.0956 172.462C91.165 173.01 91.2805 173.554 91.3499 174.102C91.4828 175.148 91.3903 176.2 91.3614 177.246C91.3325 178.187 91.321 179.141 91.7774 179.99C92.1241 180.631 92.8001 181.348 92.6037 182.134C92.4997 182.55 92.3263 182.925 92.3437 183.364C92.361 183.803 92.5054 184.219 92.621 184.635C92.5574 184.687 92.517 184.768 92.5228 184.878C92.5574 188.154 93.6899 191.286 94.181 194.498C94.3024 195.307 94.4121 196.105 94.5855 196.902C94.7704 197.745 94.9899 198.583 95.1401 199.433C95.4406 201.114 95.3539 202.842 95.3944 204.546C95.429 206.152 95.741 207.66 96.2379 209.18C96.729 210.676 97.3242 212.138 97.7171 213.669C98.1273 215.264 98.3006 216.928 98.3411 218.575C98.37 219.84 98.162 221.088 98.1793 222.353C98.1851 222.937 98.2255 223.601 98.6069 224.075C98.7051 224.197 98.8149 224.312 98.9362 224.416C98.6357 224.884 98.5606 225.549 98.5317 226.057C98.4624 227.189 98.6126 228.333 98.786 229.449C98.8611 229.945 98.9535 230.442 99.046 230.939C99.0171 230.916 98.9882 230.893 98.9593 230.876C98.734 230.714 98.526 231.084 98.7397 231.245C98.8958 231.361 99.098 231.511 98.9882 231.708C98.8842 231.904 98.474 231.997 98.2891 232.054C97.5091 232.297 96.6828 232.395 95.8739 232.482C93.5859 232.713 91.2748 232.719 88.9809 232.748C85.1213 232.8 81.2675 232.985 77.4194 233.17C78.4941 233.089 79.5688 232.996 80.6377 232.875C82.2902 232.69 83.9369 232.459 85.5836 232.239C87.1956 232.02 88.8134 231.754 90.437 231.644C92.7539 231.488 95.1864 231.841 97.4397 231.159C97.902 231.02 98.3469 230.824 98.7455 230.552C99.0633 230.333 98.7629 229.807 98.4393 230.026C97.5091 230.673 96.3304 230.841 95.2268 230.928C94.025 231.02 92.8174 230.997 91.6099 231.014C90.2347 231.032 88.8769 231.217 87.5134 231.396C85.8262 231.615 84.1449 231.858 82.4577 232.072C75.6745 232.944 68.874 232.921 62.0503 232.875C58.6472 232.852 55.2556 232.892 51.8582 233.06C48.4781 233.222 45.0981 233.453 41.718 233.562C38.2744 233.678 34.8308 233.638 31.3872 233.742C27.9725 233.846 24.5636 234.002 21.1489 234.082C17.763 234.163 14.3714 234.192 10.9798 234.192C8.03312 234.192 5.03441 233.724 2.09348 234.042C1.46369 234.111 0.84546 234.221 0.238784 234.406C-0.119443 234.516 -0.0616636 235.07 0.325453 235.065C7.79623 235.013 15.267 235.053 22.7378 235.059C30.1739 235.059 37.6042 234.851 45.0403 234.631C48.7439 234.522 52.4475 234.418 56.1569 234.348C59.8663 234.279 63.5757 234.319 67.2851 234.233C74.6576 234.059 82.0128 233.516 89.3912 233.331C91.6792 233.274 93.9846 233.245 96.2611 232.956C96.7695 232.892 98.682 232.742 99.306 232.095C99.5891 233.331 99.9358 234.556 100.369 235.741C100.883 237.15 101.548 238.728 102.75 239.698C102.859 239.785 102.986 239.814 103.108 239.745C103.212 239.687 103.298 239.623 103.379 239.542C103.368 239.681 103.356 239.826 103.345 239.964C103.298 240.692 103.264 241.426 103.241 242.16C103.223 242.801 103.177 243.466 103.275 244.101C103.426 245.026 104.015 245.667 104.714 246.233C104.974 246.441 105.228 246.649 105.488 246.863C105.488 246.88 105.5 246.892 105.506 246.909C105.558 247.1 105.558 247.175 105.575 247.348C105.621 247.851 105.621 248.36 105.615 248.862C105.604 250.11 105.529 251.364 105.425 252.606C105.384 253.115 105.338 253.629 105.28 254.137C105.269 254.23 105.257 254.316 105.246 254.409C105.246 254.426 105.246 254.444 105.24 254.455C105.24 254.455 105.24 254.455 105.24 254.467C105.24 254.507 105.228 254.548 105.223 254.588C105.171 254.929 105.078 255.264 104.98 255.593C104.662 256.633 104.194 257.621 103.876 258.661C103.738 259.112 103.564 259.528 103.368 259.956C103.189 260.343 103.004 260.736 102.911 261.152C102.553 262.839 104.113 263.989 105.5 264.526C106.956 265.086 108.579 265.214 110.128 265.173C111.78 265.133 113.404 264.826 115.004 264.428C115.975 264.185 116.957 263.885 117.853 263.434C118.471 263.122 118.668 262.486 118.772 261.845C118.922 260.938 118.876 260.013 118.829 259.095C118.772 258.003 118.633 256.922 118.454 255.848C118.09 253.739 117.564 251.647 117.385 249.509C117.362 249.249 117.344 248.984 117.333 248.723C117.333 248.66 117.321 248.602 117.316 248.544C117.408 248.492 117.5 248.44 117.593 248.377C118.535 247.695 118.494 246.47 118.465 245.419C118.448 244.904 118.419 244.384 118.465 243.87C118.506 243.506 118.569 243.142 118.627 242.778C118.824 241.594 119.332 239.433 117.928 238.762C117.83 238.716 117.726 238.682 117.622 238.653C118.228 238.242 118.696 237.659 119.078 237.018C120.84 236.827 122.631 237.081 124.382 237.301C126.231 237.532 128.051 237.67 129.917 237.659C131.916 237.642 133.915 237.549 135.909 237.618C137.873 237.688 139.838 237.774 141.802 237.821C149.851 238 157.905 237.873 165.954 237.965C174.014 238.058 182.08 238.167 190.14 238.19C193.924 238.202 197.714 238.289 201.499 238.11C203.487 238.017 205.497 237.878 207.45 237.486C208.016 237.37 208.773 237.226 209.426 236.948C210.079 237.064 210.744 237.11 211.391 237.122C213.06 237.162 214.73 236.983 216.389 236.786C217.954 236.596 219.514 236.388 221.092 236.301C223.264 236.186 225.442 236.157 227.615 236.041C230.059 235.908 232.468 235.614 234.831 234.961C235.132 234.874 235.005 234.418 234.704 234.493L234.647 234.481ZM67.5971 233.545C64.0206 233.62 60.4383 233.591 56.856 233.655C54.1115 233.701 51.3613 233.77 48.6168 233.846C52.4533 233.638 56.2898 233.43 60.1321 233.441C63.7721 233.453 67.418 233.505 71.058 233.441C69.9024 233.482 68.7469 233.522 67.5913 233.545H67.5971ZM138.214 201.692C137.428 201.963 136.608 202.189 135.793 202.35C135.718 202.35 135.649 202.35 135.574 202.356C135.533 202.356 135.51 202.379 135.499 202.408C134.424 202.599 133.326 202.662 132.234 202.634C131.483 202.616 130.738 202.535 129.986 202.547C129.322 202.558 128.658 202.582 127.999 202.518C127.467 202.466 126.861 202.345 126.502 201.969C126.364 201.819 126.271 201.599 126.248 201.368C126.196 200.831 126.242 200.276 126.294 199.745C126.404 198.612 126.629 197.491 126.768 196.365C126.913 195.186 126.936 193.996 127.057 192.811C127.184 191.638 127.352 190.477 127.531 189.31C127.895 186.941 128.294 184.583 128.525 182.197C128.756 179.782 129.131 177.384 129.518 174.992C129.906 172.618 130.287 170.249 130.576 167.862C130.674 167.077 130.83 166.273 131.2 165.563C131.558 164.869 132.084 164.297 132.667 163.789C133.06 163.442 133.47 163.136 133.95 162.928C134.406 162.726 134.898 162.616 135.383 162.501C135.712 162.42 136.047 162.344 136.371 162.24C136.747 162.31 137.209 162.079 137.521 161.853C137.769 161.674 138 161.478 138.226 161.27C138.971 160.756 139.705 160.207 140.531 159.843C140.97 159.646 141.45 159.508 141.935 159.508C142.386 159.508 142.819 159.652 143.223 159.825C143.726 160.039 144.217 160.305 144.743 160.455C144.743 160.582 144.726 160.698 144.685 160.796C143.449 161.102 142.247 161.53 141.074 162.015C140.912 162.085 140.751 162.154 140.589 162.217C139.815 162.345 139.063 162.529 138.312 162.766C137.319 163.078 136.319 163.5 135.556 164.228C135.175 164.592 134.863 165.037 134.638 165.517C134.343 166.146 134.204 166.834 134.054 167.504C133.696 169.099 133.442 170.711 133.228 172.329C133.014 173.946 132.846 175.57 132.679 177.194C132.598 178.014 132.517 178.84 132.43 179.661C132.407 179.903 132.384 180.019 132.35 180.273C132.234 181.088 132.124 181.908 132.038 182.729C131.951 183.572 131.864 184.427 131.905 185.271C131.922 185.664 131.974 186.531 132.546 186.513C133.083 186.502 133.176 185.629 133.234 185.248C133.465 183.665 133.43 182.047 133.436 180.452C133.442 179.343 133.546 178.228 133.673 177.124C133.765 176.286 133.881 175.449 134.014 174.617C134.141 173.825 134.308 173.039 134.43 172.248C134.655 170.763 134.724 169.255 134.996 167.776C135.111 167.169 135.221 166.481 135.533 165.938C135.787 165.499 136.175 165.129 136.579 164.829C137.486 164.153 138.543 163.673 139.572 163.211C140.115 162.969 140.664 162.732 141.213 162.501C141.75 162.414 142.282 162.327 142.807 162.194C143.443 162.033 144.212 161.819 144.674 161.31C144.934 161.241 145.188 161.177 145.448 161.12C145.512 161.108 145.552 161.073 145.581 161.033C145.737 161.495 145.899 161.957 146.06 162.414C146.188 162.766 146.309 163.125 146.453 163.471C146.292 163.46 146.153 163.413 145.991 163.361C145.044 163.038 144.096 163.829 143.541 164.523C142.963 165.239 142.605 166.094 142.357 166.973C142.108 167.845 141.964 168.741 141.808 169.63C141.715 170.162 141.635 170.688 141.617 171.231C141.594 171.809 141.606 172.392 141.565 172.976C141.525 173.536 141.421 174.091 141.34 174.646C141.253 175.252 141.224 175.853 141.219 176.466C141.213 177.667 141.213 178.869 141.219 180.071C141.224 182.515 141.282 184.953 141.311 187.397C141.328 188.593 141.34 189.778 141.409 190.974C141.444 191.563 141.467 192.152 141.421 192.742C141.375 193.331 141.288 193.921 141.195 194.504C141.011 195.625 140.785 196.74 140.589 197.867C140.45 198.67 140.306 199.508 139.965 200.253C139.809 200.588 139.618 200.929 139.318 201.16C138.988 201.414 138.584 201.565 138.203 201.698L138.214 201.692ZM146.257 152.898C146.28 153.319 146.367 153.735 146.448 154.151C146.65 155.226 146.569 156.336 146.708 157.422C146.921 159.109 147.805 160.675 147.857 162.391C147.863 162.651 147.857 162.922 147.782 163.182C147.603 163.24 147.43 163.304 147.251 163.356C147.193 163.373 147.129 163.385 147.072 163.402C146.991 163.229 146.933 163.049 146.869 162.882C146.679 162.344 146.482 161.807 146.297 161.27C145.91 160.149 145.627 159.005 145.309 157.867C144.997 156.728 144.68 155.579 144.477 154.411C144.408 154.007 144.42 153.62 144.466 153.233C144.628 153.256 144.824 153.163 144.801 152.973C144.801 152.95 144.789 152.927 144.789 152.903C144.743 152.591 144.795 152.256 144.853 151.95C144.922 151.54 145.026 151.135 145.136 150.731C145.263 150.269 145.402 149.812 145.546 149.35C145.668 149.477 145.777 149.61 145.887 149.731C146.032 149.893 146.182 150.061 146.338 150.217C146.361 150.24 146.39 150.251 146.419 150.257C146.488 150.54 146.517 150.835 146.528 151.153C146.534 151.395 146.54 151.638 146.552 151.881C146.54 151.892 146.528 151.892 146.517 151.904C146.268 152.17 146.245 152.557 146.268 152.903L146.257 152.898ZM148.262 161.27C148.216 161.033 148.158 160.796 148.094 160.559C148.112 160.559 148.129 160.571 148.14 160.571C148.337 160.634 148.533 160.704 148.73 160.773C149.14 160.923 149.55 161.079 149.972 161.206C150.405 161.345 150.856 161.466 151.301 161.507C151.353 161.64 151.405 161.767 151.457 161.9C151.474 161.952 151.509 162.004 151.555 162.044C151.156 162.171 150.752 162.269 150.359 162.391C149.804 162.558 149.256 162.726 148.701 162.876C148.597 162.905 148.493 162.94 148.389 162.969C148.458 162.402 148.372 161.807 148.262 161.258V161.27ZM150.012 160.669C149.62 160.53 149.232 160.38 148.845 160.236C148.66 160.166 148.476 160.097 148.291 160.033C148.164 159.993 148.042 159.947 147.921 159.941C147.788 159.484 147.644 159.034 147.511 158.583C147.372 158.092 147.268 157.601 147.216 157.092C147.147 156.353 147.147 155.613 147.089 154.874C147.06 154.487 146.991 154.117 146.921 153.735C146.962 153.805 147.002 153.874 147.048 153.943C147.158 154.105 147.401 154.169 147.545 154.007C147.638 153.909 147.719 153.805 147.805 153.701C148.054 153.891 148.262 154.163 148.424 154.417C148.701 154.862 148.915 155.348 149.1 155.833C149.261 156.26 149.4 156.694 149.556 157.127C149.822 157.878 150.116 158.618 150.423 159.352C150.648 159.9 150.873 160.449 151.099 160.998C150.729 160.906 150.359 160.784 150.007 160.663L150.012 160.669ZM145.015 160.513C145.153 160.542 145.298 160.553 145.442 160.553C145.442 160.553 145.442 160.559 145.442 160.565C145.448 160.594 145.46 160.617 145.471 160.646C145.431 160.628 145.384 160.623 145.332 160.634C145.223 160.657 145.113 160.686 145.003 160.715C145.015 160.652 145.02 160.582 145.02 160.513H145.015ZM144.373 159.791C143.957 159.6 143.553 159.386 143.125 159.213C142.703 159.045 142.259 158.936 141.808 158.953C141.317 158.97 140.837 159.103 140.387 159.294C140.173 159.386 139.965 159.49 139.757 159.6C140.369 158.849 140.947 158.063 141.531 157.295C142.004 156.671 142.495 156.047 142.917 155.382C143.264 154.833 143.564 154.261 143.905 153.718C143.905 154.192 143.98 154.666 144.061 155.134C144.171 155.746 144.316 156.347 144.466 156.948C144.737 158.005 144.997 159.074 145.309 160.12C144.98 160.056 144.674 159.924 144.368 159.785L144.373 159.791ZM144.425 150.396C144.362 150.806 144.321 151.222 144.252 151.627C144.194 151.944 144.125 152.256 144.056 152.574C143.275 153.522 142.796 154.672 142.074 155.66C141.149 156.925 140.196 158.167 139.214 159.386C138.827 159.866 138.416 160.316 137.971 160.744C137.937 160.767 137.908 160.79 137.873 160.813C137.469 161.091 137.059 161.368 136.602 161.541C136.539 161.564 136.481 161.582 136.417 161.605C136.417 161.605 136.417 161.605 136.417 161.599C136.388 161.53 136.383 161.46 136.359 161.391C136.365 161.368 136.371 161.339 136.383 161.31C136.492 160.964 136.781 160.588 136.995 160.27C137.215 159.952 137.451 159.646 137.654 159.323C138.035 158.722 138.376 158.086 138.723 157.462C139.456 156.133 140.15 154.775 140.797 153.395C141.242 152.447 141.559 151.471 141.941 150.5C142.27 149.662 142.669 148.668 143.634 148.431C144.125 148.31 144.552 148.478 144.922 148.755C144.633 149.246 144.512 149.853 144.425 150.39V150.396ZM138.572 163.125C138.37 163.223 138.168 163.321 137.971 163.425C137.007 163.922 135.995 164.54 135.337 165.424C134.996 165.881 134.84 166.424 134.707 166.973C134.534 167.689 134.43 168.417 134.343 169.151C134.256 169.885 134.187 170.618 134.1 171.352C134.008 172.121 133.858 172.872 133.725 173.629C133.436 175.252 133.216 176.893 133.078 178.54C132.945 180.175 132.997 181.81 132.922 183.451C132.887 184.179 132.852 184.942 132.662 185.647C132.644 185.704 132.627 185.762 132.61 185.814C132.581 185.901 132.604 185.855 132.563 185.93C132.563 185.93 132.558 185.941 132.552 185.947C132.552 185.941 132.552 185.941 132.552 185.941C132.552 185.941 132.552 185.936 132.546 185.918C132.534 185.889 132.529 185.86 132.523 185.837C132.448 185.566 132.448 185.277 132.442 184.971C132.442 184.566 132.459 184.156 132.488 183.751C132.552 182.873 132.656 181.995 132.771 181.117C133.072 178.84 133.234 176.552 133.482 174.27C133.661 172.658 133.875 171.046 134.158 169.451C134.302 168.654 134.458 167.857 134.643 167.071C134.782 166.458 134.938 165.863 135.262 165.32C135.793 164.425 136.666 163.847 137.613 163.465C137.931 163.338 138.255 163.229 138.584 163.125H138.572ZM157.038 171.716C157.189 173.224 157.241 174.75 157.547 176.24C157.72 177.09 157.899 177.927 157.997 178.788C158.101 179.672 158.153 180.562 158.182 181.458C158.24 183.231 158.182 185.011 158.182 186.785C158.182 188.397 158.587 190.165 157.917 191.702C157.368 192.956 156.201 193.666 155.051 194.302C153.641 195.082 152.243 195.873 150.792 196.584C149.261 197.329 147.713 198.034 146.205 198.826C145.442 199.225 144.691 199.646 143.957 200.103C143.264 200.536 142.588 200.993 141.86 201.368C141.161 201.732 140.392 202.033 139.601 202.108C139.323 202.131 139.046 202.148 138.769 202.171C139.092 202.038 139.399 201.882 139.67 201.68C140.34 201.172 140.664 200.334 140.878 199.548C141.12 198.67 141.242 197.757 141.409 196.861C141.629 195.683 141.86 194.504 141.999 193.314C142.131 192.135 142.027 190.974 141.975 189.795C141.923 188.57 141.947 187.334 141.929 186.103C141.889 183.665 141.854 181.227 141.86 178.783C141.86 178.153 141.866 177.523 141.871 176.893C141.871 176.679 141.871 176.466 141.877 176.252C141.883 176.252 141.877 176.252 141.9 176.298C141.912 176.333 141.929 176.367 141.952 176.431C142.004 176.581 142.039 176.743 142.074 176.899C142.155 177.24 142.23 177.581 142.374 177.898C142.547 178.274 142.871 178.603 143.148 178.898C143.489 179.256 143.865 179.591 144.24 179.909C144.893 180.464 145.564 181.099 146.367 181.423C146.783 181.591 147.222 181.619 147.667 181.591C148.025 181.567 148.377 181.527 148.73 181.481C148.984 181.608 149.232 181.752 149.475 181.897C149.839 182.111 150.238 182.313 150.665 182.324C151.376 182.342 151.804 181.671 152.393 181.388C152.566 181.302 152.572 181.059 152.451 180.932C152.225 180.695 151.908 180.608 151.59 180.591C152.173 180.262 152.693 179.834 153.109 179.279C153.612 178.609 153.901 177.818 154.167 177.032C154.513 176.003 154.791 174.952 155.085 173.906C155.577 172.161 156.172 170.41 156.455 168.608C156.778 169.619 156.923 170.682 157.021 171.734L157.038 171.716ZM149.562 181.325C149.839 181.267 150.111 181.198 150.376 181.111C150.405 181.151 150.452 181.186 150.515 181.203C150.764 181.267 151.076 181.146 151.336 181.134C151.445 181.134 151.561 181.134 151.676 181.146C151.538 181.25 151.399 181.365 151.266 181.481C151.064 181.648 150.862 181.77 150.59 181.741C150.22 181.7 149.885 181.498 149.562 181.319V181.325ZM153.861 162.142C155.345 162.356 155.704 164.28 155.952 165.476C156.021 165.811 156.091 166.146 156.172 166.481C156.206 166.62 156.247 166.765 156.287 166.909C156.12 166.921 155.958 167.053 155.946 167.244C155.848 169.145 155.311 171 154.773 172.82C154.479 173.819 154.213 174.83 153.913 175.83C153.658 176.685 153.404 177.569 152.977 178.355C152.665 178.921 152.249 179.43 151.711 179.799C151.139 180.198 150.475 180.452 149.804 180.626C149.336 180.747 148.863 180.828 148.383 180.88C147.944 180.926 147.459 181.007 147.02 180.92C146.24 180.77 145.627 180.175 145.038 179.684C144.639 179.349 144.246 179.014 143.876 178.644C143.564 178.338 143.183 177.985 142.992 177.586C142.842 177.274 142.784 176.922 142.692 176.587C142.623 176.321 142.553 175.951 142.322 175.778C142.195 175.68 142.039 175.657 141.912 175.749C141.923 175.541 141.935 175.333 141.958 175.125C142.027 174.565 142.137 174.01 142.207 173.455C142.282 172.866 142.287 172.271 142.299 171.682C142.316 170.67 142.49 169.694 142.675 168.7C142.842 167.805 143.039 166.886 143.414 166.054C143.778 165.257 144.356 164.401 145.194 164.043C145.396 163.957 145.581 163.933 145.789 163.997C145.991 164.061 146.17 164.136 146.384 164.153C146.534 164.165 146.684 164.153 146.829 164.13C146.939 164.269 147.077 164.378 147.251 164.419C147.684 164.523 147.996 164.101 148.164 163.76C149.105 163.454 150.059 163.171 151.006 162.893C151.497 162.749 151.983 162.605 152.462 162.425C152.896 162.264 153.387 162.073 153.855 162.136L153.861 162.142ZM149.614 152.846C149.937 153.302 150.226 153.759 150.48 154.255C150.896 155.076 151.237 155.925 151.578 156.775C151.809 157.352 152.035 157.936 152.214 158.537C152.405 159.167 152.578 159.837 152.549 160.501C152.537 160.756 152.497 160.998 152.364 161.206C152.364 161.206 152.358 161.206 152.353 161.206C152.162 161.2 151.971 161.177 151.781 161.148C151.232 159.762 150.608 158.41 150.088 157.012C149.729 156.035 149.423 155.001 148.822 154.14C148.62 153.845 148.377 153.574 148.071 153.406C148.452 152.938 148.805 152.453 149.14 151.944C149.221 152.274 149.406 152.568 149.608 152.851L149.614 152.846ZM150.319 139.25C150.492 139.944 150.648 140.637 150.764 141.342C150.879 142.041 150.995 142.746 151.18 143.428C151.336 143.988 151.555 144.537 151.665 145.109C151.775 145.664 151.694 146.213 151.428 146.715C151.139 147.276 150.81 147.819 150.509 148.374C150.203 148.934 149.891 149.5 149.573 150.055C148.932 151.164 148.233 152.251 147.395 153.221C147.233 152.805 147.204 152.343 147.193 151.904C147.17 151.291 147.21 150.65 147.054 150.055C146.904 149.483 146.557 148.975 146.188 148.518C145.789 148.027 145.321 147.599 144.818 147.224C144.188 146.756 143.403 146.351 142.651 146.796C142.016 147.172 141.646 147.911 141.351 148.559C140.993 149.35 140.722 150.176 140.375 150.974C140.231 151.309 140.075 151.644 139.867 151.944C139.676 152.222 139.283 152.62 138.879 152.615C138.428 152.609 138.255 152.031 138.214 151.667C138.133 150.956 138.347 150.211 138.543 149.541C138.763 148.778 139.035 148.033 139.208 147.253C139.393 146.421 139.549 145.577 139.705 144.739C140.023 143.07 140.346 141.394 140.502 139.701C140.577 138.881 140.612 138.06 140.577 137.24C140.56 136.835 140.444 136.275 140.71 135.922C140.739 135.882 140.779 135.847 140.814 135.813C141.149 135.795 141.484 135.801 141.831 135.841C142.599 135.934 143.356 136.13 144.113 136.309C144.414 136.379 144.714 136.437 145.009 136.535C145.309 136.633 145.598 136.754 145.893 136.858C146.407 137.043 146.944 137.193 147.464 136.968C147.979 136.749 148.36 136.327 148.816 136.015C149.059 135.853 149.308 135.703 149.556 135.558C149.926 136.76 150.007 138.031 150.319 139.245V139.25ZM140.155 49.3122C140.173 49.2833 140.196 49.2602 140.219 49.2429C140.283 49.2429 140.346 49.2313 140.41 49.2255C140.41 49.3584 140.387 49.4913 140.346 49.6242C140.317 49.63 140.294 49.6358 140.288 49.6358C140.254 49.63 140.219 49.6011 140.202 49.578C140.144 49.4971 140.121 49.3758 140.155 49.3122ZM121.418 38.5307C121.505 38.2765 121.533 38.028 121.51 37.7796C121.551 37.7103 121.568 37.6872 121.649 37.6236C121.614 37.6583 121.689 37.5889 121.649 37.6236C121.661 37.612 121.678 37.6005 121.695 37.5947C121.672 37.6063 121.695 37.5889 121.753 37.5774C121.77 37.5774 121.793 37.5774 121.811 37.5774C121.834 37.5774 121.84 37.5774 121.84 37.5774C121.84 37.5774 121.851 37.5774 121.869 37.5832C121.955 37.6005 122.053 37.6352 122.105 37.664C122.36 37.7854 122.591 37.9472 122.816 38.1089C123.486 38.5943 124.087 39.1721 124.659 39.7614C125.208 40.3219 125.722 40.9228 126.289 41.4659C126.71 41.8646 127.161 42.2286 127.56 42.6503C127.849 42.9623 128.276 43.4419 128.184 43.881C128.103 44.2624 127.716 44.3837 127.352 44.4819C126.947 44.5917 126.508 44.6379 126.138 44.8575C125.722 45.1059 125.595 45.5393 125.705 46.0015C125.965 47.0762 127.155 47.5442 127.924 48.2029C128.276 48.5033 128.629 48.8904 128.64 49.3815C128.652 49.9593 128.166 50.4331 127.768 50.7913C127.3 51.2074 126.774 51.5656 126.277 51.9527C125.572 52.4958 124.844 53.0158 124.099 53.5127C122.614 54.5065 121.071 55.4194 119.505 56.2976C118.049 57.1123 116.564 57.8808 115.178 58.8226C113.837 59.7355 112.572 60.7639 111.457 61.9368C110.423 63.0231 109.527 64.2422 108.626 65.444C108.799 64.7044 108.926 63.9533 109.094 63.2137C109.302 62.3008 109.533 61.3937 109.822 60.5097C110.076 59.7297 110.457 59.0017 110.867 58.291C111.283 57.5861 111.734 56.9043 112.156 56.1994C112.578 55.4887 112.965 54.7607 113.381 54.0443C115.056 51.1496 116.905 48.3589 118.454 45.389C119.222 43.9157 119.916 42.3961 120.465 40.8245C120.592 40.4548 120.707 40.085 120.817 39.7094C121.042 39.3396 121.25 38.9525 121.395 38.5481L121.418 38.5307ZM107.534 64.768C107.077 65.7444 106.453 66.6747 106.159 67.7205C105.997 68.304 105.916 69.0378 105.581 69.5809C105.292 68.408 105.28 67.1716 105.176 65.9756C105.032 64.3115 104.928 62.6533 104.911 60.9835C104.887 59.2617 104.991 57.5457 105.015 55.8239C105.026 55.015 104.951 54.2176 104.887 53.4145C104.83 52.7096 104.824 52.0105 105.026 51.3287C105.228 50.6411 105.535 49.9824 105.881 49.3527C106.211 48.7402 106.58 48.1393 107.025 47.602C107.222 47.8677 107.493 48.07 107.898 48.1393C108.308 48.2086 108.724 48.1682 109.134 48.1104C109.591 48.0469 110.053 47.9429 110.48 47.7753C110.492 47.7753 110.503 47.7637 110.509 47.7637C110.48 48.2606 110.463 48.7575 110.44 49.2487C110.388 50.3291 110.319 51.4154 110.203 52.49C109.96 54.6798 109.504 56.8408 109.001 58.9844C108.551 60.9084 108.383 62.9595 107.539 64.768H107.534ZM108.106 64.9067C108.042 65.2013 107.979 65.4902 107.898 65.7791C107.776 66.2125 107.62 66.6342 107.435 67.0445C107.407 67.0849 107.372 67.1311 107.343 67.1716C107.158 67.42 106.973 67.6627 106.835 67.94C106.742 68.1191 106.661 68.304 106.58 68.4832C106.592 68.4312 106.603 68.3792 106.621 68.3271C106.719 67.9285 106.829 67.5471 106.996 67.1716C107.222 66.6747 107.482 66.1951 107.736 65.7098C107.875 65.444 107.996 65.1782 108.111 64.9124L108.106 64.9067ZM106.598 75.6535C106.401 76.4219 106.026 77.1442 105.587 77.8028C105.067 78.5771 104.46 79.3051 103.749 79.9118C103.137 80.4376 102.391 80.9056 101.577 81.0211C101.213 81.0731 100.843 81.0384 100.496 80.9171C100.329 80.8593 100.178 80.7785 100.034 80.6802C100.126 80.478 100.034 80.1833 99.7451 80.1833C99.6411 80.1833 99.5371 80.1833 99.4389 80.1775C99.4215 80.1602 99.4042 80.1429 99.3869 80.1255C99.4851 80.1082 99.5775 80.0851 99.6584 80.0562C100.612 79.7038 101.218 78.8313 101.941 78.1669C102.374 77.7682 102.842 77.4042 103.275 76.9997C103.668 76.6357 104.067 76.2255 104.252 75.717C104.35 75.4513 103.928 75.3415 103.83 75.6015C103.68 75.9944 103.35 76.3179 103.056 76.6011C102.703 76.9419 102.316 77.2482 101.946 77.566C101.282 78.1322 100.733 78.866 100.005 79.3513C99.6873 79.5651 99.3464 79.7038 98.9709 79.7153C98.7282 79.4784 98.4682 79.2589 98.1677 79.0971C98.2371 78.918 98.3642 78.7446 98.4509 78.6117C98.6415 78.3344 98.8611 78.0744 99.0633 77.8086C99.3233 77.4677 99.5775 77.1211 99.8318 76.7686C100.034 76.5028 100.23 76.237 100.427 75.9828C100.6 75.7517 100.768 75.5148 100.941 75.2779C101.132 75.0352 101.322 74.7926 101.525 74.5557C101.675 74.3766 101.426 74.1224 101.265 74.2957C100.531 75.0757 99.9184 75.9713 99.2366 76.7917C98.8726 77.2308 98.4855 77.6584 98.0406 78.0166C97.7286 78.2651 97.3357 78.5251 96.9139 78.5366C96.8562 78.5366 96.7984 78.5366 96.7464 78.5251C96.4575 78.4095 96.105 78.2535 95.9953 77.982C95.9086 77.7624 95.9606 77.4851 96.0704 77.2308C96.6828 75.7748 98.2544 74.9255 98.7686 73.4174C98.9882 72.7761 98.994 72.0365 98.3411 71.661C97.8326 71.3721 97.2202 71.3374 96.6944 71.0832C96.5673 71.0196 96.4402 70.9503 96.3362 70.8521C96.105 70.6441 95.7584 70.985 95.9895 71.1987C96.4864 71.6436 97.1335 71.7419 97.7402 71.9557C97.8557 71.9961 97.9655 72.0481 98.0753 72.1174C98.1504 72.1637 98.2371 72.2503 98.2775 72.3139C98.3353 72.4121 98.3526 72.5103 98.3526 72.6432C98.3526 72.8281 98.3064 73.013 98.2486 73.1863C98.0175 73.9259 97.4628 74.469 96.9602 75.0353C96.4113 75.6593 95.8046 76.3122 95.4926 77.098C95.3655 77.4157 95.3019 77.7682 95.4001 78.1033C95.5157 78.4962 95.8104 78.7446 96.1628 78.9295C96.6019 79.1606 97.0815 79.3051 97.538 79.4958C97.6131 79.5247 97.6766 79.5651 97.746 79.5998C97.8326 79.8655 98.0753 80.0273 98.37 80.1082C97.4571 80.0042 96.5615 79.8251 95.6601 79.6229C95.0361 79.4842 94.3948 79.3629 93.8228 79.0624C93.3028 78.7909 92.9388 78.3517 92.5112 77.9588C92.1068 77.5891 91.6561 77.3291 91.1361 77.1557C90.7836 77.0402 90.4196 76.9939 90.0614 76.9015C89.9458 76.8726 89.8361 76.8322 89.7378 76.7802C89.4721 76.4624 89.2236 76.133 88.9925 75.7864C88.8769 75.4686 88.8018 75.1335 88.744 74.8215C88.4956 73.4521 88.6285 72.0539 88.6227 70.6672C88.7036 70.6845 88.7903 70.6672 88.9001 70.6094C89.0445 70.5285 89.1543 70.3956 89.2352 70.2512C90.385 70.0605 91.5059 69.7369 92.6326 69.4365C93.349 69.2458 94.0712 69.0898 94.7993 68.9512C95.5215 68.8125 96.2322 68.6218 96.9428 68.4369C97.6477 68.252 98.3584 68.0614 99.0749 67.9285C99.7162 67.8129 100.41 67.7031 101.057 67.8072C102.12 67.9747 102.929 68.6969 103.599 69.4885C104.13 70.1241 104.575 70.8405 105.113 71.4761C105.113 71.6205 105.113 71.7708 105.13 71.9268C105.153 72.0943 105.373 72.1925 105.523 72.1521C105.587 72.1348 105.633 72.0943 105.673 72.0539C106.326 72.649 107.083 73.1285 107.776 73.6774C108.423 74.1917 109.151 74.8157 109.342 75.6535C109.423 75.9944 109.365 76.3353 109.296 76.6762C109.221 77.0517 109.123 77.4273 109.019 77.7971C108.77 78.6522 108.458 79.4958 108.002 80.2642C107.649 80.8651 107.141 81.5353 106.43 81.6451C106.372 81.6567 106.297 81.6567 106.216 81.6509C106.216 80.7033 106.419 79.7789 106.621 78.8544C106.846 77.8202 107.043 76.7917 107.071 75.7286C107.077 75.4686 106.684 75.4166 106.615 75.665L106.598 75.6535ZM98.006 78.5598C97.9308 78.6753 97.8615 78.7966 97.8037 78.9238C97.7113 78.8833 97.6188 78.8486 97.5264 78.814C97.6593 78.762 97.7864 78.6984 97.902 78.6291C97.9366 78.606 97.9655 78.5829 98.0002 78.5598H98.006ZM83.8791 75.0006C83.9138 75.1335 83.9484 75.2606 83.9889 75.3935C83.8444 75.1855 83.7115 74.9486 83.6018 74.7117C83.3938 74.2784 83.2204 73.8277 83.0817 73.3712C82.7813 72.4005 82.5791 71.3548 82.6715 70.3321C82.7409 69.5578 83.0471 68.7316 83.856 68.4947C84.0004 68.4543 84.1507 68.4369 84.3009 68.4254C84.3009 68.5467 84.3067 68.6623 84.3298 68.7836C84.3875 69.1187 84.532 69.396 84.7227 69.6329C83.908 70.0432 83.6075 70.9792 83.5382 71.8921C83.4631 72.9263 83.6191 73.9952 83.8849 74.9948L83.8791 75.0006ZM85.0751 70.0721C85.1098 70.0605 85.1387 70.0547 85.1733 70.0432C85.8725 70.5054 86.8662 70.6383 87.6983 70.5054C86.5022 72.1117 87.4209 74.3939 88.4205 75.9539C88.4725 76.0348 88.5303 76.1099 88.5823 76.1908C88.6112 76.2602 88.6343 76.3353 88.6689 76.4046C88.7729 76.6242 88.9116 76.8264 89.0849 76.9997C88.6747 77.1211 88.2703 77.2597 87.86 77.3637C87.3054 77.5082 86.6929 77.6295 86.1209 77.4793C86.1036 77.4793 86.092 77.4677 86.0747 77.462C85.9938 77.3695 85.9187 77.2828 85.8378 77.202C85.5662 76.9188 85.2716 76.6646 84.9769 76.4104C84.7631 76.0002 84.6187 75.5437 84.5089 75.1624C84.2431 74.2726 84.0813 73.3423 84.0755 72.4121C84.0698 71.5916 84.168 70.4014 85.0751 70.0721ZM91.2285 68.2983V68.3098C91.2285 68.3214 91.2112 68.3445 91.2054 68.3503C91.0956 68.4716 90.8819 68.564 90.697 68.5929C90.6796 68.5929 90.6219 68.6045 90.6045 68.6045C90.5467 68.6045 90.4947 68.616 90.437 68.616C90.3041 68.6218 90.177 68.6276 90.0441 68.6334C89.7552 68.6449 89.4663 68.6623 89.1832 68.6912C88.7325 68.7432 88.0738 68.8125 87.8369 69.2689C87.7965 69.3498 87.7849 69.4307 87.7791 69.5116C86.9529 69.4076 86.1151 69.2921 85.3005 69.4481C85.0867 69.2632 84.9191 69.0263 84.8498 68.7258C84.428 66.9289 86.8489 67.1196 87.9352 67.1889C88.0623 67.1947 88.1836 67.2005 88.3107 67.212C88.3223 67.212 88.3223 67.212 88.328 67.212C88.3512 67.212 88.3743 67.2178 88.3974 67.2236C88.4552 67.2351 88.5129 67.2409 88.5707 67.2525C88.8654 67.3102 89.1601 67.3796 89.4547 67.4605C89.9978 67.6107 90.6912 67.7898 91.1014 68.1423C91.1419 68.1769 91.1823 68.2116 91.2112 68.252C91.1823 68.2174 91.2516 68.3387 91.2285 68.2867V68.2983ZM88.1605 74.2899C87.8023 73.4868 87.548 72.5739 87.7214 71.7014C87.7907 71.349 87.9409 71.037 88.1432 70.7539C88.1605 71.9325 88.0565 73.1112 88.1605 74.2841V74.2899ZM87.4151 70.0143C87.0742 70.049 86.7276 70.0316 86.404 69.9623C86.3578 69.9507 86.3058 69.9392 86.2596 69.9276C86.4734 69.9276 86.6871 69.9507 86.8951 69.9623C87.0685 69.9738 87.2418 69.997 87.4151 70.0143ZM104.431 54.9514C104.466 55.8239 104.414 56.7079 104.385 57.5861C104.356 58.3892 104.333 59.1924 104.327 59.9955C104.275 59.6488 104.234 59.2964 104.2 58.9497C104.113 58.1003 104.026 57.251 103.963 56.4016C103.899 55.5523 103.813 54.7145 103.662 53.8767C103.518 53.0389 103.333 52.2011 103.194 51.3634C102.923 49.7224 102.715 48.0642 102.605 46.4059C102.576 45.9437 102.553 45.4873 102.542 45.025C102.651 45.2215 102.796 45.3948 102.986 45.5335C103.067 45.5913 103.206 45.5855 103.293 45.5335C104.286 44.8864 105.067 43.9735 106.037 43.3032C106.037 43.3032 106.031 43.309 106.026 43.3148C105.748 43.6788 105.61 44.0948 105.714 44.5513C105.823 45.0366 106.112 45.4815 106.315 45.9322C106.471 46.2846 106.58 46.6891 106.731 47.0646C106.684 47.082 106.644 47.1051 106.603 47.1513C105.76 48.1682 105.107 49.3931 104.645 50.6296C104.408 51.2709 104.275 51.9123 104.275 52.5998C104.275 53.3914 104.402 54.1772 104.437 54.963L104.431 54.9514ZM110.249 41.9108C110.561 42.1939 110.839 42.5175 110.977 42.9161C111.093 43.2455 111.104 43.5864 111.07 43.933C110.995 44.6841 110.729 45.4064 110.631 46.1575C110.59 46.4811 110.561 46.7988 110.538 47.1224C110.359 47.2149 110.139 47.29 109.955 47.342C109.544 47.4633 109.117 47.5442 108.695 47.5846C108.371 47.6135 108.031 47.6482 107.736 47.5037C107.343 47.3073 107.21 46.8913 107.077 46.5042C106.91 46.0015 106.69 45.5277 106.459 45.0539C106.303 44.7361 106.101 44.3664 106.211 44.0024C106.349 43.5286 106.829 43.1588 107.21 42.8757C107.684 42.5174 108.192 42.2112 108.66 41.8472C109.071 41.5294 109.423 41.1539 109.804 40.8014C110.064 40.9805 110.284 41.2174 110.498 41.4601C110.261 41.4254 110.047 41.7201 110.255 41.905L110.249 41.9108ZM111.78 44.0312C111.751 43.5864 111.694 43.0952 111.543 42.6503C111.595 42.7023 111.647 42.7601 111.699 42.8063C112.231 43.309 112.74 43.8348 113.26 44.349C113.745 44.8286 114.224 45.337 114.773 45.7473C115.108 46.0015 115.53 46.2095 115.952 46.0362C116.362 45.8686 116.622 45.4468 116.865 45.0944C117.24 44.557 117.616 44.0255 118.015 43.5055C118.523 42.8468 119.043 42.1997 119.546 41.541C119.424 41.853 119.297 42.165 119.164 42.4712C117.795 45.6317 115.946 48.5438 114.167 51.4789C113.722 52.2127 113.277 52.9523 112.844 53.6976C112.416 54.4314 112.017 55.1825 111.578 55.9105C110.821 57.1586 109.978 58.3661 109.429 59.7239C109.897 57.5514 110.417 55.3963 110.706 53.1892C110.954 51.2825 110.989 49.3584 111.075 47.4402C111.156 47.3709 111.231 47.2957 111.295 47.2033C111.457 46.9606 111.543 46.666 111.613 46.3828C111.798 45.6202 111.838 44.8055 111.78 44.0255V44.0312ZM118.529 34.8502H118.592C118.662 34.8618 118.72 34.8849 118.777 34.9138C119.118 35.0871 119.384 35.428 119.615 35.7227C119.864 36.0347 120.083 36.3756 120.32 36.6934C120.517 36.9592 120.759 37.2307 120.881 37.5485C120.817 37.6583 120.765 37.7738 120.725 37.8836C120.522 38.3863 120.389 38.9178 120.251 39.4436C119.627 40.4374 118.91 41.3619 118.182 42.2806C117.789 42.7775 117.396 43.2686 117.021 43.777C116.692 44.2219 116.403 44.6957 116.056 45.129C115.958 45.2562 115.854 45.3833 115.715 45.4468C115.692 45.4584 115.669 45.4699 115.623 45.4642C115.571 45.4642 115.513 45.4526 115.438 45.4179C115.236 45.3313 115.056 45.1753 114.889 45.0308C114.64 44.8113 114.398 44.5859 114.161 44.3606C113.676 43.8926 113.196 43.413 112.716 42.9392C112.295 42.529 111.861 42.1303 111.474 41.6854C111.127 41.2925 110.787 40.8823 110.382 40.5472C110.336 40.5068 110.284 40.4779 110.238 40.4432C110.567 40.2063 110.914 40.0272 111.312 39.8943C111.931 39.6921 112.566 39.5419 113.179 39.3107C113.768 39.0854 114.352 38.8081 114.906 38.5076C115.444 38.2129 115.94 37.8605 116.403 37.456C116.842 37.0631 117.298 36.6645 117.668 36.2023C117.916 35.8902 118.061 35.5147 118.269 35.1796C118.338 35.0698 118.448 34.8849 118.535 34.8502H118.529ZM119.084 28.5177C118.968 29.0781 118.598 29.5346 118.165 29.9102C118.252 29.8004 118.332 29.6906 118.396 29.5635C118.569 29.2457 118.668 28.8933 118.708 28.5293C118.748 28.1537 118.691 27.7781 118.679 27.4083C118.673 27.2235 118.679 27.0386 118.72 26.8652C119.008 27.3737 119.205 27.9515 119.084 28.5177ZM121.36 6.41738C121.383 6.76983 121.401 7.12806 121.377 7.48051C121.366 7.68273 121.349 7.84451 121.297 8.04674C121.279 8.11607 121.297 8.07563 121.273 8.11029C121.273 8.11607 121.256 8.14496 121.245 8.15652C121.193 8.13341 121.141 8.11607 121.077 8.06985C120.961 7.98318 120.857 7.8734 120.788 7.74629C120.684 7.5614 120.69 7.37073 120.771 7.18006C120.898 6.89117 121.117 6.64272 121.354 6.41738H121.36ZM101.762 33.3769C101.432 33.1515 101.132 32.8973 100.826 32.6489C100.566 32.4351 100.294 32.2444 100.028 32.0364C99.514 31.6377 99.1211 31.1813 99.0806 30.5053C99.0286 29.6906 99.2251 28.8759 99.2193 28.0555C99.1962 26.1834 98.9131 24.3172 98.9997 22.4452C99.0806 20.6078 99.566 18.8109 99.6238 16.9735C99.6526 16.0375 99.5949 15.0957 99.6064 14.1597C99.618 13.2584 99.7335 12.3744 99.9184 11.4903C100.265 9.86099 100.889 8.32407 101.392 6.74094C101.409 6.69472 101.421 6.6485 101.432 6.60227C101.854 6.19205 102.374 5.88582 102.917 5.66626C105.384 4.66669 108.106 5.03647 110.683 4.62624C112.058 4.40669 113.439 3.96179 114.432 2.93333C114.64 2.71377 114.427 2.40755 114.155 2.45377C112.306 2.78888 110.451 3.06622 108.597 3.37823C107.672 3.53423 106.754 3.70756 105.835 3.87512C105.032 4.01957 104.206 4.01379 103.414 4.24491C103.01 4.36624 102.657 4.57424 102.316 4.81114C102.01 5.02492 101.715 5.27337 101.386 5.4467C101.247 5.52181 101.27 5.67204 101.363 5.75293C101.328 5.85115 101.294 5.9436 101.253 6.04182C100.854 6.38271 100.542 6.81028 100.248 7.24361C99.8838 7.78673 99.5487 8.34719 99.1327 8.84986C98.7918 9.25431 98.3931 9.62987 97.8904 9.79743C97.4224 8.97697 97.5842 8.01785 97.954 7.17428C98.4335 6.08227 99.1904 5.11159 100.005 4.25068C100.768 3.43601 101.611 2.69066 102.57 2.11865C103.807 1.37909 105.176 0.991971 106.603 0.853302C108.135 0.708856 109.683 0.708855 111.22 0.639521C112.849 0.570187 114.508 0.558631 116.062 1.13064C116.744 1.38487 117.391 1.76043 118.032 2.11288C118.581 2.4191 119.13 2.74844 119.621 3.14711C120.488 3.85201 121.094 4.74758 121.297 5.82226C121.083 6.01293 120.863 6.2036 120.684 6.41738C120.326 6.84494 120.054 7.38806 120.297 7.94274C120.476 8.34719 121.042 8.95386 121.539 8.67653C121.932 8.45697 121.978 7.87918 122.001 7.48629C122.03 6.9605 122.019 6.41738 121.938 5.8916C121.949 5.88004 121.961 5.86848 121.973 5.85693C122.36 6.61961 122.487 7.49206 122.625 8.33563C122.706 8.81519 122.781 9.29476 122.909 9.76854C123.053 10.2885 123.203 10.8086 123.313 11.3343C123.504 12.2588 123.613 13.3681 123.238 14.2637C122.92 15.0206 122.244 15.5291 121.747 16.1589C121.464 16.5171 121.245 16.9158 121.112 17.3549C120.973 17.8229 120.927 18.3198 120.886 18.8051C120.852 19.1576 121.406 19.2211 121.493 18.886C121.62 18.4122 121.822 17.9558 122.088 17.5455C122.342 17.1526 122.695 16.7366 123.163 16.598C123.544 16.4882 123.977 16.5864 124.162 16.9562C124.359 17.3433 124.33 17.8344 124.284 18.2504C124.191 19.1576 123.949 20.082 123.619 20.9314C123.261 21.8616 122.758 22.7976 122.019 23.4794C121.655 23.8145 121.21 24.0803 120.719 24.1612C120.164 24.2479 119.627 24.063 119.147 23.7914C118.864 23.6296 118.587 23.9474 118.72 24.219C119.159 25.0972 119.326 26.0159 119.338 26.9519C119.216 26.6746 119.066 26.4088 118.893 26.1603C118.772 25.9812 118.552 25.9928 118.425 26.1603C117.968 26.767 118.13 27.547 118.113 28.2519C118.096 28.899 117.83 29.4537 117.339 29.8697C117.113 30.0604 116.853 30.2222 116.605 30.3839C116.258 30.6093 115.912 30.8404 115.559 31.06C114.791 31.5453 114.011 32.0191 113.225 32.4755C112.428 32.9378 111.619 33.3884 110.81 33.8276C110.087 34.2204 109.365 34.6422 108.597 34.9311C107.863 35.2085 107.083 35.3702 106.297 35.2605C105.494 35.1507 104.685 34.8502 103.94 34.5498C103.171 34.2378 102.432 33.8507 101.75 33.3827L101.762 33.3769ZM102.27 5.37159C102.611 5.14047 102.952 4.90358 103.345 4.77069C104.107 4.52224 104.934 4.53958 105.725 4.43558C106.638 4.31424 107.545 4.11779 108.452 3.96757C109.365 3.81734 110.278 3.6729 111.185 3.52845C111.855 3.42445 112.526 3.30889 113.196 3.19334C111.422 4.33735 109.013 4.26224 106.979 4.36624C105.691 4.4298 104.402 4.57424 103.177 4.99025C102.865 5.09425 102.559 5.22136 102.264 5.37159H102.27ZM102.322 34.4227C102.449 34.4978 102.582 34.5729 102.715 34.6422C103.478 35.0351 104.286 35.3587 105.107 35.6014C105.945 35.8498 106.759 35.9827 107.632 35.844C108.441 35.7169 109.203 35.3818 109.926 35.012C110.573 34.6827 111.208 34.3302 111.844 33.9778C111.913 34.0124 111.994 34.0067 112.063 33.9373C112.15 33.8449 112.26 33.764 112.376 33.6831C112.815 33.4347 113.248 33.1862 113.681 32.932C113.722 32.9146 113.756 32.8915 113.797 32.8742C114.56 32.4929 115.345 32.1577 116.114 31.7822C116.882 31.4066 117.639 31.0022 118.309 30.4706C118.558 30.2742 118.789 30.0546 118.991 29.8119C118.783 30.7133 118.523 31.6031 118.298 32.4524C118.096 33.2151 117.899 33.9836 117.766 34.7636C117.76 34.8098 117.766 34.856 117.766 34.8965C117.755 34.9138 117.749 34.9253 117.737 34.9427C117.512 35.3125 117.344 35.7111 117.05 36.0347C116.628 36.5027 116.143 36.9418 115.652 37.3347C114.594 38.1667 113.283 38.6867 112.006 39.0681C111.376 39.2587 110.711 39.4263 110.157 39.7903C109.989 39.9001 109.839 40.0214 109.689 40.1485C109.492 40.0676 109.29 40.0041 109.071 39.9636C108.614 39.8712 108.146 39.8192 107.695 39.6979C107.1 39.3512 106.482 39.0334 105.881 38.6925C104.766 38.0685 103.564 37.3925 103.038 36.1676C102.79 35.5898 102.64 34.9773 102.31 34.4342L102.322 34.4227ZM101.894 36.3005C102.241 36.5489 102.53 36.8667 102.813 37.1903C103.194 37.6294 103.582 38.0454 104.078 38.3574C104.674 38.7387 105.286 39.1027 105.91 39.4436C106.332 39.6747 106.765 39.9174 107.216 40.0907C107.701 40.3739 108.175 40.6743 108.62 41.0094C107.823 41.6912 106.788 42.0494 105.91 42.6157C104.905 43.257 104.125 44.1815 103.154 44.8633C102.929 44.6033 102.854 44.193 102.796 43.8695C102.703 43.3206 102.709 42.7543 102.703 42.1997C102.698 41.6739 102.703 41.1481 102.611 40.6281C102.536 40.2005 102.42 39.7787 102.305 39.3627C102.224 38.7792 102.091 38.2072 101.9 37.6583C101.831 37.2018 101.814 36.7454 101.9 36.2889L101.894 36.3005ZM97.3704 40.4201C97.8211 40.1254 98.2371 39.8019 98.6184 39.4205C99.0402 38.9987 99.4389 38.5596 99.8722 38.1494C100.225 37.8143 100.623 37.4503 101.097 37.2827C101.207 37.5196 101.299 37.7623 101.38 38.0107C101.455 38.4267 101.565 38.8485 101.681 39.2587C101.79 39.9232 101.837 40.5992 101.86 41.2579C101.923 42.8352 101.883 44.4184 101.987 45.9957C102.097 47.654 102.282 49.3122 102.57 50.9531C102.715 51.7794 102.882 52.594 103.062 53.4145C103.246 54.2465 103.368 55.0901 103.495 55.9279C103.761 57.7074 103.888 59.5044 104.339 61.255C104.356 62.6475 104.414 64.04 104.547 65.4267C104.622 66.2471 104.668 67.0676 104.743 67.888C104.783 68.356 104.841 68.8241 104.928 69.2863C104.564 68.6392 104.148 68.0209 103.72 67.4085C103.379 66.9231 103.044 66.4378 102.744 65.9293C102.426 65.3862 102.143 64.8142 101.848 64.2595C100.589 61.8675 99.2944 59.4928 97.9424 57.147C97.2606 55.9625 96.5615 54.7838 95.8393 53.6225C95.325 52.7905 94.7819 51.9931 94.2272 51.19C93.713 50.4447 93.1872 49.6647 92.8983 48.8038C92.6441 48.0526 92.6326 47.2726 93.2219 46.6775C93.8748 46.0246 94.8166 45.7357 95.6428 45.3602C96.5153 44.9673 97.3704 44.4415 97.798 43.5459C97.8673 43.3957 97.8268 43.257 97.6997 43.1646C96.9139 42.581 95.8393 42.7486 94.9726 42.3441C95.5041 41.4717 96.5442 40.9574 97.3704 40.4201ZM60.6752 83.2051C60.057 83.0607 59.4214 82.87 58.8898 82.506C58.8667 82.4887 58.8494 82.4714 58.8263 82.454C58.9534 82.4656 59.0863 82.4714 59.2134 82.4887C59.8143 82.6678 60.3863 82.9914 60.9525 83.2687C60.8601 83.2514 60.7676 83.2283 60.6752 83.2109V83.2051ZM61.5188 82.9509C61.3801 82.8874 61.2472 82.8238 61.1085 82.7545C61.2472 82.7776 61.3859 82.8007 61.5245 82.8296C62.3161 82.9798 63.125 83.182 63.8704 83.5114C63.073 83.39 62.2699 83.2976 61.5188 82.9509ZM84.6533 80.166C84.6533 80.1949 84.6533 80.2238 84.6533 80.2527C84.5551 80.3104 84.4569 80.3682 84.3587 80.426C82.7235 81.3447 80.9266 81.8647 79.1297 82.3674C78.2341 82.6158 77.3328 82.8585 76.4488 83.1531C75.559 83.4478 74.7096 83.8349 73.8487 84.1989C72.9647 84.5745 72.0518 84.9154 71.0811 84.9732C70.0642 85.0367 69.0647 84.8634 68.0709 84.6669C67.2215 84.4994 66.3664 84.3492 65.5113 84.1874C65.5517 84.0949 65.5459 83.9852 65.4593 83.91C63.9281 82.5522 61.6979 82.2807 59.7507 82.0033C59.6063 81.986 59.4676 81.9687 59.3232 81.9571C58.9303 81.8416 58.5258 81.778 58.1098 81.8185C58.0636 81.8185 58.0232 81.8358 57.9827 81.8589C57.7632 81.8416 57.5436 81.8127 57.324 81.778C56.9774 81.7202 56.6249 81.622 56.336 81.414C56.0471 81.206 55.868 80.8882 55.764 80.5531C55.5907 79.9753 55.5676 79.3455 55.5387 78.7446C55.504 78.0397 55.5156 77.3348 55.5502 76.6299C55.5849 75.9482 55.6369 75.2721 55.7005 74.5904C55.7467 74.0415 55.7582 73.4695 55.8969 72.9321C56.0414 72.3717 56.388 71.9903 56.8272 71.6263C57.272 71.2565 57.7632 70.9445 58.2601 70.6441C59.3116 70.0085 60.3863 69.3961 61.5188 68.9049C62.1832 68.616 62.865 68.356 63.5468 68.1076C64.1188 67.8996 64.6908 67.6974 65.2859 67.5529C66.378 67.2929 67.5855 67.1254 68.5158 66.4493C68.6833 66.328 68.6198 66.0853 68.4118 66.0622C67.4757 65.9756 66.5571 66.2702 65.6384 66.3685C64.6504 66.4725 63.6624 66.6689 62.7321 67.0098C61.2068 67.5645 59.693 68.2174 58.3467 69.1303C57.7343 69.5463 57.1623 70.0201 56.6249 70.5401C56.7867 69.1996 58.0174 68.2752 59.1787 67.6511C59.8721 67.2756 60.6059 66.9751 61.3454 66.6978C62.4201 66.2991 63.5295 66.068 64.6619 65.8889C66.0255 65.6693 67.3891 65.4556 68.6602 64.9067C68.8335 64.8316 68.8104 64.6004 68.7122 64.4849C68.042 63.6702 67.0193 63.6991 66.0891 63.9706C65.6153 64.1093 65.153 64.3 64.685 64.456C64.4135 64.5484 64.1188 64.6467 63.8184 64.6813C64.0957 64.2075 64.5868 63.8146 64.9797 63.4795C65.2686 63.2311 65.5633 62.9942 65.8522 62.7457C66.1237 62.5088 66.3664 62.2546 66.6264 62.0004C67.2793 61.3648 68.0593 60.8853 68.8624 60.4635C69.2495 60.2613 69.6482 60.0475 70.0816 59.9493C70.486 59.8626 70.8905 59.9204 71.2776 60.0533C71.7976 60.2324 72.2945 60.4693 72.826 60.6195C73.3749 60.7755 73.947 60.8622 74.519 60.8275C74.6692 60.8159 74.8136 60.6773 74.7616 60.5097C74.5998 60.0475 74.2474 59.7181 73.8545 59.4408C73.4674 59.1635 73.0572 58.915 72.6469 58.6608C72.4563 58.5452 72.2598 58.4297 72.0807 58.3026C71.9536 58.2159 71.7687 58.0888 71.7282 57.927C71.6936 57.7826 71.8034 57.6381 71.8843 57.5283C72.0634 57.2972 72.306 57.1008 72.5429 56.9274C72.9878 56.5923 73.4674 56.3092 73.9238 55.9914C74.3514 55.691 74.8252 55.3501 75.0447 54.859C75.2065 54.495 75.1892 54.1021 75.3047 53.7265C75.4434 53.2643 75.7612 53.0158 76.1772 52.7905C76.5701 52.5825 76.9861 52.4091 77.3443 52.1376C77.795 51.7909 78.2052 51.3807 78.575 50.9531C78.9795 50.4851 79.3319 49.9709 79.6613 49.4509C79.9675 48.9655 80.291 48.4571 80.4528 47.9024C80.5973 47.4171 80.6319 46.8797 80.8515 46.4233C80.9555 46.2037 81.1346 45.9264 81.3311 45.8166C81.3831 45.7877 81.4004 45.7819 81.4524 45.7877C81.4062 45.7877 81.4871 45.8051 81.4697 45.7993C81.5275 45.8282 81.4928 45.8051 81.5275 45.8455C81.6373 45.9495 81.7297 46.146 81.7991 46.3193C82.0128 46.8797 82.1168 47.4749 82.2266 48.0642C82.2729 48.3126 82.3133 48.5553 82.3653 48.8038C82.4 48.9598 82.4289 49.1389 82.5386 49.2602C82.6773 49.4162 82.9084 49.2833 82.92 49.0984C82.9546 48.642 82.8564 48.1971 82.7351 47.758C82.6369 47.394 82.4809 46.9953 82.5213 46.614C82.5733 46.1575 82.9951 45.9437 83.3706 45.7646C83.9138 45.5046 84.4742 45.285 85.0347 45.077C86.2307 44.6379 87.4267 44.1873 88.6401 43.7886C89.2698 43.5806 89.8996 43.3957 90.541 43.2224C91.0783 43.0779 91.6156 42.9161 92.1645 42.8121C92.6499 42.7255 93.1352 42.6792 93.6148 42.5695C93.8401 42.5174 94.0828 42.4481 94.3024 42.3383C94.2504 42.4828 94.2792 42.633 94.4179 42.7255C94.8917 43.0317 95.4406 43.1415 95.9895 43.2281C96.3939 43.2917 96.8215 43.3379 97.1913 43.517C96.3708 44.9268 94.4352 45.0713 93.2046 46.0073C92.5285 46.5215 92.1299 47.2322 92.2108 48.0989C92.2974 49.0002 92.7365 49.838 93.2046 50.6007C93.6726 51.3576 94.2157 52.0625 94.6952 52.8136C95.4233 53.9403 96.105 55.1016 96.7811 56.2572C98.162 58.6146 99.4793 61.0124 100.756 63.4275C101.369 64.5773 101.923 65.7733 102.634 66.8596C103.246 67.8014 103.94 68.6912 104.483 69.6792C103.865 68.8703 103.183 68.0672 102.264 67.5991C101.045 66.9809 99.67 67.1947 98.3873 67.4778C97.6188 67.6454 96.8677 67.8707 96.1108 68.0787C95.3655 68.2809 94.6144 68.4254 93.8632 68.5929C92.3437 68.9338 90.8703 69.4654 89.3565 69.8236C89.3218 69.8294 89.2814 69.841 89.2467 69.8467C89.2005 69.8236 89.1427 69.8294 89.1023 69.8756C89.0561 69.8872 89.0156 69.893 88.9694 69.9045C88.9809 69.7658 88.8769 69.6214 88.7094 69.6098C88.5823 69.5983 88.4494 69.5867 88.3165 69.5752C88.3165 69.5636 88.3165 69.5578 88.3165 69.5463C88.3165 69.5347 88.3165 69.5232 88.3223 69.5232C88.3165 69.5405 88.3338 69.5116 88.3396 69.5001C88.3858 69.4481 88.3396 69.4885 88.3974 69.4538C88.4205 69.4423 88.4436 69.4249 88.4667 69.4134C88.5072 69.3903 88.5014 69.3961 88.5072 69.3961C89.0214 69.1938 89.5818 69.1996 90.1365 69.1707C90.645 69.1418 91.1592 69.1303 91.5463 68.7432C92.0028 68.2867 91.5636 67.8129 91.1303 67.5703C90.541 67.2409 89.8707 67.0445 89.2178 66.8827C88.6632 66.744 88.12 66.6862 87.548 66.6516C86.7854 66.6054 85.9591 66.5707 85.2484 66.8827C84.9307 67.0214 84.6996 67.2351 84.5435 67.4951C84.3009 67.4431 83.9773 67.472 83.856 67.472C83.3533 67.472 82.8622 67.524 82.3653 67.5876C82.3537 67.5471 82.3306 67.5067 82.296 67.4778C82.2786 67.4778 82.2613 67.4778 82.2555 67.4547C82.2555 67.4663 82.2555 67.4547 82.2497 67.4431C82.192 67.4027 82.1168 67.3796 82.0475 67.3911L82.0822 67.3738C82.14 67.368 82.1862 67.3622 82.2266 67.368C82.2093 67.316 82.192 67.264 82.1746 67.212C82.1515 67.1427 82.1284 67.0734 82.1111 66.9982C82.1746 66.8249 82.2151 66.64 82.2382 66.4551C82.3595 65.6289 82.296 64.7911 82.2786 63.9649C82.2555 63.0346 82.3249 62.1102 82.3191 61.1799C82.3075 60.1053 82.244 59.0248 82.2786 57.9501C82.3075 57.0488 82.3711 56.1301 82.0995 55.2576C82.0591 55.1305 81.8626 55.0843 81.7991 55.2172C81.4466 55.951 81.3946 56.7599 81.3657 57.563C81.3484 57.9674 81.3484 58.3719 81.3195 58.7763C81.2906 59.2559 81.2213 59.7297 81.1693 60.2035C81.0479 61.2377 80.9902 62.2604 80.9613 63.3062C80.9382 64.248 80.8919 65.2764 81.1924 66.1778C81.2964 66.4956 81.4235 66.8018 81.5391 67.1138C81.5102 67.1658 81.4755 67.2178 81.4351 67.264C81.1982 67.5471 80.8284 67.6627 80.4702 67.6916C79.4648 67.7725 78.4306 67.42 77.4946 67.108C76.9457 66.9289 76.4083 66.7267 75.8594 66.5476C75.4723 66.4205 75.0621 66.2818 74.6576 66.2818C74.4034 66.2818 74.3283 66.692 74.5941 66.7382C75.2008 66.848 75.7901 67.056 76.3736 67.2525C77.0728 67.4836 77.7835 67.732 78.4479 68.0614C77.7661 68.0151 77.0843 67.9111 76.4083 67.8591C75.3279 67.7725 74.1838 67.7031 73.1265 67.9343C72.7163 68.0209 72.254 68.2405 72.1385 68.6854C72.0807 68.8992 72.2425 69.0783 72.4505 69.0956C74.8483 69.2689 77.2808 68.8876 79.6555 68.6103C80.1755 68.5467 80.6897 68.4485 81.2039 68.356C81.9031 68.2289 82.6137 68.1365 83.3071 67.9978C83.6191 67.9343 83.9311 67.8649 84.2431 67.8303C84.2893 67.8303 84.3413 67.8303 84.3876 67.8187C84.376 67.8591 84.3587 67.8938 84.3471 67.9343C83.4804 67.9689 82.7582 68.4023 82.4115 69.2285C82.036 70.1298 82.1053 71.1756 82.2555 72.1116C82.4173 73.0997 82.7177 74.0819 83.1569 74.989C83.3244 75.3299 83.5151 75.665 83.7578 75.9539C83.9773 76.2139 84.2315 76.4508 84.4858 76.6819C84.7169 77.1384 85.0289 77.5948 85.4796 77.8549C85.5893 77.9184 85.7049 77.9646 85.8262 78.0051C85.9187 78.1264 85.9996 78.2477 86.0689 78.3864C86.1671 78.5771 86.3347 78.9411 86.2596 79.1375C86.1787 79.3398 85.7973 79.5362 85.6124 79.6633C85.4218 79.7904 85.2311 79.9175 85.0347 80.0331C84.9191 79.9002 84.6476 79.9464 84.6418 80.1718L84.6533 80.166ZM57.0352 70.8867C58.0174 69.9334 59.1441 69.1649 60.3748 68.5467C61.9463 67.7609 63.6046 67.1254 65.3495 66.8769C65.8579 66.8076 66.3606 66.7267 66.8633 66.6285C67.0944 66.5822 67.3255 66.5418 67.5566 66.5129C66.8633 66.8018 66.0775 66.9231 65.361 67.0849C64.1881 67.3449 63.0499 67.7898 61.9406 68.2405C60.7561 68.72 59.641 69.3094 58.5316 69.945C58.0232 70.2396 57.5147 70.5459 57.0352 70.8867ZM81.7528 60.3364C81.7644 61.3013 81.7471 62.2604 81.724 63.2253C81.7066 64.04 81.8106 64.8489 81.7991 65.6636C81.7991 65.8196 81.7991 65.9929 81.7817 66.1662C81.7297 66.0333 81.6835 65.9062 81.6488 65.7676C81.4293 64.8951 81.4755 63.9533 81.4697 63.0577C81.4697 62.1275 81.4928 61.2088 81.5737 60.2786C81.6488 59.4697 81.7066 58.6666 81.7066 57.8577C81.7066 57.2394 81.6951 56.5634 81.8626 55.951C81.8626 56.1185 81.8626 56.2861 81.8626 56.4536C81.8568 56.8523 81.8164 57.251 81.7933 57.6497C81.7297 58.5452 81.7355 59.4408 81.7528 60.3364ZM76.1657 68.3503C75.1892 68.4427 74.207 68.5005 73.2305 68.4716C73.2594 68.46 73.2825 68.4543 73.3056 68.4427C73.7447 68.2983 74.2301 68.2983 74.6865 68.2925C75.1776 68.2925 75.6688 68.3098 76.1599 68.3445L76.1657 68.3503ZM82.8795 106.114C83.1858 104.866 83.492 103.641 83.5902 102.359C83.6364 102.463 83.752 102.538 83.8733 102.544C84.7342 102.613 85.6009 102.59 86.4445 102.775C86.8894 102.873 87.34 102.925 87.7907 102.983C88.328 103.046 88.8654 103.116 89.3969 103.237C89.6801 103.301 90.1885 103.387 90.3156 103.676C90.5005 104.086 90.2579 104.693 90.1192 105.08C89.9285 105.629 89.6801 106.149 89.4258 106.669C89.0098 107.536 88.6978 108.501 87.704 108.818C86.9702 109.055 86.1787 109.148 85.4276 109.327C84.5435 109.535 83.6595 109.749 82.7524 109.824C82.6484 108.582 82.5791 107.339 82.8795 106.114ZM81.1115 134.397C80.291 134.201 79.4706 133.981 78.679 133.681C78.1301 133.473 77.5697 133.241 77.0843 132.901C76.6914 132.623 76.3968 132.242 76.2928 131.768C76.1368 131.086 76.3505 130.347 76.5065 129.682C76.7145 128.821 76.9688 127.978 77.171 127.117C77.3732 126.268 77.4888 125.418 77.5581 124.552C77.6332 123.679 77.6795 122.801 77.8586 121.94C78.0319 121.085 78.3092 120.247 78.575 119.421C79.1124 117.768 79.7306 116.133 80.2275 114.469C80.4702 113.649 80.6782 112.828 80.8573 111.99C81.0422 111.13 81.2964 110.28 81.5275 109.431C81.7586 108.593 81.9666 107.755 82.1342 106.9C82.0071 107.981 82.0822 109.067 82.1689 110.153C82.1804 110.315 82.296 110.465 82.4751 110.459C83.4342 110.419 84.376 110.211 85.3062 109.986C86.092 109.795 86.8951 109.668 87.6751 109.454C88.1663 109.315 88.6285 109.096 88.9694 108.709C89.3449 108.281 89.5472 107.755 89.7898 107.247C90.0556 106.692 90.333 106.137 90.5641 105.565C90.7721 105.034 90.9916 104.433 90.9454 103.849C90.853 102.717 89.4201 102.607 88.5418 102.48C87.9583 102.399 87.3689 102.359 86.7911 102.237C85.9476 102.058 85.1098 102.018 84.2604 101.96C85.0116 99.3023 85.0924 96.5636 85.0982 93.8133C85.0982 93.0737 85.104 92.3399 85.1618 91.6062C85.2196 90.8839 85.3178 90.1675 85.3929 89.451C85.5431 87.995 85.5316 86.5447 85.4333 85.083C85.3293 83.5923 85.1618 82.1016 85.1156 80.6109C85.208 80.5531 85.3004 80.5011 85.3929 80.4433C85.7627 80.218 86.1325 79.9753 86.4676 79.698C86.6698 79.5304 86.8142 79.3224 86.8142 79.0509C86.8142 78.7273 86.7102 78.4153 86.5542 78.1264C86.9125 78.1437 87.2707 78.0975 87.6116 78.0282C88.3396 77.878 89.0272 77.6006 89.7436 77.4157C89.7552 77.4157 89.761 77.41 89.7725 77.4042C90.0094 77.4851 90.2521 77.5313 90.4947 77.5891C90.9454 77.6988 91.3845 77.8549 91.7485 78.1495C92.2281 78.5309 92.6037 79.0277 93.1006 79.3918C93.6379 79.7847 94.3024 79.9869 94.9379 80.1371C96.3477 80.4722 97.7806 80.7785 99.2309 80.842C99.4678 81.05 99.7104 81.2465 99.9935 81.3851C100.386 81.5816 100.826 81.6798 101.265 81.674C102.143 81.6625 102.975 81.2696 103.674 80.7553C104.795 79.9291 105.748 78.7678 106.395 77.5024C106.101 78.9584 105.592 80.3913 105.621 81.8936C105.621 82.0207 105.714 82.1478 105.841 82.1767C107.736 82.6158 108.811 80.2989 109.331 78.8833C109.614 78.1149 109.839 77.3175 109.978 76.5086C110.145 75.5322 109.77 74.6886 109.105 73.9837C108.4 73.2326 107.516 72.6779 106.702 72.0654C106.372 71.817 106.049 71.5628 105.76 71.2681C105.8 71.0139 105.887 70.7596 106.003 70.5227C106.384 70.2107 106.65 69.7081 106.863 69.2169C107.141 68.8414 107.418 68.4658 107.649 68.0556C107.857 67.6916 108.036 67.316 108.192 66.9289C108.285 66.8134 108.377 66.6978 108.464 66.5765C109.053 65.808 109.648 65.0396 110.243 64.2711C111.272 62.9364 112.422 61.7288 113.728 60.6599C115.004 59.6141 116.403 58.7128 117.847 57.9212C119.453 57.043 121.065 56.1648 122.631 55.2114C124.157 54.2754 125.613 53.2527 127.04 52.1723C127.554 51.7794 128.097 51.4154 128.548 50.9473C128.981 50.4967 129.374 49.9131 129.31 49.2602C129.195 48.0411 127.987 47.446 127.121 46.7873C126.768 46.5215 126.387 46.1691 126.329 45.7357C126.312 45.6202 126.312 45.6086 126.346 45.5162C126.335 45.5393 126.364 45.4873 126.364 45.4873C126.341 45.5104 126.445 45.4064 126.421 45.4237C126.531 45.337 126.693 45.285 126.878 45.2388C127.317 45.1233 127.779 45.0597 128.178 44.8401C128.634 44.5917 128.912 44.1121 128.842 43.5864C128.842 43.5517 128.825 43.5112 128.819 43.4766C130.327 44.4126 131.928 45.181 133.517 45.9668C134.395 46.4002 135.267 46.8393 136.122 47.3189C136.943 47.7811 137.763 48.2491 138.595 48.6998C138.954 48.8962 139.341 49.1042 139.745 49.1909C139.682 49.3931 139.711 49.6184 139.82 49.7918C139.907 49.9304 140.046 50.0171 140.196 50.0518C140.092 50.2945 139.965 50.5256 139.861 50.7336C139.549 51.3518 139.323 51.9989 139.104 52.6576C138.63 54.1136 138.133 55.5581 137.59 56.9852C137.267 57.4879 136.972 58.0079 136.747 58.5683C136.585 58.967 136.475 59.383 136.411 59.8048C136.377 60.0417 136.712 60.2497 136.839 59.9839C137.261 59.0826 137.625 58.1639 137.977 57.2337C138.382 56.5981 138.838 55.9914 139.26 55.379C139.786 54.6105 140.196 53.8016 140.595 52.958C140.797 52.5305 141.028 52.1145 141.219 51.6811C141.38 51.3114 141.525 50.9358 141.715 50.5776C141.929 50.1789 142.391 49.6473 142.865 49.682C142.958 49.6878 143.062 49.7513 143.16 49.8784C143.247 49.9882 143.339 50.1962 143.391 50.358C143.668 51.2131 143.663 52.1549 143.663 53.0505C143.663 55.0901 143.582 57.1354 143.94 59.1519C144.125 60.1688 144.379 61.1684 144.552 62.1853C144.714 63.1675 144.755 64.144 144.656 65.132C144.622 65.4844 144.587 65.9178 144.304 66.1662C144.044 66.3973 143.715 66.5649 143.605 66.9174C143.374 67.6511 144.027 68.3849 144.177 69.0725C144.281 69.5636 144.287 70.0894 144.31 70.5863C144.333 71.1294 144.339 71.6725 144.333 72.2157C144.321 73.2961 144.269 74.3708 144.269 75.4513C144.269 76.5202 144.339 77.5891 144.495 78.6464C144.651 79.7095 144.882 80.7611 145.038 81.8242C145.119 82.3558 145.182 82.8931 145.2 83.4305C145.211 83.8349 145.159 84.2336 145.107 84.6323C144.997 85.4296 144.853 86.2674 145.09 87.059C145.2 87.4172 145.396 87.7177 145.644 87.995C145.644 88.2261 145.702 88.463 145.76 88.6826C145.899 89.1563 146.101 89.6128 146.188 90.0981C146.309 90.8088 146.361 91.5368 146.424 92.2591C146.488 93.0102 146.534 93.7671 146.563 94.5182C146.673 97.5689 146.413 100.649 146.731 103.693C146.881 105.132 147.147 106.559 147.447 107.975C147.753 109.414 148.129 110.846 148.377 112.297C148.626 113.753 148.608 115.243 148.816 116.705C149.024 118.184 149.204 119.652 149.284 121.143C149.446 124.112 149.868 127.071 150.59 129.96C150.752 130.618 150.983 131.26 151.122 131.924C151.226 132.427 151.341 133.074 151.081 133.548C150.856 133.964 150.446 134.27 150.059 134.53C149.637 134.813 149.186 135.061 148.753 135.327C148.314 135.599 147.944 135.969 147.505 136.246C147.303 136.379 147.095 136.477 146.852 136.46C146.586 136.437 146.32 136.338 146.072 136.252C145.795 136.153 145.529 136.044 145.252 135.945C144.951 135.841 144.645 135.784 144.339 135.709C143.605 135.529 142.865 135.345 142.114 135.241C141.577 135.165 141.051 135.131 140.514 135.194C140.005 135.258 139.497 135.35 138.988 135.379C138.688 135.397 138.203 135.443 137.989 135.177C137.752 134.888 137.746 134.432 137.746 134.079C137.746 133.155 137.983 132.253 138.11 131.34C138.307 129.942 138.139 128.504 137.862 127.128C137.573 125.69 137.186 124.274 136.96 122.824C136.729 121.304 136.637 119.773 136.406 118.254C136.336 117.809 136.244 117.37 136.146 116.931C135.938 114.879 135.845 112.805 135.394 110.783C135.227 110.038 135.013 109.304 134.73 108.593C134.724 108.558 134.718 108.518 134.713 108.483C134.747 108.449 134.765 108.402 134.759 108.339C134.643 107.253 134.343 106.201 134.094 105.144C133.915 104.375 133.742 103.601 133.609 102.827C133.638 102.659 133.655 102.492 133.661 102.318C133.673 101.723 133.54 101.099 133.442 100.516C133.407 100.325 133.378 100.134 133.343 99.9436C133.297 98.5049 133.326 97.0605 133.262 95.6218C133.164 93.4146 132.962 91.219 132.812 89.0177C132.742 87.9257 132.737 86.8394 132.708 85.7474C132.696 85.2621 132.633 84.7825 132.558 84.3029C132.575 84.1643 132.598 84.0314 132.621 83.8927C132.731 83.2976 132.893 82.7198 132.985 82.1189C133.17 80.9056 133.17 79.6806 133.291 78.4557C133.343 77.9415 133.395 77.4215 133.366 76.9015C133.343 76.4566 133.274 75.9886 133.008 75.6246C132.904 75.4859 132.644 75.4744 132.604 75.6766C132.413 76.6011 132.061 77.4851 131.945 78.4326C131.882 78.9469 131.916 79.4553 131.916 79.9695C131.916 80.5415 131.893 81.1136 131.882 81.6856C131.87 82.2287 131.882 82.766 131.945 83.3034C131.98 83.6096 132.026 83.9216 132.066 84.2278C132.032 84.4705 131.997 84.7074 131.986 84.9558C131.905 86.1519 132.014 87.3479 132.101 88.5381C132.28 90.9937 132.136 93.4608 132.303 95.9222C132.39 97.1356 132.54 98.3374 132.76 99.5334C132.777 100.094 132.8 100.654 132.841 101.209C132.893 101.879 132.985 102.544 133.106 103.202C133.008 103.815 132.945 104.398 133.089 105.011C133.158 105.3 133.251 105.577 133.355 105.849C133.297 105.762 133.239 105.681 133.17 105.606C132.552 104.895 131.494 104.918 130.628 104.947C129.605 104.982 128.6 105.173 127.583 105.277C126.3 105.409 125.006 105.415 123.746 105.698C122.649 105.941 121.36 106.473 121.089 107.697C121.002 108.102 120.99 108.524 120.904 108.934C120.8 109.419 120.644 109.887 120.465 110.35C120.418 110.471 120.499 110.604 120.597 110.667C121.187 111.066 121.938 111.176 122.631 111.239C123.394 111.309 124.162 111.297 124.925 111.309C126.629 111.343 128.34 111.442 130.038 111.534C131.096 111.592 132.17 111.632 133.222 111.482C133.736 111.407 134.441 111.257 134.846 110.858C135.152 112.222 135.302 113.62 135.423 115.006C135.458 115.417 135.499 115.821 135.533 116.231C135.533 116.255 135.527 116.278 135.533 116.307C135.533 116.335 135.545 116.364 135.551 116.393C135.603 116.931 135.654 117.468 135.724 117.999C135.787 118.502 135.886 119.005 135.903 119.513C135.92 120.068 135.88 120.617 135.897 121.171C135.938 122.252 136.232 123.309 136.406 124.372C136.596 125.511 136.689 126.666 136.77 127.816C136.839 128.839 136.92 129.867 136.914 130.89C136.914 131.294 136.891 131.739 136.695 132.103C136.504 132.461 136.117 132.669 135.747 132.791C134.903 133.074 133.973 133.057 133.095 133.143C131.945 133.253 130.795 133.397 129.646 133.53C127.381 133.796 125.127 133.964 122.845 134.004C120.545 134.045 118.24 134.016 115.94 134.108C113.693 134.201 111.474 134.16 109.232 133.958C108.296 133.877 107.326 133.987 106.395 133.79C105.962 133.698 105.604 133.525 105.321 133.184C105.055 132.872 104.882 132.49 104.697 132.126C104.275 131.3 103.894 130.462 103.691 129.549C103.478 128.59 103.506 127.637 103.535 126.666C103.61 124.361 103.489 122.061 103.553 119.756C103.61 117.485 103.83 115.22 104.067 112.961C104.379 109.951 104.685 106.929 104.905 103.907C104.974 103.485 105.043 103.064 105.101 102.642C105.361 100.828 105.5 98.996 105.563 97.1645C105.627 95.252 105.604 93.3337 105.667 91.4213C105.731 89.5319 105.829 87.6425 105.841 85.7532C105.847 84.8518 105.829 83.9505 105.841 83.0491C105.841 82.7429 105.419 82.7083 105.321 82.9798C104.627 84.9501 104.818 87.0763 104.639 89.1217C104.535 90.3119 104.518 91.4848 104.57 92.6751C104.622 93.8595 104.697 95.0382 104.685 96.2227C104.674 98.6436 104.541 101.07 104.356 103.491C104.286 103.971 104.211 104.45 104.148 104.936C103.899 106.721 103.755 108.512 103.564 110.303C103.368 112.141 103.062 113.938 102.657 115.74C102.264 117.485 102.027 119.265 101.502 120.975C101.242 121.824 100.941 122.662 100.681 123.511C100.427 124.344 100.178 125.176 99.878 125.996C99.5833 126.799 99.202 127.562 98.89 128.359C98.5953 129.11 98.3411 129.873 98.058 130.63C97.538 132.011 96.8908 133.426 95.6139 134.258C94.4468 135.015 92.985 135.31 91.6272 135.506C89.8534 135.761 88.0276 135.726 86.2538 135.489C84.5147 135.258 82.8044 134.801 81.0999 134.397H81.1115ZM133.355 107.917C133.742 108.524 134.268 109.142 134.51 109.83C134.51 109.986 134.516 110.142 134.516 110.303C134.476 110.384 134.418 110.459 134.32 110.529C133.996 110.76 133.557 110.841 133.176 110.898C132.199 111.054 131.188 111.014 130.206 110.962C128.658 110.881 127.109 110.818 125.561 110.76C124.757 110.731 123.954 110.748 123.151 110.708C122.469 110.673 121.707 110.627 121.089 110.303C121.227 109.922 121.354 109.535 121.435 109.136C121.528 108.72 121.539 108.298 121.62 107.882C121.718 107.357 122.082 106.975 122.539 106.715C123.619 106.103 124.983 106.033 126.19 105.941C126.757 105.901 127.323 105.872 127.883 105.797C128.941 105.658 130.004 105.485 131.073 105.496C131.518 105.496 132.043 105.49 132.442 105.71C132.442 105.71 132.442 105.716 132.442 105.721C132.575 106.519 132.927 107.241 133.361 107.923L133.355 107.917ZM132.303 78.8949C132.344 78.0571 132.586 77.2308 132.835 76.4219C132.87 76.6011 132.881 76.7802 132.881 76.9593C132.893 77.4215 132.846 77.878 132.8 78.3402C132.696 79.3975 132.679 80.4549 132.558 81.5065C132.506 81.9225 132.43 82.3385 132.344 82.7487C132.344 82.6967 132.332 82.6505 132.332 82.5985C132.292 81.9745 132.315 81.3505 132.321 80.7264C132.326 80.1198 132.269 79.5073 132.298 78.9006L132.303 78.8949ZM105.078 91.791C105.061 90.8666 105.095 89.9537 105.165 89.0235C105.176 88.8386 105.188 88.6537 105.199 88.4688C105.199 88.4861 105.199 88.5092 105.199 88.5323C105.159 89.6186 105.113 90.7048 105.078 91.791ZM103.362 236.365C103.339 236.682 103.345 237 103.339 237.324C103.327 237.855 103.339 238.682 102.911 239.086C102.033 238.266 101.484 237.104 101.051 236.001C100.589 234.828 100.242 233.609 99.9415 232.384C99.4851 230.529 99.0922 228.611 99.0633 226.698C99.0575 226.207 99.0633 225.71 99.1904 225.231C99.2309 225.063 99.2887 224.907 99.3753 224.763C99.4793 224.826 99.5833 224.896 99.6873 224.953C100.115 225.485 100.646 225.924 101.23 226.288C101.935 226.727 102.709 227.097 103.489 227.392C103.212 228.946 103.333 230.546 103.426 232.118C103.466 232.875 103.466 233.632 103.512 234.389C103.53 234.66 103.547 234.932 103.57 235.203C103.478 235.59 103.402 235.978 103.374 236.37L103.362 236.365ZM103.934 226.97C103.379 226.687 102.807 226.456 102.253 226.178C102.836 226.294 103.443 226.259 104.038 226.277C104.119 227.34 104.281 228.397 104.367 229.454C104.31 229.98 104.252 230.506 104.188 231.037C104.096 231.8 104.003 232.563 103.911 233.326C103.911 233.089 103.905 232.852 103.894 232.615C103.865 231.76 103.807 230.905 103.795 230.049C103.784 229.119 103.807 228.183 104.061 227.282C104.09 227.166 104.044 227.022 103.934 226.97ZM117.391 254.189C117.789 256.206 118.113 258.228 118.13 260.291C118.13 260.741 118.13 261.198 118.055 261.643C118.003 261.955 117.922 262.325 117.778 262.573C117.743 262.637 117.691 262.689 117.645 262.717C117.518 262.804 117.379 262.868 117.24 262.926C116.79 263.122 116.333 263.301 115.865 263.445C114.837 263.769 113.78 263.983 112.728 264.191C112.092 264.318 111.451 264.393 110.804 264.439C109.307 264.538 107.753 264.486 106.303 264.087C105.65 263.908 105.009 263.654 104.454 263.249C103.87 262.822 103.35 262.174 103.46 261.417C103.512 261.03 103.68 260.666 103.842 260.32C104.038 259.898 104.234 259.476 104.373 259.025C104.691 258.003 105.119 257.021 105.448 255.998C105.777 254.981 105.875 253.941 105.956 252.884C106.049 251.653 106.118 250.422 106.13 249.192C106.135 248.666 106.13 248.134 106.101 247.608C106.101 247.527 106.089 247.447 106.083 247.36C106.586 247.753 107.106 248.134 107.643 248.464C108.689 249.105 109.81 249.452 111.029 249.538C112.219 249.619 113.433 249.515 114.606 249.29C115.126 249.192 115.628 249.047 116.143 248.92C116.299 248.88 116.455 248.839 116.611 248.787C116.622 249.036 116.64 249.284 116.657 249.532C116.703 250.052 116.767 250.572 116.842 251.092C116.992 252.132 117.2 253.167 117.402 254.195L117.391 254.189ZM117.391 238.167C117.165 238.335 116.911 238.468 116.645 238.554C116.403 238.641 116.426 239.04 116.709 239.028C117.391 239.005 117.98 239.219 118.171 239.924C118.356 240.617 118.223 241.391 118.107 242.079C117.98 242.836 117.801 243.593 117.778 244.361C117.766 244.91 117.801 245.459 117.789 246.008C117.778 246.505 117.766 247.083 117.466 247.51C117.379 247.637 117.264 247.735 117.142 247.822C117.056 247.62 116.686 247.637 116.651 247.868C116.64 247.938 116.634 248.007 116.622 248.076C116.53 248.111 116.432 248.14 116.339 248.169C115.854 248.313 115.363 248.435 114.872 248.55C113.739 248.816 112.56 248.937 111.399 248.903C110.226 248.868 109.146 248.608 108.123 248.013C107.071 247.406 106.135 246.597 105.188 245.846C104.512 245.315 103.917 244.76 103.807 243.864C103.726 243.235 103.79 242.57 103.807 241.94C103.83 241.224 103.87 240.507 103.917 239.797C104.061 237.694 104.292 235.596 104.547 233.499C104.622 233.198 104.691 232.892 104.749 232.592C104.893 231.835 104.945 231.072 104.928 230.304C105.234 227.681 105.483 225.057 105.731 222.428C105.864 221.019 106.014 219.609 106.257 218.216C106.505 216.795 106.823 215.385 107.054 213.964C107.268 212.675 107.389 211.381 107.407 210.075C107.418 208.897 107.383 207.712 107.383 206.534C107.383 205.361 107.424 204.188 107.58 203.021C107.643 202.564 107.724 202.096 107.834 201.64C107.88 201.628 107.932 201.611 107.973 201.57C108.366 201.258 108.527 200.727 108.608 200.253C108.655 199.981 108.678 199.704 108.695 199.433C108.741 199.329 108.77 199.225 108.73 199.132C108.724 199.121 108.712 199.109 108.707 199.097C108.707 198.866 108.707 198.629 108.707 198.398C108.672 196.919 108.637 195.44 108.597 193.955C108.724 192.597 108.799 191.24 108.787 189.87C108.77 187.894 108.701 185.918 108.649 183.942C108.597 181.96 108.62 179.979 108.562 177.997C108.504 176.003 108.395 174.01 108.331 172.017C108.319 171.595 108.308 171.179 108.302 170.757C108.302 170.566 108.302 170.37 108.296 170.179C108.296 169.532 108.285 168.885 108.273 168.238C108.273 167.51 108.273 166.782 108.262 166.048C108.239 162.067 108.111 158.098 107.84 154.128C107.776 153.158 107.713 152.181 107.695 151.205C107.678 150.379 107.643 149.512 107.776 148.691C107.898 147.946 108.198 147.241 108.851 146.819C109.429 146.444 110.111 146.259 110.7 145.895C110.995 145.716 111.26 145.49 111.48 145.219C111.595 145.069 111.584 144.803 111.359 144.762C109.983 144.479 108.689 145.121 107.343 145.242C106.794 145.294 106.239 145.317 105.696 145.404C105.257 145.473 104.731 145.583 104.431 145.935C104.286 146.103 104.373 146.398 104.622 146.392C105.13 146.38 105.633 146.357 106.141 146.357C106.517 146.357 106.898 146.357 107.274 146.426C106.655 147.825 106.8 149.385 106.939 150.881C107.106 152.747 107.135 154.631 107.21 156.503C107.366 160.403 107.672 164.309 107.678 168.215C107.678 172.15 107.713 176.078 107.771 180.007C107.828 183.954 107.834 187.9 107.886 191.846C107.898 192.817 107.938 193.782 107.961 194.747C107.979 195.301 107.984 195.85 107.99 196.405C107.851 197.595 107.713 198.785 107.649 199.981C107.638 200.207 107.632 200.432 107.632 200.658C107.563 200.837 107.493 201.016 107.435 201.201C107.435 201.201 107.435 201.201 107.435 201.206C106.944 202.697 106.806 204.303 106.771 205.881C106.742 207.094 106.771 208.313 106.771 209.527C106.771 210.855 106.684 212.173 106.476 213.49C106.251 214.917 105.933 216.327 105.679 217.743C105.419 219.193 105.246 220.66 105.107 222.128C104.945 223.815 104.789 225.497 104.622 227.178C104.575 226.797 104.529 226.415 104.506 226.034C104.494 225.901 104.408 225.803 104.269 225.797C103.558 225.768 102.825 225.803 102.131 225.595C101.577 225.427 101.051 225.063 100.542 224.792C100.427 224.728 100.311 224.664 100.196 224.601C100.051 224.428 99.9184 224.243 99.8029 224.046C99.7162 223.896 99.5429 223.873 99.3926 223.936C99.358 223.954 99.3291 223.977 99.2944 224C99.2309 223.948 99.1673 223.896 99.1095 223.838C98.7513 223.48 98.7109 222.966 98.6993 222.48C98.6646 221.273 98.9073 220.071 98.9073 218.864C98.9073 217.246 98.7629 215.616 98.4277 214.027C97.8095 211.069 96.1975 208.325 96.0473 205.268C95.9664 203.593 96.0762 201.906 95.8913 200.236C95.7122 198.589 95.1864 197.012 94.9379 195.377C94.7992 194.487 94.6837 193.603 94.5046 192.724C94.3312 191.864 94.129 191.008 93.9383 190.153C93.5512 188.408 93.1814 186.646 93.141 184.855C93.141 184.786 93.1179 184.734 93.089 184.687C93.0139 184.312 92.8926 183.931 92.8521 183.561C92.8059 183.11 92.9677 182.752 93.1006 182.33C93.2277 181.92 93.193 181.51 93.0486 181.105C92.7828 180.377 92.2108 179.799 92.0143 179.043C91.8872 178.546 91.9161 177.997 91.9219 177.488C91.9334 176.98 91.9623 176.466 91.9797 175.957C91.997 175.443 92.0028 174.923 91.9623 174.409C91.9161 173.871 91.8063 173.346 91.7312 172.814C91.581 171.751 91.5232 170.682 91.373 169.619C91.2228 168.556 90.9223 167.516 90.6276 166.487C90.3272 165.436 90.0094 164.384 89.6916 163.338C89.0618 161.27 88.4321 159.196 87.9467 157.087C87.4498 154.926 87.2418 152.73 87.08 150.517C86.9991 149.419 86.9298 148.327 86.82 147.23C86.7565 146.559 86.6929 145.883 86.5658 145.219C86.3809 144.26 86.1556 143.312 85.9649 142.359C85.7222 141.163 85.5027 139.955 85.3929 138.736C85.3467 138.222 85.3178 137.708 85.3582 137.193C85.3756 136.974 85.3813 136.864 85.4391 136.645C85.4564 136.564 85.4796 136.489 85.5085 136.413C85.5142 136.39 85.52 136.385 85.52 136.379C85.52 136.379 85.52 136.385 85.5258 136.367C85.5431 136.327 85.5662 136.292 85.5836 136.252C85.5951 136.234 85.6067 136.211 85.6182 136.194C85.6298 136.182 85.6471 136.159 85.6529 136.153C85.6702 136.136 85.676 136.13 85.6818 136.125C85.7049 136.107 85.7338 136.09 85.7627 136.078C85.7916 136.067 85.8089 136.044 85.832 136.026C88.5014 136.419 91.2285 136.379 93.8459 135.657C95.1344 135.298 96.3477 134.686 97.1913 133.623C98.1851 132.369 98.6473 130.768 99.1846 129.289C99.4793 128.475 99.8433 127.695 100.173 126.892C100.502 126.083 100.774 125.251 101.034 124.419C101.577 122.668 102.206 120.935 102.582 119.138C102.773 118.248 102.929 117.347 103.114 116.451C103.119 116.411 103.131 116.37 103.137 116.33C103.102 116.746 103.067 117.167 103.044 117.589C102.894 119.97 102.958 122.35 102.958 124.731C102.958 125.875 102.859 127.03 102.906 128.174C102.946 129.087 103.131 129.988 103.46 130.844C103.784 131.687 104.188 132.589 104.714 133.328C105.263 134.097 106.031 134.345 106.939 134.426C107.447 134.472 107.955 134.466 108.464 134.478C108.972 134.489 109.475 134.541 109.978 134.582C111.151 134.68 112.329 134.732 113.508 134.732C114.675 134.732 115.842 134.657 117.009 134.628C118.211 134.599 119.413 134.593 120.615 134.582C122.989 134.565 125.364 134.53 127.733 134.299C129.992 134.073 132.24 133.79 134.499 133.582C135.325 133.507 136.284 133.369 136.897 132.745C137.492 132.132 137.469 131.173 137.423 130.381C137.359 129.22 137.307 128.053 137.215 126.897C137.405 127.851 137.555 128.81 137.579 129.78C137.596 130.376 137.555 130.965 137.451 131.543C137.365 132.017 137.272 132.496 137.209 132.976C137.099 133.785 136.926 134.986 137.561 135.639C137.862 135.945 138.318 135.997 138.728 135.997C139.248 135.997 139.763 135.911 140.271 135.841C140.283 135.841 140.288 135.841 140.3 135.841C140.254 135.922 140.219 136.003 140.196 136.101C140.063 136.633 140.132 137.24 140.109 137.783C140.028 139.528 139.763 141.232 139.451 142.948C139.295 143.809 139.127 144.664 138.954 145.519C138.786 146.346 138.642 147.172 138.399 147.975C138.168 148.749 137.896 149.512 137.74 150.303C137.607 150.956 137.521 151.661 137.775 152.297C137.96 152.765 138.353 153.181 138.89 153.163C139.404 153.146 139.884 152.799 140.196 152.407C140.693 151.783 140.959 150.985 141.242 150.246C141.548 149.46 141.837 148.639 142.299 147.923C142.472 147.657 142.68 147.409 142.935 147.264C143.039 147.207 143.177 147.16 143.264 147.16C143.426 147.154 143.495 147.16 143.663 147.224C144.096 147.374 144.552 147.761 144.905 148.085C145.003 148.171 145.096 148.264 145.188 148.356C145.188 148.356 145.176 148.362 145.176 148.368C144.957 148.195 144.72 148.05 144.437 147.963C143.911 147.802 143.339 147.923 142.871 148.195C142.478 148.426 142.207 148.813 141.975 149.194C141.421 150.124 141.109 151.164 140.71 152.164C140.462 152.782 140.15 153.383 139.855 153.984C139.503 154.712 139.133 155.428 138.757 156.145C138.151 157.295 137.538 158.462 136.781 159.531C136.504 159.924 136.221 160.311 135.995 160.732C135.816 161.068 135.724 161.38 135.863 161.738C135.626 161.801 135.389 161.853 135.152 161.911C134.678 162.021 134.204 162.148 133.754 162.339C133.257 162.547 132.835 162.841 132.425 163.182C131.801 163.702 131.223 164.292 130.813 164.997C130.408 165.69 130.171 166.464 130.038 167.25C129.842 168.371 129.715 169.503 129.536 170.624C129.154 173.051 128.733 175.472 128.374 177.898C128.022 180.291 127.837 182.694 127.49 185.086C127.149 187.449 126.728 189.807 126.445 192.176C126.306 193.366 126.254 194.562 126.144 195.758C126.04 196.902 125.815 198.034 125.676 199.173C125.607 199.739 125.561 200.311 125.566 200.883C125.566 201.264 125.589 201.64 125.751 201.986C125.855 202.206 126.011 202.385 126.196 202.535C126.034 202.657 126.029 202.934 126.185 203.067C126.185 203.073 126.185 203.084 126.19 203.09C126.19 203.142 126.196 203.2 126.196 203.252C126.196 203.558 126.167 203.864 126.133 204.165C126.034 205.014 125.867 205.886 125.705 206.736C125.393 208.354 125.017 209.954 124.729 211.572C124.422 213.299 124.157 215.039 123.966 216.783C123.775 218.482 123.689 220.187 123.585 221.897C123.486 223.532 123.33 225.179 122.857 226.75C122.377 228.345 121.724 229.882 121.019 231.39C120.418 232.667 119.783 233.926 119.234 235.232C118.795 236.272 118.309 237.439 117.373 238.138L117.391 238.167ZM107.961 199.906C107.99 199.554 108.013 199.196 108.048 198.843C108.048 198.872 108.048 198.895 108.048 198.924C108.048 199.219 108.036 199.525 108.002 199.825C107.984 199.854 107.973 199.883 107.955 199.912L107.961 199.906ZM107.724 145.982C107.424 145.889 107.112 145.843 106.794 145.82C107.014 145.802 107.239 145.791 107.459 145.768C108.522 145.658 109.591 145.19 110.671 145.23C110.267 145.531 109.781 145.716 109.319 145.924C108.649 146.224 108.042 146.6 107.661 147.241C107.568 147.397 107.493 147.559 107.43 147.727C107.441 147.663 107.453 147.594 107.464 147.53C107.551 147.126 107.69 146.744 107.886 146.38C107.973 146.224 107.892 146.039 107.724 145.987V145.982ZM209.189 236.261C208.756 236.168 208.334 236.041 207.93 235.862C208.542 235.371 209.299 235.209 210.073 235.481C209.987 235.822 209.623 236.076 209.189 236.266V236.261Z" fill="#161928"/>
</svg>
