<svg width="207" height="266" viewBox="0 0 207 266" fill="none" xmlns="http://www.w3.org/2000/svg">
<path opacity="0.53" d="M84.2711 59.1914C83.2576 62.3283 82.7509 65.5979 82.2502 68.8554C81.7254 72.2456 81.2066 75.6298 80.6818 79.0201C80.2957 81.5295 79.9096 84.0451 79.7045 86.5787C79.6864 86.7778 79.6744 86.9949 79.7769 87.1638C79.9398 87.4413 80.3078 87.4956 80.6275 87.5198C82.4734 87.6706 84.3133 87.8214 86.1592 87.9722C86.3583 87.9903 86.5755 88.0024 86.7383 87.8817C86.9073 87.7611 86.9615 87.5379 86.9977 87.3388C89.2116 76.5468 88.9583 65.429 89.5676 54.4318C89.6038 53.7803 89.646 53.1167 89.9114 52.5195C90.2734 51.7052 91.0033 51.126 91.7392 50.6193C92.3726 50.185 93.0362 49.7687 93.5007 49.1595C93.9652 48.5502 94.1824 47.6755 93.8023 47.0119C93.5067 46.4811 92.9156 46.1975 92.3485 45.9804C91.6669 45.7149 90.9369 45.4978 90.207 45.5883C88.7351 45.7632 87.6492 47.1567 87.3476 48.6045C86.9977 50.2755 87.9026 52.1154 87.2994 53.7019C86.9676 54.5826 86.123 55.2703 85.6344 56.0666C85.0372 57.0378 84.6149 58.1116 84.265 59.1914H84.2711Z" fill="#768AD3"/>
<path opacity="0.53" d="M81.0076 106.998C81.5022 107.318 82.1537 107.107 82.7027 106.89C83.9815 106.383 87.5407 105.183 86.4006 103.264C85.7611 102.178 83.511 101.515 82.3649 101.316C81.4057 101.147 80.0605 101.05 79.6201 102.13C79.228 103.089 80.157 106.461 81.0076 107.004V106.998Z" fill="#768AD3"/>
<path d="M46.4116 76.8664C50.9721 85.6134 59.5141 91.6821 64.4909 100.194C68.1465 99.8319 71.7841 99.2407 75.3673 98.4143C73.2077 97.25 71.3678 95.5127 70.0769 93.4255C69.4073 92.3396 68.979 90.7229 69.9864 89.9447C70.656 89.4259 71.5971 89.5828 72.4416 89.5768C73.2862 89.5768 74.3298 89.1605 74.3479 88.316C74.3539 88.0264 74.2332 87.755 74.1126 87.4956C72.2305 83.4056 69.8839 76.8242 64.8226 76.058C62.289 75.672 47.1657 78.3142 46.4116 76.8664Z" fill="#AAA79F"/>
<path d="M43.0757 75.3162C42.9248 75.0809 42.6594 74.9482 42.4 74.8517C41.7545 74.6104 41.0246 74.5682 40.343 74.5259C39.7518 74.4897 39.1365 74.5139 38.5513 74.4173C36.8381 74.1278 36.0117 72.4568 35.1792 71.1236C34.021 69.2596 32.7421 67.468 31.7829 65.4893C30.8539 63.571 30.1662 61.5562 29.4182 59.5655C29.0502 58.5882 28.6642 57.617 28.2358 56.6639C28.0488 56.2537 27.8317 55.8917 27.5843 55.5177C27.3853 55.2161 27.1922 54.8903 27.343 54.5224C27.4637 54.2388 27.7352 54.1121 27.9945 53.9975C28.2901 53.8648 28.5918 53.7502 28.8451 53.533C29.1105 53.3098 29.2734 52.966 29.2493 52.6161C29.2252 52.2119 29.0321 51.8319 28.8813 51.4639C28.815 51.301 28.7546 51.1382 28.7124 50.9692C28.6641 50.7641 28.6822 50.5409 28.6943 50.3358C28.7184 49.811 28.7908 49.2922 28.7667 48.7674C28.7607 48.5985 28.6219 48.4356 28.4409 48.4417C27.524 48.502 26.8665 49.2138 26.0823 49.5999C25.8048 49.7326 25.5152 49.799 25.2558 49.6059C24.9542 49.3767 24.7431 49.0208 24.5681 48.695C24.3932 48.3693 24.2424 48.0254 24.1338 47.6695C24.0252 47.3075 23.808 47.0602 23.989 46.6802C24.1519 46.3303 24.6043 46.1915 24.7913 45.8477C24.9542 45.5461 24.8637 45.1117 24.6103 44.8946C24.369 44.6834 24.0312 44.6593 23.7356 44.593C23.5909 44.5628 23.4521 44.5326 23.3254 44.4602C23.2591 44.418 23.2048 44.3758 23.1565 44.3155C23.1083 44.2551 23.1324 44.2913 23.1143 44.225C23.066 44.0319 23.1445 43.6881 23.2169 43.4347C23.3254 43.0667 23.4702 42.7108 23.6271 42.3609C23.9166 41.6913 24.2665 41.0398 24.4656 40.334C24.5319 40.1048 24.5983 39.8816 24.6646 39.6524C24.8154 39.6765 24.9723 39.6162 25.0266 39.4292C25.1593 38.9285 25.1472 38.4278 25.105 37.915C25.105 37.8969 25.111 37.8849 25.1171 37.8668C25.2679 37.0343 25.3041 36.1656 24.9542 35.3754C24.5561 34.4765 23.6995 33.9578 22.8067 33.6441C22.7886 33.638 22.7704 33.638 22.7524 33.6441C22.6619 33.5958 22.5774 33.5476 22.4869 33.5053C21.9319 33.2097 21.2684 32.9021 20.6229 33.0227C20.0076 33.1373 19.6637 33.6923 19.4647 34.2413C19.3199 34.6515 19.2535 35.0858 19.151 35.5141C19.0364 36.0028 18.8916 36.4793 18.7227 36.9498C18.3849 37.903 17.9324 38.8078 17.4257 39.6765C16.9853 40.4306 16.5812 41.2208 16.8285 42.1136C17.0336 42.8616 17.6006 43.4528 18.1375 43.9837C18.7951 44.6352 19.4405 45.2927 20.0619 45.9864C21.3709 47.4523 22.6196 48.9966 23.5185 50.7521C23.9588 51.6087 24.3027 52.5075 24.5138 53.4486C24.7129 54.3474 24.369 55.1678 24.1881 56.0365C24.0976 56.4708 24.0554 56.9112 24.1217 57.3516C24.1881 57.804 24.357 58.2444 24.55 58.6606C24.9542 59.5353 25.5333 60.3075 26.1004 61.0796C26.6553 61.8397 27.1681 62.6179 27.5843 63.4624C28.0247 64.3492 28.3746 65.2782 28.6822 66.2253C29.3096 68.1376 29.756 70.1041 30.3351 72.0345C30.4799 72.5171 30.6307 72.9937 30.7996 73.4703C30.9565 73.9287 31.1133 74.3993 31.3486 74.8215C31.5778 75.2378 31.9217 75.6359 32.0544 76.1004C32.1268 76.3417 32.0664 76.7097 32.0906 76.9872C32.1147 77.319 32.2173 77.5482 32.549 77.6688C32.8205 77.7714 33.1342 77.7834 33.4237 77.8015C34.0571 77.8317 34.6845 77.7895 35.3179 77.8136C36.4822 77.8558 37.6465 77.8317 38.8107 77.8136C39.3657 77.8015 39.9267 77.7895 40.4817 77.7955C40.904 77.7955 41.3262 77.8498 41.7425 77.8196C42.1346 77.7955 42.5508 77.705 42.8283 77.4034C43.0877 77.1259 43.1963 76.7217 43.2385 76.3538C43.2747 76.0159 43.2566 75.6299 43.0696 75.3343L43.0757 75.3162Z" fill="#161928"/>
<path d="M45.8625 72.8489C45.7117 72.2818 46.0616 71.6726 46.5563 71.3468C47.0449 71.0211 47.6421 70.9064 48.2212 70.7858C52.3414 69.9594 56.3711 68.6805 60.2077 66.9733C60.6119 66.7923 61.0221 66.6053 61.3539 66.3037C61.9873 65.7246 62.2105 64.8438 62.4095 64.0114C62.687 62.829 62.9645 61.6527 63.242 60.4703C63.4652 59.5232 63.7065 58.5339 64.3218 57.7799C64.5028 57.5627 64.7743 57.3455 65.0397 57.442C65.2508 57.5144 65.3473 57.7497 65.4197 57.9608C66.765 62.081 64.3399 66.4847 64.5269 70.816C64.539 71.1055 64.5692 71.4192 64.7562 71.6484C64.8949 71.8234 65.106 71.9259 65.3111 72.0164C66.4875 72.5412 67.7362 72.9032 69.0151 73.0842C70.7283 73.3315 72.7914 73.434 73.66 74.9301C73.9617 75.4489 74.0582 76.0582 74.3115 76.6011C75.0234 78.1273 76.8452 78.8874 77.6173 80.3834C77.9853 81.0952 78.0818 81.9156 78.1723 82.7119C78.3412 84.1838 78.5101 85.6618 78.679 87.1337C76.1756 85.137 74.6976 82.169 72.9422 79.4906C71.1867 76.8122 68.81 74.1941 65.649 73.6753C64.9492 73.5607 64.2313 73.5547 63.5195 73.5426C63.3023 73.5426 63.0671 73.5245 62.9102 73.3737C62.7474 73.2169 62.7353 72.9575 62.7353 72.7282C62.7293 70.9245 62.7172 69.1208 62.7112 67.3171C61.8425 67.3413 61.203 68.0953 60.6058 68.7287C57.849 71.6424 53.5056 72.9514 49.5966 72.0526" fill="#161928"/>
<path d="M82.5881 7.83115C82.8535 7.9337 83.1853 8.05435 83.2275 8.33788C83.2637 8.56108 83.0948 8.75412 82.9501 8.92302C80.7844 11.4144 80.4587 14.9977 80.6034 18.3035C80.6517 19.4979 80.7482 20.7104 80.525 21.8867C80.4285 22.3935 80.2656 22.8881 80.2113 23.4009C80.1148 24.2515 80.3018 25.102 80.4888 25.9345C81.1102 28.7155 81.7315 31.5025 82.3528 34.2834C82.4011 34.4945 82.4554 34.7238 82.6243 34.8565C82.8173 35.0073 83.0828 34.9892 83.3241 34.959C85.1036 34.76 86.8892 34.5669 88.6688 34.3679C88.5723 35.1702 87.8001 35.7071 87.0521 36.0087C86.3041 36.3043 85.4716 36.4913 84.8804 37.0402C83.873 37.9873 84.0118 39.7307 84.8804 40.7984C85.7551 41.8662 87.1486 42.3669 88.512 42.578C87.589 41.2087 86.66 39.8393 85.737 38.4699C85.4837 38.0959 85.2303 37.5952 85.4957 37.2333C85.6345 37.0402 85.8758 36.9558 86.099 36.8894C87.2994 36.5214 88.5361 36.2319 89.64 35.6467C90.75 35.0616 91.7453 34.1205 92.059 32.908L84.0057 34.024C83.5231 31.6955 84.2712 29.1739 83.4447 26.9419C83.131 26.1034 82.6122 25.3554 82.2925 24.5169C81.9125 23.5276 81.828 22.4598 81.7496 21.4041C81.641 19.9443 81.5324 18.4784 81.6229 17.0186C81.7556 14.7624 82.3528 12.5546 82.938 10.3708C83.0526 9.93647 83.1793 9.49007 83.4507 9.13416C83.8971 8.54901 84.6693 8.31375 85.4052 8.24739C87.4985 8.04832 89.7004 8.91096 91.6609 8.16293C90.4665 7.36062 88.9222 7.39682 87.4864 7.31839C86.1352 7.23997 84.5486 6.95041 83.7282 5.76202C83.2215 5.02606 83.2939 2.81216 82.5338 2.37782C81.4238 1.75045 80.5793 3.88593 80.5552 4.73651C80.525 6.03951 81.3635 7.36665 82.5881 7.84322V7.83115Z" fill="#161928"/>
<path d="M69.6304 101.823C69.3649 101.883 69.0814 101.961 68.9246 102.179C68.7556 102.42 68.7979 102.746 68.8461 103.035C69.2382 105.321 69.6364 107.602 70.0285 109.888C70.0647 110.087 70.0949 110.304 70.0285 110.497C69.9501 110.708 69.757 110.853 69.6123 111.022C68.9185 111.806 69.383 113.266 70.4025 113.508C69.009 114.105 68.7376 116.029 67.5311 116.94C67.1329 117.242 66.6383 117.423 66.3366 117.821C66.0893 118.146 66.0109 118.569 65.9385 118.973C65.0638 123.986 64.3399 129.023 63.7849 134.084C64.7501 132.293 65.7213 130.483 66.222 128.516C67.0424 125.283 66.5719 121.73 67.9956 118.714C68.6893 117.248 69.7872 116.017 70.6136 114.624C72.2786 111.812 72.7853 108.416 72.4656 105.165C72.3932 104.417 72.2846 103.632 72.5923 102.951C73.1955 101.606 74.9027 101.412 76.1816 101.274C73.9858 100.568 71.7779 101.328 69.6364 101.823H69.6304Z" fill="#161928"/>
<path d="M113.348 67.7876C113.619 65.3626 113.179 62.8651 112.099 60.6814C110.971 61.6526 110.904 63.3357 110.868 64.8197C110.693 72.5834 109.179 80.317 106.41 87.574C106.181 88.1652 105.934 88.7805 105.463 89.2088C104.426 90.1438 102.815 89.8181 101.439 90.0654C100.915 90.1619 100.287 90.6144 100.535 91.0849C102.085 91.5615 103.756 91.3202 105.361 91.0728C105.632 91.0306 105.916 90.9824 106.145 90.8255C106.392 90.6566 106.537 90.3791 106.67 90.1137C110.657 82.1328 111.646 73.0419 112.575 64.1742" fill="#161928"/>
<path d="M56.4494 187.381C56.9562 172.33 59.6346 157.442 62.3069 142.62C62.699 140.442 63.1032 138.223 64.1348 136.262C65.9083 137.372 66.2703 139.875 65.7273 141.896C65.1844 143.917 63.9719 145.691 63.2299 147.645C62.132 150.529 62.1018 153.69 61.8967 156.766C61.4262 163.842 59.9905 170.816 59.0675 177.85C56.6002 196.671 57.849 215.764 59.2666 234.699C59.4053 236.557 59.5561 238.458 60.3404 240.147C61.1125 241.806 62.5543 243.109 64.3821 243.416C59.8095 244.568 56.9924 244.677 56.8717 239.278C56.745 233.614 57.3241 227.907 57.2035 222.218C56.9622 210.606 56.0513 198.999 56.4434 187.381H56.4494Z" fill="#161928"/>
<path d="M96.0524 200.851C95.9318 183.267 95.0812 165.26 88.3972 148.997C87.9508 147.911 87.4863 146.626 88.1017 145.618C88.6808 144.665 89.9295 144.448 91.0093 144.183C94.6831 143.29 97.9406 140.786 99.7503 137.469C94.3271 141.45 86.9555 142.62 80.5671 140.515C81.3091 142.56 83.7824 143.797 85.8636 143.163C85.194 145.094 86.0808 147.175 86.859 149.063C93.4524 165.013 93.4343 182.814 93.3137 200.073C93.2835 204.561 93.2534 209.049 93.2172 213.544C93.181 218.919 93.1448 224.299 92.9397 229.674C92.9035 230.573 92.071 236.057 92.7889 236.467C93.8807 237.088 95.1656 234.862 95.4431 234.138C97.09 229.873 95.8895 222.472 95.9619 217.893C96.0584 212.217 96.0886 206.534 96.0524 200.857V200.851Z" fill="#161928"/>
<path d="M97.1023 244.689C97.5909 245.214 97.5004 246.167 96.9153 246.589C96.3603 246.987 95.558 246.897 95.009 247.301C94.1403 247.928 94.3877 249.243 94.4963 250.311C94.816 253.496 93.0243 256.621 93.3863 259.806C94.5083 259.01 96.0285 259.203 97.3858 259.432C98.1579 259.565 98.9482 259.698 99.6178 260.102C100.287 260.506 100.812 261.248 100.734 262.026C97.7055 261.32 94.5747 261.079 91.474 261.314C90.7622 260.482 90.8768 259.215 91.2991 258.202C91.7213 257.188 92.397 256.295 92.7348 255.252C93.0364 254.329 93.0545 253.339 93.1028 252.368C93.1932 250.679 93.3863 248.99 93.6879 247.325C93.8749 246.294 94.2912 245.075 95.3167 244.876" fill="#161928"/>
<path d="M58.7238 247.265C57.8552 248.019 56.4556 246.975 55.3758 247.367C54.9355 247.53 54.6157 247.904 54.2839 248.242C52.8301 249.732 50.8756 250.595 48.9694 251.433C46.49 252.519 44.0107 253.599 41.5314 254.685C41.1453 254.854 40.7049 255.089 40.6567 255.511C40.5782 256.157 41.4288 256.452 42.0743 256.519C43.7211 256.675 45.5972 256.766 46.8037 255.632C47.6603 254.83 47.9619 253.593 48.6919 252.676C50.019 251.011 52.4079 250.715 54.2116 249.575C55.2552 248.918 56.1419 247.947 57.3303 247.627C58.0542 247.434 58.8203 247.506 59.5684 247.482C60.7387 247.446 61.909 247.18 62.9767 246.698C60.793 246.402 58.5489 246.595 56.4496 247.265" fill="#161928"/>
<path d="M82.9019 89.5889C81.3033 91.0548 78.8723 91.0005 76.7126 90.8255C76.0672 90.7712 75.3795 90.723 74.8124 91.0366C74.1489 91.4046 73.8171 92.2069 73.8352 92.961C73.8533 93.7151 74.173 94.4329 74.553 95.0905C74.7883 95.5007 75.0537 95.8988 75.3976 96.2246C75.8198 96.6227 76.3507 96.8942 76.8695 97.1596C80.0607 98.7883 83.3182 100.435 86.8532 101.002C85.6467 99.9164 84.1205 99.2347 82.9381 98.1248C81.7558 97.0148 80.9595 95.1809 81.7678 93.7693C82.1961 93.0213 82.9743 92.5568 83.6077 91.9657C84.2411 91.3745 84.7539 90.4756 84.4221 89.6794" fill="#161928"/>
<path d="M205.927 246.945C202.151 246.728 198.333 246.662 194.544 246.752C190.798 246.837 187.076 247.349 183.33 247.488C182.479 247.518 181.617 247.53 180.778 247.379C180.651 247.355 180.525 247.331 180.398 247.301C180.404 247.277 180.416 247.253 180.422 247.229C180.549 246.631 179.789 246.511 179.373 246.631C178.812 246.8 178.878 247.229 179.186 247.512C178.16 248.037 176.797 247.826 175.699 247.778C173.871 247.699 172.031 247.669 170.203 247.651C166.415 247.621 162.639 247.392 158.85 247.325C155.05 247.259 151.261 247.494 147.467 247.53C143.655 247.573 139.842 247.603 136.03 247.717C132.181 247.832 128.332 247.965 124.483 247.989C120.641 248.013 116.798 247.989 112.955 247.989C111.845 247.989 110.766 248.115 109.668 248.254C108.503 248.399 107.255 248.568 106.091 248.357C105.741 248.29 105.391 248.188 105.101 247.989C105.107 247.983 105.119 247.977 105.125 247.965C105.149 247.947 105.174 247.928 105.198 247.904C105.324 247.784 105.198 247.524 105.017 247.597C104.878 247.651 104.733 247.705 104.601 247.784C104.564 247.802 104.54 247.832 104.516 247.868C104.504 247.868 104.486 247.874 104.474 247.88C104.462 247.88 104.45 247.892 104.438 247.898C104.438 247.699 104.42 247.5 104.353 247.313C104.335 247.265 104.311 247.229 104.293 247.18C104.335 246.119 104.438 245.057 104.281 244.001C104.727 243.959 105.162 243.85 105.542 243.579C106.241 243.072 106.706 242.258 106.826 241.407C106.953 240.539 106.796 239.682 106.748 238.819C106.694 237.921 106.766 236.992 106.826 236.093C106.887 235.242 106.971 234.368 107.249 233.559C107.4 233.131 107.593 232.727 107.761 232.304C107.979 231.761 108.184 231.2 108.274 230.621C108.359 230.121 108.383 229.548 108.045 229.131C107.93 228.993 107.78 228.89 107.611 228.824C107.737 227.418 108.015 226.055 108.407 224.685C108.642 223.853 108.781 223.02 108.853 222.158C108.926 221.271 108.962 220.378 109.131 219.504C109.294 218.659 109.463 217.833 109.511 216.97C109.559 216.107 109.535 215.245 109.475 214.388C109.354 212.669 109.101 210.956 108.98 209.236C108.859 207.439 108.998 205.653 109.095 203.855C109.143 202.957 109.155 202.058 109.173 201.159C109.191 200.32 109.167 199.482 108.944 198.668C108.733 197.901 108.449 197.171 108.654 196.375C108.757 195.971 108.926 195.591 109.04 195.193C109.155 194.801 109.191 194.391 109.185 193.98C109.179 193.112 108.992 192.255 108.914 191.386C108.835 190.488 108.859 189.589 108.932 188.69C109.071 186.892 109.312 185.107 109.445 183.309C109.577 181.493 109.65 179.683 109.626 177.862H109.722C109.734 176.209 109.77 174.556 109.77 172.903C109.77 170.532 109.601 168.186 109.378 165.827C109.161 163.529 108.944 161.212 109.089 158.902C109.221 156.76 109.873 154.836 110.723 152.887C111.49 151.12 112.298 149.346 112.636 147.434C112.829 146.36 112.925 145.268 113.13 144.195C113.323 143.163 113.553 142.138 113.77 141.112C114.21 139.037 114.602 136.938 114.596 134.802C114.596 132.528 114.168 130.217 113.728 127.997C113.287 125.771 112.612 123.618 112.099 121.41C111.707 119.733 111.646 118.002 111.405 116.301C111.236 115.124 111.007 113.809 110.247 112.85C110.518 112.162 110.392 111.342 110.247 110.642C110.144 110.166 110.006 109.695 109.867 109.231C109.746 108.826 109.626 108.41 109.384 108.06C109.113 107.656 108.751 107.457 108.335 107.385C108.479 107.294 108.618 107.179 108.715 107.041C108.926 106.739 108.902 106.347 108.793 106.015C108.672 105.653 108.467 105.322 108.274 104.996C108.111 104.712 108.003 104.411 107.876 104.103C107.647 103.536 107.43 102.782 106.911 102.396C107.387 102.396 107.864 102.42 108.341 102.444C110.15 102.535 111.954 102.697 113.77 102.655C117.401 102.571 120.997 101.913 124.538 101.147C125.979 100.833 127.488 100.453 128.694 99.5666C129.279 99.1383 129.738 98.6134 130.021 97.9438C130.293 97.3044 130.407 96.6167 130.462 95.923C130.6 94.2942 130.63 92.6473 130.649 91.0186C130.649 90.5903 130.649 90.156 130.649 89.7276C130.721 89.426 130.751 89.1184 130.721 88.7806C130.703 88.5996 130.679 88.4186 130.643 88.2437C130.63 87.3388 130.612 86.44 130.582 85.5411C130.57 85.1008 130.552 84.6604 130.54 84.22C130.54 84.1054 130.468 83.9908 130.371 83.9305C130.353 83.5323 130.142 83.1402 129.973 82.7964C129.683 82.1992 129.569 81.5838 129.472 80.9324C129.358 80.2024 129.195 79.5027 128.96 78.8029C128.73 78.1152 128.465 77.4396 128.296 76.7398C128.109 75.9797 128.018 75.2015 127.916 74.4294C127.807 73.6572 127.675 72.9032 127.445 72.1612C127.222 71.4252 127.035 70.6772 126.866 69.9292C126.528 68.4331 126.269 66.925 125.925 65.435C125.581 63.9148 125.207 62.4007 124.857 60.8805C124.508 59.3664 124.194 57.8281 123.747 56.3381C123.331 54.9506 122.752 53.6054 122.01 52.3567C121.69 51.8137 121.286 51.2708 121.154 50.6435C121.069 50.2332 121.093 49.7627 120.737 49.4671C120.58 49.3344 120.381 49.2681 120.176 49.262C119.706 48.1822 118.397 47.4282 117.425 46.9456C116.72 46.5957 115.99 46.3001 115.26 45.9985C113.999 45.4737 112.732 44.9669 111.471 44.43C110.241 43.9052 109.034 43.3382 107.828 42.7771C106.658 42.2403 105.487 41.6853 104.407 40.9734C104.275 40.889 104.148 40.7864 104.015 40.696C104.009 40.6718 104.003 40.6477 103.997 40.6296C103.768 40.0022 103.358 39.405 103.002 38.844C102.586 38.1985 102.157 37.535 101.633 36.9739C101.439 36.7628 101.192 36.5577 100.939 36.4913C101.035 35.7373 100.607 34.9893 100.305 34.3016C99.8047 33.1675 99.8831 31.9248 100.1 30.7304C100.336 29.4093 100.818 28.1364 101.458 26.9541C101.614 26.6585 101.783 26.3749 101.964 26.0914C102.037 25.9768 102.025 25.8622 101.964 25.7717C102.103 25.6329 102.248 25.4882 102.387 25.3494C102.712 25.0237 103.092 24.7703 103.454 24.4928C103.961 24.1067 104.474 23.7267 104.926 23.2743C105.379 22.8218 105.753 22.297 106.066 21.742C106.712 20.5959 107.08 19.323 107.43 18.0683C107.798 16.7351 108.093 15.3718 108.087 13.9783C108.081 12.6511 107.683 11.3361 107.194 10.1115C106.73 8.94722 106.127 7.86741 105.391 6.85396C105.125 6.48598 104.848 6.118 104.534 5.78018C104.365 5.60524 104.184 5.4303 103.979 5.30362C103.979 4.88135 103.732 4.48924 103.472 4.16952C102.743 3.26466 101.717 2.5287 100.679 2.01594C99.6599 1.51525 98.5681 1.20759 97.4521 0.996458C96.0827 0.737063 94.7073 0.495765 93.3259 0.290662C91.872 0.0734936 90.4243 -0.0290586 88.9523 0.00713601C87.4865 0.0433307 86.0206 0.170013 84.5668 0.399246C83.8429 0.513862 83.119 0.664673 82.4071 0.839614C81.8582 0.97836 81.3032 1.12314 80.7844 1.37047C80.3923 1.55747 80.0424 1.82893 79.783 2.17882C79.5055 2.55886 79.3789 3.02336 79.3306 3.48786C79.2582 4.12729 79.2461 4.7788 79.2341 5.41824C79.216 6.06974 79.222 6.73331 79.3306 7.37275C79.4693 8.16903 80.0605 8.71798 80.7844 9.00754C81.1343 9.15232 81.5023 9.23677 81.8823 9.29107C81.448 9.78573 81.1403 10.3648 80.9171 10.9982C80.6336 11.8307 80.3923 12.6753 80.1088 13.5077C79.8011 14.4066 79.5116 15.3295 79.5236 16.2887C79.5357 17.1513 79.8494 17.9597 80.0183 18.7982C80.1028 19.2205 80.145 19.6669 80.0666 20.0952C79.9942 20.4993 79.8554 20.8914 79.7167 21.2775C79.4633 21.9954 79.216 22.7072 79.2461 23.4794C79.2642 23.962 79.3849 24.4385 79.4874 24.903C79.596 25.4037 79.7167 25.8984 79.8313 26.3991C80.0726 27.4005 80.326 28.4018 80.513 29.4153C80.6939 30.4046 80.7663 31.412 80.8387 32.4134C80.8749 32.9081 80.9051 33.4027 80.9654 33.8974C80.9956 34.1387 81.0438 34.3679 81.1343 34.5972C81.4721 35.4236 82.2624 35.8519 83.0948 36.0268C83.0828 36.0691 83.0828 36.1113 83.0948 36.1475C83.2517 36.8111 83.4146 37.4746 83.5593 38.1442C83.5352 38.1563 83.5111 38.1744 83.493 38.2106C82.938 39.405 81.7918 40.328 81.4601 41.631C81.2127 41.5948 80.9654 41.6189 80.7422 41.7637C80.4044 41.9809 80.1812 42.3428 79.8977 42.6143C79.0229 43.4468 77.8225 43.4588 76.6884 43.4709C75.3492 43.489 74.016 43.5976 72.6828 43.688C72.0072 43.7363 71.3316 43.7725 70.6499 43.7906C70.1191 43.8027 69.5882 43.7785 69.0634 43.8087C68.5748 43.8328 68.0137 43.8992 67.6518 44.2611C67.2597 44.6532 67.3502 45.1298 67.2898 45.6064C66.6926 45.4495 66.0894 45.2686 65.4801 45.5098C65.269 45.5943 65.0759 45.727 65.0035 45.9562C64.9553 46.1252 65.0035 46.3122 64.9492 46.475C64.7803 46.9516 64.0685 47.1567 63.6583 47.3316C63.5799 47.3678 63.5015 47.398 63.4291 47.4342C62.1381 47.5971 60.7205 49.262 60.0449 50.0462C59.315 50.8968 58.6454 51.8017 57.9335 52.6643C56.9744 53.8226 55.6472 54.6611 54.3503 55.4031C52.6129 56.3984 50.767 57.1947 48.9934 58.1177C47.3828 58.9501 45.7178 59.6861 44.1977 60.6694C43.4496 61.158 42.7257 61.7009 42.1104 62.3524C41.839 62.6359 41.5856 62.9376 41.3021 63.209C41.0065 63.4926 40.6988 63.7821 40.4937 64.1441C40.4515 64.2164 40.4213 64.2949 40.3972 64.3733C40.3248 64.2466 40.2464 64.1199 40.1499 64.0053C39.7035 63.4503 39.0218 63.1306 38.6478 62.5213C38.4427 62.1835 38.2979 61.8035 38.135 61.4415C37.9299 60.9951 37.7309 60.5487 37.5318 60.1023C37.1578 59.2759 36.7536 58.4555 36.4098 57.617C35.7402 56.0063 35.2877 54.3172 34.5759 52.7246C33.8882 51.1803 32.8687 49.6843 31.5657 48.5985C31.4994 48.5442 31.4028 48.508 31.3184 48.514C31.0771 47.772 30.7212 47.0722 30.5523 46.3122C30.3653 45.4616 30.4919 44.5808 30.0998 43.7785C30.13 43.4166 30.0636 43.0365 29.9611 42.6927C29.6655 41.6491 29.1165 40.7201 28.7365 39.7127C28.5012 39.0913 28.2479 38.4821 27.9523 37.8848C27.6386 37.2575 27.3068 36.6361 27.0173 35.9967C26.7277 35.3572 26.5467 34.6997 26.3477 34.0301C26.1546 33.3786 25.853 32.7693 25.5514 32.16C25.2799 31.6171 25.0145 31.0742 24.8395 30.4951C24.6948 30.0185 24.562 29.542 24.363 29.0895C24.176 28.6612 23.9226 28.2269 23.5064 27.9796C23.4099 27.9253 23.3073 27.877 23.2048 27.8469C23.1746 27.8408 23.1444 27.8288 23.1143 27.8227C23.1022 27.8227 23.0901 27.8227 23.0781 27.8167C23.0539 27.8167 23.0419 27.8107 23.0298 27.8107C23.0298 27.8107 23.0238 27.8107 22.9936 27.8107C22.873 27.7986 22.7523 27.7986 22.6317 27.8408C22.0827 28.0339 22.0948 28.7517 22.1249 29.2283C22.1732 29.8738 22.312 30.5011 22.4507 31.1345C21.8233 29.5902 21.1658 28.052 20.5324 26.5077C19.7482 24.5833 18.97 22.6529 18.1375 20.7467C17.667 19.6729 17.1964 18.569 16.6173 17.5434C16.5811 17.4771 16.4725 17.4228 16.3941 17.453C16.2192 17.5253 16.1287 17.5796 16.0201 17.7305C15.9296 17.8511 15.8814 17.9959 15.8572 18.1407C15.7909 18.5509 15.8633 18.9852 15.9538 19.3833C16.2373 20.6321 16.75 21.8265 17.2688 22.9907C17.8721 24.3299 18.5417 25.639 19.2475 26.9239C19.7421 27.8227 20.2549 28.7095 20.7616 29.6023C20.9667 29.9703 21.0874 30.2719 21.2321 30.6761C21.3769 31.0983 21.5217 31.5206 21.6846 31.9369C21.7751 32.154 21.8716 32.3772 21.9862 32.5884C21.8776 32.5522 21.769 32.5099 21.6604 32.4798C21.2683 32.3591 20.8702 32.2385 20.4781 32.1239C20.098 32.0153 19.6818 31.9429 19.3078 32.1239C18.8795 32.3229 18.6322 32.8236 18.5658 33.27C18.4874 33.7948 18.6865 34.2774 18.7166 34.7902C18.7407 35.134 18.6684 35.5201 18.3607 35.7132C18.1435 35.8519 17.8962 35.9183 17.7213 36.1173C17.4498 36.419 17.4438 36.8533 17.4739 37.2394C17.492 37.4445 17.5282 37.6556 17.5101 37.8607C17.492 38.0899 17.3895 38.3192 17.2749 38.5182C17.1361 38.7475 16.9672 38.9526 16.8466 39.1878C16.7259 39.4352 16.6656 39.7066 16.6535 39.9781C16.6234 40.515 16.8043 41.0217 16.8828 41.5465C16.9129 41.7577 16.9431 42.005 16.8586 42.2101C16.7802 42.385 16.6656 42.5359 16.6294 42.7289C16.5329 43.2477 16.9431 43.6036 17.1241 44.05C17.5524 45.0996 18.1737 46.0347 18.8373 46.9456C19.163 47.3859 19.4827 47.8384 19.8447 48.2486C20.1765 48.6226 20.5324 48.9725 20.8943 49.3163C21.6243 50.01 22.4085 50.6917 22.9454 51.5544C23.2108 51.9827 23.4159 52.4592 23.4461 52.9659C23.4642 53.2796 23.4219 53.5933 23.3857 53.907C23.2409 53.8829 23.06 53.9613 23.0057 54.1121C22.7403 54.8481 23.3857 55.5297 23.9528 55.8977C24.1036 55.9942 24.2604 56.0727 24.4233 56.1269C24.3208 56.1993 24.2242 56.2838 24.1398 56.3863C23.4099 57.3214 23.9106 58.564 24.3509 59.4991C24.6224 60.0842 24.8697 60.6633 25.0808 61.2726C25.3282 61.9844 25.5755 62.6963 25.8651 63.39C27.0474 66.2011 28.1574 69.0424 29.3337 71.8596C29.9008 73.2169 30.4678 74.5742 30.9263 75.9737C31.1073 76.5226 31.2641 77.0716 31.3908 77.6326C31.4752 78.0187 31.5718 78.447 31.8492 78.7486C32.1448 79.0683 32.4706 79.1105 32.7843 79.002C32.7963 79.014 32.8084 79.0201 32.8205 79.0321C33.2548 79.3217 33.84 79.3699 34.3467 79.3941C34.9801 79.4303 35.6195 79.3941 36.2529 79.3579C37.5439 79.2915 38.8227 79.4665 40.1137 79.4303C41.7002 79.388 43.3471 79.0261 44.4329 77.7834C44.6983 77.4818 44.258 77.0354 43.9865 77.337C43.1299 78.3143 41.9234 78.7124 40.6566 78.815C39.4441 78.9175 38.2436 78.7486 37.0371 78.7727C35.9875 78.7908 34.9379 78.9658 33.8882 78.8331C33.7314 78.815 33.484 78.7848 33.2789 78.7064C33.5504 78.4892 33.7917 78.2057 33.9606 77.9704C34.4915 77.2224 35.0163 76.2512 35.1188 75.3222C35.1309 75.2256 35.0344 75.105 34.9379 75.0869C34.0631 74.924 33.3212 76.0642 32.9652 76.6976C32.7119 77.144 32.3318 77.9101 32.4525 78.4892C32.3439 78.4651 32.2414 78.3867 32.1569 78.2298C31.9759 77.892 31.9397 77.4758 31.8613 77.1017C31.7286 76.4864 31.5114 75.8772 31.3063 75.286C30.8599 74.0011 30.3351 72.7463 29.8103 71.4916C28.7124 68.8614 27.6989 66.1951 26.5467 63.5891C26.2572 62.9376 25.9978 62.274 25.7565 61.6044C25.5453 61.0132 25.3463 60.41 25.0808 59.8429C24.6706 58.9743 23.8502 57.6894 24.5017 56.7423C24.7491 56.3803 25.2075 56.3501 25.6057 56.2959C26.1003 56.2295 26.5648 56.1269 27.0293 55.9279C27.7351 55.6263 28.5254 55.1437 28.9838 54.4741C29.6414 53.907 30.2325 53.2253 30.5945 52.4351C31.0469 51.4518 31.0711 50.3418 31.4451 49.3344C32.4465 50.2875 33.2488 51.4759 33.846 52.7126C34.5819 54.2388 35.0163 55.8977 35.6376 57.4722C35.9634 58.2986 36.3615 59.0889 36.7355 59.8912C37.0975 60.6754 37.4594 61.4657 37.8334 62.2499C38.0023 62.5998 38.1712 62.9315 38.4427 63.2211C38.678 63.4745 38.9555 63.6735 39.2209 63.8967C39.4803 64.1079 39.7216 64.3311 39.8905 64.6146C40.0835 64.9343 40.1861 65.2963 40.2826 65.6582C40.4998 66.4967 40.4756 67.3111 40.4334 68.1677C40.3912 69.0062 40.355 69.8869 40.6506 70.6953C40.735 70.9305 41.0668 71.0029 41.2056 70.7677C42.1466 69.1751 41.6339 67.3111 41.109 65.6703C41.0065 65.3566 40.8436 64.9403 40.9582 64.6086C41.0789 64.2526 41.4167 63.9631 41.6821 63.7097C42.2552 63.1547 42.7559 62.5394 43.3772 62.0327C44.7466 60.9107 46.3633 60.1264 47.9438 59.3483C49.6027 58.5279 51.2677 57.7135 52.9206 56.887C54.6519 56.0244 56.3591 55.0532 57.7948 53.7321C58.4403 53.1409 58.9409 52.3687 59.4778 51.681C60.2017 50.7581 60.9377 49.8291 61.8003 49.0328C61.927 48.9182 62.0718 48.7794 62.2347 48.6467C62.2829 48.7432 62.3734 48.8217 62.4941 48.8096C62.8198 48.7734 63.1757 48.701 63.5015 48.7674C63.8031 48.8277 64.0022 49.063 64.159 49.3103C64.6537 50.0885 64.9191 51.0114 65.1664 51.8982C65.7335 53.9191 65.8602 56.0063 66.1859 58.0694C66.2342 58.3589 66.6745 58.3288 66.7409 58.0694C67.1933 56.3803 67.133 54.5766 66.7952 52.8694C66.4634 51.2165 65.8541 49.437 64.8226 48.0797C64.6838 47.8987 64.533 47.7599 64.3822 47.6574C64.7261 47.5066 65.0518 47.3256 65.2931 47.0361C65.4439 46.8551 65.5404 46.656 65.5646 46.4207C65.5766 46.3242 65.5465 46.1614 65.5887 46.1131C65.7576 45.914 66.2402 45.9683 66.4574 46.0105C66.7891 46.0709 67.1149 46.1794 67.4467 46.2579C67.6035 46.2941 67.7604 46.2096 67.8086 46.0528C67.875 45.8296 67.8871 45.6003 67.8931 45.3711C67.8931 45.1057 67.8931 44.8342 68.1103 44.6472C68.4179 44.3878 68.9367 44.3938 69.3107 44.3938C70.4569 44.3818 71.603 44.3516 72.7492 44.2732C74.01 44.1887 75.2647 44.0802 76.5255 44.056C77.5631 44.0379 78.661 44.0802 79.59 43.5372C80.0485 43.2718 80.3802 42.8978 80.712 42.4936C80.8206 42.3609 80.9413 42.2041 81.0921 42.1256C81.1886 42.0774 81.2911 42.0653 81.3997 42.0774C81.3635 42.747 81.6833 43.314 82.0814 43.857C82.6183 44.5869 83.2637 45.2324 83.8308 45.9381C84.5004 46.7767 85.0071 47.7539 85.4053 48.7493C85.4475 48.8578 85.544 48.9363 85.6526 48.9544C85.7069 49.25 85.8034 49.5455 85.918 49.823C86.1533 50.3901 86.4489 50.927 86.7445 51.4639C87.0039 51.9465 87.221 52.4592 87.5468 52.9056C87.2753 52.9901 87.0099 53.0866 86.7565 53.2193C86.3463 53.4304 85.9844 53.726 85.6948 54.088C85.357 54.5042 85.1097 54.9747 84.8684 55.4573C84.5185 56.1692 84.1807 56.887 83.8489 57.6049C83.505 58.3529 83.1793 59.119 82.9139 59.8972C82.6303 60.7176 82.4252 61.5682 82.2262 62.4127C81.822 64.1441 81.5083 65.8935 81.1946 67.6368C80.5673 71.1055 79.7529 74.55 79.5116 78.073C79.3909 79.8224 79.4814 81.5778 79.3909 83.3333C79.3487 84.1838 79.2281 85.0223 79.1436 85.8669C79.0712 86.5968 79.1134 87.3328 79.035 88.0567C79.0109 88.2738 78.9747 88.491 78.9204 88.7021C78.5524 88.2497 78.0155 87.8636 77.7018 87.5198C77.2192 86.9949 76.8151 86.4098 76.4049 85.8307C75.9947 85.2456 75.5664 84.6906 75.1139 84.1416C74.2211 83.0618 73.5395 81.8191 72.8518 80.6066C72.2063 79.4725 71.5608 78.26 70.6378 77.325C70.1553 76.8303 69.6123 76.402 69.1056 75.9314C68.6351 75.4971 68.1766 75.0266 67.9112 74.4414C67.869 74.351 67.7604 74.3027 67.6699 74.3027C67.3019 74.2967 66.9219 74.3449 66.5599 74.2243C66.4212 74.176 66.3186 74.2424 66.2643 74.3389C65.5827 74.2243 64.8829 74.1519 64.1952 74.1217C63.3446 74.0855 62.488 74.1398 61.6374 74.1639C60.7929 74.1941 59.9544 74.1639 59.1159 74.1096C57.4208 73.995 55.7317 73.802 54.0366 73.7115C53.4394 73.6813 52.8482 73.6753 52.251 73.6632C53.1377 73.4943 54.0305 73.3073 54.8871 73.0238C56.2686 72.5714 57.5836 71.938 58.8927 71.3166C59.4778 71.0391 60.063 70.7556 60.618 70.4178C61.0764 70.1403 61.5892 69.8146 61.8968 69.3621C61.9632 69.2656 62.0175 69.157 62.0718 69.0424C62.1623 69.0967 62.2588 69.1389 62.3674 69.1691C62.3493 69.8628 61.9934 70.5143 61.8184 71.1779C61.7038 71.5941 61.6435 72.0345 61.5771 72.4628C61.5228 72.8247 61.4444 73.241 61.4685 73.6271C61.4384 73.7115 61.4444 73.808 61.4987 73.8925V73.9045C61.5409 74.0916 61.7822 74.182 61.9391 74.0855C61.9391 74.0855 61.9451 74.0855 61.9511 74.0795C62.0115 74.0433 62.0537 73.9769 62.0778 73.9106C62.0899 73.8684 62.0959 73.8322 62.0899 73.7899C62.108 73.5909 62.1019 73.3918 62.114 73.1927C62.1321 72.9514 62.1562 72.7162 62.1924 72.4809C62.2528 72.0526 62.307 71.6122 62.4277 71.196C62.6388 70.448 63.0189 69.6939 62.8862 68.8976C62.8681 68.783 62.7354 68.6986 62.6268 68.7046C62.476 68.7046 62.3432 68.6624 62.2286 68.596C62.295 68.3366 62.3312 68.0712 62.3553 67.8238C62.4036 67.3292 62.4036 66.6898 62.0296 66.3157C61.9391 66.2253 61.8064 66.2373 61.7159 66.3157C61.0704 66.8828 61.1247 67.9988 61.6374 68.6744C61.5892 68.7951 61.5409 68.9157 61.4746 69.0243C61.2634 69.3802 60.7808 69.6818 60.4129 69.9171C59.9122 70.2308 59.3813 70.4962 58.8505 70.7556C57.6681 71.3227 56.4737 71.8957 55.2431 72.3542C54.3322 72.6981 53.3971 72.9152 52.45 73.1324C51.9855 73.2349 51.521 73.3435 51.0505 73.428C50.8635 73.4642 50.6765 73.4943 50.4895 73.5185C50.4292 73.5245 50.3568 73.5366 50.3085 73.5426C50.2542 73.5486 50.2361 73.5245 50.2723 73.5607C50.218 73.5064 50.1275 73.5185 50.0793 73.5667C49.7716 73.5366 49.464 73.5124 49.1563 73.4762C47.5698 73.3194 45.9772 73.1565 44.3907 73.3858C44.0167 73.4401 43.6487 73.5185 43.2868 73.6271C43.0455 73.6994 42.774 73.7839 42.587 73.9588C42.213 74.3027 42.4422 74.7491 42.6956 75.0809C43.1661 75.7022 43.6909 76.2874 44.1735 76.8966C44.7044 77.5602 45.2292 78.2238 45.7359 78.9054C46.7433 80.2446 47.7628 81.5839 48.7039 82.9653C49.5967 84.2683 50.399 85.6376 51.4306 86.8441C52.4983 88.0989 53.6445 89.2812 54.6579 90.5782C56.6727 93.1601 58.9108 95.5429 60.998 98.0584C61.5047 98.6677 62.0054 99.2951 62.488 99.9225C62.85 100.399 63.2662 100.912 63.791 101.213C64.352 101.533 65.0036 101.352 65.5887 101.213C66.023 101.117 66.4694 101.087 66.9158 101.075C66.8133 101.539 66.8977 102.034 67.0546 102.486C67.0666 102.516 67.0787 102.541 67.0968 102.571C67.1209 103.439 67.3079 104.296 67.513 105.135C67.6337 105.623 67.7604 106.112 67.875 106.606C67.9836 107.065 68.1163 107.56 68.1223 108.03C68.1284 108.489 67.9172 108.923 67.875 109.375C67.8509 109.617 67.875 109.894 67.9956 110.123C67.9232 110.226 67.8629 110.341 67.8147 110.467C67.6216 110.974 67.6458 111.547 67.6277 112.084C67.6216 112.337 67.6096 112.597 67.5613 112.844C67.4889 113.218 67.3502 113.58 67.2717 113.948C67.1813 114.388 67.1632 114.877 67.3321 115.293C67.2657 115.275 67.2054 115.257 67.139 115.245C67.0124 115.221 66.8857 115.215 66.753 115.227C66.578 115.239 66.4875 115.281 66.385 115.414C66.3729 115.432 66.3669 115.456 66.3608 115.474C65.4379 115.927 64.8467 116.898 64.4365 117.809C63.7488 119.317 63.3567 120.958 63.049 122.58C62.7353 124.245 62.5182 125.928 62.3553 127.611C62.1985 129.21 62.1743 130.833 61.9149 132.419C61.4625 135.146 60.4913 137.74 59.7372 140.388C58.9892 143.024 58.7238 145.642 58.5609 148.369C58.4101 150.86 58.2653 153.358 57.6138 155.777C56.9321 158.317 55.5145 160.573 54.9052 163.136C54.6096 164.373 54.489 165.646 54.5011 166.913C54.5131 168.318 54.4287 169.645 54.1693 171.033C53.94 172.257 53.6565 173.512 53.6505 174.767C53.6505 176.13 53.9461 177.482 54.1753 178.821C54.676 181.728 54.5855 184.751 54.4588 187.688C54.3201 190.813 54.3261 193.938 54.308 197.069C54.2718 203.264 53.56 209.423 53.6203 215.625C53.6806 221.784 54.1813 227.925 54.7363 234.054C54.863 235.429 54.9475 236.787 55.2732 238.132C55.5628 239.314 55.6472 240.4 54.6639 241.251C53.9762 241.848 53.5117 242.427 53.2946 243.338C53.1317 244.038 53.1739 244.798 53.6867 245.341C53.7711 245.431 53.8677 245.509 53.9642 245.588C53.753 245.721 53.5841 245.908 53.4635 246.167C53.2463 246.644 53.0291 247.06 52.6491 247.434C52.2027 247.88 51.6899 248.272 51.1953 248.658C50.9661 248.833 50.7429 249.014 50.5196 249.195C50.4774 249.129 50.393 249.087 50.2965 249.129C49.6027 249.443 48.7582 249.473 48.0041 249.485C47.1596 249.497 46.315 249.449 45.4705 249.437C44.439 249.424 43.4134 249.491 42.3819 249.479C41.1814 249.467 39.981 249.431 38.7805 249.4C36.3736 249.346 33.9787 249.473 31.5778 249.611C29.1588 249.75 26.7398 249.901 24.3147 249.992C21.8957 250.082 19.4707 250.046 17.0517 250.136C15.5858 250.191 14.1259 250.269 12.66 250.347C12.1594 250.329 11.6647 250.317 11.164 250.299C9.96354 250.257 8.76309 250.185 7.56866 250.028C6.3863 249.877 5.22807 249.624 4.07588 249.322C3.55709 249.189 3.0202 249.063 2.48331 249.087C1.94643 249.111 1.4759 249.292 1.0295 249.587C0.733907 249.78 0.34783 250.022 0.359895 250.426C0.37196 250.842 0.848524 251.132 1.20444 251.228C1.95246 251.433 2.80304 251.252 3.55709 251.192C4.03969 251.156 4.52228 251.174 5.00487 251.174C5.63225 251.174 6.25962 251.174 6.887 251.174C9.10694 251.174 11.3208 251.059 13.5347 250.945C14.6206 250.999 15.7064 251.102 16.7923 251.15C17.3653 251.174 17.9384 251.15 18.5115 251.12C18.7166 251.108 18.7166 250.806 18.5115 250.8C18.222 250.794 17.9384 250.776 17.6489 250.752C17.7756 250.752 17.8962 250.74 18.0229 250.74C19.2897 250.703 20.5565 250.715 21.8233 250.691C24.3268 250.643 26.8363 250.51 29.3337 250.36C31.8311 250.215 34.3286 249.998 36.832 249.979C39.3295 249.961 41.8269 250.13 44.3243 250.016C46.0315 249.937 47.8051 250.154 49.4881 249.78C49.6208 249.75 49.7475 249.714 49.8742 249.666C49.8199 249.708 49.7656 249.75 49.7053 249.792C48.6496 250.553 47.4974 251.204 46.2728 251.656C45.4162 251.97 44.5415 252.157 43.6487 252.332C42.8102 252.501 41.9717 252.688 41.1633 252.978C40.4213 253.243 39.6251 253.605 39.1123 254.232C38.5815 254.878 38.503 255.759 38.7564 256.543C38.9977 257.297 39.5708 257.804 40.2886 258.093C41.0306 258.389 41.8631 258.449 42.6534 258.467C43.4255 258.485 44.1977 258.443 44.9698 258.461C46.4719 258.491 47.9679 258.304 49.464 258.129C50.218 258.039 50.9721 257.954 51.7322 257.894C52.4138 257.846 53.1015 257.834 53.7832 257.804C54.4588 257.773 55.1405 257.725 55.8041 257.586C56.4134 257.46 56.9442 257.194 57.4328 256.814C57.9094 256.446 58.3437 256.024 58.8444 255.686C59.3692 255.33 59.9303 255.041 60.5094 254.793C60.7567 254.691 61.0101 254.594 61.2695 254.504C61.2393 254.733 61.1971 254.98 61.2514 255.21C61.3901 255.807 62.1019 255.819 62.5785 255.753C63.3084 255.656 64.0444 255.602 64.7743 255.517C65.5404 255.427 66.3005 255.324 67.0606 255.198C68.43 254.974 69.8536 255.131 71.1989 254.745C71.6634 254.612 72.1218 254.377 72.2244 253.858C72.3028 253.454 72.2968 252.839 71.8866 252.616C71.8866 252.616 71.8745 252.616 71.8685 252.61C71.9529 251.27 71.8926 249.925 71.7599 248.592C71.7599 248.568 71.7599 248.55 71.7539 248.526C72.0434 248.586 72.3571 248.598 72.6467 248.598C73.2197 248.604 73.7868 248.556 74.3538 248.508C74.8666 248.465 75.3733 248.405 75.8861 248.399C76.6341 248.387 77.3761 248.399 78.1241 248.399C81.2127 248.399 84.3013 248.405 87.3899 248.381C89.0489 248.369 90.7198 248.405 92.3727 248.296C92.3788 248.689 92.3727 249.075 92.1616 249.406C92.1133 249.485 92.1616 249.563 92.228 249.593C92.2159 249.69 92.1978 249.78 92.1857 249.877C92.1435 250.245 92.1676 250.631 92.3908 250.939C92.421 250.975 92.4512 251.011 92.4813 251.047C92.415 251.047 92.3546 251.041 92.2883 251.047C92.1194 251.047 91.9867 251.216 92.0349 251.379C92.5175 253.02 92.0229 254.721 91.2809 256.199C90.9008 256.953 90.4424 257.653 89.996 258.365C89.6219 258.95 89.26 259.577 89.1876 260.277C89.1152 260.977 89.4108 261.646 89.7848 262.225C89.9356 262.461 90.0985 262.744 90.2976 262.973C90.2855 263.01 90.2795 263.046 90.2795 263.106C90.2795 263.257 90.3458 263.39 90.4363 263.504C90.6113 263.715 90.8646 263.86 91.112 263.975C91.8962 264.337 92.7648 264.53 93.6034 264.699C94.466 264.874 95.3347 265.006 96.2094 265.109C97.078 265.211 97.9347 265.199 98.8033 265.097C100.438 264.91 102.278 264.397 103.43 263.136C103.472 263.088 103.497 263.034 103.509 262.985C103.804 262.654 103.852 262.153 103.973 261.743C104.058 261.447 104.172 261.17 104.341 260.904C104.516 260.633 104.715 260.385 104.884 260.114C105.294 259.469 105.385 258.684 105.367 257.936C105.342 257.11 105.198 256.283 105.059 255.469C104.908 254.588 104.733 253.714 104.637 252.827C104.588 252.398 104.594 251.964 104.594 251.536C104.594 250.993 104.594 250.45 104.558 249.907C104.534 249.473 104.516 249.002 104.365 248.592C104.353 248.55 104.335 248.514 104.317 248.477C104.347 248.351 104.365 248.218 104.383 248.085C104.401 248.103 104.426 248.115 104.462 248.109C104.462 248.109 104.468 248.109 104.474 248.109C104.486 248.128 104.492 248.152 104.51 248.17C105.216 248.948 106.428 249.02 107.406 249.032C108.672 249.044 109.927 248.87 111.182 248.737C112.853 248.562 114.566 248.67 116.249 248.67H122.523C126.709 248.67 130.896 248.55 135.082 248.423C139.263 248.296 143.443 248.26 147.624 248.206C151.786 248.158 155.937 247.91 160.105 248.031C162.162 248.091 164.219 248.194 166.282 248.26C168.369 248.327 170.457 248.321 172.544 248.387C173.515 248.417 174.486 248.417 175.452 248.447C176.224 248.471 176.996 248.55 177.774 248.508C178.45 248.471 179.119 248.339 179.698 247.971C179.747 247.94 179.801 247.904 179.855 247.868C181.237 248.321 182.829 248.194 184.247 248.115C186.28 248.007 188.307 247.82 190.334 247.657C194.496 247.331 198.64 247.446 202.803 247.494C203.834 247.506 204.86 247.488 205.891 247.44C206.199 247.428 206.199 246.975 205.891 246.957L205.927 246.945ZM20.08 27.0747C19.4043 25.8742 18.7287 24.6678 18.0953 23.4432C17.4981 22.297 16.9009 21.1207 16.4967 19.8901C16.3579 19.4678 16.2252 19.0093 16.2132 18.5629C16.2071 18.394 16.2132 18.2673 16.2554 18.1165C16.2795 18.026 16.3217 17.9536 16.376 17.8994C16.744 18.7861 17.1602 19.6669 17.5463 20.5476C17.9746 21.5188 18.3848 22.4961 18.795 23.4733C19.4948 25.1443 20.1825 26.8153 20.8883 28.4803C20.6168 28.0097 20.3454 27.5452 20.08 27.0747ZM33.1643 77.4577C33.3574 76.9871 33.6349 76.5287 33.9666 76.1426C34.1054 75.9797 34.3527 75.6841 34.6121 75.5816C34.4613 76.2753 34.0511 76.9751 33.671 77.5361C33.5444 77.7231 33.2608 78.1092 32.9592 78.3263C32.923 78.0428 33.0678 77.6809 33.1643 77.4516V77.4577ZM22.686 32.3712C22.686 32.3712 22.7222 32.4134 22.7403 32.4194V32.4315C22.7403 32.4315 22.7403 32.4315 22.7403 32.4375C22.7403 32.4677 22.7463 32.4979 22.7463 32.522C22.7161 32.4918 22.7161 32.4918 22.6739 32.4315C22.5774 32.2867 22.499 32.1359 22.4266 31.9791C22.3542 31.8162 22.2878 31.6533 22.2275 31.4904C22.3723 31.786 22.5231 32.0756 22.6799 32.3712H22.686ZM31.0831 48.6467C30.685 49.4913 30.5945 50.4082 30.3713 51.301C30.1662 52.1154 29.768 52.8212 29.207 53.4365C29.1467 53.4003 29.0743 53.3822 28.9959 53.4063C27.898 53.726 27.162 54.6792 26.1245 55.1075C25.3644 55.4211 24.176 55.2824 23.7477 54.5344C23.7597 54.4017 23.802 54.269 23.8261 54.1423C23.9347 53.6657 24.0071 53.1831 23.9467 52.6945C23.8261 51.7474 23.253 50.9511 22.6377 50.2513C21.9862 49.5094 21.2442 48.8458 20.5686 48.1219C19.8748 47.3739 19.2716 46.5233 18.7106 45.6727C18.421 45.2384 18.1556 44.786 17.9083 44.3275C17.7816 44.0922 17.667 43.857 17.5403 43.6217C17.4257 43.4166 17.2326 43.2477 17.1422 43.0305C17.0698 42.8616 17.1301 42.7108 17.2145 42.56C17.3231 42.379 17.3895 42.198 17.4076 41.9809C17.4438 41.4862 17.2809 41.0036 17.1964 40.521C17.1602 40.2858 17.1421 40.0445 17.1783 39.8092C17.2206 39.5257 17.3473 39.3025 17.5041 39.0732C17.7695 38.6872 18.0169 38.277 18.041 37.7944C18.0591 37.4022 17.8962 36.9619 18.041 36.5818C18.1194 36.3767 18.3004 36.3164 18.4994 36.2199C19.2595 35.8398 19.3319 35.0255 19.1932 34.2593C19.1027 33.7586 19.0062 33.27 19.3018 32.8176C19.5008 32.5099 19.8085 32.4798 20.1403 32.5522C20.5384 32.6366 20.9124 32.7935 21.3045 32.902C21.6604 32.9986 22.0164 33.1252 22.3542 33.2761C23.0901 33.6078 23.8201 34.0603 24.3268 34.6997C24.544 34.9712 24.7129 35.2909 24.7853 35.6287C24.8818 36.0811 24.7611 36.5215 24.5922 36.9438C24.5017 37.173 24.4052 37.3962 24.3268 37.6254C24.2363 37.9029 24.2001 38.1925 24.176 38.4881C24.1337 38.8923 24.1157 39.2964 24.0614 39.7006C24.0071 39.8273 23.9528 39.954 23.8925 40.0746C23.7839 40.3099 23.6632 40.5331 23.5245 40.7563C23.5245 40.7563 23.5245 40.7563 23.5184 40.7623C23.4943 40.7864 23.4762 40.8106 23.4521 40.8347C23.3857 40.9071 23.3133 40.9795 23.247 41.0519C22.879 41.4319 22.4748 41.8361 22.2215 42.3066C22.1249 42.4876 22.0345 42.7229 22.1551 42.9159C22.2999 43.1512 22.6136 43.127 22.8488 43.0848C23.627 42.94 23.9769 42.0653 24.2122 41.4078C24.3268 41.082 24.4233 40.7502 24.5078 40.4185C24.5982 40.0625 24.6465 39.7066 24.6767 39.3447C24.7491 39.1396 24.8214 38.9345 24.8938 38.7354C25.105 38.1201 25.3101 37.4807 25.3704 36.8292C25.3825 36.6904 25.3885 36.5396 25.3463 36.4069C25.3945 36.1354 25.4006 35.864 25.3523 35.5804C25.2075 34.7419 24.5922 34.0723 23.9347 33.5777C23.7175 33.4148 23.4883 33.27 23.247 33.1373C23.5003 32.9201 23.3918 32.3531 23.3435 32.0756C23.2229 31.4362 23.0358 30.8088 22.8971 30.1693C22.8307 29.8677 22.7644 29.5178 22.7342 29.2524C22.7161 29.1076 22.7041 28.9689 22.7101 28.8241C22.7101 28.7638 22.7101 28.7035 22.7222 28.6431C22.7222 28.6371 22.7161 28.6793 22.7222 28.613C22.7222 28.5888 22.7342 28.5647 22.7403 28.5346C22.7463 28.5104 22.7523 28.4863 22.7584 28.4622C22.7765 28.4079 22.7584 28.4501 22.7584 28.4501C22.7644 28.432 22.7764 28.4139 22.7885 28.3958C22.7885 28.3958 22.7885 28.3958 22.7945 28.3837C22.7945 28.3837 22.7945 28.3777 22.8006 28.3717C22.8066 28.3717 22.8126 28.3596 22.8247 28.3536C22.8368 28.3536 22.8669 28.3536 22.8669 28.3536C22.885 28.3536 22.9092 28.3536 22.9273 28.3536C22.9273 28.3536 22.8971 28.3415 22.9514 28.3536C23.0238 28.3717 23.0901 28.3958 23.1505 28.432C23.3133 28.5225 23.44 28.6673 23.5426 28.8181C23.808 29.2102 23.9588 29.6626 24.0915 30.1151C24.2363 30.5916 24.3811 31.0621 24.5801 31.5206C24.8456 32.1299 25.1774 32.703 25.4488 33.3062C25.7323 33.9276 25.859 34.5911 26.0883 35.2306C26.5407 36.4974 27.2525 37.6556 27.8256 38.8681C28.0609 39.3688 28.2418 39.8997 28.4831 40.4004C28.7184 40.889 28.9718 41.3656 29.201 41.8602C29.4182 42.3307 29.6353 42.8254 29.6957 43.3502C29.7077 43.4648 29.7077 43.5674 29.6957 43.67C29.6655 43.7001 29.6414 43.7303 29.6293 43.7725C29.581 43.9595 29.5388 44.1465 29.4906 44.3396C29.4302 44.4662 29.3518 44.5869 29.2734 44.7136C28.9476 45.2203 28.5555 45.6848 28.2599 46.2096C27.9101 46.837 27.53 47.4342 27.1258 48.0254C26.9268 48.321 26.7277 48.6105 26.5347 48.9121C26.4261 49.0811 26.6071 49.2379 26.7639 49.2138C28.6219 48.9483 29.3639 46.8068 29.7681 45.2505C29.8103 45.0815 29.8525 44.9066 29.8947 44.7317C29.9973 45.3047 29.9792 45.902 30.13 46.463C30.3351 47.2231 30.7634 47.8927 31.065 48.6166C31.065 48.6166 31.059 48.6286 31.053 48.6347L31.0831 48.6467ZM23.627 41.3535C23.5245 41.631 23.4038 41.9024 23.2409 42.1498C23.0901 42.379 22.9152 42.5359 22.6498 42.5901C22.6558 42.572 22.6679 42.5539 22.6679 42.5479C22.692 42.4997 22.7222 42.4574 22.7463 42.4152C22.8066 42.3187 22.879 42.2222 22.9514 42.1317C23.1143 41.9205 23.2952 41.7215 23.4762 41.5224C23.5305 41.4681 23.5788 41.4078 23.627 41.3535ZM29.2191 45.5098C29.1648 45.7089 29.1045 45.902 29.0381 46.095C28.7848 46.8551 28.4349 47.6393 27.8437 48.2003C27.6627 48.3692 27.4637 48.508 27.2465 48.6105C27.5481 48.1581 27.8558 47.7057 28.1393 47.2412C28.4831 46.6862 28.7727 46.1191 29.1588 45.5883C29.1769 45.5581 29.201 45.534 29.2191 45.5038V45.5098ZM41.0125 67.5102C41.1151 68.0289 41.1633 68.5598 41.1211 69.0846C41.109 69.2656 41.0728 69.4405 41.0306 69.6095C40.9462 68.9218 40.9944 68.216 41.0125 67.5102ZM64.8829 49.2017C65.3052 49.9497 65.637 50.74 65.8903 51.5544C66.3367 52.9901 66.578 54.5163 66.4996 56.0184C66.2885 54.4198 66.0773 52.8332 65.6189 51.2708C65.3534 50.3841 65.0518 49.3646 64.4305 48.6588C64.1047 48.2848 63.7066 48.1762 63.2783 48.1702C63.3748 48.1038 63.4834 48.0495 63.5859 47.9952C63.7066 47.9952 63.8272 48.0073 63.9418 48.0495C64.3943 48.2244 64.6597 48.8036 64.8829 49.1957V49.2017ZM61.8667 66.8526C61.9511 67.1422 61.9029 67.5222 61.8667 67.7756C61.8546 67.854 61.8425 67.9385 61.8305 68.0169C61.6917 67.6429 61.6978 67.1784 61.8667 66.8526ZM6.36217 250.498C5.34872 250.498 4.32924 250.45 3.32182 250.54C2.92971 250.577 2.54364 250.619 2.15153 250.625C1.81975 250.631 1.45177 250.643 1.18031 250.45C1.13808 250.42 1.08379 250.39 1.05363 250.347C1.05363 250.335 1.06569 250.317 1.08379 250.299C1.25269 250.16 1.40954 250.028 1.59655 249.913C2.05501 249.636 2.57984 249.587 3.10466 249.654C3.62948 249.72 4.14224 249.883 4.655 250.01C5.21601 250.148 5.78306 250.269 6.35614 250.372C6.59744 250.414 6.8327 250.45 7.074 250.486C6.8327 250.486 6.59744 250.486 6.35614 250.486L6.36217 250.498ZM108.473 107.988C109.089 108.247 109.239 109.134 109.402 109.695C109.535 110.16 109.662 110.63 109.746 111.113C109.819 111.523 109.879 111.975 109.794 112.392C109.776 112.476 109.752 112.548 109.722 112.621C109.668 112.669 109.638 112.735 109.632 112.802C109.336 113.308 108.751 113.628 108.214 113.839C107.363 114.177 106.465 114.376 105.596 114.654C104.444 115.022 103.304 115.438 102.145 115.8C100.975 116.168 99.7806 116.439 98.5862 116.705C97.3676 116.976 96.149 117.242 94.9184 117.459C93.6818 117.676 92.4391 117.809 91.1904 117.917C90.002 118.02 88.8196 118.14 87.6735 118.478C87.5347 118.52 87.396 118.563 87.2572 118.599C87.3658 118.267 87.3598 117.881 87.3538 117.543C87.3417 116.934 87.2391 116.331 87.221 115.721C87.1909 114.762 87.3055 113.701 86.8953 112.808C86.8772 112.766 86.8531 112.723 86.8289 112.681C87.0401 112.669 87.2452 112.651 87.4563 112.633C88.2767 112.56 89.0851 112.44 89.8934 112.289C91.3352 112.072 92.7648 111.806 94.1885 111.487C96.0887 111.058 97.9528 110.491 99.8107 109.906C100.565 109.707 101.313 109.496 102.067 109.297C103.291 108.971 104.534 108.7 105.753 108.356C106.326 108.199 106.905 108.036 107.49 107.934C107.81 107.879 108.178 107.837 108.485 107.97L108.473 107.988ZM86.1352 114.611C85.912 114.177 85.3932 113.634 85.4958 113.109C85.5199 112.983 85.5862 112.874 85.6707 112.784C85.8999 112.766 86.1292 112.747 86.3524 112.723C86.3765 112.747 86.4006 112.76 86.4187 112.79C86.6842 113.146 86.7384 113.664 86.7746 114.093C86.8108 114.545 86.7988 114.998 86.7927 115.45C86.7807 115.933 86.8289 116.409 86.8591 116.886C86.8893 117.386 86.9677 118.026 86.7505 118.496C86.6902 118.617 86.5937 118.708 86.479 118.774C86.4609 118.774 86.4428 118.774 86.4248 118.774C86.3222 118.11 86.3705 117.429 86.4006 116.765C86.4368 116.017 86.4851 115.287 86.1352 114.599V114.611ZM85.8517 118.919C85.8517 118.919 85.8517 118.919 85.8456 118.919C85.4415 118.876 85.0312 118.888 84.621 118.87C84.0781 118.846 83.5654 118.701 83.1431 118.346C82.7992 118.056 82.558 117.682 82.3287 117.296C82.0814 116.886 81.7918 116.482 81.6109 116.041C81.3273 115.353 81.3153 114.581 81.7436 113.954C82.1839 113.302 82.9923 112.989 83.7463 112.904C84.1867 112.886 84.6271 112.856 85.0675 112.826C84.9709 113.073 84.9528 113.363 85.0313 113.628C85.2183 114.262 85.7491 114.756 85.8577 115.426C85.9241 115.848 85.8698 116.313 85.8396 116.741C85.8094 117.187 85.7793 117.634 85.7793 118.086C85.7793 118.364 85.8034 118.641 85.8456 118.919H85.8517ZM129.943 86.0418C129.75 85.5894 129.539 85.143 129.334 84.6966C129.406 84.7388 129.484 84.769 129.563 84.7931C129.689 84.8293 129.804 84.8172 129.907 84.7871C129.919 85.2094 129.931 85.6256 129.943 86.0479V86.0418ZM104.184 41.4198C105.493 42.2946 106.929 42.9581 108.359 43.6338C110.778 44.7799 113.251 45.7813 115.718 46.8068C116.436 47.1084 117.154 47.4221 117.83 47.8142C118.499 48.2003 119.205 48.6829 119.579 49.3827C119.736 49.6783 119.784 49.992 119.742 50.3237C119.724 50.4926 119.899 50.6314 120.05 50.6314C120.231 50.6314 120.339 50.4866 120.357 50.3237C120.369 50.2212 120.375 50.1186 120.375 50.0161C120.375 50.0221 120.381 50.0281 120.387 50.0342C120.442 50.1548 120.466 50.372 120.49 50.5349C120.568 51.114 120.828 51.6388 121.129 52.1335C121.835 53.3098 122.457 54.5042 122.903 55.8072C123.379 57.1826 123.669 58.6183 124.001 60.036C124.339 61.4898 124.67 62.9496 125.014 64.3974C125.364 65.8392 125.66 67.293 125.955 68.7468C126.1 69.4586 126.251 70.1644 126.426 70.8702C126.601 71.5821 126.842 72.2818 127.017 72.9936C127.367 74.4294 127.403 75.9194 127.837 77.337C128.037 77.9946 128.302 78.6219 128.525 79.2734C128.76 79.9551 128.893 80.6368 129.014 81.3426C129.074 81.6924 129.14 82.0483 129.249 82.3862C129.321 82.6154 129.436 82.8326 129.545 83.0437C129.641 83.2367 129.798 83.5022 129.864 83.7676C129.448 83.659 129.032 83.5444 128.628 83.4177C128.555 83.3936 128.489 83.3996 128.435 83.4177C128.423 83.4057 128.405 83.3936 128.392 83.3815C128.296 83.3091 128.139 83.1704 128.006 83.1885C127.88 83.2066 127.813 83.291 127.831 83.4177C127.856 83.5444 127.916 83.6469 127.982 83.7555C128.031 83.834 128.175 83.8159 128.181 83.7193C128.199 83.7314 128.211 83.7435 128.224 83.7495C128.224 83.8038 128.23 83.8521 128.254 83.9003C128.712 84.962 129.267 85.9755 129.665 87.0613C129.792 87.3991 129.895 87.749 129.979 88.0989C130.003 90.3007 129.979 92.5026 129.882 94.7044C129.828 95.9531 129.828 97.425 128.966 98.4325C128.031 99.5243 126.492 99.9888 125.141 100.321C123.488 100.719 121.811 101.038 120.14 101.322C118.397 101.618 116.641 101.841 114.874 101.937C113.082 102.034 111.309 101.949 109.523 101.841C108.642 101.786 107.761 101.738 106.875 101.726C106.006 101.72 105.149 101.799 104.293 101.907C103.448 102.01 102.604 102.106 101.753 102.082C100.897 102.058 100.046 101.931 99.1954 101.835C98.3569 101.744 97.5003 101.678 96.6618 101.786C95.9258 101.889 95.208 102.118 94.466 102.161C94.1825 102.179 93.905 102.161 93.6335 102.094C93.6757 101.913 93.7481 101.732 93.8386 101.569C93.8688 101.515 93.8567 101.455 93.8326 101.406C94.0799 101.268 94.2488 100.942 94.3454 100.652C94.5746 99.9345 94.5987 99.1443 94.6168 98.3963C94.6289 97.8835 94.6651 97.3466 94.5927 96.8339C94.4841 96.0798 94.2669 95.3499 94.1523 94.5958C94.098 94.2098 94.0498 93.7573 94.1221 93.3954C94.1342 93.329 94.1644 93.2204 94.1825 93.1842C94.1945 93.148 94.2609 93.0515 94.2669 93.0455C94.2971 93.0093 94.3273 92.9912 94.3634 92.9731C94.4238 93.2023 94.5022 93.4195 94.6108 93.6306C94.6832 93.7694 94.8641 93.7995 94.9969 93.7332C95.6966 93.3773 96.2516 92.7982 96.9514 92.4422C97.7899 92.0139 98.7973 92.0079 99.7203 92.0079C101.777 92.0079 103.859 92.1587 105.91 91.9838C106.374 91.9416 106.833 91.8812 107.291 91.8028C107.309 91.8149 107.333 91.8269 107.357 91.8269C107.593 91.8511 107.822 91.7787 108.027 91.6701C108.31 91.6158 108.588 91.5615 108.865 91.5012C109.366 91.3986 109.867 91.2901 110.374 91.1935C110.826 91.1091 111.278 91.0608 111.737 90.9884C112.226 90.916 112.738 90.8135 113.179 90.5843C113.191 90.5843 113.209 90.5963 113.221 90.5963C113.83 90.6627 114.439 90.4636 114.735 89.8905C115.006 89.3536 115.006 88.7202 114.97 88.1351C114.928 87.4896 114.838 86.8441 114.825 86.1987C114.813 85.0525 114.964 83.9063 115.037 82.7662C115.109 81.5959 115.012 80.4377 114.952 79.2734C114.892 78.0911 114.85 76.9087 114.844 75.7263C114.832 73.8623 114.801 72.0043 114.723 70.1463C114.693 69.3983 114.632 68.6322 114.427 67.9143C114.258 67.3171 113.957 66.6535 113.305 66.4726C113.161 66.4304 113.022 66.5208 112.974 66.6596C112.78 67.2085 112.762 67.7937 112.811 68.3788C112.787 68.5658 112.768 68.7528 112.75 68.9338C112.696 69.4043 112.66 69.8749 112.618 70.3394C112.539 71.2744 112.467 72.2094 112.328 73.1384C112.063 74.9723 111.815 76.8122 111.52 78.64C111.375 79.5509 111.224 80.4618 111.049 81.3667C110.886 82.2293 110.675 83.0799 110.542 83.9486C110.289 85.5653 110.199 87.2543 109.559 88.7806C109.318 89.3657 109.022 89.9267 108.66 90.4455C108.51 90.6627 108.341 90.8617 108.16 91.0488C107.49 91.1875 106.82 91.3082 106.145 91.3805C104.136 91.5977 102.091 91.4409 100.07 91.4409C99.0084 91.4409 97.8864 91.4228 96.891 91.8511C96.1852 92.1527 95.6303 92.7016 94.9788 93.0938C94.9124 92.9248 94.8702 92.7559 94.834 92.575C94.8159 92.4603 94.6771 92.3638 94.5625 92.3699C94.1644 92.3759 93.911 92.5689 93.7481 92.8344C93.3259 92.8887 92.9398 92.762 92.5597 92.5931C92.1133 92.394 91.6911 92.1406 91.2809 91.8812C90.8646 91.6158 90.4665 91.3262 90.0563 91.0427C89.6883 90.7894 89.3143 90.5662 88.9342 90.3249C88.8438 90.2706 88.7593 90.2102 88.6688 90.1499C88.7834 90.0775 88.8558 89.9388 88.7714 89.788C88.5663 89.4019 88.5482 88.9434 88.5663 88.5151C88.5904 88.0506 88.6688 87.5861 88.7593 87.1337C88.9825 86.0177 89.2238 84.9077 89.3927 83.7797C89.5797 82.549 89.5978 81.3003 89.7969 80.0697C89.996 78.8512 90.2915 77.6507 90.5268 76.4382C91.0034 73.9166 90.9913 71.3347 91.0697 68.783C91.1481 66.2494 91.2929 63.7158 91.299 61.1821C91.305 58.3348 91.2386 55.4754 90.9732 52.6402C90.9612 52.5135 90.8888 52.4411 90.7681 52.417C91.3291 51.9223 91.8298 51.3673 92.3607 50.8425C92.7769 50.4384 93.2233 50.1005 93.6999 49.7808C94.3393 49.3525 95.3166 48.7553 95.7147 47.9771C95.962 48.1641 96.2154 48.3391 96.4748 48.508C96.8066 48.7191 97.2228 48.9725 97.627 48.9725C98.0372 48.9725 98.4052 48.695 98.7008 48.4416C99.4066 47.8384 99.9193 47.0421 100.583 46.3906C101.072 45.914 101.566 45.4495 102.055 44.979C102.525 44.5326 103.02 44.0983 103.418 43.5795C103.913 42.934 104.202 42.192 104.16 41.4198H104.184ZM114.162 89.1968C114.084 88.8348 114.005 88.4789 113.951 88.111C113.872 87.5801 113.812 87.0492 113.782 86.5184C113.752 86.0418 113.764 85.5592 113.734 85.0827C113.709 84.6544 113.673 84.2321 113.679 83.8038C113.679 83.6108 113.685 83.4117 113.716 83.2187C113.848 83.4841 113.957 83.7616 114.077 84.027C114.12 84.1235 114.198 84.1597 114.283 84.1597C114.258 84.4131 114.234 84.6664 114.216 84.9138C114.15 85.7402 114.15 86.5546 114.234 87.381C114.295 87.9843 114.385 88.6659 114.258 89.233C114.228 89.3778 114.186 89.5044 114.126 89.607C114.174 89.4803 114.198 89.3476 114.162 89.1908V89.1968ZM114.084 76.8363C114.065 76.2512 114.108 75.666 114.102 75.0869C114.09 74.4897 114.023 73.8925 113.945 73.3013C113.866 72.7041 113.776 72.1129 113.722 71.5097C113.673 71.009 113.655 70.5083 113.589 70.0076C113.541 69.6577 113.48 69.2958 113.426 68.9338C113.486 68.4814 113.571 68.0229 113.565 67.5644C113.565 67.4257 113.486 67.3413 113.384 67.3051C113.396 67.2387 113.402 67.1723 113.414 67.106C113.691 67.3171 113.848 67.7092 113.939 68.041C114.114 68.6503 114.168 69.2897 114.204 69.9171C114.295 71.6002 114.325 73.2953 114.331 74.9844C114.331 76.1004 114.331 77.2164 114.355 78.3263C114.379 79.1648 114.439 80.0094 114.458 80.8479C114.325 79.5087 114.126 78.1755 114.084 76.8303V76.8363ZM113.516 74.5319C113.559 75.1412 113.516 75.7505 113.522 76.3597C113.535 77.53 113.679 78.6943 113.818 79.8525C113.933 80.8117 114.041 81.7769 114.059 82.7421C113.999 82.6395 113.939 82.537 113.872 82.4405C113.758 82.2836 113.51 82.2474 113.402 82.4405C113.052 83.0558 113.106 83.8521 113.142 84.5337C113.185 85.3722 113.179 86.2168 113.251 87.0553C113.293 87.5137 113.348 87.9662 113.414 88.4246C113.444 88.6418 113.468 88.859 113.516 89.0761C113.535 89.1485 113.553 89.2149 113.571 89.2873C113.571 89.3054 113.583 89.3295 113.589 89.3476C113.589 89.3597 113.589 89.3597 113.595 89.3597C113.595 89.3597 113.595 89.3597 113.595 89.3717C113.595 89.3174 113.583 89.4019 113.577 89.414C113.547 89.4803 113.498 89.5467 113.45 89.607C113.341 89.7638 113.221 89.8966 113.052 89.9931C112.714 90.1861 112.316 90.2887 111.936 90.3611C111.484 90.4455 111.031 90.4877 110.579 90.5601C110.102 90.6385 109.626 90.7411 109.149 90.8437C109.058 90.8617 108.968 90.8798 108.878 90.8979C109.209 90.4817 109.487 90.0232 109.74 89.5527C110.47 88.1954 110.699 86.6813 110.923 85.1731C111.194 83.3453 111.671 81.5597 111.996 79.744C112.334 77.8739 112.581 75.9918 112.853 74.1096C112.98 73.241 113.088 72.3723 113.173 71.4976C113.215 71.9199 113.257 72.3421 113.311 72.7644C113.39 73.3496 113.474 73.9287 113.516 74.5199V74.5319ZM103.647 41.0458C103.647 41.0458 103.653 41.0639 103.659 41.076C103.792 41.5405 103.72 42.0533 103.527 42.4936C103.297 43.0124 102.923 43.4528 102.519 43.8389C102.043 44.3034 101.548 44.7498 101.059 45.2022C100.631 45.6003 100.179 45.9985 99.7926 46.4388C99.5091 46.7646 99.2437 47.1024 98.9541 47.4221C98.6646 47.7479 98.3569 48.0917 97.9769 48.3029C97.6632 48.4778 97.4279 48.3873 97.1263 48.2305C96.698 48.0073 96.2938 47.7238 95.9078 47.4282C95.9198 47.2894 95.9198 47.1507 95.8897 47.0059C95.8535 46.8129 95.5579 46.7284 95.4252 46.8852C95.395 46.9214 95.3648 46.9516 95.3407 46.9878C95.1416 46.8249 94.9426 46.6681 94.7435 46.5112C94.2488 46.1252 93.724 45.7934 93.2173 45.4314C92.7528 45.0996 92.3185 44.7256 91.8178 44.4602C91.6669 44.3818 91.5101 44.3154 91.3472 44.2672C91.6669 44.1405 91.9686 43.9655 92.2642 43.8087C94.5565 42.572 96.6075 40.9734 98.562 39.2602C99.0446 38.838 99.5272 38.4157 99.9977 37.9753C100.094 37.8848 100.191 37.7943 100.281 37.6978C100.324 37.7823 100.366 37.8607 100.408 37.9331C100.758 38.4941 101.24 38.9767 101.723 39.4231C102.218 39.8936 102.736 40.334 103.273 40.7563C103.4 40.8588 103.527 40.9493 103.653 41.0458H103.647ZM100.764 37.0524C100.764 37.0524 100.776 37.0524 100.788 37.0463C100.8 37.0463 100.818 37.0463 100.812 37.0463C101.011 37.1428 101.168 37.3238 101.337 37.5229C101.572 37.7883 101.783 38.0718 101.988 38.3554C102.35 38.8621 102.694 39.3929 103.038 39.9117C102.616 39.5498 102.206 39.1697 101.814 38.7716C101.415 38.3735 100.981 37.9331 100.74 37.4143C100.74 37.4022 100.74 37.4324 100.728 37.3841C100.722 37.36 100.71 37.3419 100.704 37.3178C100.698 37.2876 100.673 37.1609 100.679 37.2333C100.679 37.2333 100.679 37.2152 100.679 37.2092C100.71 37.1609 100.74 37.1067 100.77 37.0584L100.764 37.0524ZM103.792 5.94306C103.792 5.94306 103.81 5.95513 103.816 5.96116C103.997 6.118 104.154 6.29294 104.305 6.47391C104.582 6.79967 104.83 7.14955 105.077 7.49943C105.819 8.56114 106.416 9.71937 106.851 10.9319C107.062 11.5291 107.261 12.1444 107.394 12.7658C107.538 13.4173 107.556 14.0808 107.508 14.7444C107.412 16.0957 107.044 17.4107 106.664 18.7077C106.302 19.9383 105.861 21.1448 105.107 22.1945C104.389 23.1958 103.304 23.8654 102.344 24.6074C101.789 25.0357 101.373 25.6269 100.776 26.013C100.637 26.1035 100.523 26.1698 100.372 26.206C100.311 26.2181 100.36 26.206 100.317 26.206C100.305 26.206 100.275 26.206 100.269 26.206C100.227 26.2 100.221 26.1879 100.191 26.1638C100.118 26.0914 100.082 25.9768 100.1 25.8742C100.13 25.6933 100.239 25.5304 100.342 25.3856C100.848 24.6919 101.626 24.1791 102.29 23.6483C103.05 23.045 103.828 22.3935 104.214 21.4826C104.42 21 104.498 20.4752 104.456 19.9564C104.42 19.4678 104.323 18.9369 104.142 18.4785C103.985 18.0803 103.744 17.7304 103.328 17.5736C102.875 17.4047 102.35 17.5193 101.922 17.7003C100.939 18.1165 100.046 18.943 99.485 19.8418C99.0627 20.5295 99.1954 21.3982 99.1773 22.1703C99.1713 22.484 99.1713 22.9063 99.0145 23.1536C98.9903 23.1898 99.0205 23.1536 98.9783 23.1958C98.9421 23.232 98.9662 23.2079 98.9541 23.2139C98.9119 23.2441 98.936 23.226 98.8998 23.2381C98.8516 23.2562 98.8576 23.2501 98.8636 23.2501C98.8214 23.2562 98.8456 23.2501 98.8275 23.2501C98.8214 23.2501 98.8214 23.2501 98.8154 23.2501C98.8154 23.2501 98.8154 23.2501 98.8033 23.2381C98.7973 23.232 98.7792 23.2079 98.7732 23.2019C98.6284 22.9968 98.5741 22.6891 98.5379 22.4116C98.4957 22.0798 98.4836 21.742 98.4776 21.4102C98.4655 20.4933 98.562 19.5643 98.4112 18.6474C98.3207 18.0864 98.1036 17.5676 97.7235 17.1453C97.3857 16.7653 96.9514 16.4878 96.5472 16.1861C96.131 15.8785 95.7509 15.5467 95.5156 15.0701C95.3166 14.6539 95.2804 14.1834 95.0692 13.7792C94.8159 13.2906 94.3393 13.0312 93.9774 12.6391C93.73 12.3676 93.6577 12.0781 93.7059 11.7221C93.7662 11.2456 93.9291 10.7811 93.9894 10.3045C94.0256 10.0391 94.0075 9.77366 93.8869 9.55046C94.2307 9.58062 94.5927 9.50823 94.9245 9.43584C95.2743 9.35742 95.6182 9.25487 95.962 9.16438C96.5713 9.00754 97.1746 8.85673 97.7597 8.6275C98.3388 8.39826 98.9059 8.1268 99.4066 7.75883C99.4609 7.72263 99.5091 7.67437 99.5634 7.63818C99.9193 7.55975 100.275 7.4753 100.631 7.38481C101.162 7.24607 101.699 7.09526 102.218 6.91428C102.634 6.7695 103.062 6.6006 103.418 6.33517C103.563 6.22658 103.696 6.0999 103.798 5.95512L103.792 5.94306ZM93.8145 9.0739C93.8145 9.0739 93.8326 9.06183 93.8507 9.04977C93.9774 8.96531 94.1221 8.91102 94.2669 8.85673C94.9184 8.62146 95.6001 8.51288 96.2637 8.34397C96.9634 8.163 97.6753 8.01822 98.3871 7.87344C98.0553 8.03028 97.7115 8.16903 97.3616 8.28968C96.8247 8.47668 96.2757 8.60337 95.7268 8.74815C95.3467 8.8507 94.9607 8.95928 94.5686 9.03167C94.3755 9.06787 94.1825 9.09803 93.9834 9.09199C93.9231 9.09199 93.8688 9.08596 93.8145 9.0739ZM81.0076 8.39826C80.712 8.27158 80.4345 8.09664 80.2475 7.85534C80.0123 7.54769 79.958 7.16161 79.9278 6.76951C79.8735 6.10594 79.8916 5.44237 79.9278 4.7788C79.9519 4.22381 79.9278 3.63264 80.0786 3.09575C80.3139 2.25121 81.0619 1.88323 81.8461 1.65399C84.5607 0.851678 87.4804 0.574186 90.3096 0.634511C91.7333 0.664673 93.1449 0.875809 94.5444 1.11107C95.8233 1.32824 97.1142 1.50921 98.375 1.81084C99.4186 2.05817 100.426 2.43821 101.337 3.01733C101.826 3.33101 102.284 3.69296 102.7 4.0911C102.978 4.35653 103.34 4.70641 103.448 5.10455C103.285 5.10455 103.153 5.27949 103.153 5.4303C103.153 5.56302 103.225 5.65953 103.328 5.70779C103.237 5.82241 103.11 5.91893 102.99 5.99735C102.616 6.23865 102.188 6.38946 101.771 6.52217C101.343 6.66092 100.909 6.78157 100.48 6.89619C100.613 6.79967 100.746 6.70918 100.891 6.63076C100.993 6.57043 100.921 6.38343 100.806 6.43169C100.372 6.60663 99.9917 6.85396 99.6177 7.11939C99.0567 7.25813 98.4896 7.38481 97.9226 7.50546C96.9936 7.71056 96.0646 7.92773 95.1356 8.1449C94.7616 8.23539 94.3876 8.32587 94.0317 8.46462C93.7904 8.55511 93.4706 8.67576 93.35 8.92912C93.3198 8.98944 93.3138 9.04977 93.3138 9.10406C92.9157 8.95928 92.4391 8.95928 92.047 8.95928C91.3533 8.95928 90.6716 8.94118 89.9839 8.89896C88.524 8.80244 87.0702 8.69385 85.6043 8.69988C84.8443 8.69988 84.0781 8.76021 83.318 8.75418C82.5519 8.74814 81.7255 8.70592 81.0076 8.4043V8.39826ZM81.8823 34.7238C81.5686 34.2895 81.5505 33.7647 81.5023 33.2399C81.4178 32.2867 81.3696 31.3336 81.255 30.3805C81.0137 28.4199 80.4345 26.5197 80.0183 24.5954C79.9278 24.161 79.8253 23.7267 79.8313 23.2803C79.8313 22.9304 79.8977 22.5866 80.0002 22.2487C80.2234 21.4947 80.5793 20.7708 80.6638 19.9866C80.7542 19.1541 80.5069 18.3518 80.2958 17.5615C80.1932 17.1694 80.1028 16.7713 80.0907 16.3611C80.0726 15.8966 80.1389 15.4321 80.2415 14.9797C80.4466 14.0869 80.7965 13.2363 81.0438 12.3555C81.2489 11.6317 81.4118 10.8776 81.7436 10.1959C81.8944 9.88828 82.0874 9.59872 82.3046 9.33329C82.6303 9.36345 82.9621 9.37552 83.2879 9.38155C84.0661 9.39362 84.8382 9.33329 85.6164 9.32726C87.1124 9.32726 88.6025 9.37552 90.0985 9.41171C90.7983 9.42981 91.492 9.38155 92.1918 9.39362C92.5115 9.39965 92.8372 9.41775 93.1449 9.51427C93.3138 9.56856 93.4706 9.64698 93.531 9.82192C93.5853 9.9848 93.5551 10.1839 93.5189 10.3467C93.4706 10.6001 93.3983 10.8474 93.3319 11.1008C93.2293 11.505 93.1208 11.9574 93.2354 12.3736C93.356 12.7959 93.7059 13.1156 94.0317 13.3931C94.2428 13.5741 94.4479 13.749 94.5806 13.9964C94.6832 14.1894 94.7314 14.4005 94.7857 14.6117C94.9184 15.1305 95.1296 15.6131 95.4915 16.0112C95.8474 16.4033 96.2999 16.6868 96.7161 17.0066C97.1263 17.3142 97.5124 17.6762 97.6934 18.1708C97.8985 18.7318 97.9166 19.3411 97.9105 19.9323C97.9045 20.6683 97.8562 21.4042 97.9166 22.1402C97.9588 22.6831 98.0312 23.6724 98.6947 23.8293C99.0265 23.9077 99.3704 23.7086 99.5332 23.419C99.7203 23.0812 99.7384 22.6529 99.7565 22.2729C99.7746 21.8325 99.7565 21.3921 99.7806 20.9578C99.7987 20.5416 99.8711 20.3244 100.1 19.9926C100.414 19.5402 100.818 19.136 101.252 18.7982C101.657 18.4845 102.133 18.195 102.646 18.1226C103.026 18.0743 103.298 18.1889 103.472 18.5267C103.678 18.9188 103.756 19.4316 103.792 19.8659C103.834 20.3606 103.792 20.8613 103.575 21.3198C103.376 21.7481 103.068 22.11 102.73 22.4358C102.049 23.0873 101.259 23.6181 100.559 24.2455C100.004 24.7402 99.0808 25.6752 99.6418 26.4715C99.9736 26.936 100.444 26.8696 100.878 26.6464C100.414 27.503 100.034 28.4018 99.7625 29.3369C99.4066 30.5554 99.2075 31.8886 99.3824 33.1554C99.4548 33.6802 99.6479 34.1689 99.8711 34.6394C100.088 35.0979 100.354 35.5563 100.432 36.063C100.462 36.2621 100.438 36.4491 100.378 36.6241C100.36 36.6422 100.336 36.6542 100.317 36.6723C100.191 36.793 100.136 36.9377 100.124 37.0825C99.865 37.4324 99.491 37.734 99.1894 37.9995C97.3193 39.6885 95.395 41.3354 93.2414 42.6565C92.6925 42.9943 92.1375 43.308 91.5644 43.6036C91.1361 43.8268 90.6475 44.0621 90.1528 43.9293C89.6943 43.8027 89.2902 43.4829 88.886 43.2597C88.2827 42.928 87.6614 42.6263 87.0582 42.2946C86.1654 41.8059 85.0855 41.3233 84.615 40.3642C84.4099 39.9419 84.3255 39.4653 84.241 39.0069C84.1204 38.3373 83.9575 37.6737 83.7886 37.0101C83.7222 36.7507 83.6559 36.4913 83.5955 36.2319C83.68 36.2018 83.7584 36.1656 83.8429 36.1354C84.79 36.2078 85.7551 36.0992 86.6902 35.9364C87.6916 35.7614 88.6749 35.5141 89.6521 35.2366C91.1964 34.7962 92.7528 34.3016 94.1644 33.5234C94.3574 33.4208 94.5384 33.3002 94.7194 33.1735C94.8279 33.1071 94.9245 33.0348 95.021 32.9563C95.8595 32.2988 96.5231 31.4362 96.879 30.4106C96.9755 30.1271 97.0358 29.8134 97.0117 29.5118C96.9936 29.3369 96.7825 29.2162 96.6497 29.361C96.3119 29.7169 96.0284 30.1211 95.8173 30.5675C95.6303 30.9596 95.4855 31.3758 95.3045 31.7679C95.214 31.961 95.1175 32.1359 94.9969 32.2988C94.8702 32.4194 94.7314 32.528 94.5927 32.6245C94.3574 32.7874 94.1101 32.9322 93.8567 33.0709C93.6396 33.1554 93.4164 33.2278 93.1992 33.3062C92.0892 33.6923 90.9792 34.0301 89.8391 34.3076C89.2721 34.4464 88.699 34.5791 88.1319 34.7238C87.6131 34.8505 87.0944 35.0013 86.5695 35.1099C85.7672 35.2728 84.9468 35.3753 84.1566 35.5925C84.1445 35.5925 84.1324 35.5925 84.1204 35.5925C83.3241 35.5623 82.3589 35.3874 81.8763 34.7359L81.8823 34.7238ZM85.7069 47.8927C85.4113 47.2532 85.0795 46.6439 84.6693 46.0648C84.1565 45.347 83.5352 44.7256 82.9621 44.056C82.6846 43.7363 82.4192 43.4045 82.202 43.0365C82.0392 42.759 81.9185 42.4936 81.9246 42.1679C82.0331 42.1377 82.1116 42.011 82.0814 41.8964C82.0573 41.812 82.0392 41.7215 82.015 41.637C82.1598 41.1665 82.4494 40.7201 82.7027 40.3219C83.0466 39.7851 83.4327 39.2663 83.6981 38.6811C83.7765 39.1155 83.8429 39.5498 83.9635 39.9721C84.0842 40.4004 84.2712 40.8045 84.5547 41.1544C84.8804 41.5586 85.3148 41.8482 85.7491 42.1136C86.9073 42.8194 88.138 43.3925 89.3083 44.0741C89.5013 44.1887 89.7064 44.2913 89.9175 44.3637C89.4591 44.5628 89.0187 44.8523 88.6025 45.1177C88.0475 45.4676 87.5287 45.8778 86.9918 46.2639C86.6479 46.5173 86.3463 46.7948 86.1231 47.1507C85.9301 47.3618 85.7793 47.6091 85.7009 47.8927H85.7069ZM87.4744 51.5966C87.2331 51.126 86.9616 50.6736 86.7143 50.2031C86.4428 49.6843 86.1774 49.1293 86.1292 48.5381C86.28 48.2184 86.4067 47.8927 86.5756 47.579C86.8289 47.1084 87.2633 46.8249 87.6795 46.5173C88.2164 46.1191 88.7593 45.733 89.3324 45.3892C89.7969 45.1117 90.3458 44.6774 90.9189 44.7377C91.4739 44.792 91.9806 45.2022 92.415 45.5279C92.9096 45.8959 93.4284 46.2217 93.9231 46.5836C94.285 46.849 94.6349 47.1265 94.9848 47.4101C94.0136 48.4899 92.9157 49.443 91.86 50.4384C91.3472 50.9209 90.8465 51.4156 90.2735 51.8198C89.9055 52.0792 89.5194 52.2843 89.1092 52.4532C89.0489 52.4351 88.9765 52.4592 88.9523 52.5195C88.7955 52.5738 88.6387 52.6281 88.4818 52.6704C88.3793 52.7005 88.2767 52.7246 88.1802 52.7488C87.8665 52.4472 87.6795 51.9827 87.4865 51.6086L87.4744 51.5966ZM79.6503 87.2302C79.6624 86.8622 79.6624 86.4943 79.6925 86.1263C79.7167 85.7342 79.7891 85.3481 79.8313 84.956C80.0364 83.2126 80.0062 81.4572 80.0304 79.7078C80.0786 76.1667 80.8628 72.7162 81.5083 69.2535C81.828 67.5343 82.1236 65.809 82.4735 64.0958C82.8234 62.4067 83.2034 60.7056 83.8429 59.0949C84.1505 58.3228 84.5004 57.5747 84.8503 56.8267C85.1338 56.2174 85.4053 55.6021 85.7371 55.017C85.9663 54.6249 86.2317 54.2509 86.5876 53.9734C86.9797 53.6657 87.4563 53.4787 87.9329 53.346C87.957 53.34 87.9751 53.3339 87.9992 53.3279C88.6809 53.7562 89.5375 53.3581 90.2192 52.8634C90.3217 52.8574 90.4243 52.8513 90.5268 52.8574C90.6113 55.3608 90.7078 57.8643 90.7078 60.3738C90.7078 62.9376 90.5811 65.4893 90.4846 68.047C90.4363 69.344 90.4182 70.641 90.3639 71.938C90.3096 73.2108 90.2493 74.4837 90.0382 75.7444C89.8331 76.9751 89.5315 78.1876 89.3083 79.4182C89.1997 80.0275 89.1032 80.6368 89.0549 81.2521C89.0006 81.8855 88.9704 82.5189 88.892 83.1463C88.7291 84.4432 88.4517 85.7161 88.1983 86.9949C88.0233 87.8938 87.8303 88.9736 88.1983 89.8543C87.4744 89.3536 86.7686 88.8288 85.9422 88.5031C84.8201 88.0627 83.6559 88.3824 82.5157 88.5875C81.8763 88.7021 81.255 88.7021 80.6034 88.672C80.2294 88.6539 79.8494 88.6478 79.4874 88.6901C79.596 88.2135 79.6262 87.7188 79.6443 87.2302H79.6503ZM80.338 90.6566C80.6517 90.729 80.9654 90.8195 81.2851 90.8678C81.5988 90.916 81.9125 90.9221 82.2262 90.91C82.4373 90.904 82.5278 90.6144 82.3348 90.5058C81.7737 90.1861 81.0679 90.1499 80.4526 89.9931C80.1148 89.9086 79.777 89.8061 79.4754 89.6311C79.4211 89.601 79.3789 89.5708 79.3366 89.5406C79.3366 89.4803 79.3246 89.414 79.3065 89.3536C79.7106 89.2752 80.1329 89.2752 80.5491 89.2933C81.1343 89.3174 81.7074 89.3355 82.2925 89.2511C83.3904 89.0882 84.5487 88.6539 85.6466 89.0339C86.7324 89.4079 87.6312 90.2102 88.5964 90.8135C88.9765 91.0488 89.3625 91.2719 89.7305 91.5253C90.1347 91.8028 90.5449 92.0743 90.9672 92.3337C91.7454 92.8042 92.6804 93.3109 93.6215 93.2084C93.5672 93.4074 93.537 93.6246 93.543 93.8357C93.543 94.6562 93.7602 95.4705 93.9412 96.2608C93.9774 96.4237 94.0136 96.5865 94.0498 96.7554C94.0799 96.9063 94.092 96.9726 94.098 97.0872C94.1101 97.2803 94.1101 97.4793 94.1101 97.6784C94.1222 98.4023 94.1101 99.1322 94.0256 99.8501C93.9834 100.176 93.9351 100.574 93.7964 100.851C93.7783 100.888 93.7542 100.93 93.73 100.966C93.6215 100.912 93.4887 100.906 93.3741 101.008C93.3681 101.014 93.356 101.02 93.35 101.026C93.2535 101.026 93.175 101.093 93.1509 101.177C92.6683 101.491 92.0591 101.599 91.498 101.636C90.7621 101.69 90.0201 101.636 89.2781 101.612C88.9403 101.599 88.6085 101.599 88.2707 101.612C88.1802 101.563 88.0656 101.563 87.9811 101.612C87.4684 101.618 86.9616 101.63 86.4489 101.624C86.0326 101.618 85.6164 101.624 85.2002 101.612C85.0132 101.612 84.8201 101.599 84.6331 101.551C84.4582 101.503 84.3074 101.394 84.1626 101.286C83.8127 101.026 83.4869 100.894 83.0466 100.876C82.5941 100.857 82.1357 100.942 81.6833 100.87C81.3334 100.815 80.9956 100.677 80.6698 100.502C80.6396 100.453 80.6034 100.405 80.5673 100.357C80.4768 100.248 80.3802 100.152 80.2777 100.061C80.1631 99.9587 80.0485 99.8441 79.9157 99.7596C79.8615 99.7234 79.8072 99.6872 79.7529 99.6571C79.6986 99.6269 79.6262 99.5847 79.5598 99.5786C79.5478 99.5786 79.5297 99.5726 79.5176 99.5666C79.4573 99.5243 79.397 99.5243 79.3487 99.5545C78.7515 99.0478 78.1482 98.5591 77.4847 98.1369C77.9009 98.3299 78.3051 98.529 78.7334 98.6919C79.3246 98.9151 79.8976 99.0297 80.5311 98.9392C80.6577 98.9211 80.6215 98.722 80.5009 98.722C79.8192 98.722 79.1315 98.3782 78.5343 98.0886C77.9311 97.793 77.3459 97.4673 76.7125 97.238C76.1153 97.0209 75.5121 96.8339 74.9148 96.6227C74.6253 96.5202 74.3357 96.4116 74.0643 96.2729C73.8049 96.1462 73.5576 95.9592 73.2801 95.8868C73.1473 95.8506 73.0388 95.935 73.0086 96.0436C72.8035 95.7118 72.8095 95.3137 72.9302 94.8975C73.3163 94.9698 73.7204 94.9879 74.1065 95.0302C74.939 95.1146 75.7594 95.2413 76.5858 95.3559C77.3882 95.4705 78.1844 95.5912 78.9867 95.6696C79.6322 95.7299 80.3139 95.935 80.9473 95.6998C81.086 95.6515 81.1162 95.5067 81.0257 95.3921C80.7181 95.0121 80.0364 94.9879 79.59 94.9457C79.3065 94.9156 79.0169 94.9035 78.7334 94.8794C78.3835 94.8492 78.0397 94.7828 77.7018 94.7165C76.9176 94.5717 76.1334 94.3968 75.3371 94.3244C74.7882 94.2761 74.2332 94.252 73.6842 94.1736C73.1292 94.1012 72.5562 94.0046 72.0675 93.7332C71.6211 93.4798 71.2411 93.0334 71.3738 92.5086C71.5005 92.3156 71.6754 92.1527 71.8624 92.0501C72.0434 91.9536 72.2304 91.8631 72.3631 91.7063C72.3812 91.6882 72.3873 91.6701 72.4053 91.652C72.6285 91.652 72.8699 91.6882 73.075 91.7184C73.9135 91.845 74.752 91.9898 75.5844 92.1467C76.61 92.3397 77.6234 92.5931 78.661 92.7137C79.7046 92.8344 80.7784 92.9007 81.822 92.774C81.9306 92.762 81.9306 92.6232 81.822 92.6112C80.8387 92.4905 79.8554 92.4241 78.8782 92.2613C77.9009 92.0984 76.9297 91.8873 75.9645 91.658C75.0898 91.4469 74.2091 91.2961 73.3223 91.1634C73.0508 91.1211 72.7854 91.097 72.52 91.1151C72.52 91.0668 72.52 91.0186 72.52 90.9643C72.52 90.6566 72.7914 90.4274 73.0689 90.3671C73.5756 90.2464 74.1246 90.2404 74.6434 90.2464C75.2466 90.2464 75.8559 90.2947 76.4592 90.3309C77.0805 90.3671 77.7079 90.3792 78.3292 90.4153C79.0229 90.4515 79.6926 90.5239 80.3682 90.6808L80.338 90.6566ZM82.9259 108.7C82.9259 108.7 82.8294 108.7 82.7631 108.688C82.6605 108.663 82.558 108.627 82.4614 108.585C82.19 108.464 81.9426 108.296 81.7074 108.121C81.1886 107.741 80.712 107.312 80.2475 106.872C79.8373 106.48 79.4271 106.088 79.0048 105.702C78.7394 105.454 78.5162 105.189 78.4137 104.839C78.2749 104.35 78.2749 103.819 78.281 103.313C78.281 102.915 78.2749 102.535 78.2327 102.136C78.1965 101.78 78.1422 101.394 78.1905 101.038C78.2327 100.725 78.5223 100.67 78.7937 100.604C79.029 100.544 79.2642 100.496 79.4874 100.405C79.8554 100.689 80.2475 100.942 80.6819 101.141C81.1464 101.352 81.6048 101.479 82.1176 101.479C82.5399 101.479 83.0888 101.352 83.4809 101.545C83.8489 101.72 84.1023 102.034 84.5125 102.13C84.9347 102.227 85.3691 102.197 85.7974 102.203C86.292 102.203 86.7927 102.227 87.2874 102.227C87.4744 102.227 87.6614 102.227 87.8544 102.221C87.8665 102.607 87.8906 102.987 87.8846 103.373C87.8786 103.765 87.8484 104.169 87.6192 104.501C87.4322 104.779 87.1366 104.978 86.8651 105.171C86.4971 105.442 86.1412 105.726 85.7974 106.027C85.2122 106.534 84.6452 107.065 84.1143 107.626C83.8911 107.861 83.6679 108.096 83.4327 108.326C83.3361 108.416 83.2396 108.513 83.131 108.591C83.0948 108.621 83.0587 108.645 83.0164 108.67C82.9983 108.682 82.9742 108.694 82.9561 108.706C82.944 108.712 82.9863 108.706 82.9259 108.712V108.7ZM78.9566 95.2534C79.3125 95.2775 79.6684 95.2956 80.0183 95.3559C80.1269 95.374 80.2536 95.3921 80.3742 95.4283C79.9037 95.4585 79.409 95.3077 78.9566 95.2534ZM78.0759 88.5513C78.2146 88.6659 78.3895 88.8107 78.5343 88.9676C78.474 89.0279 78.4378 89.1123 78.4438 89.2028C78.4438 89.2089 78.4378 89.2149 78.4378 89.227C78.4378 89.227 78.4378 89.233 78.4378 89.239C78.2206 88.9676 78.0095 88.684 77.7984 88.4065C77.6958 88.2738 77.5933 88.1471 77.4907 88.0144C77.6777 88.2014 77.8707 88.3824 78.0819 88.5513H78.0759ZM70.9576 78.5616C71.3497 79.1166 71.7056 79.6957 72.0494 80.2808C72.7432 81.4753 73.3886 82.6999 74.203 83.8219C74.6072 84.3769 75.0717 84.8836 75.4819 85.4386C75.7232 85.7704 75.9585 86.1021 76.1998 86.44C75.1682 85.2214 74.1608 83.9908 73.2982 82.6395C72.4416 81.2883 71.7116 79.8525 70.8007 78.5375C70.5534 78.1755 70.288 77.8256 70.0165 77.4818C70.3664 77.8136 70.6801 78.1635 70.9636 78.5616H70.9576ZM65.5947 100.568C65.0639 100.683 64.4848 100.906 64.0022 100.556C63.5196 100.206 63.1576 99.6993 62.8017 99.2348C60.8532 96.7192 58.6634 94.4149 56.6185 91.9777C55.5869 90.7471 54.6278 89.4743 53.56 88.2738C53.0292 87.6826 52.4983 87.0915 51.9795 86.4882C51.4728 85.9031 51.0143 85.2757 50.58 84.6363C50.1396 83.9908 49.7234 83.3272 49.277 82.6878C48.8245 82.0242 48.3359 81.3908 47.8594 80.7453C46.8881 79.4242 45.9048 78.1212 44.8854 76.8363C44.3847 76.2029 43.8719 75.5755 43.3531 74.9542C43.2204 74.7973 43.0515 74.6043 42.9851 74.4233C42.967 74.369 42.9731 74.4052 42.9791 74.3871C42.9791 74.3871 42.9791 74.3871 42.9851 74.3811C42.9912 74.3811 43.0032 74.3751 43.0032 74.369C43.0515 74.3389 43.1058 74.3087 43.1601 74.2846C43.7874 74.0192 44.5415 73.9528 45.2111 73.9106C45.9772 73.8623 46.7494 73.8985 47.5155 73.9588C49.0598 74.0735 50.6041 74.3087 52.1544 74.3087C53.8073 74.3087 55.4482 74.4595 57.095 74.5983C58.76 74.7431 60.4129 74.8577 62.0838 74.7913C62.9103 74.7551 63.7367 74.7129 64.5571 74.7732C65.269 74.8215 66.0049 74.8818 66.6987 75.0507C66.9701 75.1171 67.2416 75.1955 67.4587 75.3765C67.6518 75.5393 67.8026 75.7565 67.9534 75.9556C68.3998 76.5287 68.9005 77.0535 69.3529 77.6205C70.3061 78.8029 71.0662 80.0878 71.8443 81.3908C72.6587 82.7602 73.5153 84.0873 74.5227 85.324C75.5121 86.5365 76.5798 87.6947 77.5752 88.9012C77.8527 89.239 78.1543 89.5587 78.48 89.8543C78.4499 89.8543 78.4197 89.8543 78.3895 89.8483C77.7139 89.8 77.0383 89.7819 76.3626 89.7397C75.7051 89.6975 75.0476 89.6372 74.384 89.6492C73.8592 89.6492 73.268 89.6613 72.7673 89.8242C72.3933 89.9448 72.146 90.2223 71.9831 90.5782C71.9288 90.7049 71.9047 90.8256 71.9047 90.9643C71.9047 91.0427 71.9348 91.1513 71.9228 91.2418C71.7297 91.3323 71.5548 91.471 71.41 91.6279C71.3919 91.6399 71.3678 91.652 71.3497 91.6641C70.9455 91.9416 70.6318 92.4664 70.6017 92.955C70.5413 93.9142 71.5367 94.5053 72.3088 94.8975C72.1701 95.4645 72.2123 96.0497 72.6044 96.5262C72.9845 96.9907 73.5877 97.226 74.1427 97.413C74.8364 97.6422 75.5483 97.8051 76.2179 98.1188C77.0202 98.4928 77.7441 99.0055 78.4318 99.5666C78.5645 99.6751 78.6912 99.7837 78.8239 99.8923C78.7997 99.8923 78.7696 99.9044 78.7455 99.9104C78.4197 99.9768 78.0879 100.031 77.7561 100.073C76.9478 100.182 76.1334 100.236 75.319 100.272C73.6782 100.345 72.0374 100.315 70.3966 100.387C69.5641 100.423 68.7256 100.435 67.8871 100.447C67.127 100.459 66.3428 100.435 65.5947 100.598V100.568ZM67.7543 102.01C67.7181 101.919 67.6578 101.865 67.5854 101.829C67.5613 101.702 67.5372 101.581 67.5251 101.455C67.513 101.328 67.513 101.189 67.5311 101.057C67.6639 101.057 67.7966 101.057 67.9293 101.057C69.6365 101.032 71.3497 100.96 73.0569 100.93C74.6555 100.906 76.2541 100.864 77.8406 100.652C77.8346 100.671 77.8165 100.683 77.8104 100.701C77.6898 100.99 77.7079 101.34 77.726 101.642C77.7441 101.974 77.7923 102.305 77.8044 102.637C77.8527 103.584 77.6415 104.682 78.1905 105.521C78.4076 105.852 78.7153 106.106 78.9988 106.371C79.1919 106.558 79.3789 106.751 79.5719 106.944C80.0485 107.421 80.5371 107.891 81.0559 108.314C81.5143 108.682 82.0573 109.122 82.6484 109.237C82.8958 109.285 83.119 109.261 83.3301 109.122C83.5955 108.947 83.8248 108.718 84.0419 108.501C84.5607 107.982 85.0433 107.439 85.5802 106.938C86.0206 106.528 86.467 106.124 86.9435 105.768C87.2753 105.521 87.6433 105.291 87.9208 104.972C88.5663 104.218 88.4396 103.15 88.3974 102.203C88.5542 102.203 88.7171 102.203 88.8739 102.203C90.2976 102.215 92.0289 102.522 93.3198 101.774C93.2474 101.913 93.1871 102.064 93.1509 102.215C93.1268 102.305 93.163 102.432 93.2595 102.474C93.9713 102.8 94.7495 102.715 95.4976 102.589C95.8595 102.528 96.2214 102.45 96.5894 102.408C96.9876 102.36 97.3978 102.366 97.7959 102.384C98.6766 102.42 99.5513 102.547 100.426 102.643C101.307 102.74 102.175 102.782 103.056 102.709C103.919 102.637 104.775 102.498 105.638 102.438C105.717 102.432 105.795 102.432 105.873 102.426C106.048 102.498 106.223 102.565 106.398 102.649C106.7 102.794 106.851 103.059 106.989 103.355C107.279 103.976 107.418 104.664 107.761 105.261C107.991 105.665 108.606 106.474 108.099 106.854C107.617 107.222 106.905 107.33 106.326 107.457C104.058 107.952 101.85 108.676 99.6358 109.381C98.4896 109.683 97.3435 109.954 96.1913 110.226C94.8822 110.54 93.5853 110.871 92.2762 111.191C91.4437 111.39 90.6052 111.589 89.7607 111.752C88.4939 111.939 87.2271 112.084 85.9542 112.186C85.9482 112.186 85.9422 112.186 85.9361 112.186C85.164 112.247 84.3979 112.301 83.6257 112.331C81.6833 112.41 79.7287 112.361 77.7923 112.192C76.8332 112.108 75.88 111.993 74.9329 111.837C74.004 111.68 73.0508 111.517 72.146 111.251C71.2109 110.974 70.3543 110.485 69.4434 110.147C69.3409 110.111 69.2383 110.081 69.1358 110.051C69.1659 110.051 69.1901 110.039 69.2202 110.033C69.3771 110.009 69.4434 109.822 69.4193 109.683C68.9005 107.113 68.6592 104.483 67.7362 102.016L67.7543 102.01ZM68.8402 109.544C68.7437 109.574 68.6592 109.611 68.5748 109.659C68.5446 109.472 68.5808 109.291 68.629 109.104C68.6532 109.001 68.6773 108.899 68.7014 108.796C68.7437 109.044 68.7919 109.297 68.8402 109.544ZM68.1766 113.007C68.2792 112.506 68.255 111.993 68.2852 111.481C68.3033 111.161 68.3274 110.775 68.4903 110.485C68.6592 110.558 68.8522 110.6 69.0211 110.654C69.4977 110.805 69.9501 111.022 70.4026 111.221C70.8671 111.432 71.3376 111.644 71.8202 111.8C72.2666 111.945 72.7311 112.042 73.1956 112.144C74.1849 112.355 75.1803 112.524 76.1817 112.651C78.1241 112.904 80.0907 113.007 82.0512 112.977C81.9788 113.025 81.9064 113.067 81.8401 113.121C81.2127 113.616 80.8568 114.382 80.887 115.185C80.9232 116.156 81.454 116.958 81.9306 117.766C82.1839 118.195 82.4735 118.599 82.8716 118.907C82.5218 118.888 82.1779 118.87 81.828 118.822C80.9533 118.714 80.0907 118.527 79.2281 118.34C75.8016 117.598 72.3269 116.988 69.0272 115.776C68.6049 115.619 68.0439 115.456 67.8931 114.973C67.688 114.31 68.0499 113.64 68.1766 112.995V113.007ZM53.8918 244.14C53.8134 243.133 54.4045 242.318 55.1164 241.703C55.7498 241.154 56.1298 240.503 56.1841 239.646C56.2505 238.458 55.7136 237.275 55.605 236.099C55.0561 230.193 54.5252 224.275 54.3503 218.345C54.2658 215.377 54.2658 212.409 54.3985 209.441C54.5312 206.407 54.863 203.385 54.9414 200.351C55.0199 197.358 54.9776 194.366 55.0199 191.374C55.0681 188.455 55.2672 185.547 55.1948 182.621C55.1646 181.276 55.0681 179.967 54.8389 178.646C54.6036 177.289 54.296 175.919 54.3442 174.532C54.3865 173.193 54.7243 171.871 54.9535 170.55C55.1707 169.29 55.2008 168.059 55.1948 166.786C55.1827 164.047 56.0092 161.665 57.1131 159.203C58.0843 157.038 58.6634 154.763 58.947 152.417C59.2426 149.968 59.2727 147.488 59.514 145.033C59.7795 142.331 60.6783 139.749 61.4685 137.167C62.1683 134.874 62.7233 132.594 62.8801 130.199C62.9706 128.824 63.0913 127.455 63.2541 126.091C63.4592 124.372 63.7307 122.659 64.1469 120.982C64.4908 119.588 64.9131 118.08 65.7757 116.91C66.0834 116.5 66.4634 116.126 66.9641 115.969C67.0425 115.945 67.0968 115.896 67.133 115.842C67.314 115.884 67.513 115.957 67.6638 116.023C68.068 116.198 68.4662 116.403 68.9005 116.482C68.985 116.5 69.0634 116.482 69.1297 116.445C69.3167 116.512 69.5098 116.578 69.6968 116.644C70.6137 116.952 71.5427 117.224 72.4777 117.465C74.3176 117.935 76.1817 118.297 78.0336 118.689C78.9867 118.888 79.9338 119.106 80.893 119.269C81.8099 119.425 82.7208 119.498 83.6498 119.516C84.2169 119.528 84.7779 119.594 85.3389 119.582C85.5018 119.582 85.6707 119.57 85.8336 119.552C85.9422 119.564 86.0507 119.576 86.1533 119.6C86.3101 119.636 86.4549 119.552 86.5092 119.419C86.9616 119.359 87.402 119.226 87.8424 119.1C88.4396 118.919 89.0428 118.798 89.6642 118.72C90.9249 118.557 92.1978 118.496 93.4586 118.333C94.7737 118.159 96.0767 117.917 97.3736 117.64C98.6344 117.368 99.9073 117.097 101.15 116.759C102.399 116.415 103.617 115.975 104.842 115.559C105.837 115.221 106.851 114.943 107.846 114.624C108.624 114.37 109.463 114.032 109.981 113.375C110.76 114.503 110.856 116.138 110.989 117.429C111.158 119.075 111.266 120.734 111.695 122.339C112.28 124.529 112.829 126.725 113.245 128.957C113.667 131.243 114.041 133.577 113.915 135.906C113.794 138.084 113.299 140.213 112.847 142.337C112.63 143.374 112.419 144.412 112.262 145.455C112.105 146.499 112.002 147.543 111.719 148.562C111.212 150.378 110.355 152.067 109.644 153.81C108.89 155.68 108.479 157.544 108.407 159.559C108.329 161.876 108.57 164.186 108.787 166.484C109.004 168.807 109.125 171.117 109.119 173.452C109.119 174.93 109.083 176.414 109.071 177.892H109.125C109.034 179.255 108.986 180.618 108.896 181.982C108.775 183.798 108.606 185.607 108.407 187.411C108.31 188.298 108.226 189.185 108.214 190.077C108.208 190.97 108.31 191.839 108.425 192.72C108.54 193.57 108.618 194.427 108.341 195.253C108.214 195.633 108.057 196.001 107.985 196.393C107.906 196.779 107.912 197.171 107.973 197.558C108.099 198.348 108.431 199.078 108.497 199.886C108.57 200.761 108.516 201.648 108.497 202.528C108.461 204.338 108.256 206.136 108.274 207.945C108.316 211.384 109.288 214.853 108.715 218.291C108.57 219.142 108.377 219.968 108.304 220.831C108.226 221.711 108.196 222.598 108.039 223.467C107.882 224.317 107.593 225.138 107.394 225.976C107.2 226.803 107.05 227.641 106.971 228.486C106.929 228.92 106.911 229.349 106.923 229.789C106.935 230.193 107.538 230.193 107.55 229.789C107.55 229.723 107.556 229.662 107.562 229.596C107.575 229.614 107.587 229.632 107.593 229.65C107.623 229.698 107.641 229.765 107.659 229.873C107.659 229.879 107.659 229.885 107.659 229.885C107.659 229.885 107.659 229.891 107.659 229.897C107.659 229.922 107.659 229.946 107.659 229.964C107.659 230.024 107.659 230.084 107.659 230.145C107.647 230.658 107.466 231.194 107.285 231.689C107.11 232.184 106.905 232.636 106.718 233.095C106.471 233.698 106.356 234.331 106.278 234.977C106.169 235.858 106.151 236.75 106.133 237.637C106.121 238.059 106.115 238.482 106.151 238.904C106.187 239.32 106.241 239.736 106.278 240.153C106.35 240.985 106.296 241.787 105.813 242.505C105.421 243.09 104.872 243.356 104.178 243.398C104.154 243.398 104.13 243.398 104.106 243.398C104.052 243.344 103.979 243.302 103.901 243.302C101.783 243.289 99.672 243.054 97.5546 243.127C96.7161 243.157 95.8655 243.229 95.0451 243.422C94.8099 243.477 94.5625 243.543 94.3152 243.633C93.9412 243.561 93.5672 243.476 93.1932 243.374C92.6261 243.217 92.1194 243.012 91.7514 242.548C91.4498 242.167 91.2929 241.673 91.2085 241.178C91.0094 240.02 91.1843 238.795 91.3412 237.643C91.4196 237.058 91.5041 236.479 91.5584 235.894C91.6247 235.182 91.6127 234.458 91.5825 233.746C91.5101 232.009 91.299 230.247 91.5403 228.516C91.5704 228.281 91.6187 228.046 91.6669 227.816C92.0711 226.513 92.0349 225.053 92.0771 223.714C92.1314 222.031 92.3365 220.366 92.4753 218.689C92.6201 216.952 92.6683 215.215 92.7709 213.477C92.8734 211.728 92.9941 209.984 93.0785 208.235C93.163 206.492 93.1931 204.742 93.1811 202.993C93.175 202.118 93.157 201.237 93.1027 200.363C93.0544 199.542 92.9579 198.734 93.0001 197.913C93.0423 197.153 93.1027 196.387 92.9036 195.639C92.801 195.253 92.6442 194.885 92.5296 194.505C92.4089 194.107 92.3064 193.709 92.2159 193.305C91.86 191.712 91.7092 190.083 91.6066 188.461C91.5584 187.64 91.5222 186.82 91.4679 186.005C91.4136 185.161 91.305 184.322 91.1904 183.484C91.0697 182.621 90.9491 181.759 90.8948 180.89C90.8465 180.112 90.7138 179.34 90.6535 178.561C90.6354 178.338 90.6233 178.121 90.6294 177.904H90.8465C90.8224 176.51 90.7983 175.123 90.7802 173.729C90.75 171.455 90.8103 169.157 90.6535 166.883C90.3639 162.624 89.2721 158.449 87.9751 154.401C87.3176 152.356 86.5997 150.33 85.8637 148.309C85.5923 147.567 85.3389 146.813 85.0795 146.059C85.0976 146.016 85.1217 145.974 85.1398 145.938C85.4053 146.101 85.6948 146.191 85.9482 146.04C86.5273 145.697 86.1352 144.605 86.0085 144.14C85.9422 143.905 85.6043 143.857 85.4837 144.074C85.2846 144.412 85.0976 144.762 84.9166 145.105C84.8262 145.015 84.7417 144.924 84.6572 144.834C84.5125 144.436 84.3617 144.038 84.2048 143.646C83.7584 142.524 83.0948 141.239 81.7918 141.003C81.5023 140.949 81.3213 141.209 81.4359 141.468C81.7315 142.156 82.2262 142.777 82.6846 143.368C83.0828 143.881 83.499 144.394 83.9514 144.87C83.9876 144.991 84.0238 145.105 84.06 145.214C84.1626 145.528 84.2712 145.835 84.3798 146.149C83.1552 148.622 82.1719 151.216 81.261 153.828C80.0786 157.201 78.9144 160.561 77.5631 163.872C76.1032 167.456 74.6615 171.111 73.6661 174.851C73.2378 176.474 72.9121 178.043 73.268 179.708C73.5877 181.228 74.1729 182.796 72.906 184.033C71.959 184.962 71.3436 185.794 71.229 187.17C71.0903 188.804 71.5427 190.451 71.6754 192.08C71.8323 194.01 71.9409 195.941 72.0675 197.871C72.2002 199.856 72.4235 201.829 72.5501 203.807C72.7914 207.752 72.6406 211.704 72.52 215.649C72.3993 219.57 72.532 223.515 72.0856 227.418C71.8926 229.113 71.6513 230.833 71.1989 232.485C70.8429 233.77 70.4327 235.037 70.107 236.322C69.6606 238.083 68.8522 240.961 70.107 242.614C67.6638 243.591 65.2087 244.556 62.6388 245.154C60.3827 245.678 57.8129 246.034 55.5085 245.546C54.7605 245.389 53.928 245.051 53.8616 244.182L53.8918 244.14ZM97.7899 244.562C98.8033 244.544 99.8108 244.454 100.818 244.333C101.741 244.225 102.658 244.062 103.587 244.044C103.641 244.044 103.696 244.044 103.756 244.044C103.895 244.87 103.858 245.702 103.816 246.535C103.756 246.481 103.696 246.432 103.629 246.384C102.839 245.841 101.771 245.751 100.842 245.708C99.8711 245.666 98.8998 245.721 97.9226 245.727C96.6497 245.739 95.3588 245.57 94.104 245.895C93.8929 245.95 93.6878 246.028 93.4948 246.119C93.3802 245.684 93.2957 245.22 93.5129 244.852C93.6757 244.586 93.9472 244.399 94.2549 244.267C94.4419 244.303 94.6289 244.339 94.8219 244.369C95.8052 244.52 96.8006 244.574 97.7959 244.556L97.7899 244.562ZM95.9258 243.838C97.4159 243.603 98.9602 243.67 100.462 243.73C99.9736 243.784 99.485 243.826 98.9964 243.863C97.9708 243.929 96.9453 243.929 95.9319 243.844L95.9258 243.838ZM85.6345 145.492C85.5681 145.492 85.5018 145.467 85.4294 145.431C85.5139 145.274 85.5983 145.118 85.6828 144.961C85.7069 145.087 85.719 145.214 85.7129 145.335C85.7009 145.552 85.7491 145.492 85.6345 145.492ZM83.487 143.434C83.0888 142.958 82.7148 142.445 82.4132 141.914C82.8897 142.27 83.2276 142.831 83.487 143.434ZM61.6194 253.695C61.5832 253.701 61.553 253.72 61.5228 253.744C61.2514 253.834 60.9859 253.925 60.7205 254.027C60.1052 254.269 59.4959 254.546 58.9289 254.89C58.398 255.216 57.9275 255.608 57.4509 256.006C56.9925 256.392 56.5159 256.742 55.9308 256.887C55.2853 257.049 54.6217 257.092 53.9642 257.128C53.2704 257.158 52.5767 257.17 51.883 257.218C51.1229 257.273 50.3688 257.357 49.6148 257.448C48.0825 257.629 46.5503 257.822 45 257.791C44.2338 257.773 43.4677 257.816 42.7016 257.798C41.9536 257.779 41.1151 257.725 40.4575 257.411C39.8241 257.11 39.432 256.621 39.3717 255.897C39.3415 255.511 39.3596 255.185 39.5346 254.884C39.6914 254.606 39.9508 254.377 40.2223 254.19C40.922 253.726 41.7545 253.472 42.5629 253.267C43.329 253.068 44.1132 252.935 44.8914 252.766C46.0737 252.513 47.2139 252.073 48.2756 251.506C49.4519 250.884 50.4774 250.082 51.521 249.256C52.4259 248.538 53.5419 247.772 53.9099 246.613C53.9642 246.438 54.0004 246.245 54.1029 246.089C54.1874 245.95 54.308 245.871 54.4528 245.823C55.6352 246.426 57.3484 246.342 58.5247 246.306C61.366 246.221 64.1349 245.467 66.7952 244.514C67.9172 244.11 69.0272 243.67 70.1311 243.223C70.101 243.633 70.3423 244.104 70.475 244.472C70.6861 245.063 70.8007 245.678 70.8972 246.3C70.9938 246.897 71.0782 247.488 71.1506 248.085C71.1506 248.115 71.1506 248.152 71.1627 248.182C71.2532 248.912 71.3255 249.642 71.3617 250.378C71.3919 251.041 71.3919 251.711 71.3617 252.374C70.9938 252.326 70.6258 252.308 70.2578 252.314C69.739 252.181 69.2263 252.043 68.6833 252.067C67.2657 252.133 65.8843 252.573 64.521 252.917C63.5739 253.153 62.6207 253.388 61.6917 253.683C61.6676 253.683 61.6435 253.689 61.6194 253.695ZM71.5246 253.943C71.3678 254.076 71.1144 254.124 70.9214 254.172C70.5956 254.256 70.2638 254.305 69.926 254.341C69.2323 254.413 68.5325 254.419 67.8328 254.474C67.1028 254.534 66.3789 254.679 65.649 254.775C64.8889 254.872 64.1288 254.95 63.3688 255.029C63.049 255.059 62.7353 255.107 62.4156 255.131C62.307 255.143 62.1924 255.155 62.0899 255.131C62.0416 255.119 62.0054 255.107 61.9632 255.077C61.9572 255.077 61.933 255.041 61.927 255.029C61.9149 255.004 61.9089 254.908 61.9089 254.836C61.9089 254.727 61.9089 254.624 61.9089 254.516C61.9089 254.443 61.921 254.371 61.927 254.299C62.1261 254.238 62.3191 254.172 62.5182 254.118C63.604 253.955 64.6899 253.792 65.7757 253.599C67.0244 253.382 68.2611 253.05 69.5279 252.923C69.6546 252.911 69.7812 252.899 69.9079 252.893C70.0406 252.929 70.1733 252.966 70.3061 253.002C70.5956 253.074 70.8972 253.14 71.1928 253.159C71.2894 253.165 71.3859 253.165 71.4824 253.171C71.5246 253.171 71.5608 253.171 71.603 253.177C71.5789 253.177 71.603 253.177 71.6272 253.189C71.6513 253.273 71.6634 253.358 71.6634 253.442C71.6634 253.623 71.6634 253.822 71.5246 253.937V253.943ZM88.1078 247.832C86.5695 247.82 85.0373 247.82 83.499 247.814C81.9728 247.814 80.4526 247.808 78.9264 247.808C77.6114 247.808 76.2842 247.753 74.9752 247.868C74.3478 247.922 73.7144 247.989 73.081 248.007C72.6225 248.019 72.1761 247.983 71.7297 247.91C71.6754 247.464 71.6151 247.018 71.5487 246.577C71.4583 245.92 71.3738 245.25 71.1808 244.617C71.0963 244.351 70.9998 244.086 70.9093 243.82C70.8429 243.615 70.7464 243.386 70.7706 243.187C70.7766 243.115 70.7525 243.048 70.7102 242.994C70.7102 242.994 70.7102 242.994 70.7163 242.994C70.9153 242.915 71.03 242.656 70.849 242.487C70.101 241.793 70.0587 240.665 70.113 239.712C70.1794 238.5 70.4689 237.299 70.7826 236.129C71.0722 235.037 71.416 233.951 71.7297 232.865C72.0977 231.581 72.3209 230.259 72.5139 228.932C73.0629 225.21 73.0146 221.488 73.1112 217.736C73.2077 213.869 73.4128 210.008 73.3163 206.142C73.2197 202.257 72.7854 198.372 72.532 194.493C72.4174 192.762 72.2364 191.061 72.0132 189.341C71.8142 187.809 71.7116 186.144 72.8759 184.962C73.6782 184.147 74.3478 183.514 74.39 182.289C74.4504 180.624 73.5756 179.11 73.8109 177.421C74.0703 175.521 74.6796 173.681 75.2828 171.871C75.874 170.11 76.5074 168.361 77.177 166.623C77.919 164.699 78.7394 162.811 79.4693 160.88C80.1691 159.04 80.7905 157.17 81.4299 155.312C82.4011 152.471 83.3965 149.624 84.6753 146.909C85.1217 148.152 85.5923 149.382 86.0326 150.625C87.4985 154.763 88.8558 158.968 89.5918 163.305C90.37 167.902 90.1166 172.638 90.2011 177.283C90.2011 177.433 90.2071 177.584 90.2131 177.741C90.1045 178.338 90.1347 178.947 90.2011 179.551C90.2915 180.347 90.3217 181.143 90.4062 181.946C90.4967 182.808 90.6233 183.665 90.7259 184.521C90.8224 185.348 90.8767 186.174 90.9189 187.007C91.0034 188.648 91.0939 190.288 91.3352 191.911C91.4558 192.701 91.6066 193.492 91.8178 194.264C92.0289 195.03 92.3848 195.766 92.421 196.568C92.4572 197.322 92.3426 198.076 92.3788 198.836C92.421 199.705 92.5175 200.568 92.5477 201.436C92.602 203.18 92.5899 204.929 92.5236 206.679C92.4632 208.416 92.3486 210.147 92.24 211.879C92.1254 213.616 92.053 215.353 91.9565 217.091C91.86 218.822 91.6368 220.547 91.5101 222.278C91.4015 223.853 91.4618 225.439 91.2326 227.002C91.1783 227.382 91.124 227.756 91.0697 228.136C91.0577 228.208 91.0878 228.275 91.124 228.329C91.0275 228.781 90.9792 229.246 90.9431 229.704C90.8767 230.633 90.9129 231.562 90.9431 232.497C90.9792 233.396 91.0215 234.295 90.9853 235.194C90.9611 235.767 90.8827 236.334 90.8043 236.901C90.6173 238.18 90.4001 239.489 90.5087 240.78C90.6052 241.938 91.0275 243.121 92.1194 243.688C92.4813 243.875 92.8734 243.977 93.2655 244.08C93.3138 244.092 93.3681 244.104 93.4164 244.116C93.2655 244.237 93.1328 244.369 93.0242 244.532C92.6321 245.105 92.783 245.829 92.97 246.475C92.7166 246.692 92.5296 246.975 92.4512 247.337C92.4089 247.524 92.4029 247.729 92.4029 247.934C90.9672 247.844 89.5254 247.868 88.0897 247.856L88.1078 247.832ZM93.2535 246.981C93.1328 247.162 93.0242 247.349 92.9217 247.542C92.9458 247.392 92.9941 247.241 93.0785 247.114C93.1147 247.06 93.163 247.012 93.2052 246.969C93.2173 246.975 93.2354 246.981 93.2474 246.987L93.2535 246.981ZM101.295 263.806C100.655 264.083 99.9736 264.252 99.292 264.361C98.3991 264.5 97.4762 264.548 96.5774 264.463C95.8233 264.391 95.1597 264.294 94.3996 264.168C93.5611 264.023 92.7166 263.866 91.9022 263.601C91.7454 263.546 91.6066 263.504 91.4739 263.45C91.498 263.45 91.5222 263.45 91.5463 263.45C91.9686 263.462 92.3969 263.456 92.8191 263.456C93.5973 263.456 94.3815 263.444 95.1597 263.498C96.6618 263.601 98.1518 263.806 99.6599 263.83C100.251 263.836 100.836 263.812 101.421 263.739C101.379 263.758 101.337 263.782 101.295 263.8V263.806ZM104.667 256.856C104.763 257.556 104.836 258.298 104.679 258.998C104.607 259.336 104.486 259.637 104.293 259.921C104.13 260.168 103.943 260.397 103.786 260.651C103.478 261.152 103.376 261.725 103.201 262.28C103.153 262.424 103.104 262.533 103.008 262.599C102.809 262.744 102.556 262.816 102.32 262.889C101.699 263.076 101.047 263.148 100.402 263.166C98.9541 263.215 97.5124 263.046 96.0706 262.913C95.4131 262.853 94.7495 262.798 94.086 262.792C93.2474 262.786 92.4029 262.81 91.5644 262.786C91.4679 262.786 91.311 262.774 91.2567 262.768C91.2145 262.762 91.1723 262.75 91.124 262.738C91.1059 262.738 91.0878 262.726 91.0697 262.72C91.0697 262.72 91.0697 262.72 91.0577 262.714C91.0456 262.708 91.0034 262.678 90.9973 262.672C90.9732 262.648 90.9491 262.629 90.925 262.599C90.8586 262.527 90.8405 262.497 90.7741 262.406C90.4062 261.888 89.9779 261.32 89.8994 260.669C89.827 260.084 90.1045 259.535 90.3941 259.046C90.8043 258.346 91.2688 257.689 91.6428 256.971C92.3727 255.572 92.9157 253.991 92.795 252.392C92.7769 252.121 92.7287 251.85 92.6744 251.578C93.0423 251.608 93.4103 251.669 93.7843 251.65C94.092 251.638 94.1704 251.192 93.8567 251.108C93.5249 251.017 93.0785 250.89 92.8734 250.607C92.7045 250.378 92.7287 250.052 92.7648 249.762C92.8191 249.274 92.8976 248.761 93.0303 248.284C93.1871 247.705 93.4706 247.174 93.8205 246.692C93.8386 246.668 93.8447 246.637 93.8386 246.613C95.0451 246.221 96.3481 246.378 97.5908 246.39C98.4715 246.402 99.3462 246.342 100.227 246.354C101.168 246.366 102.049 246.396 102.93 246.71C103.249 246.824 103.593 247.012 103.768 247.301C103.756 247.591 103.762 247.88 103.768 248.164C103.599 248.29 103.533 248.58 103.768 248.731C103.768 248.731 103.768 248.731 103.762 248.731C103.762 248.731 103.768 248.743 103.774 248.749C103.798 248.827 103.774 248.737 103.786 248.779C103.798 248.821 103.81 248.863 103.822 248.9C103.877 249.099 103.895 249.256 103.913 249.449C103.961 249.949 103.973 250.45 103.973 250.951C103.973 251.415 103.973 251.88 103.985 252.344C104.009 253.002 104.124 253.659 104.233 254.311C104.377 255.155 104.546 256 104.661 256.85L104.667 256.856Z" fill="#161928"/>
<path d="M88.9705 244.466C88.9705 244.466 88.9946 244.43 88.9705 244.43C88.9464 244.43 88.9464 244.466 88.9705 244.466Z" fill="#161928"/>
</svg>
