<svg width="256" height="266" viewBox="0 0 256 266" fill="none" xmlns="http://www.w3.org/2000/svg">
<path opacity="0.49" d="M132.08 53.6786C132.488 54.3115 132.938 54.9207 133.275 55.5891C133.742 56.5296 133.979 57.5647 134.209 58.5939C136.966 70.82 139.74 83.1763 139.627 95.7042C139.604 98.6143 139.503 101.802 141.289 104.097C141.644 104.559 142.106 104.985 142.685 105.079C144.265 105.34 145.01 103.216 145.134 101.625C145.619 95.5208 146.098 89.3633 145.258 83.2946C144.738 79.515 143.709 75.8241 142.679 72.145C140.727 65.1476 139.343 57.5883 136.676 50.8335C136.072 49.3015 134.422 45.581 132.192 46.1962C129.028 47.0716 131.009 52.0401 132.074 53.6726L132.08 53.6786Z" fill="#768AD3"/>
<path d="M124.249 110.698C125.313 110.823 126.52 111.065 127.07 111.988C127.36 112.473 127.407 113.053 127.454 113.615C127.928 119.873 128.401 126.131 128.88 132.383C123.415 133.364 117.872 133.938 112.324 134.098C113.052 130.679 110.875 126.888 107.551 125.799C106.486 125.45 105.25 125.297 104.528 124.439C104.002 123.812 103.889 122.948 103.795 122.138C103.339 118.246 102.641 112.573 107.131 110.941C112.082 109.137 119.156 110.089 124.249 110.698Z" fill="#AAA79F"/>
<path d="M85.4525 116.052C85.0857 116.17 84.7072 116.312 84.4587 116.608C84.1512 116.98 84.1393 117.513 84.1453 117.998C84.234 124.475 84.9319 130.945 86.2332 137.298C88.4217 137.251 90.6044 137.056 92.7692 136.707C93.1714 136.642 93.6151 136.553 93.8753 136.233C94.0942 135.961 94.1356 135.595 94.1592 135.246C94.526 130.218 94.3426 125.155 93.6091 120.174C93.4199 118.879 93.4317 115.36 92.0949 114.614C90.6694 113.816 86.9016 115.578 85.4584 116.058L85.4525 116.052Z" fill="#AAA79F"/>
<path d="M112.85 107.067C111.425 107.327 110.053 106.144 109.574 104.777C109.1 103.405 109.29 101.903 109.491 100.465C109.946 97.1768 110.402 93.8881 110.934 90.6112C111.342 88.1151 111.798 85.6072 112.691 83.2412C113.318 81.5791 114.158 80.0057 114.867 78.3732C117.476 72.3755 118.286 65.7448 118.428 59.2088C118.446 58.4754 118.328 57.5526 117.63 57.3279C117.032 57.1386 116.441 57.6236 116.027 58.0968C114.11 60.309 113.022 63.1008 112.022 65.8572C108.657 75.1141 105.906 84.6016 103.795 94.2252C103.617 95.0415 103.446 95.8932 103.664 96.6917C103.931 97.6618 104.717 98.3834 105.303 99.2056C106.214 100.477 106.657 102.033 106.764 103.594C106.835 104.63 106.764 105.712 107.154 106.67C107.545 107.628 108.609 108.439 109.591 108.102" fill="#161928"/>
<path d="M119.345 4.3479C118.582 5.4185 117.896 7.11017 118.984 7.85545C119.422 8.15712 119.99 8.1512 120.516 8.13346L125.674 7.97375C124.491 10.0026 121.214 9.96117 120.043 11.9959C119.587 12.7885 119.558 13.7408 119.564 14.6517C119.617 20.0047 120.776 25.2749 121.924 30.4978C122.078 31.1958 122.249 31.9292 122.728 32.4616C123.296 33.0945 124.189 33.3192 125.017 33.5144C126.325 33.8161 127.638 34.1177 128.945 34.4194C130.146 34.6974 131.678 35.4664 131.37 36.6612C129.317 36.5547 127.259 36.4482 125.207 36.3358C124.733 36.3122 124.242 36.2885 123.793 36.4364C121.888 37.0693 122.107 39.9025 120.859 41.4759C120.226 42.2744 119.238 42.7003 118.298 43.0907C116.352 43.8951 114.412 44.6996 112.466 45.504C110.514 46.3143 107.929 46.9886 106.563 45.3739C111.431 43.2445 115.932 40.2752 119.818 36.6434C120.291 36.1998 120.788 35.6793 120.8 35.0346C120.812 34.4667 120.445 33.9758 120.132 33.5085C117.547 29.6756 117.298 24.7781 117.133 20.1585C117.003 16.5504 116.92 12.7353 118.677 9.5767C117.085 10.3516 115.128 10.3279 113.554 9.50572C114.193 8.27542 115.145 7.21664 116.293 6.44179" fill="#161928"/>
<path d="M70.7064 233.392C71.4813 233.824 72.2562 234.262 73.031 234.693C73.3563 234.877 73.6994 235.06 74.072 235.054C75.1959 235.025 75.462 233.362 74.8942 232.392C74.3264 231.422 73.3149 230.718 72.9837 229.642C72.5519 228.24 73.4451 226.803 74.2909 225.602C84.5237 211.099 94.8985 196.684 104.658 181.855C106.515 179.034 108.367 176.165 109.491 172.977C110.52 170.055 110.91 166.95 111.289 163.874C112.182 156.628 113.081 149.388 113.974 142.142C114.081 141.267 114.152 140.261 113.548 139.617C113.217 139.268 112.738 139.09 112.259 139.031C110.384 138.795 108.615 140.22 107.817 141.935C107.018 143.651 106.953 145.603 106.87 147.495C106.651 152.411 106.184 157.308 105.463 162.176C104.652 167.695 103.481 173.267 100.802 178.164C99.4767 180.584 97.8027 182.796 96.1525 185.008C87.2091 196.992 78.7507 209.348 71.0732 222.177C70.1268 223.763 69.1745 225.389 68.8373 227.205C68.6244 228.341 68.648 229.553 68.1039 230.571C67.0037 232.641 64.129 233.025 62.5557 234.758C60.7043 236.793 61.8754 245.583 65.5368 243.4C66.7375 242.684 65.7497 239.609 66.3176 238.219C66.5482 237.645 70.2924 233.161 70.7064 233.392Z" fill="#161928"/>
<path d="M139.598 142.124C141.419 145.448 139.473 149.471 139.006 153.233C138.557 156.87 139.556 160.502 140.384 164.075C144.88 183.487 144.389 203.645 145.453 223.543C145.737 228.896 146.145 234.291 147.577 239.46C147.92 240.697 148.322 242.022 147.902 243.234C147.488 244.447 145.826 245.287 144.88 244.417C142.218 234.995 142.922 224.969 141.455 215.292C140.822 211.116 139.787 206.999 139.237 202.811C137.936 192.886 139.32 182.399 135.439 173.172C134.475 170.877 133.198 168.7 132.547 166.299C130.885 160.112 133.724 153.522 137.758 148.548" fill="#161928"/>
<path d="M145.862 127.124C145.862 127.124 145.868 127.131 145.875 127.137C145.894 127.15 145.875 127.137 145.862 127.124Z" fill="#161928"/>
<path d="M182.315 251.829C181.41 250.628 179.89 250.208 178.477 249.977C177.743 249.859 177.004 249.788 176.264 249.729C175.442 249.664 174.62 249.794 173.798 249.788C173.402 249.788 173.005 249.753 172.627 249.628C172.29 249.516 171.97 249.344 171.663 249.167C170.959 248.759 170.302 248.274 169.64 247.801C168.214 246.765 166.753 245.778 165.209 244.92C164.393 244.471 163.547 243.879 162.642 243.53C162.707 243.512 162.767 243.489 162.832 243.465C162.979 243.4 162.991 243.199 162.932 243.075C162.53 242.246 161.915 241.554 161.347 240.833C160.797 240.141 160.294 239.384 160.235 238.479C160.17 237.538 160.578 236.621 160.436 235.681C160.282 234.64 159.49 233.859 159.117 232.901C158.886 232.309 158.845 231.688 158.798 231.061C158.75 230.399 158.715 229.736 158.697 229.074C158.662 227.731 158.685 226.389 158.721 225.046C158.798 222.36 158.898 219.687 158.875 216.996C158.851 214.346 158.774 211.696 158.49 209.058C158.354 207.768 158.171 206.485 157.928 205.207C157.798 204.545 157.632 203.888 157.567 203.208C157.502 202.551 157.49 201.895 157.431 201.238C157.307 199.949 156.846 198.754 156.514 197.512C156.254 196.548 156.29 195.542 156.313 194.548C156.337 193.543 156.384 192.526 156.213 191.532C156.136 191.094 156.012 190.662 155.799 190.278C155.692 190.083 155.562 189.905 155.408 189.751C155.29 189.639 155.148 189.544 155.083 189.391C154.906 188.947 155.219 188.367 155.397 187.971C155.609 187.504 155.799 187.048 155.947 186.551C156.301 185.339 156.479 184.103 156.662 182.861C156.964 180.844 157.632 178.762 157.301 176.709C157.301 176.703 157.313 176.697 157.313 176.685C157.354 176.401 157.354 176.147 157.337 175.857C157.313 175.55 157.272 175.248 157.224 174.94C157.13 174.355 157.011 173.769 156.899 173.19C156.668 171.948 156.532 170.688 156.313 169.44C156.094 168.197 155.858 166.955 155.675 165.701C155.485 164.447 155.379 163.188 155.272 161.922C154.846 156.835 154.61 151.73 153.87 146.679C153.699 145.496 153.303 144.396 152.971 143.254C152.812 142.716 152.67 142.16 152.611 141.598C152.676 141.574 152.729 141.515 152.735 141.421C152.824 140.61 152.776 139.794 152.717 138.978C152.687 138.576 152.646 138.173 152.599 137.777C152.575 137.564 152.563 137.357 152.587 137.144C152.634 136.73 152.747 136.328 152.812 135.92C152.871 135.559 152.93 135.139 152.747 134.802C152.581 134.5 152.285 134.405 151.978 134.4C152.001 134.382 152.031 134.358 152.061 134.334C152.244 134.187 152.339 134.003 152.362 133.773C152.398 133.447 152.262 133.146 152.25 132.826C152.238 132.465 152.232 132.099 152.208 131.738C152.167 131.016 152.09 130.301 152.043 129.579C151.995 128.851 151.954 128.13 151.853 127.408C151.8 127.018 151.723 126.651 151.552 126.308C151.794 125.799 151.812 125.155 151.806 124.61C151.8 123.906 151.723 123.203 151.706 122.499C151.682 121.617 151.712 120.736 151.682 119.855C151.652 118.885 151.593 117.909 151.499 116.939C151.114 113.035 150.812 109.119 150.286 105.233C150.156 104.275 150.144 103.317 150.097 102.352C150.079 101.938 150.044 101.524 149.996 101.11C150.044 101.211 150.097 101.311 150.162 101.406C150.256 101.548 150.463 101.56 150.552 101.406C151.179 100.371 150.736 98.9632 150.517 97.8749C150.369 97.1591 150.322 96.4375 150.245 95.7159C150.15 94.8405 150.055 93.9592 149.967 93.0838C149.896 92.3562 149.884 91.6228 149.807 90.8952C149.736 90.2209 149.629 89.4993 149.346 88.8723C149.422 88.8428 149.493 88.7836 149.511 88.7008C149.629 88.1152 149.381 87.7426 149.008 87.3226C148.565 86.8198 148.784 86.1988 148.949 85.6073C149.405 83.9452 149.298 82.1648 149.322 80.4554C149.346 78.6809 149.298 76.9183 149.269 75.1438C149.239 73.3575 149.322 71.6126 149.683 69.8617C150.41 66.2891 150.511 62.5805 149.925 58.9783C149.706 57.606 149.34 56.2633 148.742 55.0034C148.145 53.7376 147.305 52.6079 146.37 51.5728C145.312 50.4075 144.217 49.266 143.07 48.1894C141.91 47.107 140.674 46.0837 139.296 45.2911C139.018 45.1314 138.728 44.9835 138.438 44.8475C138.432 44.741 138.427 44.6346 138.438 44.5281C138.456 44.3447 138.332 44.2442 138.184 44.2323C138.101 42.8719 137.918 41.4878 137.391 40.222C137.108 39.5359 136.711 38.8971 136.185 38.3706C136.315 37.862 136.451 37.3533 136.611 36.8505C137.066 35.425 137.575 34.0113 138.072 32.5977C138.474 31.4383 138.988 30.3263 139.361 29.1552C139.574 28.4868 139.769 27.7593 139.828 27.0317C139.994 27.0909 140.166 27.1264 140.331 27.1441C140.834 27.1973 141.343 27.0731 141.745 26.7596C142.259 26.3633 142.644 25.8133 142.957 25.2513C143.253 24.719 143.513 24.1393 143.661 23.5478C143.786 23.051 143.762 22.5246 143.649 22.0218C143.448 21.1109 142.916 20.1527 142.1 19.6499C141.899 19.5257 141.668 19.437 141.431 19.4015C141.485 19.2891 141.532 19.1708 141.579 19.0525C141.863 18.2954 141.987 17.485 142.129 16.6924C142.188 16.3612 142.248 16.024 142.348 15.6987C142.502 15.2019 142.697 14.7168 142.886 14.2377C143.277 13.2263 143.703 12.1616 143.715 11.0555C143.72 9.908 143.034 9.02076 142.277 8.22816C141.869 7.80229 141.467 7.3705 141.1 6.90322C140.704 6.39453 140.319 5.87994 139.893 5.39491C139.681 5.1524 139.456 4.92172 139.213 4.70286C138.947 4.04631 138.32 3.55537 137.758 3.15907C137.356 2.87515 136.936 2.62672 136.522 2.37238C136.102 2.11804 135.712 1.82821 135.292 1.56795C133.109 0.213432 130.536 -0.188784 128.01 0.0773881C125.384 0.349475 122.882 1.2722 120.546 2.47885C118.759 3.40158 117.044 4.49584 115.412 5.667C114.731 6.15202 114.051 6.67254 113.471 7.28178C113.028 7.74314 112.513 8.37012 112.543 9.05034C112.572 9.78379 113.247 10.2274 113.891 10.3989C114.755 10.6296 115.695 10.5291 116.565 10.3989C117.21 10.2984 117.843 10.1564 118.476 9.99673C117.985 10.2925 117.523 10.6829 117.275 11.2152C116.719 12.3923 117.086 13.8 117.139 15.0422C117.168 15.7934 117.08 16.5564 117.032 17.3076C116.979 18.1298 116.926 18.946 116.884 19.7682C116.808 21.3889 116.79 23.0096 116.961 24.6244C117.121 26.1031 117.417 27.5641 117.529 29.0428C117.571 29.6225 117.624 30.214 117.825 30.764C118.056 31.3969 118.452 31.9234 118.949 32.367C119.398 32.7692 119.901 33.1004 120.416 33.408C120.416 33.4139 120.41 33.4198 120.404 33.4258C120.285 33.7747 120.25 34.1415 120.25 34.5141C119.215 34.9577 119.162 36.1171 118.623 36.9688C118.18 37.6668 117.47 38.2583 117.151 39.039C117.091 39.0568 117.044 39.0982 117.032 39.1692C117.003 39.3644 116.719 39.5063 116.559 39.595C116.222 39.7902 115.855 39.9322 115.494 40.0801C114.649 40.4231 113.779 40.7011 112.915 40.991C112.016 41.2985 111.206 41.7008 110.337 42.0971C109.089 42.6708 107.799 43.1144 106.527 43.629C105.457 44.0608 104.144 44.5813 103.457 45.5632C103.321 45.7584 103.511 45.9773 103.706 45.995C104.256 46.0482 104.717 45.8175 105.238 45.7052C105.829 45.575 106.409 45.8649 106.947 46.0837C108.036 46.5392 109.106 46.9414 110.088 47.6157C111.04 48.2663 111.803 49.053 112.324 50.0881C112.561 50.5613 112.756 51.0582 112.939 51.5491C113.04 51.8212 113.146 52.0933 113.241 52.3713C113.123 52.1465 112.998 51.9218 112.886 51.6911C112.43 50.8097 112.016 49.9639 111.336 49.2305C110.65 48.4911 109.822 47.8937 108.923 47.4382C107.988 46.965 106.953 46.6042 105.942 46.3321C104.93 46.0601 103.848 45.995 102.907 46.5333C101.216 47.5033 100.536 49.6504 99.6897 51.2889C99.2165 52.2116 98.5718 53.016 98.0572 53.9151C97.4953 54.897 97.0516 55.938 96.7086 57.0145C96.0165 59.1498 95.7208 61.3797 95.4309 63.5978C95.0879 66.1826 94.7921 68.7675 94.5378 71.3641C94.2834 74.014 94.106 76.7112 93.4731 79.3079C92.9999 81.2421 92.3611 83.1289 91.882 85.0572C91.6927 85.8321 91.5271 86.6187 91.4265 87.4113C91.3437 88.0797 91.2728 88.825 91.4679 89.4816C91.5389 89.7241 91.6572 89.9666 91.8524 90.1381C90.9947 91.4926 90.5866 93.1784 90.3678 94.7222C90.2495 95.568 90.3145 96.4789 90.8764 97.1651C91.3082 97.6915 91.953 97.9518 92.6095 98.0405C92.2724 98.6556 92.16 99.3477 92.2546 100.081C92.3966 101.152 92.8757 102.14 93.0709 103.198C93.2779 104.34 93.2957 105.505 93.408 106.659C93.479 107.362 93.5973 108.066 93.7097 108.764C93.5559 108.788 93.408 108.823 93.2542 108.829C92.994 108.847 92.7396 108.829 92.4794 108.812C91.9825 108.776 91.4857 108.699 90.9829 108.687C90.35 108.676 89.7171 108.699 89.0901 108.723C88.6229 108.741 88.1497 108.758 87.6883 108.8C86.3693 108.924 84.8728 109.249 83.8495 110.137C83.4177 110.509 83.1634 111.018 83.1397 111.568C82.8085 112.088 82.7138 112.78 82.6784 113.372C82.5955 114.851 82.9031 116.341 83.0569 117.814C83.2521 119.713 83.5656 121.6 83.8672 123.487C84.1689 125.367 84.4233 127.242 84.5889 129.141C84.6717 130.076 84.7545 131.004 84.8846 131.933C84.9911 132.702 85.1685 133.459 85.2336 134.24C85.2987 134.973 85.3342 135.713 85.4465 136.44C85.5412 137.067 85.7009 137.747 86.0913 138.268C85.9907 138.28 85.8961 138.345 85.8783 138.445C85.8488 138.646 85.8606 138.842 85.8842 139.043C85.902 139.179 85.9848 139.285 86.1327 139.291C87.3985 139.327 88.6051 138.99 89.8354 138.735C91.0716 138.481 92.3374 138.422 93.5973 138.398C94.313 138.386 95.0346 138.404 95.7503 138.428C95.8272 138.428 95.91 138.386 95.9574 138.321C96.1585 138.676 96.3714 139.019 96.5548 139.386C96.7618 139.794 96.8801 140.249 97.1226 140.64C97.2823 140.894 97.4893 141.113 97.7792 141.219C98.0394 141.314 98.3233 141.308 98.5954 141.285C98.9917 141.249 99.3821 141.184 99.7784 141.202C100.293 141.225 100.808 141.344 101.328 141.302C101.707 141.273 102.144 141.166 102.399 140.859C102.434 140.811 102.47 140.764 102.499 140.717C102.505 140.711 102.511 140.705 102.511 140.705C102.553 140.693 102.44 140.705 102.535 140.699C102.505 140.699 102.594 140.687 102.624 140.687C102.754 140.675 102.89 140.687 103.014 140.693C103.54 140.746 104.049 140.936 104.575 141.001C105.049 141.066 105.528 141.113 106.007 141.137C106.066 141.137 106.125 141.137 106.184 141.143C106.131 141.444 106.007 141.746 105.936 142.03C105.818 142.515 105.8 143 105.818 143.497C105.835 143.958 105.924 144.443 105.894 144.904C105.894 144.934 105.889 144.97 105.883 145.011C105.871 145.07 105.859 145.129 105.847 145.188C105.812 145.354 105.782 145.52 105.747 145.691C105.687 145.999 105.622 146.306 105.575 146.62C105.545 146.827 105.486 147.099 105.599 147.288C105.676 147.418 105.788 147.495 105.912 147.537C105.646 148.045 105.457 148.601 105.321 149.157C105.09 150.086 105.019 151.026 104.936 151.973C104.8 153.469 104.623 154.966 104.469 156.462C104.315 157.959 104.232 159.461 104.114 160.964C103.996 162.436 103.824 163.903 103.564 165.358C103.44 166.056 103.31 166.754 103.103 167.434C102.913 168.056 102.683 168.665 102.44 169.268C101.955 170.504 101.458 171.741 101.322 173.071C101.228 173.994 101.37 175.011 100.961 175.869C100.713 176.39 100.329 176.81 99.9854 177.271C99.6069 177.786 99.2875 178.348 98.9681 178.904C98.5599 179.158 98.211 179.442 97.927 179.838C97.584 180.311 97.3237 180.802 96.8801 181.198C96.466 181.571 95.9988 181.891 95.6084 182.287C95.2062 182.695 94.869 183.156 94.5555 183.635C93.9167 184.623 93.4139 185.694 92.7278 186.652C91.9352 187.758 91.0598 188.799 90.3027 189.935C89.5456 191.065 88.8595 192.248 88.262 193.466C87.6351 194.744 86.9253 195.974 86.1741 197.187C84.6539 199.629 83.122 202.078 81.5545 204.491C78.4314 209.306 74.9594 213.997 72.5756 219.243C71.9782 220.556 71.4341 221.893 70.7834 223.183C70.5173 223.709 70.1742 224.159 69.8193 224.632C69.5058 225.046 69.1686 225.495 69.0503 226.01C68.9498 226.448 69.0503 226.844 69.2455 227.205C68.725 227.524 68.3405 228.003 68.0448 228.548C67.8674 228.879 67.7609 229.228 67.6544 229.583C67.5598 229.896 67.4474 230.245 67.1871 230.458C66.9624 230.641 66.6607 230.754 66.3945 230.854C66.0929 230.973 65.7912 231.085 65.4955 231.227C64.7384 231.582 63.9694 231.913 63.2478 232.339C61.982 233.078 60.7044 234.167 60.4145 235.681C60.1661 236.994 60.6571 238.289 61.2604 239.437C61.6389 240.164 62.0766 240.856 62.4966 241.56C62.9461 242.329 63.4016 243.098 63.8629 243.855C64.7857 245.37 65.7557 246.848 66.8677 248.226C67.9561 249.575 69.1923 250.805 70.2038 252.213C70.6296 252.811 71.0496 253.467 71.5405 254.053C71.44 254.059 71.3453 254.065 71.2507 254.07C70.8485 254.088 70.4463 254.082 70.0441 254.07C69.1805 254.035 68.3287 253.982 67.4651 253.982C66.2112 253.982 64.9631 254.017 63.7092 254.005C62.4611 253.994 61.219 253.917 59.9709 253.869C54.9314 253.68 49.8919 253.798 44.8524 253.757C39.8128 253.71 34.7792 253.603 29.7397 253.621C27.2259 253.627 24.712 253.668 22.1982 253.763C19.6902 253.857 17.1941 254.035 14.6862 254.041C12.3261 254.041 9.97792 254.094 7.61786 254.13C5.58313 254.159 3.50107 254.13 1.50774 254.615C1.05821 254.727 0.6205 254.863 0.194625 255.046C0.0112624 255.123 -0.101122 255.425 0.129561 255.531C2.73213 256.72 5.77241 256.306 8.49327 255.821C9.90103 255.573 11.3029 255.218 12.7225 255.04C14.1598 254.863 15.6267 255.023 17.0699 255.117C18.6729 255.218 20.3586 255.301 21.8906 254.745C22.0858 254.674 22.074 254.431 21.9557 254.337C24.0495 254.254 26.1434 254.177 28.2432 254.159C33.3064 254.118 38.3637 254.218 43.4269 254.272C48.4723 254.325 53.5177 254.218 58.5573 254.343C59.829 254.372 61.0948 254.449 62.3665 254.484C63.6145 254.52 64.8685 254.484 66.1225 254.461C67.128 254.437 68.1335 254.414 69.1391 254.449C69.9317 254.479 70.7538 254.538 71.5464 254.419C71.6411 254.408 71.7357 254.39 71.8244 254.366C72.1734 254.733 72.5638 255.058 73.0193 255.289C73.735 255.65 74.5394 255.833 75.3202 255.999C76.1483 256.17 76.9704 256.336 77.7867 256.567C78.668 256.815 79.5494 257.093 80.4425 257.282C81.0399 257.412 81.6491 257.489 82.2584 257.548C83.3645 257.661 84.4706 257.726 85.5826 257.702C86.6768 257.679 87.8362 257.59 88.8535 257.146C89.2558 256.975 89.6225 256.726 89.8827 256.371C90.1903 255.951 90.4033 255.437 90.4742 254.91C91.6099 255.082 92.8106 254.922 93.9345 254.78C95.3659 254.603 96.7973 254.36 98.2405 254.319C100.068 254.26 101.908 254.301 103.741 254.272C105.628 254.242 107.509 254.195 109.396 254.177C113.223 254.147 117.056 254.112 120.883 254.059C124.686 254.005 128.495 253.976 132.305 254.1C134.186 254.159 136.067 254.26 137.953 254.301C139.852 254.337 141.751 254.343 143.649 254.343C144.123 254.343 144.59 254.343 145.063 254.343C145.087 254.343 145.11 254.331 145.128 254.331C145.158 254.94 145.235 255.567 145.513 256.111C145.791 256.655 146.335 256.963 146.903 257.14C147.53 257.335 148.198 257.383 148.849 257.424C149.517 257.46 150.18 257.495 150.848 257.566C152.776 257.761 154.693 258.016 156.621 258.229C158.543 258.442 160.466 258.619 162.4 258.631C164.334 258.643 166.262 258.518 168.191 258.394C170.095 258.276 172 258.211 173.898 258.022C175.768 257.832 177.625 257.537 179.447 257.099C179.855 256.998 180.263 256.868 180.671 256.785C180.973 256.72 181.28 256.685 181.582 256.608C181.86 256.543 182.179 256.448 182.386 256.241C182.582 256.052 182.676 255.774 182.747 255.514C182.901 254.952 182.984 254.319 182.972 253.739C182.96 253.053 182.735 252.373 182.321 251.817L182.315 251.829ZM9.38051 255.188C7.91952 255.466 6.44671 255.715 4.95614 255.786C3.62529 255.845 2.25894 255.762 0.99314 255.318C2.70256 254.768 4.56576 254.721 6.34615 254.686C8.48736 254.644 10.6345 254.579 12.7757 254.573C11.6341 254.697 10.5043 254.975 9.38051 255.182V255.188ZM17.5904 254.68C16.9102 254.644 16.23 254.591 15.5439 254.555C17.5786 254.52 19.6133 254.437 21.6422 254.36C20.335 254.78 18.945 254.751 17.5845 254.686L17.5904 254.68ZM150.286 110.379C150.487 112.295 150.665 114.218 150.854 116.134C150.949 117.092 151.043 118.051 151.096 119.015C151.15 119.979 151.167 120.943 151.191 121.901C151.209 122.664 151.292 123.421 151.333 124.184C151.363 124.752 151.398 125.344 151.292 125.906C151.025 125.58 150.7 125.314 150.369 125.06C150.032 124.8 149.677 124.545 149.417 124.208C149.139 123.853 149.026 123.433 148.991 122.99C148.89 121.706 149.215 120.446 149.245 119.169C149.251 118.843 148.801 118.814 148.707 119.098C148.364 120.074 148.299 121.109 148.222 122.132C148.18 122.641 148.139 123.149 148.044 123.652C147.997 123.895 147.944 124.143 147.873 124.38C147.849 124.451 147.825 124.528 147.802 124.599C147.802 124.616 147.772 124.675 147.766 124.681C147.583 125.113 147.346 125.527 147.092 125.923C146.95 126.142 146.802 126.349 146.637 126.55C146.56 126.645 146.483 126.734 146.394 126.817C146.359 126.852 146.317 126.888 146.282 126.923C146.258 126.941 146.157 127.024 146.187 127.006C146.151 127.03 146.116 127.059 146.081 127.077C146.063 127.089 146.01 127.112 145.992 127.124C145.98 127.124 145.95 127.136 145.927 127.142C145.879 127.118 145.915 127.136 145.927 127.142C145.915 127.142 145.909 127.142 145.903 127.142C145.903 127.142 145.903 127.142 145.891 127.13C145.873 127.112 145.879 127.112 145.891 127.124C145.885 127.118 145.879 127.112 145.873 127.101C145.862 127.083 145.838 127.041 145.832 127.03C145.802 126.976 145.808 126.976 145.779 126.899C145.666 126.545 145.672 126.207 145.814 125.858C145.974 125.462 146.222 125.107 146.429 124.729C146.926 123.806 146.968 122.753 146.873 121.73C146.773 120.647 146.583 119.571 146.37 118.506C146.252 117.921 146.128 117.335 145.992 116.755C145.885 116.306 145.743 115.88 145.897 115.43C146.045 114.999 146.358 114.732 146.613 114.372C146.849 114.034 146.879 113.65 146.654 113.307C146.672 112.982 146.601 112.65 146.56 112.331C146.453 111.527 146.577 110.704 146.607 109.894C146.636 109.113 146.69 108.167 146.288 107.457C146.264 107.416 146.234 107.386 146.211 107.351C146.341 106.517 146.406 105.677 146.429 104.837C146.453 103.92 146.447 103.015 146.56 102.098C146.684 101.11 146.861 100.134 146.897 99.1406C147.027 99.253 147.187 99.3418 147.376 99.3891C147.956 99.5369 148.683 99.2294 149.18 99.5724C149.156 99.6079 149.144 99.6552 149.15 99.7085C149.204 100.123 149.31 100.531 149.375 100.945C149.434 101.347 149.464 101.755 149.488 102.157C149.535 103.009 149.535 103.861 149.618 104.707C149.712 105.647 149.866 106.582 149.984 107.522C150.103 108.474 150.209 109.427 150.31 110.379H150.286ZM138.752 85.3944C138.722 84.3297 138.746 83.2709 138.634 82.2121C138.421 80.1833 137.912 78.2018 137.403 76.2262C137.143 75.2207 136.889 74.2092 136.67 73.1918C136.451 72.1922 136.285 71.1867 136.031 70.1989C135.777 69.2052 135.487 68.2174 135.256 67.2119C135.02 66.1649 134.878 65.0943 134.724 64.0296C134.41 61.9357 134.18 59.8241 133.63 57.7775C133.494 57.2689 133.352 56.7661 133.233 56.2515C133.133 55.8256 132.985 55.3583 133.032 54.9206C133.091 54.406 133.494 54.1458 133.913 53.9447C134.659 53.9447 135.416 53.8678 136.084 53.5543C136.528 53.3473 136.871 53.0042 137.072 52.5665C137.078 52.5842 137.078 52.602 137.09 52.6197C137.533 53.3709 137.93 54.1517 138.344 54.9147C138.622 55.4293 138.894 55.938 139.154 56.4585C139.231 56.6182 139.314 56.7779 139.385 56.9376C139.385 56.9494 139.462 57.1387 139.462 57.1446C139.503 57.2629 139.544 57.3812 139.586 57.4995C139.675 57.7657 139.752 58.0378 139.822 58.3099C140.095 59.3687 140.237 60.4511 140.384 61.5335C140.538 62.6514 140.733 63.7635 140.911 64.8814C141.278 67.1705 141.609 69.4654 141.952 71.7604C142.289 74.0377 142.662 76.3149 143.04 78.5863C143.407 80.8221 143.744 83.0639 143.862 85.3293C143.916 86.3644 143.821 87.4409 144.069 88.4583C144.265 89.2746 144.649 90.0317 145.004 90.7888C145.406 91.6642 145.637 92.5337 145.797 93.486C145.844 93.764 145.879 94.0479 145.921 94.3259C145.939 94.456 145.95 94.5802 145.968 94.7104C146.004 94.9588 146.039 95.2013 146.075 95.4438C146.128 95.8756 146.175 96.3015 146.211 96.7333C146.228 97.0468 146.24 97.4312 146.293 97.8039C146.335 98.6024 146.341 99.395 146.246 100.194C146.122 101.276 145.909 102.352 145.873 103.447C145.832 104.689 145.844 105.949 145.637 107.173C145.607 107.22 145.595 107.274 145.607 107.333C145.548 107.646 145.483 107.954 145.394 108.261C145.323 108.504 145.241 108.741 145.128 108.959C143.578 108.261 142.271 107.002 141.218 105.694C140.657 104.996 140.201 104.245 139.757 103.464C139.225 102.53 138.669 101.607 138.149 100.667C137.924 100.259 137.699 99.8564 137.634 99.3832C137.581 98.9809 137.634 98.5728 137.699 98.1765C137.859 97.1414 138.018 96.1122 138.172 95.0771C138.486 92.9418 138.817 90.7829 138.829 88.6239C138.835 87.5474 138.787 86.465 138.758 85.3884L138.752 85.3944ZM136.788 48.3255C136.77 48.361 136.759 48.4024 136.753 48.4497C136.682 49.6327 136.989 50.8334 136.658 51.9987C136.54 52.4304 136.321 52.7617 135.93 52.9864C135.564 53.1935 135.138 53.2822 134.724 53.3295C134.682 53.2999 134.629 53.2881 134.576 53.3177C134.546 53.3295 134.517 53.3413 134.481 53.3532C134.055 53.3827 133.63 53.3768 133.204 53.365C132.997 52.951 132.719 52.5665 132.452 52.1938C132.009 51.5787 131.559 50.9754 131.133 50.3543C130.708 49.7332 130.299 49.0944 129.992 48.4024C129.868 48.1303 129.767 47.8405 129.714 47.5447C129.702 47.4856 129.696 47.4264 129.69 47.3613C129.903 47.1543 130.122 46.9532 130.341 46.7521C130.648 46.4741 130.968 46.2198 131.305 45.995C131.335 45.995 131.37 45.9832 131.4 45.9832C131.471 45.9713 131.512 45.9181 131.518 45.8649C132.08 45.5218 132.683 45.2734 133.363 45.1965C133.541 45.1787 133.718 45.1669 133.896 45.1669C134.085 45.2615 134.274 45.3562 134.475 45.4331C134.576 45.4686 134.718 45.4094 134.771 45.3148C134.795 45.3266 134.818 45.3325 134.842 45.3384C135.203 45.4922 135.493 45.7584 135.735 46.066C136.143 46.5747 136.439 47.1543 136.794 47.6985C136.794 47.7103 136.788 47.7222 136.788 47.734C136.788 47.9351 136.788 48.1362 136.788 48.3373V48.3255ZM145.53 90.2091C145.459 89.7063 145.394 89.2036 145.341 88.7008C145.235 87.6479 145.276 86.601 145.43 85.5541C145.454 85.4003 145.477 85.2465 145.501 85.0927C145.459 85.909 145.442 86.7311 145.448 87.5474C145.448 88.4346 145.477 89.3219 145.524 90.2091H145.53ZM138.16 48.5502C138.208 47.521 138.243 46.4918 138.231 45.4627C138.551 45.6164 138.87 45.788 139.172 45.9713C139.858 46.3795 140.515 46.8527 141.136 47.3554C142.39 48.3728 143.531 49.5144 144.643 50.6796C145.661 51.7502 146.696 52.809 147.494 54.063C148.222 55.1986 148.724 56.4467 149.05 57.7539C149.452 59.3864 149.624 61.084 149.689 62.7638C149.76 64.6329 149.653 66.5021 149.375 68.3534C149.239 69.2525 149.026 70.1397 148.908 71.0447C148.79 71.9024 148.742 72.7719 148.736 73.6355C148.719 75.3981 148.849 77.1608 148.855 78.9234C148.855 79.8343 148.837 80.7452 148.825 81.6561C148.813 82.6084 148.801 83.5666 148.707 84.513C148.642 85.1873 148.34 85.8143 148.269 86.4886C148.239 86.7725 148.257 87.0564 148.393 87.3167C148.506 87.5296 148.683 87.6953 148.837 87.8786C148.967 88.0324 149.038 88.1803 149.044 88.3577C148.855 88.1152 148.612 87.9141 148.31 87.8195C147.867 87.6775 147.4 87.8076 146.991 87.991C146.82 88.0679 146.838 88.2927 146.938 88.411C147.388 88.9492 148.133 88.967 148.813 88.9315C149.162 89.5525 149.275 90.3215 149.351 91.0194C149.422 91.676 149.44 92.3385 149.511 92.995C149.6 93.7995 149.695 94.6039 149.783 95.4083C149.86 96.0945 149.896 96.7924 150.002 97.4726C150.103 98.1115 150.268 98.7384 150.363 99.3772C150.428 99.8327 150.475 100.335 150.357 100.791C150.185 100.418 150.067 100.022 149.848 99.673C149.529 99.1643 149.05 98.9573 148.458 98.9809C147.914 99.0046 147.287 99.1584 146.968 98.6024C146.938 98.5551 146.915 98.5078 146.891 98.4545C146.873 97.4253 146.755 96.3843 146.631 95.3669C146.5 94.3022 146.382 93.2021 146.116 92.161C146.116 92.1433 146.104 92.1255 146.098 92.1078C145.98 90.8124 145.903 89.5052 145.879 88.2039C145.85 86.5714 145.903 84.9389 146.039 83.3064C146.175 81.6443 146.435 79.994 146.642 78.3378C146.844 76.7231 147.015 75.1142 147.193 73.4994C147.299 72.5294 147.482 71.5652 147.624 70.6011C147.808 69.3531 147.973 68.0813 147.926 66.8156C147.885 65.739 147.689 64.627 146.997 63.7694C146.915 63.6688 146.719 63.6747 146.637 63.7694C146.288 64.1598 146.211 64.7098 146.187 65.2126C146.157 65.9106 146.246 66.6085 146.335 67.3006C146.424 67.9512 146.542 68.5959 146.607 69.2466C146.696 70.0688 146.619 70.9146 146.56 71.7427C146.4 73.9549 146.057 76.1434 145.773 78.3378C145.495 80.4968 145.418 82.6676 145.081 84.8147C144.898 85.9918 144.797 87.157 144.909 88.3459C144.951 88.7659 145.016 89.1858 145.093 89.5999C144.761 88.825 144.489 88.0324 144.483 87.1511C144.454 82.5434 143.484 78.0421 142.815 73.4994C142.472 71.1689 142.153 68.8325 141.804 66.5021C141.627 65.3132 141.443 64.1302 141.248 62.9413C141.071 61.8588 140.958 60.7587 140.781 59.6762C140.609 58.653 140.384 57.6178 139.976 56.6655C139.799 56.2515 139.58 55.8552 139.373 55.453C138.852 54.4593 138.314 53.4774 137.77 52.4955C137.735 52.4304 137.699 52.3654 137.664 52.3003C137.557 52.1229 137.368 52.1169 137.232 52.1998C137.38 51.7029 137.427 51.1706 137.433 50.65C137.433 50.4371 137.433 50.2301 137.427 50.0172C137.48 49.9817 137.522 49.9166 137.527 49.8338C137.527 49.4079 137.528 48.982 137.522 48.5502C137.587 48.6153 137.658 48.6804 137.729 48.7454C137.912 48.8992 138.184 48.7987 138.196 48.5502H138.16ZM148.31 88.4228C148.109 88.4169 147.908 88.3873 147.731 88.3222C147.938 88.2986 148.133 88.3341 148.31 88.4228ZM146.991 68.1228C146.879 67.3597 146.755 66.5908 146.713 65.8159C146.69 65.4078 146.648 64.8281 146.814 64.4023C147.258 65.1002 147.358 66.0052 147.388 66.8096C147.423 67.8507 147.317 68.8917 147.169 69.9209C147.169 69.8795 147.169 69.8322 147.169 69.7908C147.169 69.2348 147.062 68.6728 146.985 68.1228H146.991ZM137.391 42.168C137.687 43.5403 137.746 44.9599 137.711 46.3617C137.699 46.8763 137.675 47.3909 137.646 47.9055C136.77 46.8408 136.303 45.3266 134.99 44.7883C135.41 43.6823 135.528 42.4756 135.647 41.3104C135.723 40.5592 135.848 39.8257 136.001 39.0982C136.741 39.9618 137.143 41.0679 137.386 42.174L137.391 42.168ZM139.781 6.11062C140.278 6.6962 140.739 7.31726 141.242 7.89101C141.916 8.65995 142.798 9.352 143.093 10.3753C143.371 11.3335 142.981 12.3804 142.656 13.2795C142.342 14.149 141.922 15.0067 141.709 15.9117C141.544 16.6214 141.455 17.349 141.289 18.0588C141.177 18.5261 141.041 19.0288 140.798 19.4547C140.787 19.4547 140.775 19.4547 140.763 19.4665C140.509 19.5493 140.29 19.6972 140.101 19.8865C139.964 20.0166 139.864 20.1527 139.781 20.3064C139.781 20.3064 139.781 20.3064 139.775 20.3064C139.763 20.2828 139.752 20.2591 139.74 20.2355C139.704 20.1349 139.539 20.1408 139.544 20.265C139.544 20.2887 139.544 20.3124 139.55 20.336C139.314 20.336 139.095 20.2236 138.983 19.9456C138.847 19.6026 138.829 19.2063 138.805 18.8395C138.776 18.39 138.74 17.9464 138.675 17.5028C138.574 16.8107 138.474 16.1187 138.421 15.4207C138.367 14.7523 138.356 14.078 138.302 13.4096C138.249 12.7472 138.172 12.0906 138.054 11.44C137.936 10.8012 137.74 10.1742 137.628 9.53536C137.61 9.43481 137.604 9.33425 137.593 9.22779C138.959 9.13906 139.834 7.44148 139.787 6.11062H139.781ZM118.002 9.49396C117.127 9.7069 116.234 9.89026 115.335 9.93166C114.684 9.96124 113.85 9.93166 113.377 9.50579C113.276 9.41115 113.217 9.34608 113.182 9.25145C113.182 9.25145 113.158 9.16272 113.146 9.12132C113.146 9.10949 113.146 9.09766 113.146 9.09174C113.146 9.05625 113.146 9.02076 113.146 8.98527C113.146 8.97344 113.146 8.9557 113.146 8.94387C113.146 8.91429 113.158 8.88472 113.164 8.86106C113.182 8.796 113.199 8.72502 113.229 8.65995C113.229 8.64812 113.229 8.65995 113.247 8.61855C113.264 8.58306 113.282 8.54757 113.3 8.51799C113.341 8.44701 113.383 8.37604 113.424 8.31097C113.826 7.70765 114.43 7.19897 115.003 6.74943C115.565 6.30581 116.157 5.9036 116.748 5.5073C117.571 4.96312 118.399 4.41895 119.25 3.91618C121.409 2.64447 123.704 1.57387 126.159 1.00603C128.513 0.455944 131.057 0.384965 133.346 1.2308C133.896 1.43191 134.422 1.69216 134.931 1.98791C135.351 2.23042 135.747 2.50842 136.167 2.75094C136.954 3.2123 137.8 3.63818 138.462 4.27699C138.598 4.41303 138.734 4.55499 138.841 4.71469C138.71 4.7975 138.645 4.97495 138.793 5.11099C139.332 5.57236 139.272 6.38862 139.089 7.00969C138.9 7.63667 138.474 8.39378 137.817 8.60672C137.729 8.63629 137.64 8.64812 137.551 8.64812C137.551 8.61855 137.551 8.59489 137.551 8.56531C137.569 8.18676 137.007 8.17493 136.948 8.52391C136.812 8.47068 136.682 8.40561 136.552 8.33463C136.067 8.06255 135.623 7.71948 135.132 7.45331C134.641 7.18713 134.126 6.95054 133.576 6.80858C132.997 6.66071 132.393 6.61339 131.802 6.6193C130.518 6.63113 129.241 6.86773 127.993 7.13982C126.68 7.42373 125.372 7.74314 124.059 8.0448C122.805 8.33463 121.539 8.58897 120.291 8.89655C119.522 9.08583 118.759 9.3106 117.985 9.49987L118.002 9.49396ZM120.078 32.509C119.546 32.1481 119.014 31.7164 118.665 31.1663C118.369 30.699 118.233 30.1666 118.168 29.6225C118.097 29.0191 118.079 28.4158 117.996 27.8125C117.89 27.0672 117.766 26.3219 117.659 25.5767C117.233 22.4358 117.529 19.3009 117.689 16.1542C117.724 15.4976 117.707 14.8647 117.642 14.2082C117.576 13.5693 117.494 12.9187 117.541 12.274C117.588 11.718 117.789 11.227 118.192 10.8366C118.6 10.4403 119.114 10.186 119.623 9.94349C119.7 9.90209 119.795 9.8666 119.883 9.83111C119.913 9.84294 119.948 9.84294 119.978 9.81928C120.007 9.79562 120.037 9.76604 120.067 9.73647C120.149 9.68915 120.226 9.63592 120.28 9.55902C120.28 9.55902 120.28 9.55311 120.28 9.54719C120.912 9.3934 121.545 9.24553 122.178 9.09766C123.616 8.77234 125.047 8.4411 126.484 8.10986C127.786 7.8082 129.093 7.48288 130.418 7.31726C131.642 7.16939 132.92 7.1339 134.085 7.60118C134.629 7.82003 135.126 8.12761 135.617 8.44701C136.037 8.72502 136.481 9.02076 136.972 9.15681C137.013 9.64183 137.125 10.1269 137.244 10.5941C137.415 11.2684 137.563 11.9368 137.652 12.623C137.746 13.3268 137.794 14.0425 137.835 14.7523C137.876 15.474 137.959 16.1897 138.066 16.8995C138.149 17.4495 138.243 17.9937 138.279 18.5497C138.302 18.9756 138.314 19.4074 138.415 19.8214C138.498 20.1763 138.675 20.5371 139.006 20.7205C139.19 20.821 139.403 20.8565 139.615 20.8447C139.675 20.9453 139.805 21.0103 139.893 20.892C139.917 20.8565 139.947 20.827 139.976 20.7915C140.035 20.7737 140.095 20.7619 140.148 20.7382C140.574 20.5845 140.887 20.2828 141.13 19.9279C141.295 19.9161 141.467 19.9516 141.627 20.0225C142.319 20.3301 142.774 21.0991 142.999 21.7852C143.129 22.1815 143.2 22.5955 143.17 23.0155C143.141 23.4591 142.969 23.8968 142.786 24.299C142.555 24.8195 142.271 25.3341 141.91 25.7778C141.632 26.1208 141.307 26.4402 140.869 26.5408C140.532 26.6177 140.142 26.5644 139.828 26.3929C139.811 25.9848 139.74 25.5767 139.586 25.1922C139.497 24.9733 139.178 24.8787 139.048 25.1212C138.805 25.5707 138.752 26.0972 139.077 26.523C139.125 26.5881 139.178 26.6413 139.237 26.6946C139.225 27.3807 139.059 28.0728 138.87 28.7175C138.521 29.8886 138.024 31.0006 137.604 32.1422C137.368 32.7751 137.167 33.4198 136.948 34.0587C136.699 34.7685 136.445 35.4782 136.203 36.194C135.723 37.6254 135.327 39.0864 135.15 40.5887C134.99 41.9255 134.966 43.351 134.475 44.6227C134.292 44.5872 134.109 44.5636 133.925 44.5577C133.109 44.0963 132.393 43.4397 131.695 42.8483C130.725 42.0261 129.726 41.2335 128.732 40.4409C127.679 39.601 126.555 38.8675 125.497 38.0453C124.982 37.6431 124.473 37.2468 123.929 36.886C123.551 36.6317 123.148 36.4306 122.734 36.2413C122.267 36.0283 121.794 35.8213 121.362 35.5433C121.173 35.4191 120.972 35.2771 120.83 35.0997C120.812 34.733 120.794 34.3662 120.841 34.0113C121.445 34.5496 121.912 35.2476 122.628 35.6439C123.172 35.9396 123.793 36.0402 124.402 36.1171C125.118 36.2058 125.84 36.2235 126.555 36.194C127.247 36.1644 127.951 36.123 128.631 35.9692C129.235 35.8331 129.814 35.6084 130.388 35.3777C130.583 35.3008 130.779 35.2239 130.974 35.147C131.488 35.0051 131.997 34.8394 132.5 34.6502C132.754 34.5792 133.014 34.5082 133.263 34.4313C134.109 34.1711 135.25 33.8102 135.593 32.8993C135.658 32.7278 135.434 32.574 135.292 32.6687C134.706 33.0472 134.055 33.3311 133.423 33.615C132.801 33.899 132.151 34.1356 131.5 34.3485C130.163 34.7803 128.779 35.0701 127.383 35.2594C126.709 35.354 126.064 35.4191 125.39 35.2594C124.722 35.0997 124.095 34.8158 123.491 34.4905C122.924 34.1829 122.373 33.8339 121.806 33.5204C121.22 33.1951 120.623 32.8757 120.067 32.503L120.078 32.509ZM121.883 34.2657C122.06 34.3662 122.237 34.4668 122.409 34.5733C123.048 34.9636 123.74 35.3481 124.467 35.6202C123.994 35.567 123.509 35.4782 123.083 35.2831C122.651 35.0819 122.326 34.7625 122.013 34.4136C121.965 34.3603 121.924 34.313 121.877 34.2657H121.883ZM117.712 39.2224C117.937 38.767 118.268 38.3707 118.588 37.9803C118.878 37.6254 119.156 37.2764 119.345 36.8564C119.546 36.401 119.676 35.8982 119.966 35.4901C120.031 35.4014 120.108 35.3126 120.191 35.2416C120.209 35.2831 120.238 35.3185 120.262 35.354C120.268 35.496 120.274 35.632 120.274 35.7681C120.274 36.0875 120.694 36.1348 120.818 35.91C121.173 36.1585 121.581 36.3537 121.918 36.5074C122.326 36.6967 122.74 36.8742 123.136 37.0871C123.681 37.3769 124.178 37.7614 124.663 38.1341C125.201 38.5481 125.727 38.974 126.277 39.3703C126.833 39.7725 127.413 40.1451 127.957 40.5651C128.495 40.9791 129.022 41.4109 129.548 41.8427C130.045 42.2449 130.56 42.6353 131.057 43.0434C131.701 43.5817 132.346 44.1614 133.044 44.6405C132.441 44.7469 131.855 44.9658 131.346 45.2615C131.08 45.4153 130.826 45.5928 130.583 45.7761C130.152 45.859 129.743 46.0423 129.483 46.4031C129.359 46.5747 129.288 46.7639 129.258 46.9591C129.069 47.1425 128.88 47.3199 128.691 47.4974C128.466 47.7044 128.241 47.9174 128.004 48.1185C127.839 48.2604 127.655 48.4201 127.443 48.4793C127.23 48.5384 127.017 48.4615 126.833 48.361C126.549 48.2072 126.289 48.0061 126.047 47.7991C125.538 47.3613 125.088 46.8586 124.621 46.3795C124.154 45.8944 123.657 45.4567 123.119 45.0486C122.024 44.2205 120.812 43.5048 119.889 42.4756C119.434 41.9728 119.114 41.3577 118.659 40.8608C118.381 40.5592 118.008 40.3522 117.701 40.086C117.671 40.0623 117.642 40.0327 117.618 40.0091C117.606 39.9973 117.6 39.9913 117.594 39.9854C117.594 39.9736 117.582 39.944 117.576 39.9204C117.565 39.879 117.565 39.8435 117.565 39.8021C117.565 39.601 117.63 39.4058 117.718 39.2342L117.712 39.2224ZM92.1245 97.3129C91.4029 97.0645 90.977 96.4375 90.9179 95.6863C90.841 94.7754 91.1071 93.7935 91.3437 92.9241C91.604 91.9717 91.9648 91.0254 92.5267 90.2091C93.2306 89.1858 94.2598 88.6831 95.4191 88.2986C96.7677 87.855 98.1636 87.5651 99.4176 86.8731C99.6838 86.7252 99.5536 86.3289 99.2697 86.3171C97.7259 86.252 96.1585 86.459 94.7389 87.0919C94.1178 87.364 93.4494 87.7248 93.0117 88.2513C92.6864 88.6416 92.4971 89.1562 92.1186 89.4934C91.9234 89.1326 91.9471 88.6121 91.9589 88.2453C91.9885 87.4882 92.1245 86.7311 92.2842 85.9918C92.6391 84.3533 93.1537 82.7563 93.6091 81.1474C93.9522 79.9349 94.2716 78.7164 94.4609 77.4683C94.6561 76.2262 94.7803 74.9722 94.9104 73.7242C95.1766 71.1512 95.3895 68.5782 95.7089 66.0111C96.2413 61.6991 96.608 57.0914 99.0745 53.3709C99.3348 52.9805 99.6187 52.6079 99.8494 52.1998C100.08 51.7975 100.287 51.3835 100.482 50.9695C100.89 50.1177 101.275 49.2541 101.789 48.4615C102.316 47.6571 103.026 46.9177 104.014 46.7462C105.055 46.5687 106.113 46.9946 107.077 47.3318C108.935 47.9765 110.656 48.9998 111.703 50.721C111.945 51.1173 112.129 51.5491 112.342 51.9632C112.561 52.395 112.791 52.8149 113.016 53.2408C113.288 53.7613 113.56 54.2877 113.785 54.8319C113.915 55.6955 114.039 56.565 114.323 57.399C114.43 57.7125 114.867 57.6533 114.891 57.3221C114.962 56.3994 114.678 55.5003 114.329 54.6545C114.264 54.2286 114.193 53.8027 114.098 53.3827C113.957 52.7735 113.738 52.1938 113.519 51.6024C113.324 51.0759 113.122 50.5436 112.874 50.0349C111.809 47.8641 109.71 46.5865 107.503 45.7761C106.853 45.5395 106.202 45.1492 105.492 45.1373C105.137 45.1373 104.8 45.2497 104.463 45.3384C104.688 45.1728 104.936 45.0309 105.173 44.9007C105.67 44.6227 106.19 44.3861 106.723 44.1791C108.024 43.6645 109.325 43.1913 110.591 42.5998C111.46 42.1917 112.294 41.7777 113.199 41.4582C114.069 41.1448 114.956 40.8549 115.802 40.4705C116.186 40.2989 116.577 40.1156 116.92 39.8671C116.932 39.8553 116.949 39.8435 116.961 39.8376C116.961 39.9499 116.985 40.0623 117.02 40.1747C117.086 40.3581 117.227 40.4764 117.375 40.5947C117.724 40.8786 118.109 41.1152 118.387 41.476C118.819 42.0261 119.179 42.6294 119.676 43.1263C120.179 43.6349 120.753 44.0726 121.327 44.4926C121.9 44.9126 122.492 45.3089 123.048 45.7525C123.58 46.1724 124.047 46.6575 124.515 47.1484C124.982 47.6393 125.455 48.1244 125.993 48.5384C126.443 48.8815 127.017 49.2364 127.608 49.0589C128.146 48.8933 128.578 48.4024 128.98 48.0357C129.081 47.9469 129.176 47.8523 129.27 47.7576C129.294 47.8641 129.318 47.9647 129.347 48.0652C129.56 48.7928 129.956 49.4671 130.359 50.1059C130.79 50.7861 131.264 51.4426 131.725 52.0992C131.95 52.4127 132.174 52.7321 132.382 53.0574C132.464 53.1876 132.547 53.3118 132.618 53.4478C132.648 53.507 132.683 53.5661 132.713 53.6253C132.719 53.643 132.725 53.6548 132.736 53.6726C132.736 53.6726 132.754 53.7199 132.76 53.7317C132.807 53.8559 132.896 53.9269 133.026 53.9387C133.056 53.9387 133.085 53.9387 133.115 53.9387C132.594 54.341 132.5 54.9561 132.6 55.5772C132.766 56.6182 133.056 57.6356 133.298 58.653C133.553 59.7176 133.695 60.7942 133.843 61.8707C134.15 64.0592 134.399 66.2655 134.949 68.4126C135.215 69.4418 135.511 70.4651 135.729 71.5061C135.948 72.5353 136.126 73.5763 136.374 74.5996C136.871 76.658 137.468 78.6986 137.829 80.7925C138.202 82.9456 138.154 85.1341 138.214 87.3108C138.243 88.4465 138.237 89.5821 138.131 90.7178C138.024 91.8357 137.882 92.9536 137.723 94.0715C137.569 95.1776 137.397 96.2837 137.232 97.3839C137.102 98.2298 136.895 99.0933 137.143 99.9392C137.285 100.418 137.551 100.85 137.794 101.282C138.06 101.761 138.338 102.228 138.616 102.701C139.113 103.547 139.562 104.429 140.118 105.239C141.153 106.741 142.472 108.131 144.034 109.09C144.395 109.308 144.773 109.498 145.164 109.663C145.282 109.711 145.436 109.628 145.501 109.527C145.743 109.131 145.897 108.681 146.01 108.232C146.104 108.658 146.092 109.131 146.086 109.521C146.075 110.32 145.962 111.118 145.986 111.917C145.998 112.337 146.11 112.757 146.116 113.177C146.122 113.614 145.856 113.934 145.536 114.206C145.099 114.585 144.554 114.827 144.034 115.07C143.496 115.318 142.963 115.566 142.413 115.785C141.337 116.211 140.201 116.477 139.042 116.282C138.515 116.193 138.018 116.004 137.522 115.827C136.108 115.312 134.706 114.762 133.263 114.336C132.606 114.147 131.932 113.975 131.246 113.916C130.808 113.875 130.288 113.875 129.927 114.153C129.909 113.999 129.891 113.845 129.868 113.691C129.72 112.52 129.531 111.325 129.418 110.19C129.335 109.368 129.282 108.498 128.951 107.735C128.904 107.623 128.838 107.522 128.773 107.427C128.773 107.427 128.785 107.427 128.791 107.427C129.105 107.374 128.969 106.895 128.661 106.954C128.531 106.978 128.401 106.996 128.265 107.013C128.265 107.013 128.259 107.013 128.253 107.008C127.904 106.871 127.496 106.877 127.123 106.895C126.514 106.931 125.917 107.043 125.313 107.138C124.946 107.138 124.586 107.126 124.219 107.12C122.616 107.102 121.031 107.268 119.428 107.386C117.772 107.51 116.127 107.463 114.471 107.41C112.833 107.356 111.188 107.374 109.55 107.374C108.645 107.374 107.722 107.333 106.817 107.416C106.782 107.416 106.746 107.422 106.711 107.427C106.604 106.86 106.581 106.274 106.563 105.694C106.545 105.144 106.551 104.594 106.516 104.05C106.456 103.222 106.196 102.4 106.255 101.56C106.297 100.939 106.894 100.318 106.799 99.6907C107.048 99.1584 107.237 98.5965 107.409 98.0464C107.722 97.0231 107.959 95.9643 108.03 94.8937C108.095 93.9414 107.982 93.0601 107.462 92.2379C107.279 91.9481 106.995 91.6819 106.865 91.3625C106.823 91.2679 106.823 91.1673 106.847 91.0727C106.918 90.9958 106.983 90.913 107.054 90.8361C107.172 90.7 107.296 90.5699 107.421 90.4398C107.497 90.5226 107.616 90.5581 107.722 90.4871C108.095 90.2328 108.503 90.0198 108.822 89.6945C109.071 89.4402 109.225 89.0734 109.118 88.7422C109.13 88.7126 109.136 88.6771 109.142 88.6417C109.154 88.4465 109.177 88.2513 109.201 88.0502C109.266 87.9437 109.331 87.8372 109.39 87.7307C109.698 87.157 109.887 86.5418 110.07 85.9208C110.301 85.1518 110.526 84.3829 110.745 83.614C111.638 80.4909 112.454 77.3441 113.241 74.1915C113.673 72.4702 114.11 70.749 114.501 69.0218C114.891 67.3006 115.193 65.532 115.104 63.7635C115.092 63.5328 114.861 63.3967 114.654 63.5032C113.661 64.0237 113.424 65.4374 113.259 66.4311C113.164 67.0167 113.099 67.6082 113.01 68.1937C112.886 68.9863 112.673 69.773 112.478 70.5538C111.508 74.4754 110.603 78.4266 109.739 82.3777C109.508 83.4365 109.29 84.5012 109.053 85.5659C108.887 86.3112 108.728 87.0683 108.627 87.8254C108.231 88.4287 107.74 88.9611 107.249 89.5111C106.859 89.9489 106.338 90.4871 106.261 91.0727C106.243 91.1141 106.226 91.1555 106.202 91.1969C106.149 91.3093 106.196 91.4098 106.273 91.4572C106.297 91.5695 106.344 91.6878 106.415 91.8061C106.628 92.1551 106.906 92.4568 107.101 92.8176C107.308 93.1961 107.415 93.5747 107.444 94.0065C107.527 95.154 107.284 96.3311 106.983 97.4371C106.752 98.2712 106.48 99.1288 106.054 99.8978C105.865 99.5665 105.652 99.253 105.421 98.9514C105.38 98.7325 105.315 98.5137 105.22 98.3007C105.137 98.1055 104.901 98.1233 104.759 98.2416C104.706 98.1943 104.658 98.141 104.605 98.0937C103.948 97.5318 103.18 97.1414 102.351 96.893C101.31 96.5795 100.187 96.4671 99.0982 96.4316C98.4298 96.408 97.7555 96.4434 97.093 96.5558C96.472 96.6623 95.8805 96.8634 95.289 97.0586C94.6502 97.2715 93.964 97.4786 93.2838 97.5022C93.2306 97.4253 93.1064 97.3839 93.0295 97.4667C93.0177 97.4786 93.0117 97.4904 92.9999 97.5022C92.7042 97.4904 92.4143 97.449 92.1245 97.3484V97.3129ZM93.9463 88.2335C94.2302 88.0206 94.5496 87.849 94.8631 87.7012C95.7799 87.2575 96.7736 87.0269 97.7851 86.9441C97.0043 87.2221 96.1999 87.4232 95.4132 87.6716C94.9163 87.8313 94.4136 88.0088 93.9463 88.2335ZM129.554 133.95C126.993 134.382 124.408 134.678 121.823 134.926C120.593 135.044 119.363 135.145 118.132 135.299C116.902 135.452 115.678 135.618 114.436 135.683C113.974 135.707 113.507 135.707 113.046 135.689C113.052 135.547 113.046 135.399 113.034 135.251C112.921 134.311 112.324 133.637 111.904 132.826C111.46 131.963 111.384 130.963 110.94 130.093C110.561 129.354 109.999 128.733 109.343 128.224C108.698 127.722 107.982 127.325 107.249 126.959C106.598 126.633 106.036 126.219 105.587 125.64C104.694 124.48 104.339 122.984 104.09 121.57C103.806 119.955 103.576 118.311 103.493 116.673C103.398 114.691 103.499 112.692 103.854 110.74C103.937 110.284 104.043 109.841 104.155 109.397C104.558 109.255 104.989 109.178 105.415 109.125C105.942 109.06 106.474 109.042 107.001 109.03C108.148 109.001 109.29 108.954 110.431 108.883C113.093 108.717 115.743 108.451 118.399 108.256C119.735 108.155 121.072 108.072 122.403 107.972C123.456 107.895 124.509 107.83 125.55 107.658C125.68 107.634 125.81 107.617 125.94 107.599C126.62 107.599 127.295 107.581 127.969 107.51C128.087 107.546 128.152 107.575 128.235 107.67C128.318 107.759 128.389 107.901 128.436 108.031C128.584 108.403 128.655 108.812 128.708 109.202C128.762 109.58 128.797 109.965 128.833 110.349C128.892 110.882 128.975 111.408 129.046 111.935C129.223 113.242 129.389 114.549 129.56 115.85C129.897 118.447 130.264 121.05 130.79 123.617C131.057 124.9 131.382 126.172 131.666 127.45C131.808 128.088 131.944 128.727 132.05 129.372C132.145 129.928 132.192 130.496 132.293 131.052C132.358 131.407 132.435 131.761 132.452 132.122C132.352 132.134 132.263 132.205 132.251 132.329C132.222 132.625 132.157 132.927 132.044 133.217C131.997 133.252 131.956 133.288 131.896 133.317C131.187 133.696 130.323 133.808 129.536 133.944L129.554 133.95ZM131.53 134.051C131.222 134.352 130.838 134.565 130.436 134.725C129.01 135.281 127.443 135.47 125.928 135.588C124.254 135.713 122.569 135.73 120.895 135.807C119.321 135.878 117.724 135.878 116.163 136.115C115.536 136.21 114.909 136.316 114.276 136.31C114.016 136.31 113.708 136.286 113.442 136.204C114.43 136.21 115.417 136.121 116.399 136.008C117.653 135.866 118.907 135.695 120.161 135.583C122.793 135.34 125.431 135.074 128.046 134.695C129.069 134.547 130.122 134.417 131.128 134.169C131.264 134.133 131.394 134.098 131.53 134.056V134.051ZM105.924 104.032C105.971 105.192 105.894 106.363 106.096 107.51C105.942 107.546 105.788 107.587 105.64 107.634C105.279 107.759 104.93 107.877 104.552 107.96C104.54 107.96 104.54 107.972 104.528 107.972C104.54 107.918 104.558 107.865 104.57 107.812C104.806 106.842 104.978 105.854 105.096 104.86C105.208 103.908 105.22 102.956 105.327 102.003C105.398 101.359 105.486 100.714 105.498 100.063C105.599 100.235 105.699 100.406 105.788 100.584C105.841 100.679 105.93 100.72 106.019 100.726C105.9 100.962 105.806 101.205 105.77 101.477C105.652 102.335 105.889 103.175 105.924 104.032ZM104.552 108.161C104.871 108.279 105.191 108.208 105.51 108.12C105.735 108.054 105.96 107.983 106.184 107.93C106.232 108.12 106.303 108.332 106.403 108.51C106.013 108.534 105.622 108.569 105.238 108.628C104.913 108.681 104.605 108.764 104.303 108.888C104.368 108.628 104.439 108.368 104.504 108.108C104.516 108.131 104.534 108.149 104.564 108.161H104.552ZM106.811 107.83C107.509 107.765 108.219 107.788 108.923 107.794C110.591 107.794 112.259 107.771 113.921 107.818C114.607 107.836 115.299 107.859 115.985 107.877C114.802 107.978 113.619 108.078 112.43 108.167C111.088 108.267 109.739 108.362 108.396 108.433C107.988 108.451 107.58 108.463 107.178 108.474C107.137 108.427 107.101 108.386 107.054 108.338C107.012 108.291 107.036 108.321 107.012 108.285C106.977 108.232 106.947 108.179 106.918 108.12C106.876 108.037 106.841 107.936 106.811 107.824V107.83ZM110.035 83.8565C110.088 83.6199 110.135 83.3833 110.189 83.1526C110.603 81.2421 111.046 79.3434 111.49 77.4388C111.928 75.5342 112.33 73.6236 112.791 71.7249C113.146 70.2758 113.501 68.8385 113.702 67.3597C113.791 66.6795 113.897 65.9934 114.098 65.3368C114.193 65.0174 114.317 64.6684 114.524 64.3904C114.513 67.3124 113.584 70.1989 112.892 73.0085C112.123 76.1257 111.336 79.2369 110.473 82.3304C110.331 82.8391 110.183 83.3478 110.041 83.8565H110.035ZM84.1098 110.468C84.6007 110.048 85.2336 109.805 85.8488 109.628C86.4521 109.456 87.0791 109.344 87.712 109.297C88.7766 109.214 89.8591 109.202 90.9238 109.22C91.462 109.226 91.9944 109.32 92.5326 109.35C92.9053 109.368 93.408 109.397 93.7807 109.232C93.8102 109.427 93.8339 109.616 93.8576 109.811C92.1718 109.764 90.492 109.788 88.8062 109.924C88.0373 109.989 87.2743 110.107 86.5112 110.213C85.9079 110.296 85.2927 110.379 84.7072 110.556C84.3345 110.669 83.9501 110.817 83.6307 111.047C83.749 110.834 83.9087 110.639 84.1157 110.468H84.1098ZM88.2739 138.57C87.6351 138.706 86.9962 138.794 86.3456 138.794C86.3456 138.723 86.3397 138.646 86.3456 138.581C86.3456 138.57 86.3456 138.552 86.3456 138.54C86.6887 138.783 87.0968 138.735 87.5227 138.611C87.8598 138.516 88.197 138.428 88.5519 138.392C88.7707 138.374 88.9896 138.363 89.2084 138.363C88.8949 138.434 88.5874 138.505 88.2739 138.57ZM91.1249 137.801C90.7108 137.807 90.3027 137.83 89.8887 137.83C89.445 137.83 88.9955 137.812 88.5519 137.854C88.1911 137.883 87.8421 137.954 87.4931 138.055C87.2861 138.114 87.0495 138.209 86.8306 138.179C86.6532 138.156 86.5053 137.943 86.4107 137.765C86.2628 137.499 86.1682 137.203 86.1031 136.908C85.9434 136.233 85.8961 135.541 85.8488 134.855C85.7955 134.175 85.7245 133.506 85.5944 132.832C85.4288 131.939 85.3282 131.034 85.2395 130.129C85.068 128.319 84.8964 126.515 84.6244 124.717C84.3464 122.877 84.021 121.05 83.7844 119.204C83.678 118.394 83.6129 117.577 83.5124 116.767C83.4236 116.063 83.3231 115.365 83.2699 114.661C83.2166 113.963 83.1989 113.242 83.3645 112.562C83.4236 112.301 83.5064 112.017 83.6721 111.805C83.8199 111.609 84.0329 111.473 84.2458 111.367C84.7604 111.101 85.3578 110.988 85.9256 110.894C86.5408 110.793 87.1678 110.698 87.7889 110.622C89.451 110.415 91.1249 110.344 92.7929 110.261C93.1655 110.243 93.5322 110.225 93.9049 110.219C93.9049 110.219 93.9049 110.219 93.9049 110.225C94.1474 112.603 94.1237 115.004 94.1001 117.388C94.0883 118.601 94.0764 119.807 94.1001 121.02C94.1119 121.623 94.1474 122.227 94.1592 122.83C94.177 123.451 94.1592 124.072 94.1533 124.687C94.1474 125.255 94.1651 125.799 94.2834 126.355C94.3899 126.858 94.5496 127.343 94.6502 127.846C94.8809 129.035 94.662 130.253 94.7921 131.454C94.9223 132.655 95.1884 133.844 95.2417 135.05C95.2653 135.571 95.2417 136.097 95.3126 136.618C95.3422 136.831 95.3895 137.026 95.4487 137.227C94.1178 137.866 92.574 137.783 91.1308 137.812L91.1249 137.801ZM95.5197 137.919C95.3836 137.919 95.2417 137.919 95.1056 137.919C95.2476 137.872 95.3895 137.812 95.5256 137.753C95.5256 137.812 95.5256 137.866 95.5256 137.925L95.5197 137.919ZM105.451 140.51C105.007 140.468 104.552 140.427 104.114 140.326C103.611 140.208 103.103 140.048 102.582 140.084C102.269 140.107 102.127 140.226 101.943 140.456C101.961 140.439 101.908 140.492 101.884 140.51C101.825 140.557 101.748 140.587 101.677 140.61C101.452 140.693 101.21 140.699 100.973 140.693C100.476 140.675 99.9854 140.569 99.4886 140.581C99.1278 140.587 98.7788 140.663 98.418 140.681C98.1755 140.693 98.0039 140.693 97.8383 140.569C97.6609 140.439 97.5071 140.113 97.4124 139.883C97.2113 139.404 97.0043 138.942 96.7441 138.487C96.5075 138.079 96.2413 137.671 96.0638 137.233C95.8746 136.754 95.8568 136.233 95.845 135.725C95.8213 134.589 95.6557 133.483 95.496 132.365C95.4132 131.785 95.3363 131.205 95.3304 130.62C95.3245 130.034 95.354 129.455 95.3422 128.869C95.3245 128.319 95.2535 127.781 95.1234 127.248C95.0051 126.763 94.8572 126.284 94.7921 125.787C94.7152 125.225 94.7626 124.646 94.7744 124.078C94.7862 123.475 94.7744 122.871 94.7507 122.268C94.6975 121.103 94.6916 119.938 94.6975 118.778C94.7093 116.465 94.7685 114.147 94.6324 111.84C94.5674 110.687 94.4491 109.533 94.2539 108.392C94.1533 107.812 94.0468 107.238 93.9818 106.653C93.9167 106.091 93.8753 105.523 93.8221 104.955C93.7156 103.837 93.5322 102.743 93.1596 101.678C92.8579 100.815 92.509 99.8623 92.6687 98.9336C92.7219 98.626 92.8402 98.3421 92.9881 98.0701C93.0117 98.0701 93.0413 98.0701 93.065 98.0701C94.3485 98.0878 95.4724 97.5081 96.6908 97.2006C98.0217 96.8634 99.4354 96.9285 100.784 97.1118C101.819 97.2538 102.848 97.5318 103.724 98.1115C104.138 98.3835 104.499 98.7207 104.812 99.0992C104.901 99.6907 104.859 100.306 104.806 100.897C104.729 101.761 104.635 102.619 104.581 103.482C104.522 104.452 104.404 105.422 104.226 106.375C104.043 107.362 103.759 108.327 103.523 109.303C103.067 111.189 102.872 113.141 102.86 115.081C102.848 116.88 103.061 118.648 103.316 120.428C103.523 121.872 103.765 123.333 104.357 124.681C104.64 125.32 105.013 125.923 105.498 126.432C105.741 126.686 106.013 126.911 106.303 127.106C106.628 127.319 106.983 127.479 107.326 127.657C108.751 128.39 110.124 129.342 110.697 130.904C110.863 131.359 110.964 131.838 111.111 132.3C111.259 132.761 111.472 133.181 111.732 133.589C111.963 133.956 112.223 134.323 112.383 134.737C112.496 135.038 112.578 135.405 112.537 135.736C112.454 135.801 112.413 135.926 112.454 136.026C112.354 136.233 112.176 136.399 112.005 136.553C111.803 136.736 111.602 136.919 111.401 137.097C111.153 137.316 110.904 137.534 110.638 137.73C110.461 137.86 110.242 138.043 110.011 138.085C109.934 138.096 109.81 138.09 109.757 138.073C109.686 138.049 109.662 138.008 109.639 137.96C109.556 137.783 109.579 137.57 109.579 137.375C109.585 136.984 109.662 136.464 109.402 136.133C109.378 136.103 109.355 136.085 109.331 136.068C109.331 135.985 109.337 135.896 109.349 135.813C109.378 135.458 108.822 135.458 108.793 135.813C108.793 135.866 108.787 135.92 108.781 135.973C108.769 135.985 108.757 136.003 108.751 136.02C108.74 136.079 108.74 136.139 108.763 136.192C108.734 136.724 108.734 137.262 108.698 137.795C108.657 138.428 108.586 139.114 108.29 139.688C107.988 140.267 107.468 140.516 106.835 140.557C106.368 140.587 105.9 140.557 105.439 140.516L105.451 140.51ZM69.8075 225.702C70.0795 225.206 70.4581 224.78 70.7952 224.33C71.162 223.827 71.4222 223.254 71.6825 222.692C72.2858 221.402 72.8241 220.089 73.4333 218.806C74.0307 217.552 74.7109 216.333 75.4148 215.132C76.8403 212.695 78.4018 210.347 79.9634 207.999C81.5249 205.651 83.0273 203.267 84.5356 200.883C86.0203 198.529 87.5759 196.222 88.8003 193.72C89.3859 192.514 90.0602 191.354 90.8055 190.242C91.5389 189.136 92.3788 188.113 93.1596 187.042C93.8398 186.108 94.3308 185.049 94.9341 184.061C95.2358 183.564 95.567 183.085 95.9751 182.665C96.3596 182.263 96.8209 181.938 97.2291 181.559C97.5958 181.216 97.8797 180.826 98.1341 180.4C98.211 180.27 98.2879 180.146 98.3766 180.033C98.3766 180.299 98.7788 180.471 98.9562 180.187C99.3052 179.619 99.6128 179.034 99.9559 178.46C100.133 178.164 100.323 177.874 100.53 177.596C100.719 177.342 100.926 177.111 101.109 176.857C101.381 176.478 101.606 176.058 101.724 175.609C101.843 175.177 101.866 174.722 101.89 174.272C101.92 173.687 101.926 173.101 102.038 172.527C102.162 171.888 102.357 171.273 102.582 170.664C103.026 169.446 103.588 168.257 103.883 166.985C104.215 165.565 104.428 164.11 104.593 162.661C104.759 161.194 104.824 159.721 104.948 158.254C105.066 156.782 105.232 155.321 105.38 153.854C105.457 153.114 105.522 152.369 105.575 151.63C105.605 151.192 105.634 150.748 105.693 150.311C105.812 149.465 106.001 148.607 106.379 147.832C106.433 147.72 106.492 147.614 106.557 147.507C106.782 147.442 106.995 147.336 107.154 147.253C107.752 146.939 108.296 146.525 108.811 146.099C108.994 145.945 108.846 145.62 108.615 145.626C107.728 145.656 106.965 146.058 106.421 146.756C106.368 146.827 106.314 146.898 106.267 146.969C106.232 146.969 106.202 146.975 106.149 146.969C106.149 146.969 106.149 146.969 106.143 146.969C106.143 146.939 106.143 146.916 106.143 146.886C106.155 146.756 106.167 146.661 106.19 146.537C106.238 146.247 106.297 145.951 106.35 145.662C106.397 145.407 106.445 145.141 106.45 144.881C106.462 144.461 106.374 144.029 106.338 143.609C106.291 143.083 106.279 142.568 106.385 142.053C106.445 141.764 106.545 141.456 106.569 141.148C107.184 141.148 107.805 141.054 108.29 140.652C108.805 140.226 109.053 139.534 109.171 138.895C109.219 138.641 109.248 138.386 109.272 138.126C109.307 138.209 109.349 138.28 109.42 138.345C109.834 138.759 110.443 138.457 110.833 138.185C111.342 137.83 111.803 137.416 112.265 137.008C112.466 136.825 112.679 136.641 112.839 136.417C113.578 136.978 114.808 136.795 115.642 136.677C116.204 136.6 116.766 136.499 117.334 136.452C118.292 136.381 119.256 136.346 120.215 136.304C122.007 136.227 123.811 136.198 125.603 136.079C127.236 135.973 128.909 135.79 130.453 135.228C131.045 135.015 131.63 134.719 132.044 134.234C132.198 134.056 132.311 133.867 132.405 133.666C132.748 133.43 132.955 133.092 133.02 132.678C133.097 132.181 133.014 131.673 132.92 131.182C132.825 130.644 132.76 130.105 132.683 129.567C132.482 128.23 132.163 126.917 131.855 125.598C131.234 122.972 130.773 120.316 130.412 117.643C130.276 116.631 130.146 115.62 130.021 114.602C130.033 114.596 130.039 114.59 130.051 114.579C130.11 114.502 130.128 114.49 130.205 114.448C130.193 114.448 130.252 114.431 130.288 114.419C130.288 114.419 130.305 114.419 130.305 114.413C130.323 114.413 130.341 114.413 130.359 114.407C130.382 114.407 130.406 114.395 130.43 114.389C130.613 114.348 130.885 114.36 131.116 114.383C131.743 114.448 132.429 114.638 133.056 114.827C134.529 115.271 135.96 115.85 137.403 116.383C137.93 116.578 138.456 116.767 139.012 116.856C140.231 117.039 141.402 116.814 142.537 116.359C143.105 116.134 143.661 115.874 144.217 115.62C144.75 115.371 145.264 115.105 145.726 114.744C145.584 114.951 145.465 115.17 145.394 115.424C145.27 115.85 145.347 116.282 145.436 116.702C145.548 117.229 145.649 117.761 145.749 118.293C145.968 119.411 146.157 120.535 146.264 121.665C146.317 122.215 146.347 122.777 146.264 123.327C146.187 123.806 146.027 124.232 145.785 124.646C145.548 125.06 145.276 125.468 145.152 125.935C145.051 126.308 145.075 126.704 145.193 127.071C145.341 127.515 145.696 127.881 146.193 127.692C146.666 127.515 147.003 127.041 147.281 126.645C147.595 126.201 147.867 125.728 148.103 125.237C148.352 124.723 148.5 124.179 148.594 123.623C148.63 123.77 148.677 123.918 148.742 124.054C148.926 124.457 149.233 124.788 149.57 125.072C150.215 125.622 151.049 126.083 151.268 126.964C151.434 127.639 151.463 128.366 151.504 129.058C151.552 129.768 151.599 130.478 151.664 131.182C151.7 131.59 151.723 132.004 151.735 132.412C151.741 132.607 151.735 132.808 151.753 133.004C151.771 133.181 151.824 133.347 151.848 133.518C151.865 133.625 151.877 133.773 151.818 133.867C151.771 133.944 151.664 133.997 151.599 134.056C151.404 134.222 151.321 134.447 151.357 134.701C151.38 134.879 151.504 134.985 151.688 134.956C151.853 134.926 152.037 134.902 152.191 134.961C152.256 134.985 152.303 135.044 152.327 135.115C152.409 135.376 152.339 135.748 152.279 136.05C152.202 136.44 152.114 136.825 152.072 137.221C152.055 137.416 152.066 137.605 152.09 137.801C152.131 138.173 152.173 138.552 152.197 138.93C152.214 139.149 152.226 139.368 152.238 139.587C152.197 139.622 152.161 139.67 152.137 139.735C151.505 141.829 152.64 143.905 153.107 145.904C153.243 146.478 153.309 147.063 153.385 147.643C153.468 148.258 153.545 148.873 153.616 149.494C153.764 150.76 153.882 152.032 153.989 153.298C154.208 155.865 154.373 158.438 154.58 161.011C154.681 162.277 154.775 163.548 154.935 164.808C155.089 166.062 155.308 167.31 155.533 168.558C155.663 169.268 155.793 169.978 155.917 170.694C156.035 171.374 156.124 172.06 156.248 172.74C156.372 173.414 156.544 174.071 156.686 174.739C156.721 174.917 156.757 175.094 156.792 175.278C156.633 175.165 156.355 175.366 156.461 175.597C156.881 176.514 156.822 177.673 156.733 178.655C156.639 179.738 156.414 180.796 156.219 181.861C156.006 183.02 155.893 184.191 155.633 185.339C155.497 185.93 155.355 186.534 155.124 187.096C154.941 187.551 154.704 187.983 154.545 188.456C154.409 188.858 154.344 189.332 154.545 189.728C154.716 190.077 155.077 190.266 155.266 190.615C155.716 191.455 155.722 192.496 155.716 193.425C155.71 194.46 155.621 195.501 155.716 196.536C155.822 197.677 156.278 198.73 156.574 199.831C156.923 201.108 156.869 202.409 157.053 203.705C157.141 204.355 157.313 204.994 157.431 205.639C157.555 206.284 157.656 206.934 157.751 207.579C158.117 210.223 158.253 212.891 158.307 215.558C158.36 218.232 158.313 220.9 158.224 223.573C158.135 226.247 158.058 228.926 158.313 231.594C158.366 232.179 158.466 232.729 158.703 233.268C158.934 233.8 159.265 234.261 159.543 234.764C159.762 235.154 159.933 235.574 159.951 236.024C159.969 236.479 159.874 236.935 159.803 237.384C159.661 238.313 159.72 239.183 160.164 240.022C160.572 240.803 161.199 241.442 161.714 242.146C161.927 242.436 162.11 242.737 162.281 243.051C161.578 243.193 160.714 242.814 160.057 242.684C159.087 242.495 158.088 242.684 157.13 242.838C155.994 243.021 154.87 243.282 153.746 243.512C152.652 243.737 151.564 243.98 150.493 244.299C150.245 244.37 150.002 244.453 149.76 244.536C149.612 244.524 149.458 244.53 149.31 244.547C149.18 244.565 149.05 244.63 149.014 244.772C149.014 244.79 149.014 244.802 149.014 244.819C148.6 244.985 148.186 245.157 147.772 245.334C147.169 245.594 146.518 245.89 145.862 245.937C145.3 245.979 144.886 245.742 144.655 245.222C144.46 244.79 144.412 244.299 144.353 243.832C144.282 243.24 144.211 242.649 144.146 242.063C143.886 239.721 143.732 237.361 143.354 235.03C142.975 232.7 142.449 230.393 141.91 228.092C140.84 223.514 139.781 218.912 139.119 214.251C138.781 211.885 138.693 209.513 138.45 207.141C138.332 205.982 138.19 204.823 138.072 203.657C137.959 202.545 137.93 201.428 137.794 200.321C137.764 200.061 137.717 199.801 137.658 199.547C137.575 199.026 137.451 198.511 137.338 197.997C137.22 197.447 137.113 196.891 137.019 196.341C136.83 195.199 136.688 194.052 136.575 192.898C136.463 191.757 136.404 190.627 136.451 189.479C136.475 188.876 136.516 188.279 136.552 187.675C136.581 187.149 136.682 186.658 136.782 186.143C136.877 185.682 136.954 185.185 136.818 184.724C136.711 184.363 136.481 184.079 136.475 183.689C136.475 183.263 136.711 182.908 136.906 182.541C137.113 182.145 137.255 181.743 137.202 181.287C137.137 180.784 136.93 180.311 136.729 179.85C136.522 179.353 136.321 178.856 136.096 178.365C135.617 177.348 135.061 176.36 134.546 175.36C134.339 174.952 134.132 174.538 133.949 174.118C133.931 174.077 133.913 174.041 133.896 174C133.884 173.976 133.86 173.911 133.848 173.882C133.724 173.586 133.606 173.29 133.482 172.994C133.115 172.078 132.76 171.149 132.423 170.22C131.565 167.878 130.749 165.506 130.158 163.081C129.921 162.105 129.714 161.111 129.655 160.106C129.637 159.781 129.619 159.414 129.684 159.088C129.732 158.858 129.791 158.615 129.986 158.467C130.057 158.414 130.158 158.373 130.252 158.355C130.37 158.331 130.347 158.13 130.223 158.142C130.187 158.142 130.163 158.16 130.128 158.166C130.282 157.965 130.43 157.764 130.583 157.568C132.24 155.38 133.878 153.156 135.179 150.731C135.842 149.489 136.41 148.199 137.048 146.945C137.338 146.377 137.669 145.833 137.912 145.242C138.107 144.768 138.178 144.277 138.285 143.787C138.362 143.781 138.438 143.739 138.486 143.65C139.107 142.544 140.183 141.929 141.319 141.456C141.916 141.208 142.526 140.983 143.117 140.717C143.791 140.409 144.442 140.048 145.075 139.664C145.814 139.404 146.536 139.061 147.116 138.528C147.281 138.374 147.423 138.203 147.559 138.019C147.713 137.812 147.411 137.523 147.204 137.665C146.571 138.09 145.939 138.516 145.288 138.919C145.099 138.99 144.909 139.055 144.726 139.12C143.803 139.433 142.851 139.64 141.928 139.954C141.082 140.244 140.189 140.539 139.42 141.012C138.74 141.432 138.237 142.03 137.947 142.775C137.77 143.231 137.693 143.704 137.622 144.183C137.528 144.81 137.238 145.378 136.936 145.934C136.279 147.158 135.718 148.424 135.091 149.666C133.837 152.156 132.24 154.439 130.572 156.669C129.779 157.734 128.975 158.799 128.176 159.857C127.502 160.751 126.851 161.756 126.715 162.898C126.715 162.91 126.715 162.921 126.715 162.933C126.407 164.252 126.088 165.559 125.739 166.867C125.366 168.263 125.153 169.688 124.858 171.102C124.284 173.87 123.308 176.567 122.237 179.176C121.256 181.565 120.185 183.937 118.499 185.925C117.659 186.912 116.683 187.776 115.814 188.734C115.364 189.231 114.921 189.728 114.436 190.189C113.986 190.615 113.489 190.982 113.04 191.408C112.62 191.804 112.33 192.248 112.117 192.78C112.01 193.046 111.922 193.312 111.768 193.555C111.591 193.821 111.348 193.975 111.07 194.117C110.603 194.365 110.236 194.631 110.041 195.134C109.84 195.649 109.781 196.199 109.538 196.702C109 197.837 108.16 198.778 107.344 199.718C106.486 200.706 105.676 201.729 104.895 202.776C103.245 205 101.831 207.354 100.47 209.762C99.0213 212.317 97.5071 214.837 96.0224 217.374C94.5851 219.847 93.2424 222.378 91.7223 224.803C90.2495 227.158 88.7589 229.482 87.706 232.061C87.4458 232.7 87.2565 233.35 87.1205 234.025C87.0317 234.457 86.9134 234.918 86.6354 235.267C86.0085 236.054 84.7308 235.77 83.885 235.64C81.2114 235.225 78.8218 234.102 76.5446 232.676C75.4089 231.96 74.3028 231.191 73.2736 230.328C72.4337 229.624 71.6884 228.82 70.8544 228.104C70.5705 227.861 70.2806 227.613 70.0381 227.329C70.0381 227.299 70.0381 227.27 70.0322 227.234C70.0145 227.134 69.9139 227.051 69.8134 227.021C69.5354 226.578 69.5649 226.164 69.8134 225.708L69.8075 225.702ZM158.969 244.027C158.667 244.258 158.389 244.518 158.135 244.802C157.904 245.056 157.709 245.328 157.484 245.583C157.065 246.062 156.556 246.417 155.994 246.671C155.929 246.671 155.858 246.671 155.793 246.671C155.071 246.671 154.355 246.6 153.646 246.476C152.77 246.322 151.83 246.127 151.173 245.476C150.972 245.275 150.789 245.056 150.57 244.873C152.208 244.37 153.912 244.068 155.586 243.713C156.757 243.459 157.964 243.217 159.164 243.163C159.572 243.146 159.975 243.228 160.377 243.323C159.862 243.453 159.389 243.696 158.963 244.027H158.969ZM158.981 245.186C159.892 245.476 160.59 246.209 161.317 246.789C161.465 246.907 161.619 247.014 161.773 247.126C161.513 246.967 161.252 246.801 160.998 246.624C160.389 246.192 159.75 245.642 158.987 245.529C158.715 245.488 158.455 245.529 158.23 245.695C158.1 245.79 157.993 245.902 157.887 246.014C158.046 245.825 158.2 245.63 158.36 245.441C158.502 245.269 158.656 245.109 158.809 244.956C158.809 245.056 158.863 245.151 158.981 245.186ZM154.219 247.097C152.954 247.18 151.641 246.842 150.623 246.127C150.381 245.955 150.132 245.778 149.907 245.583C149.777 245.47 149.665 245.34 149.618 245.192C149.665 245.174 149.718 245.151 149.766 245.133C149.919 245.151 150.061 245.204 150.191 245.299C150.434 245.482 150.623 245.736 150.854 245.937C151.516 246.529 152.35 246.777 153.208 246.937C153.539 247.002 153.876 247.049 154.214 247.085L154.219 247.097ZM139.065 142.083C139.184 141.953 139.314 141.829 139.462 141.722C140.136 141.231 140.946 140.953 141.721 140.675C141.786 140.652 141.851 140.634 141.916 140.61C141.082 140.936 140.242 141.255 139.497 141.758C139.349 141.858 139.201 141.965 139.065 142.083ZM69.9376 228.068C70.05 228.181 70.1683 228.287 70.2866 228.388C70.6415 228.701 71.0259 228.985 71.3512 229.328C71.789 229.778 72.2326 230.21 72.7058 230.612C73.7172 231.475 74.7997 232.256 75.9176 232.972C77.0296 233.682 78.1771 234.374 79.3837 234.906C79.0584 234.924 78.7449 234.959 78.4551 235.001C77.8577 235.089 77.2662 235.143 76.6688 235.208C76.1719 235.261 75.5035 235.285 75.1013 235.622C74.9357 235.764 74.8174 235.953 74.7878 236.16C74.6163 236.101 74.4388 236.071 74.2555 236.048C73.5812 235.965 72.901 236.107 72.2267 236.059C71.8363 236.03 71.4577 235.918 71.1383 235.687C70.8307 235.462 70.6119 235.143 70.4344 234.811C69.8903 233.8 69.5768 232.599 69.4762 231.458C69.4171 230.783 69.4052 230.085 69.5709 229.423C69.6892 228.962 69.8429 228.512 69.9376 228.051V228.068ZM89.9005 254.78C89.8472 255.283 89.5988 255.863 89.2735 256.188C88.6702 256.791 87.6114 256.957 86.7715 257.046C85.6536 257.164 84.5238 257.14 83.4118 257.063C82.2643 256.986 81.1286 256.856 80.0166 256.572C79.1649 256.354 78.325 256.082 77.4732 255.857C76.7043 255.65 75.9176 255.514 75.1427 255.342C74.427 255.182 73.664 254.999 73.0429 254.597C72.8063 254.443 72.5875 254.254 72.3864 254.053C72.3923 253.958 72.3154 253.863 72.2148 253.875C72.0256 253.668 71.8481 253.455 71.6884 253.236C71.2803 252.692 70.9195 252.124 70.5113 251.58C70.0086 250.912 69.4644 250.279 68.9143 249.652C67.7786 248.345 66.6844 247.032 65.7202 245.594C64.7739 244.193 63.9221 242.732 63.0644 241.276C62.3428 240.052 61.4851 238.822 61.1243 237.426C60.9824 236.882 60.9291 236.308 61.0534 235.758C61.1894 235.143 61.5147 234.604 61.9406 234.149C63.023 232.99 64.5787 232.321 66.0042 231.694C66.5483 231.452 67.1812 231.316 67.6367 230.913C68.1808 230.44 68.2163 229.683 68.4943 229.062C68.6895 228.63 68.9794 228.181 69.3698 227.873C69.4171 227.938 69.4821 227.992 69.5531 228.009C69.5531 228.009 69.5531 228.009 69.559 228.009C69.4348 228.394 69.2751 228.766 69.1568 229.151C68.9734 229.742 68.9143 230.346 68.9261 230.961C68.9498 232.179 69.216 233.398 69.6773 234.527C69.9967 235.308 70.4463 236.083 71.2507 236.432C71.9664 236.746 72.7117 236.657 73.4688 236.633C73.8414 236.621 74.2318 236.615 74.5867 236.728C74.7701 236.787 74.8825 236.87 74.9357 237C74.9357 237.006 74.9357 237.018 74.9357 237.024C74.9357 237.426 75.0362 237.828 75.1486 238.207C75.3379 238.834 75.5923 239.443 75.8407 240.046C75.9472 240.312 76.0477 240.584 76.1483 240.856C76.1778 240.993 76.2074 241.123 76.2311 241.259C76.4263 242.43 76.4499 243.631 76.7516 244.778C76.9172 245.399 77.1715 245.985 77.5738 246.493C77.7276 246.689 78.0351 246.517 78.041 246.298C78.0647 244.885 77.6566 243.506 77.2011 242.181C76.9941 241.584 76.793 240.981 76.5623 240.389C76.4736 240.034 76.373 239.685 76.2725 239.336C76.024 238.473 75.7756 237.609 75.6218 236.728C75.5982 236.592 75.4976 236.539 75.3971 236.544C75.3793 236.479 75.3616 236.414 75.3438 236.343C75.3261 236.249 75.332 236.184 75.3912 236.107C75.4562 236.03 75.4976 236.006 75.5923 235.971C76.0773 235.781 76.657 235.77 77.1716 235.734C77.8104 235.687 78.4433 235.58 79.0762 235.515C79.8333 235.438 80.6495 235.444 81.3297 235.835C81.8266 236.119 81.9981 236.598 82.0336 237.148C82.075 237.822 82.0454 238.496 82.1164 239.171C82.3116 240.975 82.6724 242.737 82.9978 244.518C83.1575 245.381 83.2935 246.251 83.5005 247.103C83.6366 247.676 83.8554 248.232 84.2162 248.706C84.9201 249.634 86.0321 250.125 86.9844 250.758C87.9663 251.415 88.9778 252.195 89.5574 253.248C89.8118 253.716 89.9537 254.236 89.9005 254.768V254.78ZM76.9941 243.364C77.0533 243.566 77.1124 243.767 77.1656 243.968C77.2721 244.382 77.3608 244.796 77.4141 245.216C77.1775 244.63 77.071 243.98 76.9941 243.364ZM145.223 247.996C145.034 249.072 145.016 250.178 145.034 251.267C145.051 252.089 145.081 252.911 145.105 253.733C145.087 253.733 145.075 253.721 145.057 253.721C141.278 253.721 137.498 253.698 133.718 253.538C129.915 253.372 126.106 253.384 122.302 253.432C118.505 253.479 114.714 253.568 110.916 253.574C107.131 253.574 103.351 253.721 99.5655 253.751C98.8084 253.751 98.0631 253.757 97.3119 253.828C96.5725 253.899 95.8391 253.999 95.1056 254.106C93.7274 254.301 92.3315 254.555 90.9356 254.561C90.7936 254.561 90.6517 254.561 90.5097 254.555C90.5215 253.307 89.7053 252.237 88.824 251.432C88.3449 251.001 87.8243 250.61 87.292 250.255C86.7774 249.912 86.2273 249.617 85.7127 249.268C85.2632 248.966 84.8432 248.617 84.5534 248.156C84.1807 247.558 84.0506 246.866 83.9146 246.186C83.7312 245.275 83.5833 244.358 83.4059 243.447C83.2225 242.536 83.051 241.619 82.9149 240.703C82.7907 239.857 82.6784 238.999 82.6784 238.147C82.6784 237.526 82.7316 236.858 82.5009 236.266C82.4477 236.13 82.3826 236.012 82.3057 235.9C82.631 235.977 82.9564 236.048 83.2876 236.107C84.2695 236.284 85.5175 236.574 86.4639 236.107C87.3038 235.693 87.5463 234.758 87.712 233.918C87.99 232.511 88.6524 231.18 89.3031 229.908C90.6103 227.365 92.2901 225.028 93.7097 222.544C95.1884 219.959 96.6731 217.38 98.205 214.831C99.7429 212.281 101.133 209.643 102.683 207.1C104.102 204.764 105.705 202.51 107.491 200.44C108.296 199.505 109.154 198.588 109.775 197.512C110.07 196.997 110.295 196.471 110.437 195.891C110.502 195.619 110.555 195.312 110.721 195.081C110.887 194.844 111.165 194.726 111.419 194.59C111.94 194.312 112.277 193.939 112.507 193.395C112.75 192.827 112.933 192.33 113.383 191.887C113.832 191.443 114.359 191.07 114.82 190.633C115.305 190.171 115.755 189.675 116.198 189.178C117.097 188.184 118.103 187.297 118.966 186.273C119.759 185.333 120.445 184.31 121.031 183.233C121.675 182.05 122.202 180.802 122.717 179.56C123.273 178.223 123.787 176.869 124.248 175.496C124.71 174.118 125.124 172.722 125.414 171.297C125.704 169.86 125.905 168.404 126.26 166.979C126.431 166.293 126.632 165.624 126.768 164.932C126.839 164.572 126.892 164.211 126.952 163.844C126.981 163.826 126.999 163.791 126.999 163.744C126.999 163.667 126.999 163.596 127.005 163.525C127.052 163.253 127.099 162.98 127.159 162.708C127.17 162.667 127.159 162.637 127.153 162.608C127.372 161.88 127.792 161.224 128.265 160.597C128.614 160.141 128.957 159.686 129.3 159.23C129.3 159.248 129.294 159.26 129.288 159.278C129.14 160.171 129.27 161.123 129.43 162.016C129.868 164.483 130.654 166.884 131.471 169.244C132.062 170.954 132.695 172.657 133.411 174.319C133.772 175.159 134.203 175.964 134.629 176.774C135.162 177.78 135.658 178.791 136.09 179.844C136.279 180.299 136.504 180.755 136.587 181.246C136.664 181.684 136.469 182.038 136.268 182.411C136.043 182.819 135.848 183.245 135.865 183.724C135.883 184.126 136.072 184.416 136.203 184.783C136.362 185.227 136.238 185.717 136.143 186.167C136.025 186.717 135.954 187.249 135.925 187.805C135.859 188.988 135.771 190.171 135.83 191.354C135.889 192.502 136.025 193.649 136.167 194.791C136.315 195.962 136.498 197.133 136.77 198.287C136.877 198.73 137.001 199.156 137.173 199.576C137.303 200.457 137.303 201.357 137.356 202.244C137.427 203.45 137.575 204.651 137.699 205.852C137.953 208.271 138.042 210.702 138.344 213.121C138.929 217.877 139.982 222.591 141.071 227.252C141.627 229.618 142.188 231.99 142.614 234.386C143.04 236.787 143.212 239.218 143.472 241.637C143.537 242.252 143.608 242.868 143.685 243.477C143.75 243.985 143.791 244.512 143.927 245.009C144.099 245.612 144.43 246.192 145.039 246.422C145.264 246.505 145.495 246.535 145.732 246.529C145.43 246.949 145.294 247.54 145.211 247.99L145.223 247.996ZM182.309 254.697C182.262 254.987 182.209 255.289 182.108 255.561C182.031 255.774 181.955 255.863 181.742 255.94C181.452 256.046 181.138 256.093 180.837 256.147C180.499 256.206 180.174 256.294 179.849 256.383C178.95 256.614 178.033 256.815 177.116 256.975C175.294 257.3 173.455 257.489 171.615 257.596C169.746 257.702 167.871 257.815 166.002 257.909C164.115 258.01 162.222 258.057 160.335 257.945C158.443 257.826 156.556 257.608 154.669 257.383C153.734 257.27 152.8 257.158 151.865 257.052C151.096 256.963 150.322 256.868 149.547 256.833C148.926 256.803 148.305 256.791 147.689 256.691C147.175 256.602 146.577 256.466 146.217 256.058C145.832 255.626 145.785 254.922 145.743 254.378C145.696 253.822 145.702 253.266 145.666 252.71C145.613 251.781 145.566 250.859 145.584 249.93C145.601 248.954 145.655 247.948 146.004 247.032C146.098 246.777 146.27 246.511 146.524 246.428C146.536 246.428 146.542 246.417 146.554 246.411C146.631 246.387 146.707 246.369 146.784 246.346C147.53 246.109 148.234 245.754 148.955 245.452C148.991 245.441 149.026 245.429 149.062 245.411C149.204 245.801 149.558 246.097 149.931 246.369C150.446 246.748 150.954 247.073 151.552 247.304C152.741 247.765 154.089 247.836 155.32 247.529C155.663 247.44 156.006 247.322 156.325 247.168C156.674 247.144 157.023 247.085 157.343 246.961C157.662 246.836 157.946 246.653 158.188 246.411C158.33 246.269 158.466 246.062 158.673 246.008C158.951 245.937 159.289 246.091 159.525 246.221C159.874 246.417 160.199 246.659 160.519 246.896C161.217 247.404 161.968 247.83 162.707 248.28C163.524 248.777 164.352 249.262 165.233 249.64C166.245 250.072 167.345 250.261 168.332 250.734C168.758 250.936 169.155 251.202 169.592 251.385C170.054 251.58 170.527 251.651 171.024 251.568C171.172 251.545 171.231 251.373 171.207 251.243C171.089 250.634 170.261 250.451 169.758 250.326C169.427 250.249 169.096 250.19 168.764 250.119C168.368 250.031 168.001 249.883 167.629 249.729C166.57 249.297 165.552 248.777 164.553 248.226C163.63 247.718 162.69 247.215 161.844 246.576C160.968 245.914 160.194 245.038 159.117 244.695C159.105 244.695 159.093 244.695 159.076 244.695C159.354 244.453 159.649 244.24 159.986 244.08C160.637 243.767 161.353 243.749 162.039 243.962C162.767 244.192 163.429 244.589 164.08 244.973C164.766 245.381 165.476 245.754 166.156 246.174C167.593 247.067 168.942 248.085 170.332 249.049C170.971 249.492 171.633 249.912 172.361 250.19C173.118 250.474 173.952 250.427 174.738 250.374C176.217 250.279 177.719 250.403 179.163 250.723C180.434 251.007 181.854 251.586 182.274 252.947C182.451 253.52 182.404 254.112 182.315 254.691L182.309 254.697ZM169.51 250.752C169.734 250.805 169.959 250.859 170.172 250.947C170.249 250.977 170.326 251.012 170.397 251.054C170.178 251.03 169.965 250.971 169.752 250.876C169.669 250.841 169.586 250.799 169.51 250.758V250.752Z" fill="#161928"/>
<path d="M255.01 254.242C254.288 253.55 253.229 253.195 252.248 253.1C251.313 253.012 250.089 253.236 249.663 254.195C249.651 254.224 249.639 254.26 249.633 254.289C246.492 254.313 243.352 254.236 240.211 254.118C235.307 253.934 230.404 253.757 225.5 253.733C223.046 253.721 220.585 253.751 218.13 253.828C215.693 253.911 213.262 254.023 210.819 254.065C205.945 254.141 201.078 254.136 196.21 254.325C194.973 254.372 193.743 254.425 192.507 254.473C191.43 254.514 190.348 254.526 189.277 254.615C187.591 254.757 185.888 255.1 184.19 254.916C183.83 254.875 183.475 254.81 183.138 254.674C182.936 254.591 182.8 254.922 182.99 255.023C183.652 255.372 184.397 255.455 185.137 255.46C186.03 255.472 186.929 255.384 187.816 255.289C189.875 255.07 191.933 255.035 194.003 254.952C198.901 254.768 203.792 254.703 208.69 254.662C213.629 254.621 218.556 254.343 223.495 254.331C228.428 254.319 233.355 254.479 238.288 254.662C243.18 254.845 248.066 255.035 252.963 254.851C253.573 254.828 254.182 254.804 254.785 254.768C255.045 254.757 255.211 254.431 255.01 254.23V254.242ZM250.775 254.277C250.745 254.201 250.674 254.136 250.562 254.124C250.55 254.124 250.538 254.124 250.532 254.124C251.023 253.727 251.68 253.656 252.336 253.739C252.839 253.804 253.383 253.946 253.856 254.195C252.833 254.236 251.804 254.266 250.781 254.283L250.775 254.277Z" fill="#161928"/>
<path d="M97.3473 257.211C114.684 255.543 132.204 255.821 149.482 258.039C154.722 258.714 159.951 259.565 165.221 259.891C173.804 260.417 182.445 259.542 190.998 260.453C190.821 262.339 189.242 263.854 187.467 264.528C185.699 265.202 183.753 265.196 181.86 265.173C136.883 264.682 91.947 261.6 46.964 261.955C33.8151 262.055 20.6721 262.452 7.52319 262.848C10.2027 259.589 14.7394 258.66 18.9154 258.063C40.2387 255.011 62.0175 255.182 83.2876 258.578" fill="#161928"/>
</svg>
