<svg width="207" height="266" viewBox="0 0 207 266" fill="none" xmlns="http://www.w3.org/2000/svg">
<path opacity="0.53" d="M84.2711 59.1914C83.2576 62.3283 82.7509 65.5979 82.2502 68.8554C81.7254 72.2456 81.2066 75.6298 80.6818 79.0201C80.2957 81.5295 79.9096 84.0451 79.7045 86.5787C79.6864 86.7778 79.6744 86.9949 79.7769 87.1638C79.9398 87.4413 80.3078 87.4956 80.6275 87.5198C82.4734 87.6706 84.3133 87.8214 86.1592 87.9722C86.3583 87.9903 86.5755 88.0024 86.7383 87.8817C86.9073 87.7611 86.9615 87.5379 86.9977 87.3388C89.2116 76.5468 88.9583 65.429 89.5676 54.4318C89.6038 53.7803 89.646 53.1167 89.9114 52.5195C90.2734 51.7052 91.0033 51.126 91.7392 50.6193C92.3726 50.185 93.0362 49.7687 93.5007 49.1595C93.9652 48.5502 94.1824 47.6755 93.8023 47.0119C93.5067 46.4811 92.9156 46.1975 92.3485 45.9804C91.6669 45.7149 90.9369 45.4978 90.207 45.5883C88.7351 45.7632 87.6492 47.1567 87.3476 48.6045C86.9977 50.2755 87.9026 52.1154 87.2994 53.7019C86.9676 54.5826 86.123 55.2703 85.6344 56.0666C85.0372 57.0378 84.6149 58.1116 84.265 59.1914H84.2711Z" fill="#768AD3"/>
<path opacity="0.53" d="M81.0076 106.998C81.5022 107.318 82.1537 107.107 82.7027 106.89C83.9815 106.383 87.5407 105.183 86.4006 103.264C85.7611 102.178 83.511 101.515 82.3649 101.316C81.4057 101.147 80.0605 101.05 79.6201 102.13C79.228 103.089 80.157 106.461 81.0076 107.004V106.998Z" fill="#768AD3"/>
<path d="M46.4115 76.8664C50.972 85.6134 59.514 91.6821 64.4907 100.194C68.1464 99.8319 71.784 99.2407 75.3672 98.4143C73.2076 97.25 71.3677 95.5127 70.0768 93.4255C69.4072 92.3396 68.9789 90.7229 69.9863 89.9447C70.6559 89.4259 71.597 89.5828 72.4415 89.5768C73.286 89.5768 74.3296 89.1605 74.3477 88.316C74.3538 88.0264 74.2331 87.755 74.1125 87.4956C72.2304 83.4056 69.8837 76.8242 64.8225 76.058C62.2889 75.672 47.1656 78.3142 46.4115 76.8664Z" fill="#AAA79F"/>
<path d="M43.0756 75.3162C42.9247 75.0809 42.6593 74.9482 42.3999 74.8517C41.7545 74.6104 41.0245 74.5682 40.3429 74.5259C39.7517 74.4897 39.1364 74.5139 38.5512 74.4173C36.838 74.1278 36.0116 72.4568 35.1791 71.1236C34.0209 69.2596 32.742 67.468 31.7828 65.4893C30.8538 63.571 30.1661 61.5562 29.4181 59.5655C29.0501 58.5882 28.6641 57.617 28.2358 56.6639C28.0488 56.2537 27.8316 55.8917 27.5843 55.5177C27.3852 55.2161 27.1921 54.8903 27.3429 54.5224C27.4636 54.2388 27.7351 54.1121 27.9945 53.9975C28.29 53.8648 28.5917 53.7502 28.845 53.533C29.1105 53.3098 29.2733 52.966 29.2492 52.6161C29.2251 52.2119 29.032 51.8319 28.8812 51.4639C28.8149 51.301 28.7545 51.1382 28.7123 50.9692C28.6641 50.7641 28.6822 50.5409 28.6942 50.3358C28.7183 49.811 28.7907 49.2922 28.7666 48.7674C28.7606 48.5985 28.6218 48.4356 28.4409 48.4417C27.5239 48.502 26.8664 49.2138 26.0822 49.5999C25.8047 49.7326 25.5151 49.799 25.2557 49.6059C24.9541 49.3767 24.743 49.0208 24.568 48.695C24.3931 48.3693 24.2423 48.0254 24.1337 47.6695C24.0251 47.3075 23.8079 47.0602 23.9889 46.6802C24.1518 46.3303 24.6042 46.1915 24.7912 45.8477C24.9541 45.5461 24.8636 45.1117 24.6103 44.8946C24.369 44.6834 24.0311 44.6593 23.7356 44.593C23.5908 44.5628 23.452 44.5326 23.3253 44.4602C23.259 44.418 23.2047 44.3758 23.1564 44.3155C23.1082 44.2551 23.1323 44.2913 23.1142 44.225C23.066 44.0319 23.1444 43.6881 23.2168 43.4347C23.3253 43.0667 23.4701 42.7108 23.627 42.3609C23.9165 41.6913 24.2664 41.0398 24.4655 40.334C24.5318 40.1048 24.5982 39.8816 24.6645 39.6524C24.8154 39.6765 24.9722 39.6162 25.0265 39.4292C25.1592 38.9285 25.1471 38.4278 25.1049 37.915C25.1049 37.8969 25.1109 37.8849 25.117 37.8668C25.2678 37.0343 25.304 36.1656 24.9541 35.3754C24.556 34.4765 23.6994 33.9578 22.8066 33.6441C22.7885 33.638 22.7704 33.638 22.7523 33.6441C22.6618 33.5958 22.5773 33.5476 22.4868 33.5053C21.9318 33.2097 21.2683 32.9021 20.6228 33.0227C20.0075 33.1373 19.6637 33.6923 19.4646 34.2413C19.3198 34.6515 19.2534 35.0858 19.1509 35.5141C19.0363 36.0028 18.8915 36.4793 18.7226 36.9498C18.3848 37.903 17.9323 38.8078 17.4256 39.6765C16.9852 40.4306 16.5811 41.2208 16.8284 42.1136C17.0335 42.8616 17.6006 43.4528 18.1374 43.9837C18.795 44.6352 19.4404 45.2927 20.0618 45.9864C21.3708 47.4523 22.6195 48.9966 23.5184 50.7521C23.9588 51.6087 24.3026 52.5075 24.5137 53.4486C24.7128 54.3474 24.369 55.1678 24.188 56.0365C24.0975 56.4708 24.0553 56.9112 24.1216 57.3516C24.188 57.804 24.3569 58.2444 24.5499 58.6606C24.9541 59.5353 25.5332 60.3075 26.1003 61.0796C26.6553 61.8397 27.168 62.6179 27.5843 63.4624C28.0246 64.3492 28.3745 65.2782 28.6822 66.2253C29.3095 68.1376 29.7559 70.1041 30.335 72.0345C30.4798 72.5171 30.6306 72.9937 30.7995 73.4703C30.9564 73.9287 31.1132 74.3993 31.3485 74.8215C31.5777 75.2378 31.9216 75.6359 32.0543 76.1004C32.1267 76.3417 32.0664 76.7097 32.0905 76.9872C32.1146 77.319 32.2172 77.5482 32.5489 77.6688C32.8204 77.7714 33.1341 77.7834 33.4237 77.8015C34.0571 77.8317 34.6844 77.7895 35.3178 77.8136C36.4821 77.8558 37.6464 77.8317 38.8106 77.8136C39.3656 77.8015 39.9266 77.7895 40.4816 77.7955C40.9039 77.7955 41.3262 77.8498 41.7424 77.8196C42.1345 77.7955 42.5507 77.705 42.8282 77.4034C43.0876 77.1259 43.1962 76.7217 43.2384 76.3538C43.2746 76.0159 43.2565 75.6299 43.0695 75.3343L43.0756 75.3162Z" fill="#AAB0BC"/>
<path d="M45.8625 72.8489C45.7117 72.2818 46.0616 71.6726 46.5563 71.3468C47.0449 71.0211 47.6421 70.9064 48.2212 70.7858C52.3414 69.9594 56.3711 68.6805 60.2077 66.9733C60.6119 66.7923 61.0221 66.6053 61.3539 66.3037C61.9873 65.7246 62.2105 64.8438 62.4095 64.0114C62.687 62.829 62.9645 61.6527 63.242 60.4703C63.4652 59.5232 63.7065 58.5339 64.3218 57.7799C64.5028 57.5627 64.7743 57.3455 65.0397 57.442C65.2508 57.5144 65.3473 57.7497 65.4197 57.9608C66.765 62.081 64.3399 66.4847 64.5269 70.816C64.539 71.1055 64.5692 71.4192 64.7562 71.6484C64.8949 71.8234 65.106 71.9259 65.3111 72.0164C66.4875 72.5412 67.7362 72.9032 69.0151 73.0842C70.7283 73.3315 72.7914 73.434 73.66 74.9301C73.9617 75.4489 74.0582 76.0582 74.3115 76.6011C75.0234 78.1273 76.8452 78.8874 77.6173 80.3834C77.9853 81.0952 78.0818 81.9156 78.1723 82.7119C78.3412 84.1838 78.5101 85.6618 78.679 87.1337C76.1756 85.137 74.6976 82.169 72.9422 79.4906C71.1867 76.8122 68.81 74.1941 65.649 73.6753C64.9492 73.5607 64.2313 73.5547 63.5195 73.5426C63.3023 73.5426 63.0671 73.5245 62.9102 73.3737C62.7474 73.2169 62.7353 72.9575 62.7353 72.7282C62.7293 70.9245 62.7172 69.1208 62.7112 67.3171C61.8425 67.3413 61.203 68.0953 60.6058 68.7287C57.849 71.6424 53.5056 72.9514 49.5966 72.0526" fill="#AAB0BC"/>
<path d="M82.588 7.83115C82.8535 7.9337 83.1852 8.05435 83.2275 8.33788C83.2637 8.56108 83.0948 8.75412 82.95 8.92302C80.7843 11.4144 80.4586 14.9977 80.6034 18.3035C80.6516 19.4979 80.7481 20.7104 80.5249 21.8867C80.4284 22.3935 80.2655 22.8881 80.2113 23.4009C80.1147 24.2515 80.3017 25.102 80.4888 25.9345C81.1101 28.7155 81.7314 31.5025 82.3528 34.2834C82.401 34.4945 82.4553 34.7238 82.6242 34.8565C82.8173 35.0073 83.0827 34.9892 83.324 34.959C85.1036 34.76 86.8892 34.5669 88.6687 34.3679C88.5722 35.1702 87.8001 35.7071 87.0521 36.0087C86.304 36.3043 85.4715 36.4913 84.8804 37.0402C83.873 37.9873 84.0117 39.7307 84.8804 40.7984C85.7551 41.8662 87.1486 42.3669 88.5119 42.578C87.5889 41.2087 86.6599 39.8393 85.737 38.4699C85.4836 38.0959 85.2303 37.5952 85.4957 37.2333C85.6344 37.0402 85.8757 36.9558 86.0989 36.8894C87.2994 36.5214 88.536 36.2319 89.64 35.6467C90.7499 35.0616 91.7453 34.1205 92.059 32.908L84.0057 34.024C83.5231 31.6955 84.2711 29.1739 83.4446 26.9419C83.131 26.1034 82.6122 25.3554 82.2924 24.5169C81.9124 23.5276 81.828 22.4598 81.7495 21.4041C81.6409 19.9443 81.5324 18.4784 81.6229 17.0186C81.7556 14.7624 82.3528 12.5546 82.9379 10.3708C83.0525 9.93647 83.1792 9.49007 83.4507 9.13416C83.8971 8.54901 84.6692 8.31375 85.4052 8.24739C87.4984 8.04832 89.7003 8.91096 91.6608 8.16293C90.4664 7.36062 88.9221 7.39682 87.4864 7.31839C86.1351 7.23997 84.5486 6.95041 83.7282 5.76202C83.2214 5.02606 83.2938 2.81216 82.5337 2.37782C81.4238 1.75045 80.5792 3.88593 80.5551 4.73651C80.5249 6.03951 81.3635 7.36665 82.588 7.84322V7.83115Z" fill="#AAB0BC"/>
<path d="M69.6304 101.823C69.3649 101.883 69.0814 101.961 68.9246 102.179C68.7556 102.42 68.7979 102.746 68.8461 103.035C69.2382 105.321 69.6364 107.602 70.0285 109.888C70.0647 110.087 70.0949 110.304 70.0285 110.497C69.9501 110.708 69.757 110.853 69.6123 111.022C68.9185 111.806 69.383 113.266 70.4025 113.508C69.009 114.105 68.7376 116.029 67.5311 116.94C67.1329 117.242 66.6383 117.423 66.3366 117.821C66.0893 118.146 66.0109 118.569 65.9385 118.973C65.0638 123.986 64.3399 129.023 63.7849 134.084C64.7501 132.293 65.7213 130.483 66.222 128.516C67.0424 125.283 66.5719 121.73 67.9956 118.714C68.6893 117.248 69.7872 116.017 70.6136 114.624C72.2786 111.812 72.7853 108.416 72.4656 105.165C72.3932 104.417 72.2846 103.632 72.5923 102.951C73.1955 101.606 74.9027 101.412 76.1816 101.274C73.9858 100.568 71.7779 101.328 69.6364 101.823H69.6304Z" fill="#AAB0BC"/>
<path d="M113.348 67.7876C113.619 65.3626 113.179 62.8651 112.099 60.6814C110.971 61.6526 110.904 63.3357 110.868 64.8197C110.693 72.5834 109.179 80.317 106.41 87.574C106.181 88.1652 105.934 88.7805 105.463 89.2088C104.426 90.1438 102.815 89.8181 101.439 90.0654C100.915 90.1619 100.287 90.6144 100.535 91.0849C102.085 91.5615 103.756 91.3202 105.361 91.0728C105.632 91.0306 105.916 90.9824 106.145 90.8255C106.392 90.6566 106.537 90.3791 106.67 90.1137C110.657 82.1328 111.646 73.0419 112.575 64.1742" fill="#AAB0BC"/>
<path d="M56.4495 187.381C56.9562 172.33 59.6346 157.442 62.307 142.62C62.6991 140.442 63.1033 138.223 64.1348 136.262C65.9084 137.372 66.2703 139.875 65.7274 141.896C65.1845 143.917 63.972 145.691 63.23 147.645C62.1321 150.529 62.1019 153.69 61.8968 156.766C61.4263 163.842 59.9905 170.816 59.0676 177.85C56.6003 196.671 57.849 215.764 59.2666 234.699C59.4054 236.557 59.5562 238.458 60.3404 240.147C61.1126 241.806 62.5543 243.109 64.3822 243.416C59.8096 244.568 56.9924 244.677 56.8718 239.278C56.7451 233.614 57.3242 227.907 57.2036 222.218C56.9623 210.606 56.0514 198.999 56.4435 187.381H56.4495Z" fill="#AAB0BC"/>
<path d="M96.0525 200.851C95.9318 183.267 95.0813 165.26 88.3973 148.997C87.9509 147.911 87.4864 146.626 88.1017 145.618C88.6808 144.665 89.9295 144.448 91.0094 144.183C94.6831 143.29 97.9406 140.786 99.7504 137.469C94.3272 141.45 86.9556 142.62 80.5672 140.515C81.3092 142.56 83.7825 143.797 85.8637 143.163C85.1941 145.094 86.0808 147.175 86.859 149.063C93.4525 165.013 93.4344 182.814 93.3137 200.073C93.2836 204.561 93.2534 209.049 93.2172 213.544C93.181 218.919 93.1448 224.299 92.9397 229.674C92.9035 230.573 92.0711 236.057 92.7889 236.467C93.8808 237.088 95.1657 234.862 95.4432 234.138C97.0901 229.873 95.8896 222.472 95.962 217.893C96.0585 212.217 96.0887 206.534 96.0525 200.857V200.851Z" fill="#AAB0BC"/>
<path d="M97.1021 244.689C97.5907 245.214 97.5002 246.167 96.9151 246.589C96.3601 246.987 95.5578 246.897 95.0088 247.301C94.1402 247.928 94.3875 249.243 94.4961 250.311C94.8158 253.496 93.0242 256.621 93.3861 259.806C94.5081 259.01 96.0283 259.203 97.3856 259.432C98.1578 259.565 98.948 259.698 99.6176 260.102C100.287 260.506 100.812 261.248 100.734 262.026C97.7053 261.32 94.5745 261.079 91.4738 261.314C90.762 260.482 90.8766 259.215 91.2989 258.202C91.7211 257.188 92.3968 256.295 92.7346 255.252C93.0362 254.329 93.0543 253.339 93.1026 252.368C93.1931 250.679 93.3861 248.99 93.6877 247.325C93.8747 246.294 94.291 245.075 95.3165 244.876" fill="#AAB0BC"/>
<path d="M58.7237 247.265C57.855 248.019 56.4555 246.975 55.3757 247.367C54.9353 247.53 54.6156 247.904 54.2838 248.242C52.83 249.732 50.8755 250.595 48.9692 251.433C46.4899 252.519 44.0106 253.599 41.5312 254.685C41.1452 254.854 40.7048 255.089 40.6565 255.511C40.5781 256.157 41.4287 256.452 42.0742 256.519C43.721 256.675 45.5971 256.766 46.8036 255.632C47.6602 254.83 47.9618 253.593 48.6918 252.676C50.0189 251.011 52.4077 250.715 54.2114 249.575C55.2551 248.918 56.1418 247.947 57.3302 247.627C58.0541 247.434 58.8202 247.506 59.5682 247.482C60.7385 247.446 61.9088 247.18 62.9766 246.698C60.7928 246.402 58.5488 246.595 56.4495 247.265" fill="#AAB0BC"/>
<path d="M82.9018 89.5889C81.3032 91.0548 78.8721 91.0005 76.7125 90.8255C76.067 90.7712 75.3793 90.723 74.8122 91.0366C74.1487 91.4046 73.8169 92.2069 73.835 92.961C73.8531 93.7151 74.1728 94.4329 74.5529 95.0905C74.7881 95.5007 75.0535 95.8988 75.3974 96.2246C75.8197 96.6227 76.3505 96.8942 76.8693 97.1596C80.0605 98.7883 83.318 100.435 86.853 101.002C85.6465 99.9164 84.1203 99.2347 82.9379 98.1248C81.7556 97.0148 80.9593 95.1809 81.7677 93.7693C82.196 93.0213 82.9741 92.5568 83.6075 91.9657C84.241 91.3745 84.7537 90.4756 84.4219 89.6794" fill="#AAB0BC"/>
<path d="M205.927 246.945C202.151 246.728 198.333 246.662 194.544 246.752C190.798 246.837 187.076 247.349 183.33 247.488C182.479 247.518 181.617 247.53 180.778 247.379C180.651 247.355 180.525 247.331 180.398 247.301C180.404 247.277 180.416 247.253 180.422 247.229C180.549 246.631 179.789 246.511 179.373 246.631C178.812 246.8 178.878 247.229 179.186 247.512C178.16 248.037 176.797 247.826 175.699 247.778C173.871 247.699 172.031 247.669 170.203 247.651C166.415 247.621 162.639 247.392 158.85 247.325C155.05 247.259 151.261 247.494 147.467 247.53C143.654 247.573 139.842 247.603 136.029 247.717C132.181 247.832 128.332 247.965 124.483 247.989C120.641 248.013 116.798 247.989 112.955 247.989C111.845 247.989 110.766 248.115 109.668 248.254C108.503 248.399 107.255 248.568 106.09 248.357C105.741 248.29 105.391 248.188 105.101 247.989C105.107 247.983 105.119 247.977 105.125 247.965C105.149 247.947 105.174 247.928 105.198 247.904C105.324 247.784 105.198 247.524 105.017 247.597C104.878 247.651 104.733 247.705 104.6 247.784C104.564 247.802 104.54 247.832 104.516 247.868C104.504 247.868 104.486 247.874 104.474 247.88C104.462 247.88 104.45 247.892 104.438 247.898C104.438 247.699 104.419 247.5 104.353 247.313C104.335 247.265 104.311 247.229 104.293 247.18C104.335 246.119 104.438 245.057 104.281 244.001C104.727 243.959 105.161 243.85 105.542 243.579C106.241 243.072 106.706 242.258 106.826 241.407C106.953 240.539 106.796 239.682 106.748 238.819C106.694 237.921 106.766 236.992 106.826 236.093C106.887 235.242 106.971 234.368 107.249 233.559C107.399 233.131 107.593 232.727 107.761 232.304C107.979 231.761 108.184 231.2 108.274 230.621C108.359 230.121 108.383 229.548 108.045 229.131C107.93 228.993 107.78 228.89 107.611 228.824C107.737 227.418 108.015 226.055 108.407 224.685C108.642 223.853 108.781 223.02 108.853 222.158C108.926 221.271 108.962 220.378 109.131 219.504C109.294 218.659 109.463 217.833 109.511 216.97C109.559 216.107 109.535 215.245 109.475 214.388C109.354 212.669 109.101 210.956 108.98 209.236C108.859 207.439 108.998 205.653 109.095 203.855C109.143 202.957 109.155 202.058 109.173 201.159C109.191 200.32 109.167 199.482 108.944 198.668C108.733 197.901 108.449 197.171 108.654 196.375C108.757 195.971 108.926 195.591 109.04 195.193C109.155 194.801 109.191 194.391 109.185 193.98C109.179 193.112 108.992 192.255 108.914 191.386C108.835 190.488 108.859 189.589 108.932 188.69C109.07 186.892 109.312 185.107 109.444 183.309C109.577 181.493 109.65 179.683 109.625 177.862H109.722C109.734 176.209 109.77 174.556 109.77 172.903C109.77 170.532 109.601 168.186 109.378 165.827C109.161 163.529 108.944 161.212 109.089 158.902C109.221 156.76 109.873 154.836 110.723 152.887C111.489 151.12 112.298 149.346 112.636 147.434C112.829 146.36 112.925 145.268 113.13 144.195C113.323 143.163 113.553 142.138 113.77 141.112C114.21 139.037 114.602 136.938 114.596 134.802C114.596 132.528 114.168 130.217 113.728 127.997C113.287 125.771 112.612 123.618 112.099 121.41C111.707 119.733 111.646 118.002 111.405 116.301C111.236 115.124 111.007 113.809 110.247 112.85C110.518 112.162 110.392 111.342 110.247 110.642C110.144 110.166 110.006 109.695 109.867 109.231C109.746 108.826 109.625 108.41 109.384 108.06C109.113 107.656 108.751 107.457 108.335 107.385C108.479 107.294 108.618 107.179 108.715 107.041C108.926 106.739 108.902 106.347 108.793 106.015C108.672 105.653 108.467 105.322 108.274 104.996C108.111 104.712 108.003 104.411 107.876 104.103C107.647 103.536 107.43 102.782 106.911 102.396C107.387 102.396 107.864 102.42 108.341 102.444C110.15 102.535 111.954 102.697 113.77 102.655C117.401 102.571 120.997 101.913 124.538 101.147C125.979 100.833 127.488 100.453 128.694 99.5666C129.279 99.1383 129.738 98.6134 130.021 97.9438C130.293 97.3044 130.407 96.6167 130.462 95.923C130.6 94.2942 130.63 92.6473 130.649 91.0186C130.649 90.5903 130.649 90.156 130.649 89.7276C130.721 89.426 130.751 89.1184 130.721 88.7806C130.703 88.5996 130.679 88.4186 130.642 88.2437C130.63 87.3388 130.612 86.44 130.582 85.5411C130.57 85.1008 130.552 84.6604 130.54 84.22C130.54 84.1054 130.468 83.9908 130.371 83.9305C130.353 83.5323 130.142 83.1402 129.973 82.7964C129.683 82.1992 129.569 81.5838 129.472 80.9324C129.358 80.2024 129.195 79.5027 128.959 78.8029C128.73 78.1152 128.465 77.4396 128.296 76.7398C128.109 75.9797 128.018 75.2015 127.916 74.4294C127.807 73.6572 127.675 72.9032 127.445 72.1612C127.222 71.4252 127.035 70.6772 126.866 69.9292C126.528 68.4331 126.269 66.925 125.925 65.435C125.581 63.9148 125.207 62.4007 124.857 60.8805C124.507 59.3664 124.194 57.8281 123.747 56.3381C123.331 54.9506 122.752 53.6054 122.01 52.3567C121.69 51.8137 121.286 51.2708 121.153 50.6435C121.069 50.2332 121.093 49.7627 120.737 49.4671C120.58 49.3344 120.381 49.2681 120.176 49.262C119.706 48.1822 118.397 47.4282 117.425 46.9456C116.72 46.5957 115.99 46.3001 115.26 45.9985C113.999 45.4737 112.732 44.9669 111.471 44.43C110.241 43.9052 109.034 43.3382 107.828 42.7771C106.658 42.2403 105.487 41.6853 104.407 40.9734C104.275 40.889 104.148 40.7864 104.015 40.696C104.009 40.6718 104.003 40.6477 103.997 40.6296C103.768 40.0022 103.358 39.405 103.002 38.844C102.586 38.1985 102.157 37.535 101.632 36.9739C101.439 36.7628 101.192 36.5577 100.939 36.4913C101.035 35.7373 100.607 34.9893 100.305 34.3016C99.8046 33.1675 99.8831 31.9248 100.1 30.7304C100.336 29.4093 100.818 28.1364 101.458 26.9541C101.614 26.6585 101.783 26.3749 101.964 26.0914C102.037 25.9768 102.025 25.8622 101.964 25.7717C102.103 25.6329 102.248 25.4882 102.387 25.3494C102.712 25.0237 103.092 24.7703 103.454 24.4928C103.961 24.1067 104.474 23.7267 104.926 23.2743C105.379 22.8218 105.753 22.297 106.066 21.742C106.712 20.5959 107.08 19.323 107.43 18.0683C107.798 16.7351 108.093 15.3718 108.087 13.9783C108.081 12.6511 107.683 11.3361 107.194 10.1115C106.73 8.94722 106.127 7.86741 105.391 6.85396C105.125 6.48598 104.848 6.118 104.534 5.78018C104.365 5.60524 104.184 5.4303 103.979 5.30362C103.979 4.88135 103.732 4.48924 103.472 4.16952C102.742 3.26466 101.717 2.5287 100.679 2.01594C99.6599 1.51525 98.568 1.20759 97.452 0.996458C96.0826 0.737063 94.7072 0.495765 93.3258 0.290662C91.872 0.0734936 90.4242 -0.0290586 88.9523 0.00713601C87.4864 0.0433307 86.0205 0.170013 84.5667 0.399246C83.8428 0.513862 83.1189 0.664673 82.4071 0.839614C81.8581 0.97836 81.3031 1.12314 80.7844 1.37047C80.3922 1.55747 80.0424 1.82893 79.783 2.17882C79.5055 2.55886 79.3788 3.02336 79.3305 3.48786C79.2581 4.12729 79.2461 4.7788 79.234 5.41824C79.2159 6.06974 79.222 6.73331 79.3305 7.37275C79.4693 8.16903 80.0605 8.71798 80.7844 9.00754C81.1342 9.15232 81.5022 9.23677 81.8823 9.29107C81.4479 9.78573 81.1403 10.3648 80.9171 10.9982C80.6335 11.8307 80.3923 12.6753 80.1087 13.5077C79.8011 14.4066 79.5115 15.3295 79.5236 16.2887C79.5356 17.1513 79.8493 17.9597 80.0182 18.7982C80.1027 19.2205 80.1449 19.6669 80.0665 20.0952C79.9941 20.4993 79.8554 20.8914 79.7166 21.2775C79.4633 21.9954 79.2159 22.7072 79.2461 23.4794C79.2642 23.962 79.3848 24.4385 79.4874 24.903C79.596 25.4037 79.7166 25.8984 79.8312 26.3991C80.0725 27.4005 80.3259 28.4018 80.5129 29.4153C80.6939 30.4046 80.7663 31.412 80.8387 32.4134C80.8748 32.9081 80.905 33.4027 80.9653 33.8974C80.9955 34.1387 81.0437 34.3679 81.1342 34.5972C81.4721 35.4236 82.2623 35.8519 83.0948 36.0268C83.0827 36.0691 83.0827 36.1113 83.0948 36.1475C83.2516 36.8111 83.4145 37.4746 83.5593 38.1442C83.5351 38.1563 83.511 38.1744 83.4929 38.2106C82.9379 39.405 81.7918 40.328 81.46 41.631C81.2127 41.5948 80.9653 41.6189 80.7421 41.7637C80.4043 41.9809 80.1811 42.3428 79.8976 42.6143C79.0229 43.4468 77.8224 43.4588 76.6883 43.4709C75.3491 43.489 74.016 43.5976 72.6828 43.688C72.0072 43.7363 71.3315 43.7725 70.6499 43.7906C70.119 43.8027 69.5881 43.7785 69.0633 43.8087C68.5747 43.8328 68.0137 43.8992 67.6517 44.2611C67.2596 44.6532 67.3501 45.1298 67.2898 45.6064C66.6926 45.4495 66.0893 45.2686 65.48 45.5098C65.2689 45.5943 65.0759 45.727 65.0035 45.9562C64.9552 46.1252 65.0035 46.3122 64.9492 46.475C64.7803 46.9516 64.0685 47.1567 63.6582 47.3316C63.5798 47.3678 63.5014 47.398 63.429 47.4342C62.1381 47.5971 60.7205 49.262 60.0448 50.0462C59.3149 50.8968 58.6453 51.8017 57.9335 52.6643C56.9743 53.8226 55.6472 54.6611 54.3502 55.4031C52.6129 56.3984 50.7669 57.1947 48.9934 58.1177C47.3827 58.9501 45.7178 59.6861 44.1976 60.6694C43.4496 61.158 42.7257 61.7009 42.1104 62.3524C41.8389 62.6359 41.5855 62.9376 41.302 63.209C41.0064 63.4926 40.6988 63.7821 40.4937 64.1441C40.4514 64.2164 40.4213 64.2949 40.3972 64.3733C40.3248 64.2466 40.2463 64.1199 40.1498 64.0053C39.7034 63.4503 39.0218 63.1306 38.6477 62.5213C38.4426 62.1835 38.2979 61.8035 38.135 61.4415C37.9299 60.9951 37.7308 60.5487 37.5317 60.1023C37.1577 59.2759 36.7536 58.4555 36.4097 57.617C35.7401 56.0063 35.2877 54.3172 34.5758 52.7246C33.8881 51.1803 32.8687 49.6843 31.5657 48.5985C31.4993 48.5442 31.4028 48.508 31.3183 48.514C31.077 47.772 30.7211 47.0722 30.5522 46.3122C30.3652 45.4616 30.4919 44.5808 30.0998 43.7785C30.1299 43.4166 30.0636 43.0365 29.961 42.6927C29.6654 41.6491 29.1165 40.7201 28.7364 39.7127C28.5012 39.0913 28.2478 38.4821 27.9522 37.8848C27.6385 37.2575 27.3068 36.6361 27.0172 35.9967C26.7276 35.3572 26.5467 34.6997 26.3476 34.0301C26.1546 33.3786 25.8529 32.7693 25.5513 32.16C25.2799 31.6171 25.0144 31.0742 24.8395 30.4951C24.6947 30.0185 24.562 29.542 24.3629 29.0895C24.1759 28.6612 23.9226 28.2269 23.5063 27.9796C23.4098 27.9253 23.3072 27.877 23.2047 27.8469C23.1745 27.8408 23.1444 27.8288 23.1142 27.8227C23.1021 27.8227 23.0901 27.8227 23.078 27.8167C23.0539 27.8167 23.0418 27.8107 23.0298 27.8107C23.0298 27.8107 23.0237 27.8107 22.9936 27.8107C22.8729 27.7986 22.7523 27.7986 22.6316 27.8408C22.0827 28.0339 22.0947 28.7517 22.1249 29.2283C22.1731 29.8738 22.3119 30.5011 22.4506 31.1345C21.8233 29.5902 21.1657 28.052 20.5323 26.5077C19.7481 24.5833 18.9699 22.6529 18.1374 20.7467C17.6669 19.6729 17.1964 18.569 16.6173 17.5434C16.5811 17.4771 16.4725 17.4228 16.3941 17.453C16.2191 17.5253 16.1286 17.5796 16.0201 17.7305C15.9296 17.8511 15.8813 17.9959 15.8572 18.1407C15.7908 18.5509 15.8632 18.9852 15.9537 19.3833C16.2372 20.6321 16.75 21.8265 17.2688 22.9907C17.872 24.3299 18.5416 25.639 19.2474 26.9239C19.7421 27.8227 20.2548 28.7095 20.7616 29.6023C20.9667 29.9703 21.0873 30.2719 21.2321 30.6761C21.3769 31.0983 21.5216 31.5206 21.6845 31.9369C21.775 32.154 21.8715 32.3772 21.9861 32.5884C21.8776 32.5522 21.769 32.5099 21.6604 32.4798C21.2683 32.3591 20.8701 32.2385 20.478 32.1239C20.098 32.0153 19.6817 31.9429 19.3077 32.1239C18.8794 32.3229 18.6321 32.8236 18.5657 33.27C18.4873 33.7948 18.6864 34.2774 18.7166 34.7902C18.7407 35.134 18.6683 35.5201 18.3606 35.7132C18.1435 35.8519 17.8961 35.9183 17.7212 36.1173C17.4497 36.419 17.4437 36.8533 17.4739 37.2394C17.492 37.4445 17.5282 37.6556 17.5101 37.8607C17.492 38.0899 17.3894 38.3192 17.2748 38.5182C17.1361 38.7475 16.9671 38.9526 16.8465 39.1878C16.7259 39.4352 16.6655 39.7066 16.6535 39.9781C16.6233 40.515 16.8043 41.0217 16.8827 41.5465C16.9129 41.7577 16.943 42.005 16.8586 42.2101C16.7801 42.385 16.6655 42.5359 16.6293 42.7289C16.5328 43.2477 16.943 43.6036 17.124 44.05C17.5523 45.0996 18.1736 46.0347 18.8372 46.9456C19.163 47.3859 19.4827 47.8384 19.8446 48.2486C20.1764 48.6226 20.5323 48.9725 20.8943 49.3163C21.6242 50.01 22.4084 50.6917 22.9453 51.5544C23.2107 51.9827 23.4158 52.4592 23.446 52.9659C23.4641 53.2796 23.4219 53.5933 23.3857 53.907C23.2409 53.8829 23.0599 53.9613 23.0056 54.1121C22.7402 54.8481 23.3857 55.5297 23.9527 55.8977C24.1035 55.9942 24.2604 56.0727 24.4232 56.1269C24.3207 56.1993 24.2242 56.2838 24.1397 56.3863C23.4098 57.3214 23.9105 58.564 24.3509 59.4991C24.6223 60.0842 24.8696 60.6633 25.0808 61.2726C25.3281 61.9844 25.5754 62.6963 25.865 63.39C27.0474 66.2011 28.1573 69.0424 29.3337 71.8596C29.9007 73.2169 30.4678 74.5742 30.9262 75.9737C31.1072 76.5226 31.264 77.0716 31.3907 77.6326C31.4752 78.0187 31.5717 78.447 31.8492 78.7486C32.1448 79.0683 32.4705 79.1105 32.7842 79.002C32.7963 79.014 32.8083 79.0201 32.8204 79.0321C33.2547 79.3217 33.8399 79.3699 34.3466 79.3941C34.98 79.4303 35.6195 79.3941 36.2529 79.3579C37.5438 79.2915 38.8227 79.4665 40.1136 79.4303C41.7002 79.388 43.347 79.0261 44.4329 77.7834C44.6983 77.4818 44.2579 77.0354 43.9865 77.337C43.1298 78.3143 41.9234 78.7124 40.6566 78.815C39.444 78.9175 38.2436 78.7486 37.0371 78.7727C35.9874 78.7908 34.9378 78.9658 33.8881 78.8331C33.7313 78.815 33.484 78.7848 33.2789 78.7064C33.5503 78.4892 33.7916 78.2057 33.9605 77.9704C34.4914 77.2224 35.0162 76.2512 35.1188 75.3222C35.1308 75.2256 35.0343 75.105 34.9378 75.0869C34.0631 74.924 33.3211 76.0642 32.9652 76.6976C32.7118 77.144 32.3318 77.9101 32.4524 78.4892C32.3438 78.4651 32.2413 78.3867 32.1568 78.2298C31.9759 77.892 31.9397 77.4758 31.8612 77.1017C31.7285 76.4864 31.5114 75.8772 31.3063 75.286C30.8599 74.0011 30.335 72.7463 29.8102 71.4916C28.7123 68.8614 27.6989 66.1951 26.5467 63.5891C26.2571 62.9376 25.9977 62.274 25.7564 61.6044C25.5453 61.0132 25.3462 60.41 25.0808 59.8429C24.6706 58.9743 23.8502 57.6894 24.5017 56.7423C24.749 56.3803 25.2075 56.3501 25.6056 56.2959C26.1003 56.2295 26.5648 56.1269 27.0293 55.9279C27.7351 55.6263 28.5253 55.1437 28.9838 54.4741C29.6413 53.907 30.2325 53.2253 30.5944 52.4351C31.0469 51.4518 31.071 50.3418 31.445 49.3344C32.4464 50.2875 33.2487 51.4759 33.8459 52.7126C34.5819 54.2388 35.0162 55.8977 35.6376 57.4722C35.9633 58.2986 36.3615 59.0889 36.7355 59.8912C37.0974 60.6754 37.4594 61.4657 37.8334 62.2499C38.0023 62.5998 38.1712 62.9315 38.4426 63.2211C38.6779 63.4745 38.9554 63.6735 39.2208 63.8967C39.4802 64.1079 39.7215 64.3311 39.8904 64.6146C40.0835 64.9343 40.186 65.2963 40.2825 65.6582C40.4997 66.4967 40.4756 67.3111 40.4333 68.1677C40.3911 69.0062 40.3549 69.8869 40.6505 70.6953C40.735 70.9305 41.0668 71.0029 41.2055 70.7677C42.1466 69.1751 41.6338 67.3111 41.109 65.6703C41.0064 65.3566 40.8436 64.9403 40.9582 64.6086C41.0788 64.2526 41.4166 63.9631 41.6821 63.7097C42.2551 63.1547 42.7558 62.5394 43.3772 62.0327C44.7465 60.9107 46.3632 60.1264 47.9437 59.3483C49.6027 58.5279 51.2676 57.7135 52.9205 56.887C54.6518 56.0244 56.359 55.0532 57.7947 53.7321C58.4402 53.1409 58.9409 52.3687 59.4778 51.681C60.2017 50.7581 60.9376 49.8291 61.8003 49.0328C61.9269 48.9182 62.0717 48.7794 62.2346 48.6467C62.2829 48.7432 62.3733 48.8217 62.494 48.8096C62.8197 48.7734 63.1757 48.701 63.5014 48.7674C63.803 48.8277 64.0021 49.063 64.1589 49.3103C64.6536 50.0885 64.919 51.0114 65.1664 51.8982C65.7334 53.9191 65.8601 56.0063 66.1858 58.0694C66.2341 58.3589 66.6745 58.3288 66.7408 58.0694C67.1933 56.3803 67.1329 54.5766 66.7951 52.8694C66.4633 51.2165 65.8541 49.437 64.8225 48.0797C64.6838 47.8987 64.533 47.7599 64.3821 47.6574C64.726 47.5066 65.0518 47.3256 65.293 47.0361C65.4439 46.8551 65.5404 46.656 65.5645 46.4207C65.5766 46.3242 65.5464 46.1614 65.5886 46.1131C65.7575 45.914 66.2401 45.9683 66.4573 46.0105C66.7891 46.0709 67.1148 46.1794 67.4466 46.2579C67.6035 46.2941 67.7603 46.2096 67.8086 46.0528C67.8749 45.8296 67.887 45.6003 67.893 45.3711C67.893 45.1057 67.893 44.8342 68.1102 44.6472C68.4178 44.3878 68.9366 44.3938 69.3107 44.3938C70.4568 44.3818 71.603 44.3516 72.7491 44.2732C74.0099 44.1887 75.2647 44.0802 76.5255 44.056C77.563 44.0379 78.6609 44.0802 79.5899 43.5372C80.0484 43.2718 80.3802 42.8978 80.712 42.4936C80.8205 42.3609 80.9412 42.2041 81.092 42.1256C81.1885 42.0774 81.2911 42.0653 81.3997 42.0774C81.3635 42.747 81.6832 43.314 82.0813 43.857C82.6182 44.5869 83.2637 45.2324 83.8307 45.9381C84.5003 46.7767 85.0071 47.7539 85.4052 48.7493C85.4474 48.8578 85.544 48.9363 85.6525 48.9544C85.7068 49.25 85.8034 49.5455 85.918 49.823C86.1532 50.3901 86.4488 50.927 86.7444 51.4639C87.0038 51.9465 87.221 52.4592 87.5467 52.9056C87.2753 52.9901 87.0098 53.0866 86.7565 53.2193C86.3463 53.4304 85.9843 53.726 85.6948 54.088C85.3569 54.5042 85.1096 54.9747 84.8683 55.4573C84.5184 56.1692 84.1806 56.887 83.8488 57.6049C83.505 58.3529 83.1792 59.119 82.9138 59.8972C82.6303 60.7176 82.4252 61.5682 82.2261 62.4127C81.8219 64.1441 81.5082 65.8935 81.1946 67.6368C80.5672 71.1055 79.7528 74.55 79.5115 78.073C79.3909 79.8224 79.4813 81.5778 79.3909 83.3333C79.3486 84.1838 79.228 85.0223 79.1435 85.8669C79.0711 86.5968 79.1134 87.3328 79.035 88.0567C79.0108 88.2738 78.9746 88.491 78.9203 88.7021C78.5524 88.2497 78.0155 87.8636 77.7018 87.5198C77.2192 86.9949 76.815 86.4098 76.4048 85.8307C75.9946 85.2456 75.5663 84.6906 75.1139 84.1416C74.2211 83.0618 73.5394 81.8191 72.8517 80.6066C72.2062 79.4725 71.5608 78.26 70.6378 77.325C70.1552 76.8303 69.6123 76.402 69.1056 75.9314C68.635 75.4971 68.1766 75.0266 67.9111 74.4414C67.8689 74.351 67.7603 74.3027 67.6698 74.3027C67.3018 74.2967 66.9218 74.3449 66.5599 74.2243C66.4211 74.176 66.3186 74.2424 66.2643 74.3389C65.5826 74.2243 64.8828 74.1519 64.1951 74.1217C63.3446 74.0855 62.488 74.1398 61.6374 74.1639C60.7928 74.1941 59.9543 74.1639 59.1158 74.1096C57.4207 73.995 55.7316 73.802 54.0365 73.7115C53.4393 73.6813 52.8481 73.6753 52.2509 73.6632C53.1377 73.4943 54.0305 73.3073 54.8871 73.0238C56.2685 72.5714 57.5836 71.938 58.8926 71.3166C59.4778 71.0391 60.0629 70.7556 60.6179 70.4178C61.0764 70.1403 61.5891 69.8146 61.8968 69.3621C61.9631 69.2656 62.0174 69.157 62.0717 69.0424C62.1622 69.0967 62.2587 69.1389 62.3673 69.1691C62.3492 69.8628 61.9933 70.5143 61.8184 71.1779C61.7037 71.5941 61.6434 72.0345 61.5771 72.4628C61.5228 72.8247 61.4443 73.241 61.4685 73.6271C61.4383 73.7115 61.4444 73.808 61.4986 73.8925V73.9045C61.5409 74.0916 61.7822 74.182 61.939 74.0855C61.939 74.0855 61.945 74.0855 61.9511 74.0795C62.0114 74.0433 62.0536 73.9769 62.0778 73.9106C62.0898 73.8684 62.0959 73.8322 62.0898 73.7899C62.1079 73.5909 62.1019 73.3918 62.1139 73.1927C62.132 72.9514 62.1562 72.7162 62.1924 72.4809C62.2527 72.0526 62.307 71.6122 62.4276 71.196C62.6388 70.448 63.0188 69.6939 62.8861 68.8976C62.868 68.783 62.7353 68.6986 62.6267 68.7046C62.4759 68.7046 62.3432 68.6624 62.2286 68.596C62.2949 68.3366 62.3311 68.0712 62.3552 67.8238C62.4035 67.3292 62.4035 66.6898 62.0295 66.3157C61.939 66.2253 61.8063 66.2373 61.7158 66.3157C61.0703 66.8828 61.1246 67.9988 61.6374 68.6744C61.5891 68.7951 61.5409 68.9157 61.4745 69.0243C61.2634 69.3802 60.7808 69.6818 60.4128 69.9171C59.9121 70.2308 59.3813 70.4962 58.8504 70.7556C57.668 71.3227 56.4736 71.8957 55.243 72.3542C54.3321 72.6981 53.3971 72.9152 52.45 73.1324C51.9855 73.2349 51.521 73.3435 51.0504 73.428C50.8634 73.4642 50.6764 73.4943 50.4894 73.5185C50.4291 73.5245 50.3567 73.5366 50.3085 73.5426C50.2542 73.5486 50.2361 73.5245 50.2723 73.5607C50.218 73.5064 50.1275 73.5185 50.0792 73.5667C49.7716 73.5366 49.4639 73.5124 49.1563 73.4762C47.5697 73.3194 45.9772 73.1565 44.3906 73.3858C44.0166 73.4401 43.6486 73.5185 43.2867 73.6271C43.0454 73.6994 42.7739 73.7839 42.5869 73.9588C42.2129 74.3027 42.4422 74.7491 42.6955 75.0809C43.166 75.7022 43.6909 76.2874 44.1735 76.8966C44.7043 77.5602 45.2291 78.2238 45.7359 78.9054C46.7433 80.2446 47.7628 81.5839 48.7038 82.9653C49.5966 84.2683 50.3989 85.6376 51.4305 86.8441C52.4982 88.0989 53.6444 89.2812 54.6578 90.5782C56.6727 93.1601 58.9107 95.5429 60.9979 98.0584C61.5047 98.6677 62.0054 99.2951 62.488 99.9225C62.8499 100.399 63.2661 100.912 63.791 101.213C64.352 101.533 65.0035 101.352 65.5886 101.213C66.023 101.117 66.4694 101.087 66.9158 101.075C66.8132 101.539 66.8977 102.034 67.0545 102.486C67.0666 102.516 67.0787 102.541 67.0967 102.571C67.1209 103.439 67.3079 104.296 67.513 105.135C67.6336 105.623 67.7603 106.112 67.8749 106.606C67.9835 107.065 68.1162 107.56 68.1223 108.03C68.1283 108.489 67.9172 108.923 67.8749 109.375C67.8508 109.617 67.8749 109.894 67.9956 110.123C67.9232 110.226 67.8629 110.341 67.8146 110.467C67.6216 110.974 67.6457 111.547 67.6276 112.084C67.6216 112.337 67.6095 112.597 67.5612 112.844C67.4889 113.218 67.3501 113.58 67.2717 113.948C67.1812 114.388 67.1631 114.877 67.332 115.293C67.2657 115.275 67.2053 115.257 67.139 115.245C67.0123 115.221 66.8856 115.215 66.7529 115.227C66.578 115.239 66.4875 115.281 66.3849 115.414C66.3728 115.432 66.3668 115.456 66.3608 115.474C65.4378 115.927 64.8466 116.898 64.4364 117.809C63.7487 119.317 63.3566 120.958 63.049 122.58C62.7353 124.245 62.5181 125.928 62.3552 127.611C62.1984 129.21 62.1743 130.833 61.9149 132.419C61.4624 135.146 60.4912 137.74 59.7372 140.388C58.9891 143.024 58.7237 145.642 58.5608 148.369C58.41 150.86 58.2653 153.358 57.6137 155.777C56.9321 158.317 55.5145 160.573 54.9052 163.136C54.6096 164.373 54.4889 165.646 54.501 166.913C54.5131 168.318 54.4286 169.645 54.1692 171.033C53.94 172.257 53.6565 173.512 53.6504 174.767C53.6504 176.13 53.946 177.482 54.1753 178.821C54.6759 181.728 54.5855 184.751 54.4588 187.688C54.32 190.813 54.3261 193.938 54.308 197.069C54.2718 203.264 53.5599 209.423 53.6203 215.625C53.6806 221.784 54.1813 227.925 54.7363 234.054C54.863 235.429 54.9474 236.787 55.2732 238.132C55.5627 239.314 55.6472 240.4 54.6639 241.251C53.9762 241.848 53.5117 242.427 53.2945 243.338C53.1316 244.038 53.1739 244.798 53.6866 245.341C53.7711 245.431 53.8676 245.509 53.9641 245.588C53.753 245.721 53.5841 245.908 53.4634 246.167C53.2463 246.644 53.0291 247.06 52.649 247.434C52.2026 247.88 51.6899 248.272 51.1952 248.658C50.966 248.833 50.7428 249.014 50.5196 249.195C50.4774 249.129 50.3929 249.087 50.2964 249.129C49.6027 249.443 48.7581 249.473 48.0041 249.485C47.1595 249.497 46.315 249.449 45.4704 249.437C44.4389 249.424 43.4134 249.491 42.3818 249.479C41.1814 249.467 39.9809 249.431 38.7805 249.4C36.3735 249.346 33.9786 249.473 31.5777 249.611C29.1587 249.75 26.7397 249.901 24.3147 249.992C21.8957 250.082 19.4706 250.046 17.0516 250.136C15.5857 250.191 14.1259 250.269 12.66 250.347C12.1593 250.329 11.6646 250.317 11.1639 250.299C9.96348 250.257 8.76302 250.185 7.5686 250.028C6.38624 249.877 5.22801 249.624 4.07582 249.322C3.55703 249.189 3.02014 249.063 2.48325 249.087C1.94636 249.111 1.47584 249.292 1.02944 249.587C0.733846 249.78 0.347769 250.022 0.359834 250.426C0.371899 250.842 0.848463 251.132 1.20438 251.228C1.9524 251.433 2.80297 251.252 3.55703 251.192C4.03963 251.156 4.52222 251.174 5.00481 251.174C5.63219 251.174 6.25956 251.174 6.88694 251.174C9.10688 251.174 11.3208 251.059 13.5347 250.945C14.6205 250.999 15.7064 251.102 16.7922 251.15C17.3653 251.174 17.9384 251.15 18.5115 251.12C18.7166 251.108 18.7166 250.806 18.5115 250.8C18.2219 250.794 17.9384 250.776 17.6488 250.752C17.7755 250.752 17.8961 250.74 18.0228 250.74C19.2896 250.703 20.5565 250.715 21.8233 250.691C24.3267 250.643 26.8362 250.51 29.3337 250.36C31.8311 250.215 34.3285 249.998 36.832 249.979C39.3294 249.961 41.8268 250.13 44.3243 250.016C46.0315 249.937 47.805 250.154 49.488 249.78C49.6208 249.75 49.7474 249.714 49.8741 249.666C49.8198 249.708 49.7655 249.75 49.7052 249.792C48.6495 250.553 47.4973 251.204 46.2728 251.656C45.4161 251.97 44.5414 252.157 43.6486 252.332C42.8101 252.501 41.9716 252.688 41.1633 252.978C40.4213 253.243 39.625 253.605 39.1122 254.232C38.5814 254.878 38.503 255.759 38.7563 256.543C38.9976 257.297 39.5707 257.804 40.2886 258.093C41.0306 258.389 41.863 258.449 42.6533 258.467C43.4254 258.485 44.1976 258.443 44.9697 258.461C46.4718 258.491 47.9679 258.304 49.4639 258.129C50.218 258.039 50.972 257.954 51.7321 257.894C52.4138 257.846 53.1015 257.834 53.7831 257.804C54.4588 257.773 55.1404 257.725 55.804 257.586C56.4133 257.46 56.9441 257.194 57.4328 256.814C57.9093 256.446 58.3437 256.024 58.8444 255.686C59.3692 255.33 59.9302 255.041 60.5093 254.793C60.7567 254.691 61.01 254.594 61.2694 254.504C61.2392 254.733 61.197 254.98 61.2513 255.21C61.3901 255.807 62.1019 255.819 62.5784 255.753C63.3084 255.656 64.0443 255.602 64.7743 255.517C65.5404 255.427 66.3005 255.324 67.0605 255.198C68.4299 254.974 69.8536 255.131 71.1988 254.745C71.6633 254.612 72.1218 254.377 72.2243 253.858C72.3027 253.454 72.2967 252.839 71.8865 252.616C71.8865 252.616 71.8744 252.616 71.8684 252.61C71.9529 251.27 71.8925 249.925 71.7598 248.592C71.7598 248.568 71.7598 248.55 71.7538 248.526C72.0434 248.586 72.357 248.598 72.6466 248.598C73.2197 248.604 73.7867 248.556 74.3538 248.508C74.8665 248.465 75.3733 248.405 75.886 248.399C76.634 248.387 77.376 248.399 78.1241 248.399C81.2127 248.399 84.3013 248.405 87.3899 248.381C89.0488 248.369 90.7198 248.405 92.3727 248.296C92.3787 248.689 92.3727 249.075 92.1615 249.406C92.1133 249.485 92.1615 249.563 92.2279 249.593C92.2158 249.69 92.1977 249.78 92.1857 249.877C92.1434 250.245 92.1676 250.631 92.3908 250.939C92.4209 250.975 92.4511 251.011 92.4813 251.047C92.4149 251.047 92.3546 251.041 92.2882 251.047C92.1193 251.047 91.9866 251.216 92.0349 251.379C92.5175 253.02 92.0228 254.721 91.2808 256.199C90.9008 256.953 90.4423 257.653 89.9959 258.365C89.6219 258.95 89.2599 259.577 89.1875 260.277C89.1152 260.977 89.4108 261.646 89.7848 262.225C89.9356 262.461 90.0984 262.744 90.2975 262.973C90.2855 263.01 90.2794 263.046 90.2794 263.106C90.2794 263.257 90.3458 263.39 90.4363 263.504C90.6112 263.715 90.8646 263.86 91.1119 263.975C91.8961 264.337 92.7648 264.53 93.6033 264.699C94.4659 264.874 95.3346 265.006 96.2093 265.109C97.078 265.211 97.9346 265.199 98.8033 265.097C100.438 264.91 102.278 264.397 103.43 263.136C103.472 263.088 103.497 263.034 103.509 262.985C103.804 262.654 103.852 262.153 103.973 261.743C104.058 261.447 104.172 261.17 104.341 260.904C104.516 260.633 104.715 260.385 104.884 260.114C105.294 259.469 105.385 258.684 105.367 257.936C105.342 257.11 105.198 256.283 105.059 255.469C104.908 254.588 104.733 253.714 104.637 252.827C104.588 252.398 104.594 251.964 104.594 251.536C104.594 250.993 104.594 250.45 104.558 249.907C104.534 249.473 104.516 249.002 104.365 248.592C104.353 248.55 104.335 248.514 104.317 248.477C104.347 248.351 104.365 248.218 104.383 248.085C104.401 248.103 104.425 248.115 104.462 248.109C104.462 248.109 104.468 248.109 104.474 248.109C104.486 248.128 104.492 248.152 104.51 248.17C105.216 248.948 106.428 249.02 107.406 249.032C108.672 249.044 109.927 248.87 111.182 248.737C112.853 248.562 114.566 248.67 116.249 248.67H122.523C126.709 248.67 130.896 248.55 135.082 248.423C139.263 248.296 143.443 248.26 147.624 248.206C151.786 248.158 155.937 247.91 160.105 248.031C162.162 248.091 164.219 248.194 166.282 248.26C168.369 248.327 170.457 248.321 172.544 248.387C173.515 248.417 174.486 248.417 175.451 248.447C176.224 248.471 176.996 248.55 177.774 248.508C178.45 248.471 179.119 248.339 179.698 247.971C179.747 247.94 179.801 247.904 179.855 247.868C181.237 248.321 182.829 248.194 184.247 248.115C186.28 248.007 188.307 247.82 190.333 247.657C194.496 247.331 198.64 247.446 202.803 247.494C203.834 247.506 204.86 247.488 205.891 247.44C206.199 247.428 206.199 246.975 205.891 246.957L205.927 246.945ZM20.0799 27.0747C19.4043 25.8742 18.7286 24.6678 18.0952 23.4432C17.498 22.297 16.9008 21.1207 16.4966 19.8901C16.3579 19.4678 16.2252 19.0093 16.2131 18.5629C16.2071 18.394 16.2131 18.2673 16.2553 18.1165C16.2794 18.026 16.3217 17.9536 16.376 17.8994C16.7439 18.7861 17.1602 19.6669 17.5463 20.5476C17.9746 21.5188 18.3848 22.4961 18.795 23.4733C19.4947 25.1443 20.1824 26.8153 20.8882 28.4803C20.6168 28.0097 20.3453 27.5452 20.0799 27.0747ZM33.1643 77.4577C33.3573 76.9871 33.6348 76.5287 33.9666 76.1426C34.1053 75.9797 34.3526 75.6841 34.612 75.5816C34.4612 76.2753 34.051 76.9751 33.671 77.5361C33.5443 77.7231 33.2608 78.1092 32.9591 78.3263C32.923 78.0428 33.0677 77.6809 33.1643 77.4516V77.4577ZM22.6859 32.3712C22.6859 32.3712 22.7221 32.4134 22.7402 32.4194V32.4315C22.7402 32.4315 22.7402 32.4315 22.7402 32.4375C22.7402 32.4677 22.7462 32.4979 22.7462 32.522C22.7161 32.4918 22.7161 32.4918 22.6738 32.4315C22.5773 32.2867 22.4989 32.1359 22.4265 31.9791C22.3541 31.8162 22.2878 31.6533 22.2274 31.4904C22.3722 31.786 22.523 32.0756 22.6799 32.3712H22.6859ZM31.0831 48.6467C30.6849 49.4913 30.5944 50.4082 30.3712 51.301C30.1661 52.1154 29.768 52.8212 29.207 53.4365C29.1466 53.4003 29.0743 53.3822 28.9958 53.4063C27.8979 53.726 27.162 54.6792 26.1244 55.1075C25.3643 55.4211 24.1759 55.2824 23.7476 54.5344C23.7597 54.4017 23.8019 54.269 23.826 54.1423C23.9346 53.6657 24.007 53.1831 23.9467 52.6945C23.826 51.7474 23.2529 50.9511 22.6376 50.2513C21.9861 49.5094 21.2442 48.8458 20.5685 48.1219C19.8748 47.3739 19.2715 46.5233 18.7105 45.6727C18.421 45.2384 18.1555 44.786 17.9082 44.3275C17.7815 44.0922 17.6669 43.857 17.5402 43.6217C17.4256 43.4166 17.2326 43.2477 17.1421 43.0305C17.0697 42.8616 17.13 42.7108 17.2145 42.56C17.3231 42.379 17.3894 42.198 17.4075 41.9809C17.4437 41.4862 17.2808 41.0036 17.1964 40.521C17.1602 40.2858 17.1421 40.0445 17.1783 39.8092C17.2205 39.5257 17.3472 39.3025 17.504 39.0732C17.7695 38.6872 18.0168 38.277 18.0409 37.7944C18.059 37.4022 17.8961 36.9619 18.0409 36.5818C18.1193 36.3767 18.3003 36.3164 18.4994 36.2199C19.2595 35.8398 19.3319 35.0255 19.1931 34.2593C19.1026 33.7586 19.0061 33.27 19.3017 32.8176C19.5008 32.5099 19.8084 32.4798 20.1402 32.5522C20.5384 32.6366 20.9124 32.7935 21.3045 32.902C21.6604 32.9986 22.0163 33.1252 22.3541 33.2761C23.0901 33.6078 23.82 34.0603 24.3267 34.6997C24.5439 34.9712 24.7128 35.2909 24.7852 35.6287C24.8817 36.0811 24.7611 36.5215 24.5922 36.9438C24.5017 37.173 24.4051 37.3962 24.3267 37.6254C24.2362 37.9029 24.2 38.1925 24.1759 38.4881C24.1337 38.8923 24.1156 39.2964 24.0613 39.7006C24.007 39.8273 23.9527 39.954 23.8924 40.0746C23.7838 40.3099 23.6632 40.5331 23.5244 40.7563C23.5244 40.7563 23.5244 40.7563 23.5184 40.7623C23.4943 40.7864 23.4762 40.8106 23.452 40.8347C23.3857 40.9071 23.3133 40.9795 23.2469 41.0519C22.8789 41.4319 22.4748 41.8361 22.2214 42.3066C22.1249 42.4876 22.0344 42.7229 22.155 42.9159C22.2998 43.1512 22.6135 43.127 22.8488 43.0848C23.627 42.94 23.9768 42.0653 24.2121 41.4078C24.3267 41.082 24.4232 40.7502 24.5077 40.4185C24.5982 40.0625 24.6464 39.7066 24.6766 39.3447C24.749 39.1396 24.8214 38.9345 24.8938 38.7354C25.1049 38.1201 25.31 37.4807 25.3703 36.8292C25.3824 36.6904 25.3884 36.5396 25.3462 36.4069C25.3945 36.1354 25.4005 35.864 25.3522 35.5804C25.2075 34.7419 24.5922 34.0723 23.9346 33.5777C23.7175 33.4148 23.4882 33.27 23.2469 33.1373C23.5003 32.9201 23.3917 32.3531 23.3434 32.0756C23.2228 31.4362 23.0358 30.8088 22.897 30.1693C22.8307 29.8677 22.7643 29.5178 22.7342 29.2524C22.7161 29.1076 22.704 28.9689 22.71 28.8241C22.71 28.7638 22.71 28.7035 22.7221 28.6431C22.7221 28.6371 22.7161 28.6793 22.7221 28.613C22.7221 28.5888 22.7342 28.5647 22.7402 28.5346C22.7462 28.5104 22.7523 28.4863 22.7583 28.4622C22.7764 28.4079 22.7583 28.4501 22.7583 28.4501C22.7643 28.432 22.7764 28.4139 22.7885 28.3958C22.7885 28.3958 22.7885 28.3958 22.7945 28.3837C22.7945 28.3837 22.7945 28.3777 22.8005 28.3717C22.8066 28.3717 22.8126 28.3596 22.8247 28.3536C22.8367 28.3536 22.8669 28.3536 22.8669 28.3536C22.885 28.3536 22.9091 28.3536 22.9272 28.3536C22.9272 28.3536 22.897 28.3415 22.9513 28.3536C23.0237 28.3717 23.0901 28.3958 23.1504 28.432C23.3133 28.5225 23.44 28.6673 23.5425 28.8181C23.8079 29.2102 23.9587 29.6626 24.0915 30.1151C24.2362 30.5916 24.381 31.0621 24.5801 31.5206C24.8455 32.1299 25.1773 32.703 25.4488 33.3062C25.7323 33.9276 25.859 34.5911 26.0882 35.2306C26.5406 36.4974 27.2525 37.6556 27.8255 38.8681C28.0608 39.3688 28.2418 39.8997 28.4831 40.4004C28.7183 40.889 28.9717 41.3656 29.2009 41.8602C29.4181 42.3307 29.6353 42.8254 29.6956 43.3502C29.7077 43.4648 29.7077 43.5674 29.6956 43.67C29.6654 43.7001 29.6413 43.7303 29.6292 43.7725C29.581 43.9595 29.5388 44.1465 29.4905 44.3396C29.4302 44.4662 29.3517 44.5869 29.2733 44.7136C28.9476 45.2203 28.5555 45.6848 28.2599 46.2096C27.91 46.837 27.53 47.4342 27.1258 48.0254C26.9267 48.321 26.7276 48.6105 26.5346 48.9121C26.426 49.0811 26.607 49.2379 26.7638 49.2138C28.6218 48.9483 29.3638 46.8068 29.768 45.2505C29.8102 45.0815 29.8524 44.9066 29.8947 44.7317C29.9972 45.3047 29.9791 45.902 30.1299 46.463C30.335 47.2231 30.7633 47.8927 31.065 48.6166C31.065 48.6166 31.0589 48.6286 31.0529 48.6347L31.0831 48.6467ZM23.627 41.3535C23.5244 41.631 23.4038 41.9024 23.2409 42.1498C23.0901 42.379 22.9151 42.5359 22.6497 42.5901C22.6557 42.572 22.6678 42.5539 22.6678 42.5479C22.6919 42.4997 22.7221 42.4574 22.7462 42.4152C22.8066 42.3187 22.8789 42.2222 22.9513 42.1317C23.1142 41.9205 23.2952 41.7215 23.4761 41.5224C23.5304 41.4681 23.5787 41.4078 23.627 41.3535ZM29.219 45.5098C29.1647 45.7089 29.1044 45.902 29.0381 46.095C28.7847 46.8551 28.4348 47.6393 27.8436 48.2003C27.6627 48.3692 27.4636 48.508 27.2464 48.6105C27.548 48.1581 27.8557 47.7057 28.1392 47.2412C28.4831 46.6862 28.7726 46.1191 29.1587 45.5883C29.1768 45.5581 29.2009 45.534 29.219 45.5038V45.5098ZM41.0125 67.5102C41.115 68.0289 41.1633 68.5598 41.121 69.0846C41.109 69.2656 41.0728 69.4405 41.0306 69.6095C40.9461 68.9218 40.9944 68.216 41.0125 67.5102ZM64.8828 49.2017C65.3051 49.9497 65.6369 50.74 65.8903 51.5544C66.3367 52.9901 66.578 54.5163 66.4995 56.0184C66.2884 54.4198 66.0773 52.8332 65.6188 51.2708C65.3534 50.3841 65.0518 49.3646 64.4304 48.6588C64.1047 48.2848 63.7065 48.1762 63.2782 48.1702C63.3747 48.1038 63.4833 48.0495 63.5859 47.9952C63.7065 47.9952 63.8272 48.0073 63.9418 48.0495C64.3942 48.2244 64.6596 48.8036 64.8828 49.1957V49.2017ZM61.8666 66.8526C61.9511 67.1422 61.9028 67.5222 61.8666 67.7756C61.8546 67.854 61.8425 67.9385 61.8304 68.0169C61.6917 67.6429 61.6977 67.1784 61.8666 66.8526ZM6.36211 250.498C5.34866 250.498 4.32918 250.45 3.32176 250.54C2.92965 250.577 2.54358 250.619 2.15147 250.625C1.81969 250.631 1.45171 250.643 1.18025 250.45C1.13802 250.42 1.08373 250.39 1.05357 250.347C1.05357 250.335 1.06563 250.317 1.08373 250.299C1.25263 250.16 1.40948 250.028 1.59649 249.913C2.05495 249.636 2.57977 249.587 3.1046 249.654C3.62942 249.72 4.14218 249.883 4.65493 250.01C5.21595 250.148 5.783 250.269 6.35608 250.372C6.59738 250.414 6.83264 250.45 7.07394 250.486C6.83264 250.486 6.59738 250.486 6.35608 250.486L6.36211 250.498ZM108.473 107.988C109.089 108.247 109.239 109.134 109.402 109.695C109.535 110.16 109.662 110.63 109.746 111.113C109.819 111.523 109.879 111.975 109.794 112.392C109.776 112.476 109.752 112.548 109.722 112.621C109.668 112.669 109.638 112.735 109.631 112.802C109.336 113.308 108.751 113.628 108.214 113.839C107.363 114.177 106.464 114.376 105.596 114.654C104.444 115.022 103.303 115.438 102.145 115.8C100.975 116.168 99.7805 116.439 98.5861 116.705C97.3675 116.976 96.149 117.242 94.9184 117.459C93.6817 117.676 92.439 117.809 91.1903 117.917C90.0019 118.02 88.8196 118.14 87.6734 118.478C87.5347 118.52 87.3959 118.563 87.2572 118.599C87.3658 118.267 87.3597 117.881 87.3537 117.543C87.3416 116.934 87.2391 116.331 87.221 115.721C87.1908 114.762 87.3054 113.701 86.8952 112.808C86.8771 112.766 86.853 112.723 86.8289 112.681C87.04 112.669 87.2451 112.651 87.4562 112.633C88.2767 112.56 89.085 112.44 89.8933 112.289C91.3351 112.072 92.7648 111.806 94.1884 111.487C96.0887 111.058 97.9527 110.491 99.8107 109.906C100.565 109.707 101.313 109.496 102.067 109.297C103.291 108.971 104.534 108.7 105.753 108.356C106.326 108.199 106.905 108.036 107.49 107.934C107.81 107.879 108.178 107.837 108.485 107.97L108.473 107.988ZM86.1351 114.611C85.9119 114.177 85.3931 113.634 85.4957 113.109C85.5198 112.983 85.5862 112.874 85.6706 112.784C85.8999 112.766 86.1291 112.747 86.3523 112.723C86.3764 112.747 86.4006 112.76 86.4187 112.79C86.6841 113.146 86.7384 113.664 86.7746 114.093C86.8108 114.545 86.7987 114.998 86.7927 115.45C86.7806 115.933 86.8289 116.409 86.859 116.886C86.8892 117.386 86.9676 118.026 86.7505 118.496C86.6901 118.617 86.5936 118.708 86.479 118.774C86.4609 118.774 86.4428 118.774 86.4247 118.774C86.3221 118.11 86.3704 117.429 86.4006 116.765C86.4368 116.017 86.485 115.287 86.1351 114.599V114.611ZM85.8516 118.919C85.8516 118.919 85.8516 118.919 85.8456 118.919C85.4414 118.876 85.0312 118.888 84.621 118.87C84.0781 118.846 83.5653 118.701 83.143 118.346C82.7992 118.056 82.5579 117.682 82.3287 117.296C82.0813 116.886 81.7918 116.482 81.6108 116.041C81.3273 115.353 81.3152 114.581 81.7435 113.954C82.1839 113.302 82.9922 112.989 83.7463 112.904C84.1867 112.886 84.627 112.856 85.0674 112.826C84.9709 113.073 84.9528 113.363 85.0312 113.628C85.2182 114.262 85.7491 114.756 85.8576 115.426C85.924 115.848 85.8697 116.313 85.8395 116.741C85.8094 117.187 85.7792 117.634 85.7792 118.086C85.7792 118.364 85.8034 118.641 85.8456 118.919H85.8516ZM129.943 86.0418C129.75 85.5894 129.539 85.143 129.333 84.6966C129.406 84.7388 129.484 84.769 129.563 84.7931C129.689 84.8293 129.804 84.8172 129.907 84.7871C129.919 85.2094 129.931 85.6256 129.943 86.0479V86.0418ZM104.184 41.4198C105.493 42.2946 106.929 42.9581 108.359 43.6338C110.778 44.7799 113.251 45.7813 115.718 46.8068C116.436 47.1084 117.154 47.4221 117.83 47.8142C118.499 48.2003 119.205 48.6829 119.579 49.3827C119.736 49.6783 119.784 49.992 119.742 50.3237C119.724 50.4926 119.899 50.6314 120.05 50.6314C120.23 50.6314 120.339 50.4866 120.357 50.3237C120.369 50.2212 120.375 50.1186 120.375 50.0161C120.375 50.0221 120.381 50.0281 120.387 50.0342C120.442 50.1548 120.466 50.372 120.49 50.5349C120.568 51.114 120.828 51.6388 121.129 52.1335C121.835 53.3098 122.456 54.5042 122.903 55.8072C123.379 57.1826 123.669 58.6183 124.001 60.036C124.339 61.4898 124.67 62.9496 125.014 64.3974C125.364 65.8392 125.66 67.293 125.955 68.7468C126.1 69.4586 126.251 70.1644 126.426 70.8702C126.601 71.5821 126.842 72.2818 127.017 72.9936C127.367 74.4294 127.403 75.9194 127.837 77.337C128.036 77.9946 128.302 78.6219 128.525 79.2734C128.76 79.9551 128.893 80.6368 129.014 81.3426C129.074 81.6924 129.14 82.0483 129.249 82.3862C129.321 82.6154 129.436 82.8326 129.545 83.0437C129.641 83.2367 129.798 83.5022 129.864 83.7676C129.448 83.659 129.032 83.5444 128.628 83.4177C128.555 83.3936 128.489 83.3996 128.435 83.4177C128.423 83.4057 128.404 83.3936 128.392 83.3815C128.296 83.3091 128.139 83.1704 128.006 83.1885C127.88 83.2066 127.813 83.291 127.831 83.4177C127.856 83.5444 127.916 83.6469 127.982 83.7555C128.03 83.834 128.175 83.8159 128.181 83.7193C128.199 83.7314 128.211 83.7435 128.223 83.7495C128.223 83.8038 128.23 83.8521 128.254 83.9003C128.712 84.962 129.267 85.9755 129.665 87.0613C129.792 87.3991 129.894 87.749 129.979 88.0989C130.003 90.3007 129.979 92.5026 129.882 94.7044C129.828 95.9531 129.828 97.425 128.965 98.4325C128.03 99.5243 126.492 99.9888 125.141 100.321C123.488 100.719 121.811 101.038 120.14 101.322C118.397 101.618 116.641 101.841 114.874 101.937C113.082 102.034 111.309 101.949 109.523 101.841C108.642 101.786 107.761 101.738 106.875 101.726C106.006 101.72 105.149 101.799 104.293 101.907C103.448 102.01 102.604 102.106 101.753 102.082C100.897 102.058 100.046 101.931 99.1954 101.835C98.3569 101.744 97.5003 101.678 96.6617 101.786C95.9258 101.889 95.2079 102.118 94.4659 102.161C94.1824 102.179 93.9049 102.161 93.6335 102.094C93.6757 101.913 93.7481 101.732 93.8386 101.569C93.8687 101.515 93.8567 101.455 93.8325 101.406C94.0799 101.268 94.2488 100.942 94.3453 100.652C94.5745 99.9345 94.5986 99.1443 94.6167 98.3963C94.6288 97.8835 94.665 97.3466 94.5926 96.8339C94.484 96.0798 94.2669 95.3499 94.1522 94.5958C94.098 94.2098 94.0497 93.7573 94.1221 93.3954C94.1341 93.329 94.1643 93.2204 94.1824 93.1842C94.1945 93.148 94.2608 93.0515 94.2669 93.0455C94.297 93.0093 94.3272 92.9912 94.3634 92.9731C94.4237 93.2023 94.5021 93.4195 94.6107 93.6306C94.6831 93.7694 94.8641 93.7995 94.9968 93.7332C95.6966 93.3773 96.2515 92.7982 96.9513 92.4422C97.7898 92.0139 98.7972 92.0079 99.7202 92.0079C101.777 92.0079 103.858 92.1587 105.909 91.9838C106.374 91.9416 106.832 91.8812 107.291 91.8028C107.309 91.8149 107.333 91.8269 107.357 91.8269C107.593 91.8511 107.822 91.7787 108.027 91.6701C108.31 91.6158 108.588 91.5615 108.865 91.5012C109.366 91.3986 109.867 91.2901 110.373 91.1935C110.826 91.1091 111.278 91.0608 111.737 90.9884C112.225 90.916 112.738 90.8135 113.179 90.5843C113.191 90.5843 113.209 90.5963 113.221 90.5963C113.83 90.6627 114.439 90.4636 114.735 89.8905C115.006 89.3536 115.006 88.7202 114.97 88.1351C114.928 87.4896 114.837 86.8441 114.825 86.1987C114.813 85.0525 114.964 83.9063 115.037 82.7662C115.109 81.5959 115.012 80.4377 114.952 79.2734C114.892 78.0911 114.85 76.9087 114.844 75.7263C114.831 73.8623 114.801 72.0043 114.723 70.1463C114.693 69.3983 114.632 68.6322 114.427 67.9143C114.258 67.3171 113.957 66.6535 113.305 66.4726C113.16 66.4304 113.022 66.5208 112.973 66.6596C112.78 67.2085 112.762 67.7937 112.811 68.3788C112.786 68.5658 112.768 68.7528 112.75 68.9338C112.696 69.4043 112.66 69.8749 112.618 70.3394C112.539 71.2744 112.467 72.2094 112.328 73.1384C112.063 74.9723 111.815 76.8122 111.52 78.64C111.375 79.5509 111.224 80.4618 111.049 81.3667C110.886 82.2293 110.675 83.0799 110.542 83.9486C110.289 85.5653 110.199 87.2543 109.559 88.7806C109.318 89.3657 109.022 89.9267 108.66 90.4455C108.509 90.6627 108.341 90.8617 108.16 91.0488C107.49 91.1875 106.82 91.3082 106.145 91.3805C104.136 91.5977 102.091 91.4409 100.07 91.4409C99.0084 91.4409 97.8863 91.4228 96.891 91.8511C96.1852 92.1527 95.6302 92.7016 94.9787 93.0938C94.9123 92.9248 94.8701 92.7559 94.8339 92.575C94.8158 92.4603 94.6771 92.3638 94.5625 92.3699C94.1643 92.3759 93.9109 92.5689 93.7481 92.8344C93.3258 92.8887 92.9397 92.762 92.5597 92.5931C92.1133 92.394 91.691 92.1406 91.2808 91.8812C90.8646 91.6158 90.4664 91.3262 90.0562 91.0427C89.6882 90.7894 89.3142 90.5662 88.9342 90.3249C88.8437 90.2706 88.7592 90.2102 88.6688 90.1499C88.7834 90.0775 88.8558 89.9388 88.7713 89.788C88.5662 89.4019 88.5481 88.9434 88.5662 88.5151C88.5903 88.0506 88.6688 87.5861 88.7592 87.1337C88.9824 86.0177 89.2237 84.9077 89.3926 83.7797C89.5797 82.549 89.5978 81.3003 89.7968 80.0697C89.9959 78.8512 90.2915 77.6507 90.5267 76.4382C91.0033 73.9166 90.9912 71.3347 91.0697 68.783C91.1481 66.2494 91.2929 63.7158 91.2989 61.1821C91.3049 58.3348 91.2386 55.4754 90.9732 52.6402C90.9611 52.5135 90.8887 52.4411 90.768 52.417C91.3291 51.9223 91.8298 51.3673 92.3606 50.8425C92.7768 50.4384 93.2233 50.1005 93.6998 49.7808C94.3393 49.3525 95.3165 48.7553 95.7146 47.9771C95.962 48.1641 96.2153 48.3391 96.4747 48.508C96.8065 48.7191 97.2228 48.9725 97.6269 48.9725C98.0371 48.9725 98.4051 48.695 98.7007 48.4416C99.4065 47.8384 99.9193 47.0421 100.583 46.3906C101.071 45.914 101.566 45.4495 102.055 44.979C102.525 44.5326 103.02 44.0983 103.418 43.5795C103.913 42.934 104.202 42.192 104.16 41.4198H104.184ZM114.162 89.1968C114.083 88.8348 114.005 88.4789 113.951 88.111C113.872 87.5801 113.812 87.0492 113.782 86.5184C113.752 86.0418 113.764 85.5592 113.734 85.0827C113.709 84.6544 113.673 84.2321 113.679 83.8038C113.679 83.6108 113.685 83.4117 113.715 83.2187C113.848 83.4841 113.957 83.7616 114.077 84.027C114.12 84.1235 114.198 84.1597 114.283 84.1597C114.258 84.4131 114.234 84.6664 114.216 84.9138C114.15 85.7402 114.15 86.5546 114.234 87.381C114.295 87.9843 114.385 88.6659 114.258 89.233C114.228 89.3778 114.186 89.5044 114.126 89.607C114.174 89.4803 114.198 89.3476 114.162 89.1908V89.1968ZM114.083 76.8363C114.065 76.2512 114.108 75.666 114.102 75.0869C114.089 74.4897 114.023 73.8925 113.945 73.3013C113.866 72.7041 113.776 72.1129 113.721 71.5097C113.673 71.009 113.655 70.5083 113.589 70.0076C113.541 69.6577 113.48 69.2958 113.426 68.9338C113.486 68.4814 113.571 68.0229 113.565 67.5644C113.565 67.4257 113.486 67.3413 113.384 67.3051C113.396 67.2387 113.402 67.1723 113.414 67.106C113.691 67.3171 113.848 67.7092 113.939 68.041C114.114 68.6503 114.168 69.2897 114.204 69.9171C114.295 71.6002 114.325 73.2953 114.331 74.9844C114.331 76.1004 114.331 77.2164 114.355 78.3263C114.379 79.1648 114.439 80.0094 114.457 80.8479C114.325 79.5087 114.126 78.1755 114.083 76.8303V76.8363ZM113.516 74.5319C113.559 75.1412 113.516 75.7505 113.522 76.3597C113.534 77.53 113.679 78.6943 113.818 79.8525C113.933 80.8117 114.041 81.7769 114.059 82.7421C113.999 82.6395 113.939 82.537 113.872 82.4405C113.758 82.2836 113.51 82.2474 113.402 82.4405C113.052 83.0558 113.106 83.8521 113.142 84.5337C113.185 85.3722 113.179 86.2168 113.251 87.0553C113.293 87.5137 113.347 87.9662 113.414 88.4246C113.444 88.6418 113.468 88.859 113.516 89.0761C113.534 89.1485 113.553 89.2149 113.571 89.2873C113.571 89.3054 113.583 89.3295 113.589 89.3476C113.589 89.3597 113.589 89.3597 113.595 89.3597C113.595 89.3597 113.595 89.3597 113.595 89.3717C113.595 89.3174 113.583 89.4019 113.577 89.414C113.547 89.4803 113.498 89.5467 113.45 89.607C113.341 89.7638 113.221 89.8966 113.052 89.9931C112.714 90.1861 112.316 90.2887 111.936 90.3611C111.483 90.4455 111.031 90.4877 110.579 90.5601C110.102 90.6385 109.625 90.7411 109.149 90.8437C109.058 90.8617 108.968 90.8798 108.877 90.8979C109.209 90.4817 109.487 90.0232 109.74 89.5527C110.47 88.1954 110.699 86.6813 110.922 85.1731C111.194 83.3453 111.67 81.5597 111.996 79.744C112.334 77.8739 112.581 75.9918 112.853 74.1096C112.979 73.241 113.088 72.3723 113.173 71.4976C113.215 71.9199 113.257 72.3421 113.311 72.7644C113.39 73.3496 113.474 73.9287 113.516 74.5199V74.5319ZM103.647 41.0458C103.647 41.0458 103.653 41.0639 103.659 41.076C103.792 41.5405 103.72 42.0533 103.527 42.4936C103.297 43.0124 102.923 43.4528 102.519 43.8389C102.043 44.3034 101.548 44.7498 101.059 45.2022C100.631 45.6003 100.179 45.9985 99.7926 46.4388C99.5091 46.7646 99.2436 47.1024 98.9541 47.4221C98.6645 47.7479 98.3569 48.0917 97.9768 48.3029C97.6631 48.4778 97.4279 48.3873 97.1262 48.2305C96.6979 48.0073 96.2938 47.7238 95.9077 47.4282C95.9198 47.2894 95.9198 47.1507 95.8896 47.0059C95.8534 46.8129 95.5578 46.7284 95.4251 46.8852C95.3949 46.9214 95.3648 46.9516 95.3406 46.9878C95.1416 46.8249 94.9425 46.6681 94.7434 46.5112C94.2488 46.1252 93.7239 45.7934 93.2172 45.4314C92.7527 45.0996 92.3184 44.7256 91.8177 44.4602C91.6669 44.3818 91.51 44.3154 91.3472 44.2672C91.6669 44.1405 91.9685 43.9655 92.2641 43.8087C94.5564 42.572 96.6075 40.9734 98.562 39.2602C99.0446 38.838 99.5272 38.4157 99.9977 37.9753C100.094 37.8848 100.191 37.7943 100.281 37.6978C100.323 37.7823 100.366 37.8607 100.408 37.9331C100.758 38.4941 101.24 38.9767 101.723 39.4231C102.218 39.8936 102.736 40.334 103.273 40.7563C103.4 40.8588 103.527 40.9493 103.653 41.0458H103.647ZM100.764 37.0524C100.764 37.0524 100.776 37.0524 100.788 37.0463C100.8 37.0463 100.818 37.0463 100.812 37.0463C101.011 37.1428 101.168 37.3238 101.337 37.5229C101.572 37.7883 101.783 38.0718 101.988 38.3554C102.35 38.8621 102.694 39.3929 103.038 39.9117C102.616 39.5498 102.206 39.1697 101.813 38.7716C101.415 38.3735 100.981 37.9331 100.74 37.4143C100.74 37.4022 100.74 37.4324 100.728 37.3841C100.722 37.36 100.71 37.3419 100.703 37.3178C100.697 37.2876 100.673 37.1609 100.679 37.2333C100.679 37.2333 100.679 37.2152 100.679 37.2092C100.71 37.1609 100.74 37.1067 100.77 37.0584L100.764 37.0524ZM103.792 5.94306C103.792 5.94306 103.81 5.95513 103.816 5.96116C103.997 6.118 104.154 6.29294 104.305 6.47391C104.582 6.79967 104.83 7.14955 105.077 7.49943C105.819 8.56114 106.416 9.71937 106.851 10.9319C107.062 11.5291 107.261 12.1444 107.393 12.7658C107.538 13.4173 107.556 14.0808 107.508 14.7444C107.412 16.0957 107.044 17.4107 106.664 18.7077C106.302 19.9383 105.861 21.1448 105.107 22.1945C104.389 23.1958 103.303 23.8654 102.344 24.6074C101.789 25.0357 101.373 25.6269 100.776 26.013C100.637 26.1035 100.523 26.1698 100.372 26.206C100.311 26.2181 100.36 26.206 100.317 26.206C100.305 26.206 100.275 26.206 100.269 26.206C100.227 26.2 100.221 26.1879 100.191 26.1638C100.118 26.0914 100.082 25.9768 100.1 25.8742C100.13 25.6933 100.239 25.5304 100.342 25.3856C100.848 24.6919 101.626 24.1791 102.29 23.6483C103.05 23.045 103.828 22.3935 104.214 21.4826C104.419 21 104.498 20.4752 104.456 19.9564C104.419 19.4678 104.323 18.9369 104.142 18.4785C103.985 18.0803 103.744 17.7304 103.328 17.5736C102.875 17.4047 102.35 17.5193 101.922 17.7003C100.939 18.1165 100.046 18.943 99.4849 19.8418C99.0627 20.5295 99.1954 21.3982 99.1773 22.1703C99.1712 22.484 99.1712 22.9063 99.0144 23.1536C98.9903 23.1898 99.0204 23.1536 98.9782 23.1958C98.942 23.232 98.9661 23.2079 98.9541 23.2139C98.9118 23.2441 98.936 23.226 98.8998 23.2381C98.8515 23.2562 98.8576 23.2501 98.8636 23.2501C98.8214 23.2562 98.8455 23.2501 98.8274 23.2501C98.8214 23.2501 98.8214 23.2501 98.8153 23.2501C98.8153 23.2501 98.8153 23.2501 98.8033 23.2381C98.7972 23.232 98.7791 23.2079 98.7731 23.2019C98.6283 22.9968 98.574 22.6891 98.5378 22.4116C98.4956 22.0798 98.4835 21.742 98.4775 21.4102C98.4654 20.4933 98.562 19.5643 98.4111 18.6474C98.3207 18.0864 98.1035 17.5676 97.7234 17.1453C97.3856 16.7653 96.9513 16.4878 96.5471 16.1861C96.1309 15.8785 95.7508 15.5467 95.5156 15.0701C95.3165 14.6539 95.2803 14.1834 95.0692 13.7792C94.8158 13.2906 94.3393 13.0312 93.9773 12.6391C93.73 12.3676 93.6576 12.0781 93.7058 11.7221C93.7662 11.2456 93.9291 10.7811 93.9894 10.3045C94.0256 10.0391 94.0075 9.77366 93.8868 9.55046C94.2307 9.58062 94.5926 9.50823 94.9244 9.43584C95.2743 9.35742 95.6181 9.25487 95.962 9.16438C96.5713 9.00754 97.1745 8.85673 97.7597 8.6275C98.3388 8.39826 98.9058 8.1268 99.4065 7.75883C99.4608 7.72263 99.5091 7.67437 99.5633 7.63818C99.9193 7.55975 100.275 7.4753 100.631 7.38481C101.162 7.24607 101.699 7.09526 102.218 6.91428C102.634 6.7695 103.062 6.6006 103.418 6.33517C103.563 6.22658 103.696 6.0999 103.798 5.95512L103.792 5.94306ZM93.8144 9.0739C93.8144 9.0739 93.8325 9.06183 93.8506 9.04977C93.9773 8.96531 94.1221 8.91102 94.2669 8.85673C94.9184 8.62146 95.6 8.51288 96.2636 8.34397C96.9634 8.163 97.6752 8.01822 98.387 7.87344C98.0552 8.03028 97.7114 8.16903 97.3615 8.28968C96.8246 8.47668 96.2757 8.60337 95.7267 8.74815C95.3467 8.8507 94.9606 8.95928 94.5685 9.03167C94.3755 9.06787 94.1824 9.09803 93.9833 9.09199C93.923 9.09199 93.8687 9.08596 93.8144 9.0739ZM81.0076 8.39826C80.712 8.27158 80.4345 8.09664 80.2475 7.85534C80.0122 7.54769 79.9579 7.16161 79.9277 6.76951C79.8735 6.10594 79.8915 5.44237 79.9277 4.7788C79.9519 4.22381 79.9277 3.63264 80.0786 3.09575C80.3138 2.25121 81.0619 1.88323 81.8461 1.65399C84.5607 0.851678 87.4804 0.574186 90.3096 0.634511C91.7332 0.664673 93.1448 0.875809 94.5444 1.11107C95.8232 1.32824 97.1142 1.50921 98.375 1.81084C99.4186 2.05817 100.426 2.43821 101.337 3.01733C101.826 3.33101 102.284 3.69296 102.7 4.0911C102.978 4.35653 103.34 4.70641 103.448 5.10455C103.285 5.10455 103.153 5.27949 103.153 5.4303C103.153 5.56302 103.225 5.65953 103.328 5.70779C103.237 5.82241 103.11 5.91893 102.99 5.99735C102.616 6.23865 102.187 6.38946 101.771 6.52217C101.343 6.66092 100.909 6.78157 100.48 6.89619C100.613 6.79967 100.746 6.70918 100.89 6.63076C100.993 6.57043 100.921 6.38343 100.806 6.43169C100.372 6.60663 99.9917 6.85396 99.6176 7.11939C99.0566 7.25813 98.4896 7.38481 97.9225 7.50546C96.9935 7.71056 96.0645 7.92773 95.1355 8.1449C94.7615 8.23539 94.3875 8.32587 94.0316 8.46462C93.7903 8.55511 93.4706 8.67576 93.3499 8.92912C93.3198 8.98944 93.3137 9.04977 93.3137 9.10406C92.9156 8.95928 92.439 8.95928 92.0469 8.95928C91.3532 8.95928 90.6715 8.94118 89.9838 8.89896C88.524 8.80244 87.0702 8.69385 85.6043 8.69988C84.8442 8.69988 84.0781 8.76021 83.318 8.75418C82.5519 8.74814 81.7254 8.70592 81.0076 8.4043V8.39826ZM81.8823 34.7238C81.5686 34.2895 81.5505 33.7647 81.5022 33.2399C81.4178 32.2867 81.3695 31.3336 81.2549 30.3805C81.0136 28.4199 80.4345 26.5197 80.0182 24.5954C79.9277 24.161 79.8252 23.7267 79.8312 23.2803C79.8312 22.9304 79.8976 22.5866 80.0001 22.2487C80.2233 21.4947 80.5793 20.7708 80.6637 19.9866C80.7542 19.1541 80.5069 18.3518 80.2957 17.5615C80.1932 17.1694 80.1027 16.7713 80.0906 16.3611C80.0725 15.8966 80.1389 15.4321 80.2414 14.9797C80.4465 14.0869 80.7964 13.2363 81.0438 12.3555C81.2489 11.6317 81.4117 10.8776 81.7435 10.1959C81.8943 9.88828 82.0874 9.59872 82.3045 9.33329C82.6303 9.36345 82.9621 9.37552 83.2878 9.38155C84.066 9.39362 84.8382 9.33329 85.6163 9.32726C87.1124 9.32726 88.6024 9.37552 90.0984 9.41171C90.7982 9.42981 91.4919 9.38155 92.1917 9.39362C92.5114 9.39965 92.8372 9.41775 93.1448 9.51427C93.3137 9.56856 93.4706 9.64698 93.5309 9.82192C93.5852 9.9848 93.555 10.1839 93.5188 10.3467C93.4706 10.6001 93.3982 10.8474 93.3318 11.1008C93.2293 11.505 93.1207 11.9574 93.2353 12.3736C93.356 12.7959 93.7058 13.1156 94.0316 13.3931C94.2427 13.5741 94.4478 13.749 94.5806 13.9964C94.6831 14.1894 94.7314 14.4005 94.7857 14.6117C94.9184 15.1305 95.1295 15.6131 95.4914 16.0112C95.8474 16.4033 96.2998 16.6868 96.716 17.0066C97.1262 17.3142 97.5123 17.6762 97.6933 18.1708C97.8984 18.7318 97.9165 19.3411 97.9105 19.9323C97.9044 20.6683 97.8562 21.4042 97.9165 22.1402C97.9587 22.6831 98.0311 23.6724 98.6947 23.8293C99.0265 23.9077 99.3703 23.7086 99.5332 23.419C99.7202 23.0812 99.7383 22.6529 99.7564 22.2729C99.7745 21.8325 99.7564 21.3921 99.7805 20.9578C99.7986 20.5416 99.871 20.3244 100.1 19.9926C100.414 19.5402 100.818 19.136 101.252 18.7982C101.657 18.4845 102.133 18.195 102.646 18.1226C103.026 18.0743 103.297 18.1889 103.472 18.5267C103.677 18.9188 103.756 19.4316 103.792 19.8659C103.834 20.3606 103.792 20.8613 103.575 21.3198C103.376 21.7481 103.068 22.11 102.73 22.4358C102.049 23.0873 101.258 23.6181 100.559 24.2455C100.004 24.7402 99.0808 25.6752 99.6418 26.4715C99.9736 26.936 100.444 26.8696 100.878 26.6464C100.414 27.503 100.034 28.4018 99.7624 29.3369C99.4065 30.5554 99.2074 31.8886 99.3824 33.1554C99.4548 33.6802 99.6478 34.1689 99.871 34.6394C100.088 35.0979 100.354 35.5563 100.432 36.063C100.462 36.2621 100.438 36.4491 100.378 36.6241C100.36 36.6422 100.336 36.6542 100.317 36.6723C100.191 36.793 100.136 36.9377 100.124 37.0825C99.865 37.4324 99.491 37.734 99.1893 37.9995C97.3193 39.6885 95.3949 41.3354 93.2413 42.6565C92.6924 42.9943 92.1374 43.308 91.5643 43.6036C91.136 43.8268 90.6474 44.0621 90.1527 43.9293C89.6943 43.8027 89.2901 43.4829 88.8859 43.2597C88.2827 42.928 87.6613 42.6263 87.0581 42.2946C86.1653 41.8059 85.0855 41.3233 84.615 40.3642C84.4099 39.9419 84.3254 39.4653 84.241 39.0069C84.1203 38.3373 83.9574 37.6737 83.7885 37.0101C83.7222 36.7507 83.6558 36.4913 83.5955 36.2319C83.6799 36.2018 83.7584 36.1656 83.8428 36.1354C84.7899 36.2078 85.7551 36.0992 86.6901 35.9364C87.6915 35.7614 88.6748 35.5141 89.652 35.2366C91.1964 34.7962 92.7527 34.3016 94.1643 33.5234C94.3574 33.4208 94.5383 33.3002 94.7193 33.1735C94.8279 33.1071 94.9244 33.0348 95.0209 32.9563C95.8594 32.2988 96.523 31.4362 96.8789 30.4106C96.9754 30.1271 97.0358 29.8134 97.0116 29.5118C96.9935 29.3369 96.7824 29.2162 96.6497 29.361C96.3119 29.7169 96.0283 30.1211 95.8172 30.5675C95.6302 30.9596 95.4854 31.3758 95.3044 31.7679C95.214 31.961 95.1174 32.1359 94.9968 32.2988C94.8701 32.4194 94.7314 32.528 94.5926 32.6245C94.3574 32.7874 94.11 32.9322 93.8567 33.0709C93.6395 33.1554 93.4163 33.2278 93.1991 33.3062C92.0891 33.6923 90.9792 34.0301 89.8391 34.3076C89.272 34.4464 88.6989 34.5791 88.1319 34.7238C87.6131 34.8505 87.0943 35.0013 86.5695 35.1099C85.7672 35.2728 84.9467 35.3753 84.1565 35.5925C84.1444 35.5925 84.1324 35.5925 84.1203 35.5925C83.324 35.5623 82.3588 35.3874 81.8762 34.7359L81.8823 34.7238ZM85.7068 47.8927C85.4112 47.2532 85.0795 46.6439 84.6692 46.0648C84.1565 45.347 83.5351 44.7256 82.9621 44.056C82.6846 43.7363 82.4192 43.4045 82.202 43.0365C82.0391 42.759 81.9185 42.4936 81.9245 42.1679C82.0331 42.1377 82.1115 42.011 82.0813 41.8964C82.0572 41.812 82.0391 41.7215 82.015 41.637C82.1598 41.1665 82.4493 40.7201 82.7027 40.3219C83.0465 39.7851 83.4326 39.2663 83.698 38.6811C83.7764 39.1155 83.8428 39.5498 83.9635 39.9721C84.0841 40.4004 84.2711 40.8045 84.5546 41.1544C84.8804 41.5586 85.3147 41.8482 85.7491 42.1136C86.9073 42.8194 88.1379 43.3925 89.3082 44.0741C89.5012 44.1887 89.7063 44.2913 89.9175 44.3637C89.459 44.5628 89.0186 44.8523 88.6024 45.1177C88.0474 45.4676 87.5286 45.8778 86.9917 46.2639C86.6479 46.5173 86.3463 46.7948 86.1231 47.1507C85.93 47.3618 85.7792 47.6091 85.7008 47.8927H85.7068ZM87.4743 51.5966C87.233 51.126 86.9616 50.6736 86.7142 50.2031C86.4428 49.6843 86.1774 49.1293 86.1291 48.5381C86.2799 48.2184 86.4066 47.8927 86.5755 47.579C86.8289 47.1084 87.2632 46.8249 87.6794 46.5173C88.2163 46.1191 88.7592 45.733 89.3323 45.3892C89.7968 45.1117 90.3458 44.6774 90.9189 44.7377C91.4738 44.792 91.9806 45.2022 92.4149 45.5279C92.9096 45.8959 93.4284 46.2217 93.923 46.5836C94.285 46.849 94.6348 47.1265 94.9847 47.4101C94.0135 48.4899 92.9156 49.443 91.8599 50.4384C91.3472 50.9209 90.8465 51.4156 90.2734 51.8198C89.9054 52.0792 89.5193 52.2843 89.1091 52.4532C89.0488 52.4351 88.9764 52.4592 88.9523 52.5195C88.7954 52.5738 88.6386 52.6281 88.4818 52.6704C88.3792 52.7005 88.2766 52.7246 88.1801 52.7488C87.8664 52.4472 87.6794 51.9827 87.4864 51.6086L87.4743 51.5966ZM79.6503 87.2302C79.6623 86.8622 79.6623 86.4943 79.6925 86.1263C79.7166 85.7342 79.789 85.3481 79.8312 84.956C80.0363 83.2126 80.0062 81.4572 80.0303 79.7078C80.0786 76.1667 80.8628 72.7162 81.5083 69.2535C81.828 67.5343 82.1236 65.809 82.4734 64.0958C82.8233 62.4067 83.2034 60.7056 83.8428 59.0949C84.1505 58.3228 84.5003 57.5747 84.8502 56.8267C85.1337 56.2174 85.4052 55.6021 85.737 55.017C85.9662 54.6249 86.2317 54.2509 86.5876 53.9734C86.9797 53.6657 87.4562 53.4787 87.9328 53.346C87.9569 53.34 87.975 53.3339 87.9992 53.3279C88.6808 53.7562 89.5374 53.3581 90.2191 52.8634C90.3217 52.8574 90.4242 52.8513 90.5267 52.8574C90.6112 55.3608 90.7077 57.8643 90.7077 60.3738C90.7077 62.9376 90.581 65.4893 90.4845 68.047C90.4363 69.344 90.4182 70.641 90.3639 71.938C90.3096 73.2108 90.2493 74.4837 90.0381 75.7444C89.833 76.9751 89.5314 78.1876 89.3082 79.4182C89.1996 80.0275 89.1031 80.6368 89.0548 81.2521C89.0005 81.8855 88.9704 82.5189 88.892 83.1463C88.7291 84.4432 88.4516 85.7161 88.1982 86.9949C88.0233 87.8938 87.8303 88.9736 88.1982 89.8543C87.4743 89.3536 86.7685 88.8288 85.9421 88.5031C84.8201 88.0627 83.6558 88.3824 82.5157 88.5875C81.8762 88.7021 81.2549 88.7021 80.6034 88.672C80.2294 88.6539 79.8493 88.6478 79.4874 88.6901C79.596 88.2135 79.6261 87.7188 79.6442 87.2302H79.6503ZM80.338 90.6566C80.6516 90.729 80.9653 90.8195 81.285 90.8678C81.5987 90.916 81.9124 90.9221 82.2261 90.91C82.4372 90.904 82.5277 90.6144 82.3347 90.5058C81.7737 90.1861 81.0679 90.1499 80.4526 89.9931C80.1148 89.9086 79.7769 89.8061 79.4753 89.6311C79.421 89.601 79.3788 89.5708 79.3366 89.5406C79.3366 89.4803 79.3245 89.414 79.3064 89.3536C79.7106 89.2752 80.1329 89.2752 80.5491 89.2933C81.1342 89.3174 81.7073 89.3355 82.2925 89.2511C83.3904 89.0882 84.5486 88.6539 85.6465 89.0339C86.7323 89.4079 87.6312 90.2102 88.5964 90.8135C88.9764 91.0488 89.3625 91.2719 89.7305 91.5253C90.1346 91.8028 90.5448 92.0743 90.9671 92.3337C91.7453 92.8042 92.6803 93.3109 93.6214 93.2084C93.5671 93.4074 93.5369 93.6246 93.543 93.8357C93.543 94.6562 93.7601 95.4705 93.9411 96.2608C93.9773 96.4237 94.0135 96.5865 94.0497 96.7554C94.0799 96.9063 94.0919 96.9726 94.098 97.0872C94.11 97.2803 94.11 97.4793 94.11 97.6784C94.1221 98.4023 94.11 99.1322 94.0256 99.8501C93.9833 100.176 93.9351 100.574 93.7963 100.851C93.7782 100.888 93.7541 100.93 93.73 100.966C93.6214 100.912 93.4887 100.906 93.3741 101.008C93.368 101.014 93.356 101.02 93.3499 101.026C93.2534 101.026 93.175 101.093 93.1509 101.177C92.6683 101.491 92.059 101.599 91.498 101.636C90.762 101.69 90.02 101.636 89.278 101.612C88.9402 101.599 88.6084 101.599 88.2706 101.612C88.1801 101.563 88.0655 101.563 87.9811 101.612C87.4683 101.618 86.9616 101.63 86.4488 101.624C86.0326 101.618 85.6163 101.624 85.2001 101.612C85.0131 101.612 84.8201 101.599 84.6331 101.551C84.4581 101.503 84.3073 101.394 84.1625 101.286C83.8126 101.026 83.4869 100.894 83.0465 100.876C82.5941 100.857 82.1356 100.942 81.6832 100.87C81.3333 100.815 80.9955 100.677 80.6697 100.502C80.6396 100.453 80.6034 100.405 80.5672 100.357C80.4767 100.248 80.3802 100.152 80.2776 100.061C80.163 99.9587 80.0484 99.8441 79.9157 99.7596C79.8614 99.7234 79.8071 99.6872 79.7528 99.6571C79.6985 99.6269 79.6261 99.5847 79.5598 99.5786C79.5477 99.5786 79.5296 99.5726 79.5175 99.5666C79.4572 99.5243 79.3969 99.5243 79.3486 99.5545C78.7514 99.0478 78.1482 98.5591 77.4846 98.1369C77.9009 98.3299 78.305 98.529 78.7333 98.6919C79.3245 98.9151 79.8976 99.0297 80.531 98.9392C80.6577 98.9211 80.6215 98.722 80.5008 98.722C79.8192 98.722 79.1315 98.3782 78.5343 98.0886C77.931 97.793 77.3459 97.4673 76.7125 97.238C76.1152 97.0209 75.512 96.8339 74.9148 96.6227C74.6252 96.5202 74.3357 96.4116 74.0642 96.2729C73.8048 96.1462 73.5575 95.9592 73.28 95.8868C73.1473 95.8506 73.0387 95.935 73.0085 96.0436C72.8034 95.7118 72.8095 95.3137 72.9301 94.8975C73.3162 94.9698 73.7204 94.9879 74.1064 95.0302C74.9389 95.1146 75.7593 95.2413 76.5858 95.3559C77.3881 95.4705 78.1844 95.5912 78.9867 95.6696C79.6322 95.7299 80.3138 95.935 80.9472 95.6998C81.086 95.6515 81.1161 95.5067 81.0257 95.3921C80.718 95.0121 80.0363 94.9879 79.5899 94.9457C79.3064 94.9156 79.0169 94.9035 78.7333 94.8794C78.3834 94.8492 78.0396 94.7828 77.7018 94.7165C76.9176 94.5717 76.1333 94.3968 75.3371 94.3244C74.7881 94.2761 74.2331 94.252 73.6842 94.1736C73.1292 94.1012 72.5561 94.0046 72.0675 93.7332C71.6211 93.4798 71.241 93.0334 71.3737 92.5086C71.5004 92.3156 71.6754 92.1527 71.8624 92.0501C72.0434 91.9536 72.2304 91.8631 72.3631 91.7063C72.3812 91.6882 72.3872 91.6701 72.4053 91.652C72.6285 91.652 72.8698 91.6882 73.0749 91.7184C73.9134 91.845 74.7519 91.9898 75.5844 92.1467C76.6099 92.3397 77.6234 92.5931 78.6609 92.7137C79.7046 92.8344 80.7783 92.9007 81.8219 92.774C81.9305 92.762 81.9305 92.6232 81.8219 92.6112C80.8386 92.4905 79.8554 92.4241 78.8781 92.2613C77.9008 92.0984 76.9296 91.8873 75.9644 91.658C75.0897 91.4469 74.209 91.2961 73.3222 91.1634C73.0508 91.1211 72.7853 91.097 72.5199 91.1151C72.5199 91.0668 72.5199 91.0186 72.5199 90.9643C72.5199 90.6566 72.7914 90.4274 73.0689 90.3671C73.5756 90.2464 74.1245 90.2404 74.6433 90.2464C75.2466 90.2464 75.8559 90.2947 76.4591 90.3309C77.0804 90.3671 77.7078 90.3792 78.3292 90.4153C79.0229 90.4515 79.6925 90.5239 80.3681 90.6808L80.338 90.6566ZM82.9259 108.7C82.9259 108.7 82.8294 108.7 82.763 108.688C82.6605 108.663 82.5579 108.627 82.4614 108.585C82.1899 108.464 81.9426 108.296 81.7073 108.121C81.1885 107.741 80.712 107.312 80.2475 106.872C79.8373 106.48 79.4271 106.088 79.0048 105.702C78.7394 105.454 78.5162 105.189 78.4136 104.839C78.2749 104.35 78.2749 103.819 78.2809 103.313C78.2809 102.915 78.2749 102.535 78.2326 102.136C78.1964 101.78 78.1422 101.394 78.1904 101.038C78.2326 100.725 78.5222 100.67 78.7937 100.604C79.0289 100.544 79.2642 100.496 79.4874 100.405C79.8554 100.689 80.2475 100.942 80.6818 101.141C81.1463 101.352 81.6048 101.479 82.1175 101.479C82.5398 101.479 83.0887 101.352 83.4809 101.545C83.8488 101.72 84.1022 102.034 84.5124 102.13C84.9347 102.227 85.369 102.197 85.7973 102.203C86.292 102.203 86.7927 102.227 87.2873 102.227C87.4743 102.227 87.6613 102.227 87.8544 102.221C87.8664 102.607 87.8906 102.987 87.8845 103.373C87.8785 103.765 87.8483 104.169 87.6191 104.501C87.4321 104.779 87.1365 104.978 86.8651 105.171C86.4971 105.442 86.1412 105.726 85.7973 106.027C85.2122 106.534 84.6451 107.065 84.1143 107.626C83.8911 107.861 83.6679 108.096 83.4326 108.326C83.3361 108.416 83.2396 108.513 83.131 108.591C83.0948 108.621 83.0586 108.645 83.0164 108.67C82.9983 108.682 82.9741 108.694 82.956 108.706C82.944 108.712 82.9862 108.706 82.9259 108.712V108.7ZM78.9565 95.2534C79.3124 95.2775 79.6684 95.2956 80.0182 95.3559C80.1268 95.374 80.2535 95.3921 80.3742 95.4283C79.9036 95.4585 79.409 95.3077 78.9565 95.2534ZM78.0758 88.5513C78.2145 88.6659 78.3895 88.8107 78.5343 88.9676C78.4739 89.0279 78.4377 89.1123 78.4438 89.2028C78.4438 89.2089 78.4377 89.2149 78.4377 89.227C78.4377 89.227 78.4377 89.233 78.4377 89.239C78.2206 88.9676 78.0094 88.684 77.7983 88.4065C77.6957 88.2738 77.5932 88.1471 77.4906 88.0144C77.6777 88.2014 77.8707 88.3824 78.0818 88.5513H78.0758ZM70.9575 78.5616C71.3496 79.1166 71.7055 79.6957 72.0494 80.2808C72.7431 81.4753 73.3886 82.6999 74.203 83.8219C74.6071 84.3769 75.0716 84.8836 75.4818 85.4386C75.7231 85.7704 75.9584 86.1021 76.1997 86.44C75.1682 85.2214 74.1607 83.9908 73.2981 82.6395C72.4415 81.2883 71.7116 79.8525 70.8007 78.5375C70.5533 78.1755 70.2879 77.8256 70.0164 77.4818C70.3663 77.8136 70.68 78.1635 70.9635 78.5616H70.9575ZM65.5947 100.568C65.0638 100.683 64.4847 100.906 64.0021 100.556C63.5195 100.206 63.1576 99.6993 62.8016 99.2348C60.8532 96.7192 58.6634 94.4149 56.6184 91.9777C55.5868 90.7471 54.6277 89.4743 53.5599 88.2738C53.0291 87.6826 52.4982 87.0915 51.9794 86.4882C51.4727 85.9031 51.0143 85.2757 50.5799 84.6363C50.1395 83.9908 49.7233 83.3272 49.2769 82.6878C48.8245 82.0242 48.3359 81.3908 47.8593 80.7453C46.8881 79.4242 45.9048 78.1212 44.8853 76.8363C44.3846 76.2029 43.8718 75.5755 43.3531 74.9542C43.2203 74.7973 43.0514 74.6043 42.9851 74.4233C42.967 74.369 42.973 74.4052 42.979 74.3871C42.979 74.3871 42.979 74.3871 42.9851 74.3811C42.9911 74.3811 43.0032 74.3751 43.0032 74.369C43.0514 74.3389 43.1057 74.3087 43.16 74.2846C43.7874 74.0192 44.5414 73.9528 45.211 73.9106C45.9772 73.8623 46.7493 73.8985 47.5154 73.9588C49.0597 74.0735 50.604 74.3087 52.1544 74.3087C53.8073 74.3087 55.4481 74.4595 57.095 74.5983C58.7599 74.7431 60.4128 74.8577 62.0838 74.7913C62.9102 74.7551 63.7367 74.7129 64.5571 74.7732C65.2689 74.8215 66.0049 74.8818 66.6986 75.0507C66.9701 75.1171 67.2415 75.1955 67.4587 75.3765C67.6517 75.5393 67.8025 75.7565 67.9534 75.9556C68.3998 76.5287 68.9004 77.0535 69.3529 77.6205C70.306 78.8029 71.0661 80.0878 71.8443 81.3908C72.6587 82.7602 73.5153 84.0873 74.5227 85.324C75.512 86.5365 76.5797 87.6947 77.5751 88.9012C77.8526 89.239 78.1542 89.5587 78.48 89.8543C78.4498 89.8543 78.4196 89.8543 78.3895 89.8483C77.7138 89.8 77.0382 89.7819 76.3626 89.7397C75.705 89.6975 75.0475 89.6372 74.3839 89.6492C73.8591 89.6492 73.2679 89.6613 72.7672 89.8242C72.3932 89.9448 72.1459 90.2223 71.983 90.5782C71.9287 90.7049 71.9046 90.8256 71.9046 90.9643C71.9046 91.0427 71.9348 91.1513 71.9227 91.2418C71.7297 91.3323 71.5547 91.471 71.4099 91.6279C71.3918 91.6399 71.3677 91.652 71.3496 91.6641C70.9454 91.9416 70.6318 92.4664 70.6016 92.955C70.5413 93.9142 71.5366 94.5053 72.3088 94.8975C72.17 95.4645 72.2122 96.0497 72.6044 96.5262C72.9844 96.9907 73.5877 97.226 74.1426 97.413C74.8364 97.6422 75.5482 97.8051 76.2178 98.1188C77.0201 98.4928 77.744 99.0055 78.4317 99.5666C78.5644 99.6751 78.6911 99.7837 78.8238 99.8923C78.7997 99.8923 78.7695 99.9044 78.7454 99.9104C78.4196 99.9768 78.0879 100.031 77.7561 100.073C76.9477 100.182 76.1333 100.236 75.319 100.272C73.6781 100.345 72.0373 100.315 70.3965 100.387C69.564 100.423 68.7255 100.435 67.887 100.447C67.1269 100.459 66.3427 100.435 65.5947 100.598V100.568ZM67.7543 102.01C67.7181 101.919 67.6578 101.865 67.5854 101.829C67.5612 101.702 67.5371 101.581 67.525 101.455C67.513 101.328 67.513 101.189 67.5311 101.057C67.6638 101.057 67.7965 101.057 67.9292 101.057C69.6364 101.032 71.3496 100.96 73.0568 100.93C74.6554 100.906 76.254 100.864 77.8405 100.652C77.8345 100.671 77.8164 100.683 77.8104 100.701C77.6897 100.99 77.7078 101.34 77.7259 101.642C77.744 101.974 77.7923 102.305 77.8043 102.637C77.8526 103.584 77.6415 104.682 78.1904 105.521C78.4076 105.852 78.7152 106.106 78.9988 106.371C79.1918 106.558 79.3788 106.751 79.5718 106.944C80.0484 107.421 80.537 107.891 81.0558 108.314C81.5143 108.682 82.0572 109.122 82.6484 109.237C82.8957 109.285 83.1189 109.261 83.33 109.122C83.5955 108.947 83.8247 108.718 84.0419 108.501C84.5607 107.982 85.0433 107.439 85.5802 106.938C86.0205 106.528 86.4669 106.124 86.9435 105.768C87.2753 105.521 87.6432 105.291 87.9207 104.972C88.5662 104.218 88.4395 103.15 88.3973 102.203C88.5541 102.203 88.717 102.203 88.8739 102.203C90.2975 102.215 92.0288 102.522 93.3198 101.774C93.2474 101.913 93.1871 102.064 93.1509 102.215C93.1267 102.305 93.1629 102.432 93.2594 102.474C93.9713 102.8 94.7495 102.715 95.4975 102.589C95.8594 102.528 96.2214 102.45 96.5894 102.408C96.9875 102.36 97.3977 102.366 97.7958 102.384C98.6766 102.42 99.5513 102.547 100.426 102.643C101.307 102.74 102.175 102.782 103.056 102.709C103.919 102.637 104.775 102.498 105.638 102.438C105.716 102.432 105.795 102.432 105.873 102.426C106.048 102.498 106.223 102.565 106.398 102.649C106.7 102.794 106.851 103.059 106.989 103.355C107.279 103.976 107.418 104.664 107.761 105.261C107.991 105.665 108.606 106.474 108.099 106.854C107.617 107.222 106.905 107.33 106.326 107.457C104.058 107.952 101.85 108.676 99.6357 109.381C98.4896 109.683 97.3434 109.954 96.1912 110.226C94.8822 110.54 93.5852 110.871 92.2762 111.191C91.4437 111.39 90.6052 111.589 89.7606 111.752C88.4938 111.939 87.227 112.084 85.9542 112.186C85.9481 112.186 85.9421 112.186 85.9361 112.186C85.1639 112.247 84.3978 112.301 83.6256 112.331C81.6832 112.41 79.7287 112.361 77.7923 112.192C76.8331 112.108 75.88 111.993 74.9329 111.837C74.0039 111.68 73.0508 111.517 72.1459 111.251C71.2109 110.974 70.3543 110.485 69.4434 110.147C69.3408 110.111 69.2383 110.081 69.1357 110.051C69.1659 110.051 69.19 110.039 69.2202 110.033C69.377 110.009 69.4434 109.822 69.4192 109.683C68.9004 107.113 68.6591 104.483 67.7362 102.016L67.7543 102.01ZM68.8401 109.544C68.7436 109.574 68.6591 109.611 68.5747 109.659C68.5445 109.472 68.5807 109.291 68.629 109.104C68.6531 109.001 68.6772 108.899 68.7014 108.796C68.7436 109.044 68.7919 109.297 68.8401 109.544ZM68.1766 113.007C68.2791 112.506 68.255 111.993 68.2851 111.481C68.3032 111.161 68.3274 110.775 68.4902 110.485C68.6591 110.558 68.8522 110.6 69.0211 110.654C69.4977 110.805 69.9501 111.022 70.4025 111.221C70.867 111.432 71.3376 111.644 71.8202 111.8C72.2666 111.945 72.731 112.042 73.1955 112.144C74.1849 112.355 75.1802 112.524 76.1816 112.651C78.1241 112.904 80.0906 113.007 82.0512 112.977C81.9788 113.025 81.9064 113.067 81.84 113.121C81.2127 113.616 80.8568 114.382 80.8869 115.185C80.9231 116.156 81.454 116.958 81.9305 117.766C82.1839 118.195 82.4734 118.599 82.8716 118.907C82.5217 118.888 82.1779 118.87 81.828 118.822C80.9533 118.714 80.0906 118.527 79.228 118.34C75.8016 117.598 72.3269 116.988 69.0271 115.776C68.6049 115.619 68.0438 115.456 67.893 114.973C67.6879 114.31 68.0499 113.64 68.1766 112.995V113.007ZM53.8917 244.14C53.8133 243.133 54.4045 242.318 55.1163 241.703C55.7497 241.154 56.1298 240.503 56.1841 239.646C56.2504 238.458 55.7135 237.275 55.6049 236.099C55.056 230.193 54.5251 224.275 54.3502 218.345C54.2657 215.377 54.2657 212.409 54.3985 209.441C54.5312 206.407 54.8629 203.385 54.9414 200.351C55.0198 197.358 54.9776 194.366 55.0198 191.374C55.0681 188.455 55.2671 185.547 55.1947 182.621C55.1646 181.276 55.0681 179.967 54.8388 178.646C54.6036 177.289 54.2959 175.919 54.3442 174.532C54.3864 173.193 54.7242 171.871 54.9534 170.55C55.1706 169.29 55.2008 168.059 55.1947 166.786C55.1827 164.047 56.0091 161.665 57.1131 159.203C58.0843 157.038 58.6634 154.763 58.9469 152.417C59.2425 149.968 59.2727 147.488 59.514 145.033C59.7794 142.331 60.6782 139.749 61.4685 137.167C62.1682 134.874 62.7232 132.594 62.8801 130.199C62.9706 128.824 63.0912 127.455 63.2541 126.091C63.4592 124.372 63.7306 122.659 64.1469 120.982C64.4907 119.588 64.913 118.08 65.7756 116.91C66.0833 116.5 66.4633 116.126 66.964 115.969C67.0425 115.945 67.0967 115.896 67.1329 115.842C67.3139 115.884 67.513 115.957 67.6638 116.023C68.068 116.198 68.4661 116.403 68.9004 116.482C68.9849 116.5 69.0633 116.482 69.1297 116.445C69.3167 116.512 69.5097 116.578 69.6967 116.644C70.6137 116.952 71.5427 117.224 72.4777 117.465C74.3176 117.935 76.1816 118.297 78.0336 118.689C78.9867 118.888 79.9338 119.106 80.8929 119.269C81.8099 119.425 82.7208 119.498 83.6498 119.516C84.2168 119.528 84.7778 119.594 85.3388 119.582C85.5017 119.582 85.6706 119.57 85.8335 119.552C85.9421 119.564 86.0507 119.576 86.1532 119.6C86.3101 119.636 86.4548 119.552 86.5091 119.419C86.9616 119.359 87.4019 119.226 87.8423 119.1C88.4395 118.919 89.0428 118.798 89.6641 118.72C90.9249 118.557 92.1977 118.496 93.4585 118.333C94.7736 118.159 96.0766 117.917 97.3736 117.64C98.6343 117.368 99.9072 117.097 101.15 116.759C102.399 116.415 103.617 115.975 104.842 115.559C105.837 115.221 106.851 114.943 107.846 114.624C108.624 114.37 109.463 114.032 109.981 113.375C110.76 114.503 110.856 116.138 110.989 117.429C111.158 119.075 111.266 120.734 111.695 122.339C112.28 124.529 112.829 126.725 113.245 128.957C113.667 131.243 114.041 133.577 113.915 135.906C113.794 138.084 113.299 140.213 112.847 142.337C112.63 143.374 112.418 144.412 112.262 145.455C112.105 146.499 112.002 147.543 111.719 148.562C111.212 150.378 110.355 152.067 109.644 153.81C108.889 155.68 108.479 157.544 108.407 159.559C108.328 161.876 108.57 164.186 108.787 166.484C109.004 168.807 109.125 171.117 109.119 173.452C109.119 174.93 109.083 176.414 109.07 177.892H109.125C109.034 179.255 108.986 180.618 108.896 181.982C108.775 183.798 108.606 185.607 108.407 187.411C108.31 188.298 108.226 189.185 108.214 190.077C108.208 190.97 108.31 191.839 108.425 192.72C108.54 193.57 108.618 194.427 108.341 195.253C108.214 195.633 108.057 196.001 107.985 196.393C107.906 196.779 107.912 197.171 107.973 197.558C108.099 198.348 108.431 199.078 108.497 199.886C108.57 200.761 108.515 201.648 108.497 202.528C108.461 204.338 108.256 206.136 108.274 207.945C108.316 211.384 109.288 214.853 108.715 218.291C108.57 219.142 108.377 219.968 108.304 220.831C108.226 221.711 108.196 222.598 108.039 223.467C107.882 224.317 107.593 225.138 107.393 225.976C107.2 226.803 107.05 227.641 106.971 228.486C106.929 228.92 106.911 229.349 106.923 229.789C106.935 230.193 107.538 230.193 107.55 229.789C107.55 229.723 107.556 229.662 107.562 229.596C107.574 229.614 107.586 229.632 107.593 229.65C107.623 229.698 107.641 229.765 107.659 229.873C107.659 229.879 107.659 229.885 107.659 229.885C107.659 229.885 107.659 229.891 107.659 229.897C107.659 229.922 107.659 229.946 107.659 229.964C107.659 230.024 107.659 230.084 107.659 230.145C107.647 230.658 107.466 231.194 107.285 231.689C107.11 232.184 106.905 232.636 106.718 233.095C106.471 233.698 106.356 234.331 106.277 234.977C106.169 235.858 106.151 236.75 106.133 237.637C106.121 238.059 106.115 238.482 106.151 238.904C106.187 239.32 106.241 239.736 106.277 240.153C106.35 240.985 106.296 241.787 105.813 242.505C105.421 243.09 104.872 243.356 104.178 243.398C104.154 243.398 104.13 243.398 104.106 243.398C104.051 243.344 103.979 243.302 103.901 243.302C101.783 243.289 99.6719 243.054 97.5545 243.127C96.716 243.157 95.8655 243.229 95.0451 243.422C94.8098 243.477 94.5625 243.543 94.3151 243.633C93.9411 243.561 93.5671 243.476 93.1931 243.374C92.626 243.217 92.1193 243.012 91.7513 242.548C91.4497 242.167 91.2929 241.673 91.2084 241.178C91.0094 240.02 91.1843 238.795 91.3411 237.643C91.4195 237.058 91.504 236.479 91.5583 235.894C91.6246 235.182 91.6126 234.458 91.5824 233.746C91.51 232.009 91.2989 230.247 91.5402 228.516C91.5704 228.281 91.6186 228.046 91.6669 227.816C92.0711 226.513 92.0349 225.053 92.0771 223.714C92.1314 222.031 92.3365 220.366 92.4752 218.689C92.62 216.952 92.6683 215.215 92.7708 213.477C92.8734 211.728 92.994 209.984 93.0785 208.235C93.1629 206.492 93.1931 204.742 93.181 202.993C93.175 202.118 93.1569 201.237 93.1026 200.363C93.0544 199.542 92.9578 198.734 93 197.913C93.0423 197.153 93.1026 196.387 92.9035 195.639C92.801 195.253 92.6441 194.885 92.5295 194.505C92.4089 194.107 92.3063 193.709 92.2158 193.305C91.8599 191.712 91.7091 190.083 91.6066 188.461C91.5583 187.64 91.5221 186.82 91.4678 186.005C91.4135 185.161 91.3049 184.322 91.1903 183.484C91.0697 182.621 90.949 181.759 90.8947 180.89C90.8465 180.112 90.7138 179.34 90.6534 178.561C90.6353 178.338 90.6233 178.121 90.6293 177.904H90.8465C90.8223 176.51 90.7982 175.123 90.7801 173.729C90.75 171.455 90.8103 169.157 90.6534 166.883C90.3639 162.624 89.272 158.449 87.975 154.401C87.3175 152.356 86.5996 150.33 85.8637 148.309C85.5922 147.567 85.3389 146.813 85.0795 146.059C85.0976 146.016 85.1217 145.974 85.1398 145.938C85.4052 146.101 85.6948 146.191 85.9481 146.04C86.5272 145.697 86.1351 144.605 86.0085 144.14C85.9421 143.905 85.6043 143.857 85.4836 144.074C85.2846 144.412 85.0975 144.762 84.9166 145.105C84.8261 145.015 84.7416 144.924 84.6572 144.834C84.5124 144.436 84.3616 144.038 84.2048 143.646C83.7584 142.524 83.0948 141.239 81.7918 141.003C81.5022 140.949 81.3212 141.209 81.4359 141.468C81.7314 142.156 82.2261 142.777 82.6846 143.368C83.0827 143.881 83.499 144.394 83.9514 144.87C83.9876 144.991 84.0238 145.105 84.06 145.214C84.1625 145.528 84.2711 145.835 84.3797 146.149C83.1551 148.622 82.1718 151.216 81.2609 153.828C80.0786 157.201 78.9143 160.561 77.563 163.872C76.1032 167.456 74.6614 171.111 73.6661 174.851C73.2378 176.474 72.912 178.043 73.2679 179.708C73.5877 181.228 74.1728 182.796 72.906 184.033C71.9589 184.962 71.3436 185.794 71.229 187.17C71.0902 188.804 71.5427 190.451 71.6754 192.08C71.8322 194.01 71.9408 195.941 72.0675 197.871C72.2002 199.856 72.4234 201.829 72.5501 203.807C72.7914 207.752 72.6406 211.704 72.5199 215.649C72.3993 219.57 72.532 223.515 72.0856 227.418C71.8925 229.113 71.6512 230.833 71.1988 232.485C70.8429 233.77 70.4327 235.037 70.1069 236.322C69.6605 238.083 68.8522 240.961 70.1069 242.614C67.6638 243.591 65.2086 244.556 62.6388 245.154C60.3826 245.678 57.8128 246.034 55.5084 245.546C54.7604 245.389 53.9279 245.051 53.8616 244.182L53.8917 244.14ZM97.7898 244.562C98.8033 244.544 99.8107 244.454 100.818 244.333C101.741 244.225 102.658 244.062 103.587 244.044C103.641 244.044 103.696 244.044 103.756 244.044C103.895 244.87 103.858 245.702 103.816 246.535C103.756 246.481 103.696 246.432 103.629 246.384C102.839 245.841 101.771 245.751 100.842 245.708C99.871 245.666 98.8998 245.721 97.9225 245.727C96.6497 245.739 95.3587 245.57 94.104 245.895C93.8929 245.95 93.6878 246.028 93.4947 246.119C93.3801 245.684 93.2956 245.22 93.5128 244.852C93.6757 244.586 93.9471 244.399 94.2548 244.267C94.4418 244.303 94.6288 244.339 94.8218 244.369C95.8051 244.52 96.8005 244.574 97.7958 244.556L97.7898 244.562ZM95.9258 243.838C97.4158 243.603 98.9601 243.67 100.462 243.73C99.9735 243.784 99.4849 243.826 98.9963 243.863C97.9708 243.929 96.9453 243.929 95.9318 243.844L95.9258 243.838ZM85.6344 145.492C85.5681 145.492 85.5017 145.467 85.4293 145.431C85.5138 145.274 85.5983 145.118 85.6827 144.961C85.7068 145.087 85.7189 145.214 85.7129 145.335C85.7008 145.552 85.7491 145.492 85.6344 145.492ZM83.4869 143.434C83.0888 142.958 82.7147 142.445 82.4131 141.914C82.8897 142.27 83.2275 142.831 83.4869 143.434ZM61.6193 253.695C61.5831 253.701 61.5529 253.72 61.5228 253.744C61.2513 253.834 60.9859 253.925 60.7205 254.027C60.1051 254.269 59.4959 254.546 58.9288 254.89C58.398 255.216 57.9274 255.608 57.4509 256.006C56.9924 256.392 56.5158 256.742 55.9307 256.887C55.2852 257.049 54.6217 257.092 53.9641 257.128C53.2704 257.158 52.5767 257.17 51.8829 257.218C51.1228 257.273 50.3688 257.357 49.6147 257.448C48.0825 257.629 46.5502 257.822 44.9999 257.791C44.2338 257.773 43.4677 257.816 42.7015 257.798C41.9535 257.779 41.115 257.725 40.4575 257.411C39.8241 257.11 39.432 256.621 39.3716 255.897C39.3415 255.511 39.3596 255.185 39.5345 254.884C39.6914 254.606 39.9508 254.377 40.2222 254.19C40.922 253.726 41.7545 253.472 42.5628 253.267C43.3289 253.068 44.1131 252.935 44.8913 252.766C46.0737 252.513 47.2138 252.073 48.2755 251.506C49.4518 250.884 50.4774 250.082 51.521 249.256C52.4258 248.538 53.5419 247.772 53.9098 246.613C53.9641 246.438 54.0003 246.245 54.1029 246.089C54.1873 245.95 54.308 245.871 54.4527 245.823C55.6351 246.426 57.3483 246.342 58.5246 246.306C61.3659 246.221 64.1348 245.467 66.7951 244.514C67.9172 244.11 69.0271 243.67 70.1311 243.223C70.1009 243.633 70.3422 244.104 70.4749 244.472C70.686 245.063 70.8007 245.678 70.8972 246.3C70.9937 246.897 71.0782 247.488 71.1506 248.085C71.1506 248.115 71.1505 248.152 71.1626 248.182C71.2531 248.912 71.3255 249.642 71.3617 250.378C71.3918 251.041 71.3918 251.711 71.3617 252.374C70.9937 252.326 70.6257 252.308 70.2577 252.314C69.739 252.181 69.2262 252.043 68.6833 252.067C67.2656 252.133 65.8842 252.573 64.5209 252.917C63.5738 253.153 62.6207 253.388 61.6917 253.683C61.6675 253.683 61.6434 253.689 61.6193 253.695ZM71.5246 253.943C71.3677 254.076 71.1143 254.124 70.9213 254.172C70.5956 254.256 70.2638 254.305 69.926 254.341C69.2322 254.413 68.5325 254.419 67.8327 254.474C67.1028 254.534 66.3789 254.679 65.649 254.775C64.8889 254.872 64.1288 254.95 63.3687 255.029C63.049 255.059 62.7353 255.107 62.4156 255.131C62.307 255.143 62.1924 255.155 62.0898 255.131C62.0416 255.119 62.0054 255.107 61.9631 255.077C61.9571 255.077 61.933 255.041 61.9269 255.029C61.9149 255.004 61.9088 254.908 61.9088 254.836C61.9088 254.727 61.9088 254.624 61.9088 254.516C61.9088 254.443 61.9209 254.371 61.9269 254.299C62.126 254.238 62.319 254.172 62.5181 254.118C63.604 253.955 64.6898 253.792 65.7756 253.599C67.0244 253.382 68.261 253.05 69.5278 252.923C69.6545 252.911 69.7812 252.899 69.9079 252.893C70.0406 252.929 70.1733 252.966 70.306 253.002C70.5956 253.074 70.8972 253.14 71.1928 253.159C71.2893 253.165 71.3858 253.165 71.4823 253.171C71.5246 253.171 71.5608 253.171 71.603 253.177C71.5788 253.177 71.603 253.177 71.6271 253.189C71.6512 253.273 71.6633 253.358 71.6633 253.442C71.6633 253.623 71.6633 253.822 71.5246 253.937V253.943ZM88.1077 247.832C86.5695 247.82 85.0372 247.82 83.499 247.814C81.9727 247.814 80.4526 247.808 78.9264 247.808C77.6113 247.808 76.2842 247.753 74.9751 247.868C74.3477 247.922 73.7143 247.989 73.0809 248.007C72.6225 248.019 72.1761 247.983 71.7297 247.91C71.6754 247.464 71.615 247.018 71.5487 246.577C71.4582 245.92 71.3737 245.25 71.1807 244.617C71.0963 244.351 70.9997 244.086 70.9092 243.82C70.8429 243.615 70.7464 243.386 70.7705 243.187C70.7765 243.115 70.7524 243.048 70.7102 242.994C70.7102 242.994 70.7102 242.994 70.7162 242.994C70.9153 242.915 71.0299 242.656 70.8489 242.487C70.1009 241.793 70.0587 240.665 70.113 239.712C70.1793 238.5 70.4689 237.299 70.7826 236.129C71.0721 235.037 71.416 233.951 71.7297 232.865C72.0976 231.581 72.3208 230.259 72.5139 228.932C73.0628 225.21 73.0146 221.488 73.1111 217.736C73.2076 213.869 73.4127 210.008 73.3162 206.142C73.2197 202.257 72.7853 198.372 72.532 194.493C72.4174 192.762 72.2364 191.061 72.0132 189.341C71.8141 187.809 71.7116 186.144 72.8758 184.962C73.6781 184.147 74.3477 183.514 74.39 182.289C74.4503 180.624 73.5756 179.11 73.8109 177.421C74.0702 175.521 74.6795 173.681 75.2828 171.871C75.8739 170.11 76.5074 168.361 77.177 166.623C77.9189 164.699 78.7394 162.811 79.4693 160.88C80.169 159.04 80.7904 157.17 81.4298 155.312C82.4011 152.471 83.3964 149.624 84.6753 146.909C85.1217 148.152 85.5922 149.382 86.0326 150.625C87.4985 154.763 88.8558 158.968 89.5917 163.305C90.3699 167.902 90.1165 172.638 90.201 177.283C90.201 177.433 90.207 177.584 90.2131 177.741C90.1045 178.338 90.1346 178.947 90.201 179.551C90.2915 180.347 90.3216 181.143 90.4061 181.946C90.4966 182.808 90.6233 183.665 90.7258 184.521C90.8223 185.348 90.8766 186.174 90.9189 187.007C91.0033 188.648 91.0938 190.288 91.3351 191.911C91.4557 192.701 91.6066 193.492 91.8177 194.264C92.0288 195.03 92.3847 195.766 92.4209 196.568C92.4571 197.322 92.3425 198.076 92.3787 198.836C92.4209 199.705 92.5175 200.568 92.5476 201.436C92.6019 203.18 92.5898 204.929 92.5235 206.679C92.4632 208.416 92.3485 210.147 92.24 211.879C92.1254 213.616 92.053 215.353 91.9564 217.091C91.8599 218.822 91.6367 220.547 91.51 222.278C91.4015 223.853 91.4618 225.439 91.2325 227.002C91.1783 227.382 91.124 227.756 91.0697 228.136C91.0576 228.208 91.0878 228.275 91.124 228.329C91.0275 228.781 90.9792 229.246 90.943 229.704C90.8766 230.633 90.9128 231.562 90.943 232.497C90.9792 233.396 91.0214 234.295 90.9852 235.194C90.9611 235.767 90.8827 236.334 90.8042 236.901C90.6172 238.18 90.4001 239.489 90.5087 240.78C90.6052 241.938 91.0274 243.121 92.1193 243.688C92.4813 243.875 92.8734 243.977 93.2655 244.08C93.3137 244.092 93.368 244.104 93.4163 244.116C93.2655 244.237 93.1328 244.369 93.0242 244.532C92.6321 245.105 92.7829 245.829 92.9699 246.475C92.7165 246.692 92.5295 246.975 92.4511 247.337C92.4089 247.524 92.4028 247.729 92.4028 247.934C90.9671 247.844 89.5254 247.868 88.0896 247.856L88.1077 247.832ZM93.2534 246.981C93.1328 247.162 93.0242 247.349 92.9216 247.542C92.9458 247.392 92.994 247.241 93.0785 247.114C93.1147 247.06 93.1629 247.012 93.2052 246.969C93.2172 246.975 93.2353 246.981 93.2474 246.987L93.2534 246.981ZM101.295 263.806C100.655 264.083 99.9736 264.252 99.2919 264.361C98.3991 264.5 97.4761 264.548 96.5773 264.463C95.8232 264.391 95.1597 264.294 94.3996 264.168C93.5611 264.023 92.7165 263.866 91.9021 263.601C91.7453 263.546 91.6066 263.504 91.4738 263.45C91.498 263.45 91.5221 263.45 91.5462 263.45C91.9685 263.462 92.3968 263.456 92.8191 263.456C93.5973 263.456 94.3815 263.444 95.1597 263.498C96.6617 263.601 98.1518 263.806 99.6599 263.83C100.251 263.836 100.836 263.812 101.421 263.739C101.379 263.758 101.337 263.782 101.295 263.8V263.806ZM104.667 256.856C104.763 257.556 104.836 258.298 104.679 258.998C104.606 259.336 104.486 259.637 104.293 259.921C104.13 260.168 103.943 260.397 103.786 260.651C103.478 261.152 103.376 261.725 103.201 262.28C103.153 262.424 103.104 262.533 103.008 262.599C102.809 262.744 102.555 262.816 102.32 262.889C101.699 263.076 101.047 263.148 100.402 263.166C98.9541 263.215 97.5123 263.046 96.0706 262.913C95.413 262.853 94.7495 262.798 94.0859 262.792C93.2474 262.786 92.4028 262.81 91.5643 262.786C91.4678 262.786 91.311 262.774 91.2567 262.768C91.2144 262.762 91.1722 262.75 91.124 262.738C91.1059 262.738 91.0878 262.726 91.0697 262.72C91.0697 262.72 91.0697 262.72 91.0576 262.714C91.0455 262.708 91.0033 262.678 90.9973 262.672C90.9732 262.648 90.949 262.629 90.9249 262.599C90.8585 262.527 90.8404 262.497 90.7741 262.406C90.4061 261.888 89.9778 261.32 89.8994 260.669C89.827 260.084 90.1045 259.535 90.394 259.046C90.8042 258.346 91.2687 257.689 91.6427 256.971C92.3727 255.572 92.9156 253.991 92.7949 252.392C92.7768 252.121 92.7286 251.85 92.6743 251.578C93.0423 251.608 93.4103 251.669 93.7843 251.65C94.0919 251.638 94.1703 251.192 93.8567 251.108C93.5249 251.017 93.0785 250.89 92.8734 250.607C92.7045 250.378 92.7286 250.052 92.7648 249.762C92.8191 249.274 92.8975 248.761 93.0302 248.284C93.1871 247.705 93.4706 247.174 93.8205 246.692C93.8386 246.668 93.8446 246.637 93.8386 246.613C95.0451 246.221 96.3481 246.378 97.5907 246.39C98.4715 246.402 99.3462 246.342 100.227 246.354C101.168 246.366 102.049 246.396 102.929 246.71C103.249 246.824 103.593 247.012 103.768 247.301C103.756 247.591 103.762 247.88 103.768 248.164C103.599 248.29 103.533 248.58 103.768 248.731C103.768 248.731 103.768 248.731 103.762 248.731C103.762 248.731 103.768 248.743 103.774 248.749C103.798 248.827 103.774 248.737 103.786 248.779C103.798 248.821 103.81 248.863 103.822 248.9C103.877 249.099 103.895 249.256 103.913 249.449C103.961 249.949 103.973 250.45 103.973 250.951C103.973 251.415 103.973 251.88 103.985 252.344C104.009 253.002 104.124 253.659 104.232 254.311C104.377 255.155 104.546 256 104.661 256.85L104.667 256.856Z" fill="#DAE5EB"/>
<path d="M88.9704 244.466C88.9704 244.466 88.9945 244.43 88.9704 244.43C88.9462 244.43 88.9462 244.466 88.9704 244.466Z" fill="#DAE5EB"/>
</svg>
